<svg width="17" height="17" viewBox="0 0 17 17" fill="none" xmlns="http://www.w3.org/2000/svg">
<path d="M3.50142 3.99972C3.50142 3.55262 3.84738 3.19017 4.27415 3.19017H12.7287C13.1555 3.19017 13.5014 3.55262 13.5014 3.99972C13.5014 4.44681 13.1555 4.80926 12.7287 4.80926H4.27415C3.84738 4.80926 3.50142 4.44681 3.50142 3.99972Z" fill="#76767A"/>
<path d="M3.50142 6.38072C3.50142 5.93362 3.84738 5.57118 4.27415 5.57118H12.7287C13.1555 5.57118 13.5014 5.93362 13.5014 6.38072C13.5014 6.82782 13.1555 7.19026 12.7287 7.19026H4.27415C3.84738 7.19026 3.50142 6.82782 3.50142 6.38072Z" fill="#76767A"/>
<path d="M1.54545 10.4764V1.61908H15.4545V10.4764H10.1463C10.2565 10.7221 10.3182 10.9965 10.3182 11.286C10.3182 11.5754 10.2565 11.8498 10.1463 12.0955H16.0758C16.487 12.0955 17 11.768 17 11.1469V0.948609C17 0.327302 16.4868 0 16.0758 0H0.924242C0.512976 0 0 0.327438 0 0.948609V11.1469C0 11.7679 0.512829 12.0955 0.924242 12.0955H6.85372C6.74345 11.8498 6.68182 11.5754 6.68182 11.286C6.68182 10.9965 6.74345 10.7221 6.85372 10.4764H1.54545Z" fill="#76767A"/>
<path fill-rule="evenodd" clip-rule="evenodd" d="M11.3419 11.1137C11.2683 9.61833 10.0247 8.42838 8.50142 8.42838C6.97811 8.42838 5.73453 9.61833 5.66093 11.1137L2.75748 13.8835C2.5905 14.0428 2.54501 14.2905 2.6446 14.4981C2.74419 14.7058 2.96646 14.8267 3.19617 14.7981L5.12029 14.5592V16.4663C5.12029 16.6821 5.25117 16.8767 5.45191 16.9594C5.65264 17.042 5.88369 16.9963 6.03733 16.8437L8.50142 14.3954L10.9655 16.8437C11.1191 16.9963 11.3502 17.042 11.5509 16.9594C11.7517 16.8767 11.8825 16.6821 11.8825 16.4663V14.5592L13.8067 14.7981C14.0364 14.8267 14.2587 14.7058 14.3582 14.4981C14.4579 14.2905 14.4123 14.0428 14.2453 13.8835L11.3419 11.1137ZM10.271 11.254C10.271 12.225 9.47872 13.0122 8.50142 13.0122C7.52412 13.0122 6.73186 12.225 6.73186 11.254C6.73186 10.283 7.52412 9.49584 8.50142 9.49584C9.47872 9.49584 10.271 10.283 10.271 11.254ZM9.51651 13.8944L10.8082 15.1777V13.9546C10.8082 13.8015 10.8743 13.6558 10.9898 13.5544C11.1054 13.4531 11.2591 13.406 11.412 13.425L12.3333 13.5394L11.1128 12.375C10.8096 13.0713 10.2325 13.6225 9.51651 13.8944ZM5.89006 12.375L4.66947 13.5394L5.59085 13.425C5.74375 13.406 5.89748 13.4531 6.01299 13.5544C6.1285 13.6558 6.19467 13.8015 6.19467 13.9546V15.1777L7.48633 13.8944C6.77032 13.6225 6.19326 13.0713 5.89006 12.375Z" fill="#76767A"/>
</svg>
