<svg width="22" height="9" viewBox="0 0 22 9" fill="none" xmlns="http://www.w3.org/2000/svg">
<path d="M6.89258 7.68164V9H1.05664V7.875L3.81641 4.91602C4.09375 4.60742 4.3125 4.33594 4.47266 4.10156C4.63281 3.86328 4.74805 3.65039 4.81836 3.46289C4.89258 3.27148 4.92969 3.08984 4.92969 2.91797C4.92969 2.66016 4.88672 2.43945 4.80078 2.25586C4.71484 2.06836 4.58789 1.92383 4.41992 1.82227C4.25586 1.7207 4.05273 1.66992 3.81055 1.66992C3.55273 1.66992 3.33008 1.73242 3.14258 1.85742C2.95898 1.98242 2.81836 2.15625 2.7207 2.37891C2.62695 2.60156 2.58008 2.85352 2.58008 3.13477H0.886719C0.886719 2.62695 1.00781 2.16211 1.25 1.74023C1.49219 1.31445 1.83398 0.976563 2.27539 0.726562C2.7168 0.472656 3.24023 0.345703 3.8457 0.345703C4.44336 0.345703 4.94727 0.443359 5.35742 0.638672C5.77148 0.830078 6.08398 1.10742 6.29492 1.4707C6.50977 1.83008 6.61719 2.25977 6.61719 2.75977C6.61719 3.04102 6.57227 3.31641 6.48242 3.58594C6.39258 3.85156 6.26367 4.11719 6.0957 4.38281C5.93164 4.64453 5.73242 4.91016 5.49805 5.17969C5.26367 5.44922 5.00391 5.72852 4.71875 6.01758L3.23633 7.68164H6.89258ZM9.88086 0.46875V9H8.12305V0.46875H9.88086ZM14.9902 0.46875L11.6094 4.68164L9.6582 6.7793L9.3418 5.11523L10.6602 3.31055L12.834 0.46875H14.9902ZM12.9922 9L10.4785 5.05664L11.7793 3.9668L15.0723 9H12.9922ZM21.166 4.24805V5.71875H15.3184V4.24805H21.166ZM19.0449 1.93359V8.14453H17.4453V1.93359H19.0449Z" fill="#8E94AA"/>
</svg>
