<svg width="15" height="9" viewBox="0 0 15 9" fill="none" xmlns="http://www.w3.org/2000/svg">
<path d="M6.66211 7.68164V9H0.826172V7.875L3.58594 4.91602C3.86328 4.60742 4.08203 4.33594 4.24219 4.10156C4.40234 3.86328 4.51758 3.65039 4.58789 3.46289C4.66211 3.27148 4.69922 3.08984 4.69922 2.91797C4.69922 2.66016 4.65625 2.43945 4.57031 2.25586C4.48438 2.06836 4.35742 1.92383 4.18945 1.82227C4.02539 1.7207 3.82227 1.66992 3.58008 1.66992C3.32227 1.66992 3.09961 1.73242 2.91211 1.85742C2.72852 1.98242 2.58789 2.15625 2.49023 2.37891C2.39648 2.60156 2.34961 2.85352 2.34961 3.13477H0.65625C0.65625 2.62695 0.777344 2.16211 1.01953 1.74023C1.26172 1.31445 1.60352 0.976563 2.04492 0.726562C2.48633 0.472656 3.00977 0.345703 3.61523 0.345703C4.21289 0.345703 4.7168 0.443359 5.12695 0.638672C5.54102 0.830078 5.85352 1.10742 6.06445 1.4707C6.2793 1.83008 6.38672 2.25977 6.38672 2.75977C6.38672 3.04102 6.3418 3.31641 6.25195 3.58594C6.16211 3.85156 6.0332 4.11719 5.86523 4.38281C5.70117 4.64453 5.50195 4.91016 5.26758 5.17969C5.0332 5.44922 4.77344 5.72852 4.48828 6.01758L3.00586 7.68164H6.66211ZM9.65039 0.46875V9H7.89258V0.46875H9.65039ZM14.7598 0.46875L11.3789 4.68164L9.42773 6.7793L9.11133 5.11523L10.4297 3.31055L12.6035 0.46875H14.7598ZM12.7617 9L10.248 5.05664L11.5488 3.9668L14.8418 9H12.7617Z" fill="#8E94AA"/>
</svg>
