<svg width="32" height="32" viewBox="0 0 32 32" fill="none" xmlns="http://www.w3.org/2000/svg">
<path d="M15.872 1.47205C7.872 1.47205 1.344 8.00005 1.344 16.128C1.344 24.256 7.872 30.656 15.872 30.656C23.872 30.656 30.4 24.128 30.4 16.128C30.4 8.12805 24 1.47205 15.872 1.47205V1.47205ZM15.872 32C7.2 32 0 24.8 0 16.128C0 7.45605 7.2 0.128052 15.872 0.128052C24.544 0.128052 31.744 7.32805 31.744 16C31.744 24.672 24.672 32 15.872 32ZM13.344 22.784L6.4 15.872C6.144 15.584 6.144 15.2 6.4 14.944C6.656 14.656 7.2 14.656 7.456 14.944L13.856 21.344L24.416 10.784C24.672 10.528 25.056 10.528 25.344 10.784C25.6 11.072 25.6 11.456 25.344 11.744L14.272 22.784C14.144 22.944 14.016 23.072 13.728 23.072C13.44 23.072 13.472 22.944 13.344 22.784V22.784Z" fill="black"/>
</svg>
