<!-- Generated by IcoMoon.io -->
<svg version="1.1" xmlns="http://www.w3.org/2000/svg" width="32" height="32" viewBox="0 0 32 32">
<title>accordion</title>
<path d="M30.016 8h-28c-1.12 0-2.016 0.896-2.016 1.984v12c0 1.12 0.896 2.016 2.016 2.016h28c1.088 0 1.984-0.896 1.984-2.016v-12c0-1.088-0.896-1.984-1.984-1.984zM30.656 21.984c0 0.384-0.288 0.672-0.64 0.672h-28c-0.384 0-0.672-0.288-0.672-0.672v-12c0-0.352 0.288-0.64 0.672-0.64h28c0.352 0 0.64 0.288 0.64 0.64v12zM3.328 5.344h25.344c0.352 0 0.672-0.32 0.672-0.672s-0.32-0.672-0.672-0.672h-25.344c-0.352 0-0.672 0.288-0.672 0.672s0.32 0.672 0.672 0.672zM3.328 1.344h25.344c0.352 0 0.672-0.32 0.672-0.672s-0.32-0.672-0.672-0.672h-25.344c-0.352 0-0.672 0.288-0.672 0.672s0.32 0.672 0.672 0.672zM28.672 30.656h-25.344c-0.352 0-0.672 0.32-0.672 0.672s0.32 0.672 0.672 0.672h25.344c0.352 0 0.672-0.288 0.672-0.672s-0.32-0.672-0.672-0.672zM28.672 26.656h-25.344c-0.352 0-0.672 0.32-0.672 0.672s0.32 0.672 0.672 0.672h25.344c0.352 0 0.672-0.288 0.672-0.672s-0.32-0.672-0.672-0.672z"></path>
</svg>
