<svg width="16" height="16" viewBox="0 0 16 16" fill="none" xmlns="http://www.w3.org/2000/svg">
<path d="M8.37654 4.26563H7.62498C7.55623 4.26563 7.49998 4.32188 7.49998 4.39063V8.69219C7.49998 8.73281 7.51873 8.77031 7.55154 8.79375L10.1344 10.6797C10.1906 10.7203 10.2687 10.7094 10.3094 10.6531L10.7562 10.0438C10.7984 9.98594 10.7859 9.90781 10.7297 9.86875L8.50154 8.25781V4.39063C8.50154 4.32188 8.44529 4.26563 8.37654 4.26563ZM11.8109 5.44063L14.2609 6.03906C14.339 6.05781 14.4156 5.99844 14.4156 5.91875L14.4281 3.39531C14.4281 3.29063 14.3078 3.23125 14.2265 3.29688L11.764 5.22031C11.7454 5.23471 11.7313 5.25407 11.7232 5.27616C11.7151 5.29825 11.7134 5.32218 11.7183 5.3452C11.7232 5.36821 11.7345 5.38938 11.7508 5.40626C11.7672 5.42314 11.7881 5.43505 11.8109 5.44063ZM14.4312 10.1453L13.5453 9.84063C13.5144 9.83004 13.4806 9.83196 13.4511 9.84597C13.4216 9.85999 13.3988 9.88499 13.3875 9.91563C13.3578 9.99531 13.3265 10.0734 13.2937 10.1516C13.0156 10.8094 12.6172 11.4016 12.1078 11.9094C11.6041 12.4147 11.0071 12.8174 10.35 13.0953C9.66924 13.3831 8.9375 13.5309 8.19842 13.5297C7.45154 13.5297 6.72811 13.3844 6.04686 13.0953C5.38973 12.8174 4.79276 12.4147 4.28904 11.9094C3.78123 11.4016 3.38279 10.8094 3.10311 10.1516C2.81688 9.47044 2.67024 8.73882 2.67186 8C2.67186 7.25313 2.81717 6.52813 3.10623 5.84688C3.38436 5.18906 3.78279 4.59688 4.29217 4.08906C4.79589 3.58378 5.39286 3.18103 6.04998 2.90313C6.72811 2.61406 7.45311 2.46875 8.19998 2.46875C8.94686 2.46875 9.67029 2.61406 10.3515 2.90313C11.0087 3.18103 11.6056 3.58378 12.1094 4.08906C12.2687 4.25 12.4187 4.41719 12.5562 4.59375L13.4906 3.8625C12.2609 2.29063 10.3469 1.27969 8.19686 1.28125C4.45311 1.28281 1.44686 4.32344 1.48436 8.06875C1.52186 11.7484 4.51404 14.7188 8.19998 14.7188C11.0984 14.7188 13.5672 12.8813 14.5078 10.3078C14.5312 10.2422 14.4969 10.1688 14.4312 10.1453Z" fill="white"/>
</svg>
