<svg width="16" height="16" viewBox="0 0 16 16" fill="none" xmlns="http://www.w3.org/2000/svg">
<path d="M12 1.293L5.283 8.0005C5.10109 8.19093 4.99957 8.44414 4.99957 8.7075C4.99957 8.97085 5.10109 9.22407 5.283 9.4145L6.576 10.7075C6.76368 10.8949 7.01805 11.0001 7.28325 11.0001C7.54846 11.0001 7.80282 10.8949 7.9905 10.7075L14.7075 4.0005C14.8947 3.81284 14.9999 3.55858 14.9999 3.2935C14.9999 3.02842 14.8947 2.77416 14.7075 2.5865L13.414 1.293C13.2265 1.10553 12.9722 1.00021 12.707 1.00021C12.4418 1.00021 12.1875 1.10553 12 1.293ZM7.283 10.0005L5.9905 8.7075L7.7405 6.9575L9.034 8.251L7.284 10.001L7.283 10.0005ZM14 3.2935L9.7405 7.5435L8.447 6.2505L12.707 2L14 3.2935Z" fill="white"/>
<path d="M4.5 12.5L3.5 11.5L4.5 10.5L5.5 11.5L4.5 12.5Z" fill="white"/>
<path d="M1 10.5L1 15L5.5 15L5.5 14L2 14L2 10.5L1 10.5Z" fill="white"/>
</svg>
