<svg width="20" height="20" viewBox="0 0 20 20" fill="none" xmlns="http://www.w3.org/2000/svg">
<mask id="path-1-outside-1" maskUnits="userSpaceOnUse" x="0" y="0" width="20" height="20" fill="black">
<rect fill="white" width="20" height="20"/>
<path d="M18.0733 8H16.3893C16.1187 8 15.8957 7.851 15.792 7.601C15.6883 7.351 15.741 7.08767 15.932 6.89633L17.1227 5.706C17.2977 5.531 17.394 5.298 17.394 5.05067C17.394 4.803 17.2977 4.57033 17.1227 4.395L15.605 2.87733C15.255 2.52733 14.6447 2.52667 14.294 2.87733L13.1037 4.06767C12.9123 4.25867 12.6483 4.312 12.399 4.208C12.149 4.10433 12 3.88133 12 3.61067V1.92667C12 1.41567 11.5843 1 11.0733 1H8.92667C8.41567 1 8 1.41567 8 1.92667V3.61067C8 3.88133 7.851 4.10433 7.601 4.208C7.35167 4.31233 7.08767 4.25867 6.89633 4.06767L5.706 2.87733C5.35533 2.52667 4.745 2.52733 4.395 2.87733L2.87733 4.395C2.70233 4.57 2.606 4.803 2.606 5.05067C2.606 5.298 2.70233 5.53067 2.87733 5.706L4.068 6.89633C4.259 7.08767 4.31133 7.351 4.208 7.601C4.10467 7.851 3.88133 8 3.61067 8H1.92667C1.41567 8 1 8.41567 1 8.92667V11.073C1 11.5843 1.41567 12 1.92667 12H3.61067C3.88133 12 4.10433 12.149 4.208 12.399C4.31167 12.649 4.259 12.9123 4.068 13.1037L2.87733 14.294C2.70233 14.469 2.606 14.702 2.606 14.9493C2.606 15.197 2.70233 15.4297 2.87733 15.605L4.395 17.1227C4.74533 17.473 5.35533 17.4737 5.706 17.1227L6.89633 15.932C7.08767 15.741 7.35067 15.6883 7.601 15.792C7.851 15.8957 8 16.1187 8 16.3893V18.0733C8 18.5843 8.41567 19 8.92667 19H11.073C11.584 19 11.9997 18.5843 11.9997 18.0733V16.3893C11.9997 16.1187 12.1487 15.8957 12.3987 15.792C12.649 15.688 12.912 15.741 13.1033 15.932L14.2937 17.1227C14.6443 17.4733 15.2547 17.4727 15.6047 17.1227L17.1223 15.605C17.2973 15.43 17.3937 15.197 17.3937 14.9493C17.3937 14.702 17.2973 14.4693 17.1223 14.294L15.9317 13.1037C15.7407 12.9123 15.6883 12.649 15.7917 12.399C15.895 12.149 16.1187 12 16.3893 12H18.0733C18.5843 12 19 11.5843 19 11.0733V8.92667C19 8.41567 18.5843 8 18.0733 8ZM18.3333 11.0733C18.3333 11.2167 18.2167 11.3333 18.0733 11.3333H16.3893C15.848 11.3333 15.383 11.644 15.176 12.144C14.9687 12.644 15.0777 13.1927 15.4607 13.5753L16.6513 14.7657C16.753 14.8673 16.753 15.0323 16.6513 15.1337L15.1337 16.6513C15.0323 16.7527 14.8673 16.7533 14.7657 16.6513L13.5753 15.4607C13.1923 15.0777 12.644 14.9693 12.144 15.176C11.644 15.383 11.3333 15.848 11.3333 16.3893V18.0733C11.3333 18.2167 11.2167 18.3333 11.0733 18.3333H8.92667C8.78333 18.3333 8.66667 18.2167 8.66667 18.0733V16.3893C8.66667 15.848 8.356 15.383 7.856 15.176C7.68833 15.1063 7.51567 15.0723 7.345 15.0723C7.007 15.0723 6.67933 15.2057 6.42467 15.4603L5.23433 16.651C5.13233 16.753 4.96733 16.7523 4.86633 16.651L3.34867 15.1333C3.247 15.0317 3.247 14.8667 3.34867 14.7653L4.53933 13.575C4.922 13.1923 5.03133 12.6437 4.824 12.1437C4.617 11.644 4.152 11.3333 3.61067 11.3333H1.92667C1.78333 11.3333 1.66667 11.2167 1.66667 11.0733V8.92667C1.66667 8.78333 1.78333 8.66667 1.92667 8.66667H3.61067C4.152 8.66667 4.617 8.356 4.824 7.856C5.03133 7.356 4.92233 6.80733 4.53933 6.42467L3.34867 5.23433C3.247 5.13267 3.247 4.96767 3.34867 4.86633L4.86633 3.34867C4.96767 3.247 5.13267 3.247 5.23433 3.34867L6.42467 4.539C6.807 4.92133 7.35533 5.031 7.856 4.82367C8.356 4.617 8.66667 4.152 8.66667 3.61067V1.92667C8.66667 1.78333 8.78333 1.66667 8.92667 1.66667H11.073C11.2167 1.66667 11.3333 1.78333 11.3333 1.92667V3.61067C11.3333 4.152 11.644 4.617 12.144 4.824C12.6447 5.03133 13.1927 4.922 13.5753 4.53933L14.7657 3.349C14.8677 3.24733 15.0327 3.24733 15.1337 3.349L16.6513 4.86667C16.753 4.96833 16.753 5.13333 16.6513 5.23467L15.4607 6.425C15.078 6.80767 14.9687 7.35633 15.176 7.85633C15.383 8.35633 15.848 8.667 16.3893 8.667H18.0733C18.2167 8.66667 18.3333 8.78333 18.3333 8.92667V11.0733Z"/>
</mask>
<path d="M18.0733 8H16.3893C16.1187 8 15.8957 7.851 15.792 7.601C15.6883 7.351 15.741 7.08767 15.932 6.89633L17.1227 5.706C17.2977 5.531 17.394 5.298 17.394 5.05067C17.394 4.803 17.2977 4.57033 17.1227 4.395L15.605 2.87733C15.255 2.52733 14.6447 2.52667 14.294 2.87733L13.1037 4.06767C12.9123 4.25867 12.6483 4.312 12.399 4.208C12.149 4.10433 12 3.88133 12 3.61067V1.92667C12 1.41567 11.5843 1 11.0733 1H8.92667C8.41567 1 8 1.41567 8 1.92667V3.61067C8 3.88133 7.851 4.10433 7.601 4.208C7.35167 4.31233 7.08767 4.25867 6.89633 4.06767L5.706 2.87733C5.35533 2.52667 4.745 2.52733 4.395 2.87733L2.87733 4.395C2.70233 4.57 2.606 4.803 2.606 5.05067C2.606 5.298 2.70233 5.53067 2.87733 5.706L4.068 6.89633C4.259 7.08767 4.31133 7.351 4.208 7.601C4.10467 7.851 3.88133 8 3.61067 8H1.92667C1.41567 8 1 8.41567 1 8.92667V11.073C1 11.5843 1.41567 12 1.92667 12H3.61067C3.88133 12 4.10433 12.149 4.208 12.399C4.31167 12.649 4.259 12.9123 4.068 13.1037L2.87733 14.294C2.70233 14.469 2.606 14.702 2.606 14.9493C2.606 15.197 2.70233 15.4297 2.87733 15.605L4.395 17.1227C4.74533 17.473 5.35533 17.4737 5.706 17.1227L6.89633 15.932C7.08767 15.741 7.35067 15.6883 7.601 15.792C7.851 15.8957 8 16.1187 8 16.3893V18.0733C8 18.5843 8.41567 19 8.92667 19H11.073C11.584 19 11.9997 18.5843 11.9997 18.0733V16.3893C11.9997 16.1187 12.1487 15.8957 12.3987 15.792C12.649 15.688 12.912 15.741 13.1033 15.932L14.2937 17.1227C14.6443 17.4733 15.2547 17.4727 15.6047 17.1227L17.1223 15.605C17.2973 15.43 17.3937 15.197 17.3937 14.9493C17.3937 14.702 17.2973 14.4693 17.1223 14.294L15.9317 13.1037C15.7407 12.9123 15.6883 12.649 15.7917 12.399C15.895 12.149 16.1187 12 16.3893 12H18.0733C18.5843 12 19 11.5843 19 11.0733V8.92667C19 8.41567 18.5843 8 18.0733 8ZM18.3333 11.0733C18.3333 11.2167 18.2167 11.3333 18.0733 11.3333H16.3893C15.848 11.3333 15.383 11.644 15.176 12.144C14.9687 12.644 15.0777 13.1927 15.4607 13.5753L16.6513 14.7657C16.753 14.8673 16.753 15.0323 16.6513 15.1337L15.1337 16.6513C15.0323 16.7527 14.8673 16.7533 14.7657 16.6513L13.5753 15.4607C13.1923 15.0777 12.644 14.9693 12.144 15.176C11.644 15.383 11.3333 15.848 11.3333 16.3893V18.0733C11.3333 18.2167 11.2167 18.3333 11.0733 18.3333H8.92667C8.78333 18.3333 8.66667 18.2167 8.66667 18.0733V16.3893C8.66667 15.848 8.356 15.383 7.856 15.176C7.68833 15.1063 7.51567 15.0723 7.345 15.0723C7.007 15.0723 6.67933 15.2057 6.42467 15.4603L5.23433 16.651C5.13233 16.753 4.96733 16.7523 4.86633 16.651L3.34867 15.1333C3.247 15.0317 3.247 14.8667 3.34867 14.7653L4.53933 13.575C4.922 13.1923 5.03133 12.6437 4.824 12.1437C4.617 11.644 4.152 11.3333 3.61067 11.3333H1.92667C1.78333 11.3333 1.66667 11.2167 1.66667 11.0733V8.92667C1.66667 8.78333 1.78333 8.66667 1.92667 8.66667H3.61067C4.152 8.66667 4.617 8.356 4.824 7.856C5.03133 7.356 4.92233 6.80733 4.53933 6.42467L3.34867 5.23433C3.247 5.13267 3.247 4.96767 3.34867 4.86633L4.86633 3.34867C4.96767 3.247 5.13267 3.247 5.23433 3.34867L6.42467 4.539C6.807 4.92133 7.35533 5.031 7.856 4.82367C8.356 4.617 8.66667 4.152 8.66667 3.61067V1.92667C8.66667 1.78333 8.78333 1.66667 8.92667 1.66667H11.073C11.2167 1.66667 11.3333 1.78333 11.3333 1.92667V3.61067C11.3333 4.152 11.644 4.617 12.144 4.824C12.6447 5.03133 13.1927 4.922 13.5753 4.53933L14.7657 3.349C14.8677 3.24733 15.0327 3.24733 15.1337 3.349L16.6513 4.86667C16.753 4.96833 16.753 5.13333 16.6513 5.23467L15.4607 6.425C15.078 6.80767 14.9687 7.35633 15.176 7.85633C15.383 8.35633 15.848 8.667 16.3893 8.667H18.0733C18.2167 8.66667 18.3333 8.78333 18.3333 8.92667V11.0733Z" fill="#343B4C"/>
<path d="M18.0733 8H16.3893C16.1187 8 15.8957 7.851 15.792 7.601C15.6883 7.351 15.741 7.08767 15.932 6.89633L17.1227 5.706C17.2977 5.531 17.394 5.298 17.394 5.05067C17.394 4.803 17.2977 4.57033 17.1227 4.395L15.605 2.87733C15.255 2.52733 14.6447 2.52667 14.294 2.87733L13.1037 4.06767C12.9123 4.25867 12.6483 4.312 12.399 4.208C12.149 4.10433 12 3.88133 12 3.61067V1.92667C12 1.41567 11.5843 1 11.0733 1H8.92667C8.41567 1 8 1.41567 8 1.92667V3.61067C8 3.88133 7.851 4.10433 7.601 4.208C7.35167 4.31233 7.08767 4.25867 6.89633 4.06767L5.706 2.87733C5.35533 2.52667 4.745 2.52733 4.395 2.87733L2.87733 4.395C2.70233 4.57 2.606 4.803 2.606 5.05067C2.606 5.298 2.70233 5.53067 2.87733 5.706L4.068 6.89633C4.259 7.08767 4.31133 7.351 4.208 7.601C4.10467 7.851 3.88133 8 3.61067 8H1.92667C1.41567 8 1 8.41567 1 8.92667V11.073C1 11.5843 1.41567 12 1.92667 12H3.61067C3.88133 12 4.10433 12.149 4.208 12.399C4.31167 12.649 4.259 12.9123 4.068 13.1037L2.87733 14.294C2.70233 14.469 2.606 14.702 2.606 14.9493C2.606 15.197 2.70233 15.4297 2.87733 15.605L4.395 17.1227C4.74533 17.473 5.35533 17.4737 5.706 17.1227L6.89633 15.932C7.08767 15.741 7.35067 15.6883 7.601 15.792C7.851 15.8957 8 16.1187 8 16.3893V18.0733C8 18.5843 8.41567 19 8.92667 19H11.073C11.584 19 11.9997 18.5843 11.9997 18.0733V16.3893C11.9997 16.1187 12.1487 15.8957 12.3987 15.792C12.649 15.688 12.912 15.741 13.1033 15.932L14.2937 17.1227C14.6443 17.4733 15.2547 17.4727 15.6047 17.1227L17.1223 15.605C17.2973 15.43 17.3937 15.197 17.3937 14.9493C17.3937 14.702 17.2973 14.4693 17.1223 14.294L15.9317 13.1037C15.7407 12.9123 15.6883 12.649 15.7917 12.399C15.895 12.149 16.1187 12 16.3893 12H18.0733C18.5843 12 19 11.5843 19 11.0733V8.92667C19 8.41567 18.5843 8 18.0733 8ZM18.3333 11.0733C18.3333 11.2167 18.2167 11.3333 18.0733 11.3333H16.3893C15.848 11.3333 15.383 11.644 15.176 12.144C14.9687 12.644 15.0777 13.1927 15.4607 13.5753L16.6513 14.7657C16.753 14.8673 16.753 15.0323 16.6513 15.1337L15.1337 16.6513C15.0323 16.7527 14.8673 16.7533 14.7657 16.6513L13.5753 15.4607C13.1923 15.0777 12.644 14.9693 12.144 15.176C11.644 15.383 11.3333 15.848 11.3333 16.3893V18.0733C11.3333 18.2167 11.2167 18.3333 11.0733 18.3333H8.92667C8.78333 18.3333 8.66667 18.2167 8.66667 18.0733V16.3893C8.66667 15.848 8.356 15.383 7.856 15.176C7.68833 15.1063 7.51567 15.0723 7.345 15.0723C7.007 15.0723 6.67933 15.2057 6.42467 15.4603L5.23433 16.651C5.13233 16.753 4.96733 16.7523 4.86633 16.651L3.34867 15.1333C3.247 15.0317 3.247 14.8667 3.34867 14.7653L4.53933 13.575C4.922 13.1923 5.03133 12.6437 4.824 12.1437C4.617 11.644 4.152 11.3333 3.61067 11.3333H1.92667C1.78333 11.3333 1.66667 11.2167 1.66667 11.0733V8.92667C1.66667 8.78333 1.78333 8.66667 1.92667 8.66667H3.61067C4.152 8.66667 4.617 8.356 4.824 7.856C5.03133 7.356 4.92233 6.80733 4.53933 6.42467L3.34867 5.23433C3.247 5.13267 3.247 4.96767 3.34867 4.86633L4.86633 3.34867C4.96767 3.247 5.13267 3.247 5.23433 3.34867L6.42467 4.539C6.807 4.92133 7.35533 5.031 7.856 4.82367C8.356 4.617 8.66667 4.152 8.66667 3.61067V1.92667C8.66667 1.78333 8.78333 1.66667 8.92667 1.66667H11.073C11.2167 1.66667 11.3333 1.78333 11.3333 1.92667V3.61067C11.3333 4.152 11.644 4.617 12.144 4.824C12.6447 5.03133 13.1927 4.922 13.5753 4.53933L14.7657 3.349C14.8677 3.24733 15.0327 3.24733 15.1337 3.349L16.6513 4.86667C16.753 4.96833 16.753 5.13333 16.6513 5.23467L15.4607 6.425C15.078 6.80767 14.9687 7.35633 15.176 7.85633C15.383 8.35633 15.848 8.667 16.3893 8.667H18.0733C18.2167 8.66667 18.3333 8.78333 18.3333 8.92667V11.0733Z" stroke="#343B4C" stroke-width="0.4" mask="url(#path-1-outside-1)"/>
<path d="M10 6.90001C8.29044 6.90001 6.9 8.29045 6.9 10C6.9 11.7096 8.29044 13.1 10 13.1C11.7096 13.1 13.1 11.7096 13.1 10C13.1 8.29045 11.7096 6.90001 10 6.90001ZM10 12.2333C8.7689 12.2333 7.76667 11.2311 7.76667 10C7.76667 8.7689 8.7689 7.76667 10 7.76667C11.2311 7.76667 12.2333 8.7689 12.2333 10C12.2333 11.2311 11.2311 12.2333 10 12.2333Z" fill="#343B4C" stroke="#343B4C" stroke-width="0.2"/>
</svg>
