<!-- Generated by IcoMoon.io -->
<svg version="1.1" xmlns="http://www.w3.org/2000/svg" width="32" height="32" viewBox="0 0 32 32">
<title>archive</title>
<path d="M28.672 1.984c1.728 0 3.2 1.216 3.328 2.816v22.272c0 1.6-1.344 2.944-3.072 2.944h-25.6c-1.728 0-3.2-1.216-3.328-2.816v-22.272c0-1.6 1.344-2.944 3.072-2.944h25.6zM28.672 3.328h-25.344c-1.056 0-1.856 0.672-1.984 1.472v22.144c0 0.8 0.8 1.6 1.856 1.6h25.472c1.056 0 1.856-0.672 1.984-1.472v-22.144c0-0.8-0.8-1.6-1.856-1.6h-0.128zM7.328 21.056c0.416 0 0.672 0.288 0.672 0.672v2.656c0 0.416-0.256 0.672-0.672 0.672h-2.656c-0.416 0-0.672-0.256-0.672-0.672v-2.656c0-0.384 0.256-0.672 0.672-0.672h2.656zM14.016 23.744c0.384 0 0.64 0.256 0.64 0.64 0 0.416-0.256 0.672-0.64 0.672h-4c-0.416 0-0.672-0.256-0.672-0.672 0-0.384 0.256-0.64 0.672-0.64h4zM20.672 21.056c0.384 0 0.672 0.288 0.672 0.672v2.656c0 0.416-0.288 0.672-0.672 0.672h-2.656c-0.416 0-0.672-0.256-0.672-0.672v-2.656c0-0.384 0.256-0.672 0.672-0.672h2.656zM27.328 23.744c0.416 0 0.672 0.256 0.672 0.64 0 0.416-0.256 0.672-0.672 0.672h-4c-0.384 0-0.672-0.256-0.672-0.672 0-0.384 0.288-0.64 0.672-0.64h4zM6.656 22.4h-1.312v1.344h1.312v-1.344zM20 22.4h-1.344v1.344h1.344v-1.344zM14.016 21.056c0.384 0 0.64 0.288 0.64 0.672 0 0.416-0.256 0.672-0.64 0.672h-4c-0.416 0-0.672-0.256-0.672-0.672 0-0.384 0.256-0.672 0.672-0.672h4zM27.328 21.056c0.416 0 0.672 0.288 0.672 0.672 0 0.416-0.256 0.672-0.672 0.672h-4c-0.384 0-0.672-0.256-0.672-0.672 0-0.384 0.288-0.672 0.672-0.672h4zM7.328 14.4c0.416 0 0.672 0.256 0.672 0.672v2.656c0 0.416-0.256 0.672-0.672 0.672h-2.656c-0.416 0-0.672-0.256-0.672-0.672v-2.656c0-0.416 0.256-0.672 0.672-0.672h2.656zM14.016 17.056c0.384 0 0.64 0.288 0.64 0.672s-0.256 0.672-0.64 0.672h-4c-0.416 0-0.672-0.256-0.672-0.672s0.256-0.672 0.672-0.672h4zM20.672 14.4c0.384 0 0.672 0.256 0.672 0.672v2.656c0 0.416-0.288 0.672-0.672 0.672h-2.656c-0.416 0-0.672-0.256-0.672-0.672v-2.656c0-0.416 0.256-0.672 0.672-0.672h2.656zM27.328 17.056c0.416 0 0.672 0.288 0.672 0.672s-0.256 0.672-0.672 0.672h-4c-0.384 0-0.672-0.256-0.672-0.672s0.288-0.672 0.672-0.672h4zM6.656 15.744h-1.312v1.312h1.312v-1.312zM20 15.744h-1.344v1.312h1.344v-1.312zM14.016 14.4c0.384 0 0.64 0.256 0.64 0.672s-0.256 0.672-0.64 0.672h-4c-0.416 0-0.672-0.288-0.672-0.672s0.256-0.672 0.672-0.672h4zM27.328 14.4c0.416 0 0.672 0.256 0.672 0.672s-0.256 0.672-0.672 0.672h-4c-0.384 0-0.672-0.288-0.672-0.672s0.288-0.672 0.672-0.672h4zM7.328 7.744c0.416 0 0.672 0.256 0.672 0.64v2.688c0 0.384-0.256 0.672-0.672 0.672h-2.656c-0.416 0-0.672-0.288-0.672-0.672v-2.688c0-0.384 0.256-0.64 0.672-0.64h2.656zM14.016 10.4c0.384 0 0.64 0.256 0.64 0.672s-0.256 0.672-0.64 0.672h-4c-0.416 0-0.672-0.288-0.672-0.672s0.256-0.672 0.672-0.672h4zM20.672 7.744c0.384 0 0.672 0.256 0.672 0.64v2.688c0 0.384-0.288 0.672-0.672 0.672h-2.656c-0.416 0-0.672-0.288-0.672-0.672v-2.688c0-0.384 0.256-0.64 0.672-0.64h2.656zM27.328 10.4c0.416 0 0.672 0.256 0.672 0.672s-0.256 0.672-0.672 0.672h-4c-0.384 0-0.672-0.288-0.672-0.672s0.288-0.672 0.672-0.672h4zM6.656 9.056h-1.312v1.344h1.312v-1.344zM20 9.056h-1.344v1.344h1.344v-1.344zM14.016 7.744c0.384 0 0.64 0.256 0.64 0.64 0 0.416-0.256 0.672-0.64 0.672h-4c-0.416 0-0.672-0.256-0.672-0.672 0-0.384 0.256-0.64 0.672-0.64h4zM27.328 7.744c0.416 0 0.672 0.256 0.672 0.64 0 0.416-0.256 0.672-0.672 0.672h-4c-0.384 0-0.672-0.256-0.672-0.672 0-0.384 0.288-0.64 0.672-0.64h4z"></path>
</svg>
