<svg width="22" height="22" viewBox="0 0 22 22" fill="none" xmlns="http://www.w3.org/2000/svg">
<path d="M7.71297 11.6024L11.3338 15.2233C11.4967 15.3969 11.5855 15.6272 11.5817 15.8652C11.5778 16.1032 11.4815 16.3304 11.3131 16.4987C11.1447 16.667 10.9174 16.7632 10.6794 16.7669C10.4413 16.7706 10.2112 16.6815 10.0376 16.5185L4.85205 11.3339C4.76663 11.2489 4.69884 11.148 4.65259 11.0367C4.60633 10.9255 4.58252 10.8062 4.58252 10.6858C4.58252 10.5653 4.60633 10.4461 4.65259 10.3348C4.69884 10.2236 4.76663 10.1226 4.85205 10.0377L10.0376 4.85211C10.1222 4.76456 10.2233 4.69473 10.3352 4.64669C10.447 4.59865 10.5673 4.57336 10.689 4.5723C10.8107 4.57124 10.9314 4.59444 11.0441 4.64053C11.1567 4.68662 11.2591 4.75468 11.3452 4.84075C11.4312 4.92682 11.4993 5.02917 11.5454 5.14182C11.5915 5.25448 11.6147 5.37518 11.6136 5.4969C11.6126 5.61861 11.5873 5.7389 11.5392 5.85073C11.4912 5.96257 11.4214 6.06372 11.3338 6.14828L7.71297 9.76911H16.5001C16.7432 9.76911 16.9764 9.86569 17.1483 10.0376C17.3202 10.2095 17.4168 10.4427 17.4168 10.6858C17.4168 10.9289 17.3202 11.1621 17.1483 11.334C16.9764 11.5059 16.7432 11.6024 16.5001 11.6024H7.71297Z" fill="#76767A"/>
</svg>
