<svg width="32" height="32" viewBox="0 0 32 32" fill="none" xmlns="http://www.w3.org/2000/svg">
<g clip-path="url(#clip0_4013_1154)">
<path d="M30.9211 8H1.0817C0.79531 8.00081 0.520927 8.11515 0.318706 8.31794C0.116485 8.52073 0.00292854 8.79544 0.00292969 9.08183V23.6979C0.00309056 23.9841 0.11672 24.2587 0.318923 24.4614C0.521126 24.664 0.795416 24.7783 1.0817 24.7791H30.9211C31.0632 24.7791 31.2039 24.7511 31.3351 24.6967C31.4664 24.6424 31.5856 24.5627 31.6861 24.4622C31.7865 24.3618 31.8662 24.2425 31.9206 24.1112C31.975 23.98 32.0029 23.8393 32.0029 23.6972V9.08183C32.0029 8.93976 31.975 8.79908 31.9206 8.66783C31.8662 8.53658 31.7865 8.41732 31.6861 8.31686C31.5856 8.2164 31.4664 8.13672 31.3351 8.08235C31.2039 8.02798 31.0632 8 30.9211 8V8ZM30.5507 23.3672H1.4521V9.41183H30.5476L30.5507 23.3672Z" fill="black"/>
<path d="M3.30382 22.2162C3.38385 22.2479 3.4694 22.2632 3.55544 22.2614C3.64148 22.2595 3.72628 22.2406 3.8049 22.2056C3.88352 22.1706 3.95437 22.1202 4.0133 22.0575C4.07223 21.9948 4.11806 21.9209 4.1481 21.8403L5.46136 18.3377H9.43174L10.745 21.8403C10.792 21.9597 10.8737 22.0622 10.9796 22.1347C11.0854 22.2071 11.2106 22.2462 11.3389 22.2468C11.4235 22.2519 11.5084 22.2413 11.5893 22.2156C11.7478 22.1493 11.875 22.0248 11.9448 21.8677C12.0146 21.7107 12.0216 21.5328 11.9646 21.3707L8.05542 10.9583C7.86808 10.4581 7.02379 10.4581 6.83584 10.9583L2.92729 21.3707C2.89557 21.4509 2.88016 21.5365 2.88198 21.6227C2.88379 21.7089 2.90279 21.7939 2.93786 21.8726C2.97293 21.9513 3.02336 22.0223 3.0862 22.0813C3.14904 22.1403 3.22302 22.1862 3.30382 22.2162V22.2162ZM7.43155 13.024L8.93215 17.0575H5.93217L7.43155 13.024Z" fill="black"/>
<path d="M24.3791 22.2475C24.807 22.2504 25.2313 22.1683 25.6272 22.0059C26.0231 21.8435 26.3828 21.604 26.6853 21.3014C26.9879 20.9988 27.2274 20.6392 27.3898 20.2433C27.5522 19.8474 27.6343 19.4231 27.6314 18.9952C27.6304 18.8213 27.5609 18.6548 27.4379 18.5318C27.3149 18.4088 27.1484 18.3393 26.9744 18.3383C26.8006 18.3394 26.6342 18.409 26.5114 18.532C26.3885 18.655 26.3191 18.8214 26.3181 18.9952C26.322 19.5135 26.12 20.0122 25.7564 20.3816C25.3928 20.7511 24.8975 20.961 24.3791 20.9654C23.8579 20.9619 23.359 20.7531 22.9906 20.3843C22.6221 20.0156 22.4138 19.5165 22.4108 18.9952V16.3999C22.4096 16.1412 22.4598 15.8847 22.5583 15.6454C22.6568 15.4061 22.8018 15.1887 22.9848 15.0058C23.1678 14.8228 23.3853 14.6779 23.6246 14.5795C23.8639 14.481 24.1204 14.431 24.3791 14.4322C25.4738 14.4322 26.3181 15.3077 26.3181 16.4024C26.3245 16.5744 26.3957 16.7377 26.5174 16.8594C26.6391 16.9811 26.8024 17.0523 26.9744 17.0587C27.1465 17.0523 27.3099 16.9812 27.4317 16.8595C27.5535 16.7377 27.6248 16.5745 27.6314 16.4024C27.6322 15.9749 27.5486 15.5514 27.3855 15.1563C27.2224 14.7612 26.9829 14.4021 26.6808 14.0996C26.3787 13.7972 26.0199 13.5573 25.6249 13.3937C25.23 13.2302 24.8066 13.1462 24.3791 13.1465C23.9517 13.1459 23.5284 13.2297 23.1333 13.393C22.7383 13.5563 22.3794 13.7959 22.0771 14.0981C21.7749 14.4003 21.5352 14.7592 21.3718 15.1542C21.2084 15.5492 21.1246 15.9725 21.1251 16.3999V18.9952C21.1221 19.4233 21.2043 19.8477 21.3668 20.2437C21.5294 20.6397 21.769 20.9995 22.0717 21.3021C22.3745 21.6047 22.7344 21.8441 23.1305 22.0064C23.5267 22.1687 23.9511 22.2506 24.3791 22.2475V22.2475Z" fill="black"/>
<path d="M13.9661 22.2474C14.3414 22.2474 14.5918 21.9658 14.5918 21.5905C15.1612 22.015 15.8518 22.2453 16.562 22.2474C16.9891 22.2477 17.4121 22.1637 17.8068 22.0004C18.2014 21.837 18.56 21.5974 18.862 21.2954C19.164 20.9933 19.4035 20.6347 19.5668 20.24C19.7301 19.8453 19.8139 19.4223 19.8136 18.9952V16.3999C19.8142 15.9727 19.7305 15.5495 19.5673 15.1546C19.4041 14.7598 19.1646 14.401 18.8626 14.0988C18.5606 13.7966 18.2019 13.5569 17.8071 13.3935C17.4124 13.2301 16.9893 13.1462 16.562 13.1465V13.1465C15.8519 13.1487 15.1613 13.3787 14.5918 13.8028V11.1763C14.5918 10.8322 14.3102 10.52 13.9661 10.52C13.7941 10.5263 13.6308 10.5975 13.5091 10.7193C13.3874 10.841 13.3162 11.0042 13.3098 11.1763V21.5893C13.3075 21.6762 13.3229 21.7626 13.3551 21.8434C13.3873 21.9241 13.4355 21.9975 13.4969 22.0591C13.5582 22.1206 13.6315 22.169 13.7121 22.2014C13.7928 22.2338 13.8792 22.2495 13.9661 22.2474ZM14.5918 16.3999C14.5907 16.141 14.6409 15.8844 14.7395 15.645C14.8382 15.4056 14.9833 15.1881 15.1665 15.0051C15.3497 14.8221 15.5674 14.6773 15.8069 14.5789C16.0464 14.4806 16.3031 14.4307 16.562 14.4322C17.6561 14.4322 18.5004 15.3077 18.5004 16.4024V18.9977C18.5004 20.0917 17.6249 20.9679 16.562 20.9679C16.0405 20.9646 15.5412 20.756 15.1724 20.3873C14.8036 20.0185 14.595 19.5192 14.5918 18.9977V16.3999Z" fill="black"/>
</g>
<defs>
<clipPath id="clip0_4013_1154">
<rect width="32" height="16.7797" fill="white" transform="translate(0 8)"/>
</clipPath>
</defs>
</svg>
