<svg width="43" height="56" viewBox="0 0 43 56" fill="none" xmlns="http://www.w3.org/2000/svg">
<path d="M30.485 0H1.463C0.655 0 0 0.655 0 1.926V55C0 55.345 0.655 56 1.463 56H41.537C42.345 56 43 55.345 43 55V12.978C43 12.282 42.907 12.058 42.743 11.893L31.107 0.257C30.942 0.093 30.718 0 30.485 0Z" fill="#F7F8F9"/>
<path d="M31 0.151001V12H42.849L31 0.151001Z" fill="#E0E1E6"/>
<path d="M41.537 56H1.463C0.655 56 0 55.345 0 54.537V39H43V54.537C43 55.345 42.345 56 41.537 56Z" fill="#7CA727"/>
<path d="M20.0783 52.0001H17.9723L17.4393 50.5311H13.7213L13.1753 52.0001H11.0693L14.4233 43.3291H16.7373L20.0783 52.0001ZM16.9323 48.9061L15.5803 45.1751L14.2283 48.9061H16.9323Z" fill="white"/>
<path d="M25.0146 52.0001H22.7006L19.3466 43.3291H21.4526L23.8576 49.9981L26.2496 43.3291H28.3556L25.0146 52.0001Z" fill="white"/>
<path d="M31.0023 52.0001H29.1563V43.3291H31.0023V52.0001Z" fill="white"/>
<path d="M16.9231 28C16.7698 28 16.6175 27.9641 16.4791 27.8924C16.1837 27.7384 16 27.4444 16 27.125V14.8748C16 14.5554 16.1837 14.2614 16.4791 14.1074C16.7754 13.9543 17.1345 13.9657 17.4197 14.1363L27.5735 20.2614C27.8385 20.4224 28 20.7007 28 20.9999C28 21.2992 27.8385 21.5774 27.5726 21.7384L17.4188 27.8635C17.2683 27.9536 17.0957 28 16.9231 28ZM17.8462 16.4682V25.5307L25.3572 20.9999L17.8462 16.4682Z" fill="#D5D7DE"/>
<path d="M21 35C13.2804 35 7 28.7196 7 21C7 13.2804 13.2804 7 21 7C28.7196 7 35 13.2804 35 21C35 28.7196 28.7196 35 21 35ZM21 8.86667C14.3099 8.86667 8.86667 14.3099 8.86667 21C8.86667 27.6901 14.3099 33.1333 21 33.1333C27.6901 33.1333 33.1333 27.6901 33.1333 21C33.1333 14.3099 27.6901 8.86667 21 8.86667Z" fill="#D5D7DE"/>
</svg>
