<svg width="32" height="32" viewBox="0 0 32 32" fill="none" xmlns="http://www.w3.org/2000/svg">
<g clip-path="url(#clip0_4015_1294)">
<path d="M23.3337 25.3333H27.3337C27.7017 25.3333 28.0004 25.0346 28.0004 24.6666V8.66657C28.0004 8.29857 27.7017 7.99988 27.3337 7.99988H23.3337C22.9657 7.99988 22.667 8.29857 22.667 8.66657V24.6666C22.6671 25.0346 22.9657 25.3333 23.3337 25.3333ZM24.0004 9.33325H26.6671V23.9999H24.0004V9.33325Z" fill="black"/>
<path d="M31.3333 28H4V0.666687C4 0.298687 3.70131 0 3.33331 0C2.96531 0 2.66669 0.298687 2.66669 0.666687V28H0.666687C0.298687 28 0 28.2987 0 28.6667C0 29.0347 0.298687 29.3334 0.666687 29.3334H2.66669V31.3334C2.66669 31.7014 2.96537 32.0001 3.33337 32.0001C3.70137 32.0001 4 31.7013 4 31.3333V29.3333H31.3333C31.7013 29.3333 32 29.0346 32 28.6666C32 28.2986 31.7013 28 31.3333 28Z" fill="black"/>
<path d="M15.3337 25.3332H19.3337C19.7017 25.3332 20.0004 25.0346 20.0004 24.6666V1.99994C20.0004 1.63194 19.7017 1.33325 19.3337 1.33325H15.3337C14.9657 1.33325 14.667 1.63194 14.667 1.99994V24.6666C14.6671 25.0346 14.9657 25.3332 15.3337 25.3332ZM16.0004 2.66663H18.6671V23.9999H16.0004V2.66663Z" fill="black"/>
<path d="M7.33368 25.3333H11.3337C11.7017 25.3333 12.0004 25.0346 12.0004 24.6666V12.6666C12.0004 12.2986 11.7017 11.9999 11.3337 11.9999H7.33368C6.96568 11.9999 6.66699 12.2986 6.66699 12.6666V24.6666C6.66705 25.0346 6.96568 25.3333 7.33368 25.3333ZM8.00037 13.3333H10.6671V23.9999H8.00037V13.3333Z" fill="black"/>
</g>
<defs>
<clipPath id="clip0_4015_1294">
<rect width="32" height="32" fill="white"/>
</clipPath>
</defs>
</svg>
