<svg width="9" height="11" viewBox="0 0 9 11" fill="none" xmlns="http://www.w3.org/2000/svg">
<path d="M8.21333 0H0.394872C0.180513 0 0 0.180513 0 0.394872V10.6051C0 10.8195 0.180513 11 0.394872 11H8.21333C8.42769 11 8.60821 10.8195 8.60821 10.6051V0.394872C8.60821 0.169231 8.42769 0 8.21333 0ZM7.33333 1.24103V9.29641H1.27487V1.24103H7.33333ZM4.24205 10.7292C3.93744 10.7292 3.67795 10.481 3.67795 10.1651C3.67795 9.86051 3.92615 9.60103 4.24205 9.60103C4.54667 9.60103 4.80615 9.84923 4.80615 10.1651C4.80615 10.481 4.55795 10.7292 4.24205 10.7292Z" fill="#8E94AA"/>
</svg>
