<svg viewBox="0 0 40 40" fill="none" xmlns="http://www.w3.org/2000/svg">
<path d="M15.7731 24.2814C16.2435 24.7555 16.7651 25.1758 17.3281 25.5346C18.8195 26.4915 20.5534 27 22.3243 27C24.7823 27.0045 27.1405 26.026 28.8755 24.2814L37.2928 15.8406C39.0249 14.1017 39.9985 11.7457 40 9.28887C40.0033 4.16205 35.8582 0.00331901 30.7416 5.57964e-05C28.2874 -0.00849218 25.9314 0.965434 24.197 2.70535L17.2487 9.66752C17.1225 9.79295 17.052 9.96404 17.053 10.1421C17.0551 10.5084 17.3531 10.8035 17.7186 10.8014H17.9833C19.435 10.7962 20.8737 11.0756 22.2184 11.6235C22.4661 11.7257 22.7509 11.668 22.9396 11.4777L27.9358 6.46494C29.4872 4.91042 32.0025 4.91042 33.5539 6.46494C35.1054 8.01946 35.1054 10.5398 33.5539 12.0943L25.1035 20.555C23.5533 22.1063 21.0421 22.1063 19.492 20.555C18.4472 19.5698 16.8177 19.5698 15.773 20.555C15.3235 21.0058 15.051 21.6036 15.0054 22.2392C14.9571 22.9987 15.2366 23.7426 15.7731 24.2814Z"/>
<path d="M2.71215 37.281C6.3284 40.9063 12.1915 40.9063 15.8077 37.281L22.7458 30.3322C22.9363 30.1403 22.9912 29.8516 22.8846 29.6028C22.7793 29.3533 22.5331 29.1932 22.263 29.1984H22.0183C20.5691 29.201 19.1334 28.9195 17.792 28.3696C17.5443 28.2674 17.2597 28.325 17.0711 28.5154L12.0908 33.5016C10.5402 35.0561 8.02618 35.0561 6.47558 33.5016C4.92498 31.9471 4.92498 29.4268 6.47558 27.8723L12.6795 21.6595L12.7324 21.5998L14.9017 19.4382C16.4511 17.8869 18.961 17.8869 20.5104 19.4382C21.5545 20.4234 23.1833 20.4234 24.2274 19.4382C24.6795 18.984 24.9521 18.381 24.9946 17.7408C25.043 16.9813 24.7636 16.2374 24.2274 15.6986C23.4618 14.9279 22.5662 14.2993 21.5818 13.8421C21.4429 13.7758 21.304 13.7227 21.1651 13.663C21.0263 13.6034 20.8808 13.557 20.7419 13.5039C20.603 13.4508 20.4575 13.4044 20.3186 13.3647L19.9284 13.2586C19.6638 13.1923 19.3992 13.1392 19.1281 13.0929C18.8015 13.0442 18.4725 13.0132 18.1426 13H17.6797H17.64L17.2431 13.0464C17.0977 13.053 16.9455 13.0862 16.7735 13.0862H16.5487L16.0923 13.1525L15.8807 13.1922L15.4971 13.2718H15.4243C13.7997 13.6809 12.3162 14.5242 11.1319 15.7119L2.71238 24.1525C-0.904089 27.7779 -0.904089 33.6557 2.71215 37.281Z"/>
</svg>
