<svg width="32" height="32" viewBox="0 0 32 32" fill="none" xmlns="http://www.w3.org/2000/svg">
<g clip-path="url(#clip0_4094_943)">
<path d="M26.8421 15.6388L25.733 14.6504C25.5218 14.4337 25.1785 14.4337 24.9673 14.6504C24.756 14.8672 24.756 15.1566 24.9673 15.3493L25.6804 16L24.9673 16.6504C24.917 16.6963 24.8771 16.7508 24.8499 16.8108C24.8226 16.8707 24.8086 16.935 24.8086 16.9999C24.8086 17.0648 24.8226 17.1291 24.8499 17.189C24.8771 17.249 24.917 17.3035 24.9673 17.3493C25.0189 17.3969 25.0806 17.4342 25.1487 17.4591C25.2167 17.484 25.2896 17.4959 25.3629 17.4941C25.5213 17.4941 25.627 17.447 25.7325 17.3496L26.8416 16.3612C27.0528 16.1683 27.0528 15.831 26.8416 15.6383L26.8421 15.6388ZM9.93952 14H5.55494C5.23796 14 5.00016 14.217 5.00016 14.4819V17.4941C4.99836 17.561 5.01148 17.6275 5.03872 17.6897C5.06596 17.7519 5.10676 17.8083 5.15864 17.8557C5.21052 17.903 5.2724 17.9402 5.34052 17.9651C5.40865 17.9899 5.48159 18.0019 5.55494 18.0002H9.93952C10.0128 18.0019 10.0858 17.9899 10.1539 17.965C10.222 17.9401 10.2838 17.9029 10.3357 17.8556C10.3875 17.8082 10.4283 17.7518 10.4555 17.6896C10.4827 17.6275 10.4958 17.561 10.494 17.4941V14.4819C10.494 14.217 10.2562 14 9.93926 14H9.93952ZM9.41131 17.0121H6.10998V14.9884H9.41131V17.0121ZM16.5422 14H12.1576C11.8406 14 11.6028 14.217 11.6028 14.4819V17.4941C11.601 17.561 11.6141 17.6275 11.6414 17.6897C11.6686 17.7519 11.7094 17.8083 11.7613 17.8557C11.8132 17.903 11.8751 17.9402 11.9432 17.9651C12.0113 17.9899 12.0843 18.0019 12.1576 18.0002H16.5422C16.6155 18.0019 16.6884 17.9899 16.7565 17.965C16.8246 17.9401 16.8865 17.9029 16.9383 17.8556C16.9902 17.8082 17.0309 17.7518 17.0582 17.6896C17.0854 17.6275 17.0985 17.561 17.0967 17.4941V14.4819C17.0967 14.217 16.8589 14 16.5419 14H16.5422ZM16.014 17.0121H12.7126V14.9884H16.014V17.0121ZM23.1448 14H18.7603C18.4433 14 18.2055 14.217 18.2055 14.4819V17.4941C18.2037 17.561 18.2168 17.6275 18.244 17.6897C18.2713 17.7519 18.3121 17.8083 18.364 17.8557C18.4158 17.903 18.4777 17.9402 18.5458 17.9651C18.614 17.9899 18.6869 18.0019 18.7603 18.0002H23.1448C23.2182 18.0019 23.2911 17.9899 23.3592 17.965C23.4273 17.9401 23.4891 17.9029 23.541 17.8556C23.5928 17.8082 23.6336 17.7518 23.6608 17.6896C23.6881 17.6275 23.7012 17.561 23.6994 17.4941V14.4819C23.6994 14.217 23.4616 14 23.1446 14H23.1448ZM22.6166 17.0121H19.3153V14.9884H22.6166V17.0121Z" fill="black"/>
</g>
<defs>
<clipPath id="clip0_4094_943">
<rect width="22" height="4" fill="white" transform="translate(5 14)"/>
</clipPath>
</defs>
</svg>
