<!-- Generated by IcoMoon.io -->
<svg version="1.1" xmlns="http://www.w3.org/2000/svg" width="32" height="32" viewBox="0 0 32 32">
<title>bullet-list</title>
<path d="M31.328 5.984h-22.656c-0.384 0-0.672-0.288-0.672-0.64s0.288-0.672 0.672-0.672h22.656c0.384 0 0.672 0.288 0.672 0.672s-0.288 0.64-0.672 0.64zM31.328 16.672h-22.656c-0.384 0-0.672-0.32-0.672-0.672s0.288-0.672 0.672-0.672h22.656c0.384 0 0.672 0.288 0.672 0.672s-0.288 0.672-0.672 0.672zM31.328 27.328h-22.656c-0.384 0-0.672-0.288-0.672-0.672s0.288-0.672 0.672-0.672h22.656c0.384 0 0.672 0.32 0.672 0.672s-0.288 0.672-0.672 0.672zM3.328 19.328c-1.824 0-3.328-1.504-3.328-3.328s1.504-3.328 3.328-3.328 3.328 1.504 3.328 3.328-1.472 3.328-3.328 3.328zM3.328 13.984c-1.088 0-1.984 0.896-1.984 2.016s0.896 1.984 1.984 1.984 2.016-0.896 2.016-1.984-0.896-2.016-2.016-2.016zM3.328 30.016c-1.824 0-3.328-1.504-3.328-3.36s1.504-3.328 3.328-3.328 3.328 1.504 3.328 3.328-1.472 3.36-3.328 3.36zM3.328 24.672c-1.088 0-1.984 0.896-1.984 1.984s0.896 2.016 1.984 2.016 2.016-0.896 2.016-2.016-0.896-1.984-2.016-1.984zM3.328 8.672c-1.824 0-3.328-1.504-3.328-3.328s1.504-3.36 3.328-3.36 3.328 1.504 3.328 3.36-1.472 3.328-3.328 3.328zM3.328 3.328c-1.088 0-1.984 0.896-1.984 2.016s0.896 1.984 1.984 1.984 2.016-0.896 2.016-1.984-0.896-2.016-2.016-2.016z"></path>
</svg>
