<!-- Generated by IcoMoon.io -->
<svg version="1.1" xmlns="http://www.w3.org/2000/svg" width="32" height="32" viewBox="0 0 32 32">
<title>button</title>
<path d="M14.432 12.16c-0.192-0.16-0.48-0.224-0.704-0.096-0.256 0.096-0.384 0.352-0.384 0.608v12c0 0.256 0.16 0.512 0.416 0.608 0.224 0.096 0.512 0.032 0.704-0.128l2.016-2.016 2.272 4.512c0.064 0.16 0.224 0.288 0.384 0.32 0.064 0.032 0.128 0.032 0.192 0.032 0.128 0 0.256-0.032 0.352-0.096l2.976-1.728c0.16-0.096 0.256-0.256 0.32-0.416 0.032-0.192 0-0.352-0.096-0.512l-2.368-3.904h2.816c0.288 0 0.544-0.192 0.64-0.448s0-0.544-0.192-0.736l-9.344-8zM19.328 20c-0.224 0-0.448 0.128-0.576 0.352-0.128 0.192-0.128 0.448 0 0.672l2.656 4.32-1.792 1.056-2.336-4.704c-0.096-0.192-0.288-0.32-0.512-0.352-0.032 0-0.064 0-0.096 0-0.192 0-0.352 0.064-0.48 0.192l-1.536 1.504v-8.928l6.88 5.888c0 0-2.208 0-2.208 0zM28.672 4h-25.344c-1.824 0-3.328 1.504-3.328 3.328v8c0 1.856 1.504 3.328 3.328 3.328h8c0.384 0 0.672-0.288 0.672-0.672s-0.288-0.64-0.672-0.64h-8c-1.088 0-1.984-0.896-1.984-2.016v-8c0-1.088 0.896-1.984 1.984-1.984h25.344c1.088 0 1.984 0.896 1.984 1.984v8c0 1.12-0.896 2.016-1.984 2.016h-4.672c-0.352 0-0.672 0.288-0.672 0.64s0.32 0.672 0.672 0.672h4.672c1.824 0 3.328-1.472 3.328-3.328v-8c0-1.824-1.504-3.328-3.328-3.328z"></path>
</svg>
