<svg width="32" height="32" viewBox="0 0 32 32" fill="none" xmlns="http://www.w3.org/2000/svg">
<path d="M25.3439 7.328H6.65588C6.30388 7.328 6.01587 7.616 6.01587 8V21.344C6.01587 21.696 6.30388 21.984 6.65588 21.984H25.3439C25.6959 21.984 26.0159 21.696 26.0159 21.344V8C26.0159 7.616 25.6959 7.328 25.3439 7.328V7.328ZM24.6719 20.672H7.32788V8.672H24.6719V20.672ZM3.99988 7.328H1.34387C0.959875 7.328 0.671875 7.616 0.671875 8C0.671875 8.384 0.959875 8.672 1.34387 8.672H3.32788V20.672H1.34387C0.959875 20.672 0.671875 20.96 0.671875 21.344C0.671875 21.696 0.959875 21.984 1.34387 21.984H3.99988C4.38388 21.984 4.67188 21.696 4.67188 21.344V8C4.67188 7.616 4.38388 7.328 3.99988 7.328V7.328ZM30.6559 20.672H28.6719V8.672H30.6559C31.0399 8.672 31.3279 8.352 31.3279 8C31.3279 7.648 31.0399 7.328 30.6559 7.328H27.9999C27.6479 7.328 27.3279 7.616 27.3279 8V21.344C27.3279 21.696 27.6479 21.984 27.9999 21.984H30.6559C31.0399 21.984 31.3279 21.696 31.3279 21.344C31.3279 20.992 31.0399 20.672 30.6559 20.672Z" fill="black"/>
</svg>
