<svg width="12" height="12" viewBox="0 0 12 12" xmlns="http://www.w3.org/2000/svg">
<path data-choose="1" d="M10.7536 3.28076H0.252632C0.113179 3.28076 0 3.39394 0 3.53339V5.18548C0 5.32493 0.113179 5.43811 0.252632 5.43811H10.7539C10.8933 5.43811 11.0065 5.32493 11.0065 5.18548V3.53339C11.0063 3.39381 10.8932 3.28076 10.7536 3.28076Z"/>
<path data-choose="1" d="M9.21217 0H1.79365C1.65419 0 1.54102 0.113179 1.54102 0.252632V1.90472C1.54102 2.04417 1.65419 2.15735 1.79365 2.15735H9.21217C9.35163 2.15735 9.4648 2.04417 9.4648 1.90472V0.252632C9.4648 0.113179 9.35188 0 9.21217 0Z"/>
<path data-choose="1" d="M9.21217 6.56189H1.79365C1.65419 6.56189 1.54102 6.67507 1.54102 6.81452V8.46661C1.54102 8.60606 1.65419 8.71924 1.79365 8.71924H9.21217C9.35163 8.71924 9.4648 8.60606 9.4648 8.46661V6.81452C9.4648 6.67507 9.35188 6.56189 9.21217 6.56189Z"/>
<path data-choose="1" d="M10.7536 9.84265H0.252632C0.113179 9.84265 0 9.95583 0 10.0953V11.7474C0 11.8868 0.113179 12 0.252632 12H10.7539C10.8933 12 11.0065 11.8868 11.0065 11.7474V10.0953C11.0063 9.9557 10.8932 9.84265 10.7536 9.84265Z"/>
</svg>
