<svg width="18" height="18" viewBox="0 0 18 18" fill="none" xmlns="http://www.w3.org/2000/svg">
    <path d="M16.1437 9.977H8.05705L8 5.99998V1.99998C8 1.80344 8 1.50008 8 1.50008C8 1.00006 7.71248 1.10762 7.51843 1.13149C3.23233 1.61606 0 5.22926 0 9.53636C0 14.2037 3.79713 18.0001 8.46408 18.0001C12.6323 18.0001 16.2281 14.8911 16.8285 10.7679C16.8569 10.5697 16.7983 10.3676 16.6667 10.2159C16.5355 10.0643 16.3445 9.977 16.1437 9.977Z" fill="#8E94AA"/>
    <path d="M10.3761 0.000795925C10.2776 -0.00569943 10.1826 0.0278029 10.1117 0.0924147C10.0404 0.157197 10 0.247449 10 0.342144V8L17.6472 7.99778C17.7428 7.99778 17.8344 7.96017 17.9005 7.89385C17.967 7.82719 18.0028 7.73762 17.9998 7.64515C17.8658 3.55564 14.5881 0.269328 10.3761 0.000795925Z" fill="#8E94AA"/>
</svg>