<svg width="32" height="32" viewBox="0 0 32 32" fill="none" xmlns="http://www.w3.org/2000/svg">
<g clip-path="url(#clip0_4013_1189)">
<path d="M7.328 22.656H2.016C0.896 22.656 0 23.552 0 24.672V30.016C0 31.104 0.896 32 2.016 32H7.328C8.448 32 9.344 31.104 9.344 30.016V24.672C9.344 23.552 8.448 22.656 7.328 22.656V22.656ZM8 30.016C8 30.368 7.712 30.656 7.328 30.656H2.016C1.632 30.656 1.344 30.368 1.344 30.016V24.672C1.344 24.288 1.632 24 2.016 24H7.328C7.712 24 8 24.288 8 24.672V30.016ZM12.672 6.65597H31.328C31.712 6.65597 32 6.36797 32 5.98397C32 5.59997 31.712 5.34397 31.328 5.34397H12.672C12.288 5.34397 12 5.63197 12 5.98397C12 6.33597 12.288 6.65597 12.672 6.65597ZM31.328 16H12.672C12.288 16 12 16.288 12 16.672C12 17.056 12.288 17.344 12.672 17.344H31.328C31.712 17.344 32 17.024 32 16.672C32 16.32 31.712 16 31.328 16ZM31.328 26.656H12.672C12.288 26.656 12 26.976 12 27.328C12 27.68 12.288 28 12.672 28H31.328C31.712 28 32 27.712 32 27.328C32 26.944 31.712 26.656 31.328 26.656ZM9.44 0.287974L8.48 1.69597C8.16 1.47197 7.744 1.34397 7.328 1.34397H2.016C0.896 1.34397 0 2.23997 0 3.32797V8.67197C0 9.75997 0.896 10.656 2.016 10.656H7.328C8.448 10.656 9.344 9.75997 9.344 8.67197V3.32797C9.344 3.16797 9.312 3.00797 9.28 2.87997L10.56 1.05597C10.752 0.735973 10.688 0.319974 10.368 0.127974C10.08 -0.0960262 9.664 -0.0320262 9.44 0.287974V0.287974ZM8 8.67197C8 9.02397 7.712 9.34397 7.328 9.34397H2.016C1.632 9.34397 1.344 9.02397 1.344 8.67197V3.32797C1.344 2.97597 1.632 2.65597 2.016 2.65597H7.328C7.488 2.65597 7.584 2.71997 7.712 2.78397L5.248 6.30397L3.808 4.86397C3.552 4.60797 3.136 4.60797 2.848 4.86397C2.56 5.11997 2.592 5.53597 2.848 5.79197L4.864 7.80797C4.992 7.93597 5.152 7.99997 5.344 7.99997C5.344 7.99997 5.376 7.99997 5.408 7.99997C5.6 7.96797 5.76 7.87197 5.888 7.71197L8 4.67197V8.67197V8.67197ZM9.44 10.944L8.48 12.352C8.16 12.128 7.744 12 7.328 12H2.016C0.896 12 0 12.896 0 13.984V19.328C0 20.448 0.896 21.344 2.016 21.344H7.328C8.448 21.344 9.344 20.448 9.344 19.328V13.984C9.344 13.824 9.312 13.696 9.28 13.536L10.56 11.712C10.752 11.424 10.688 11.008 10.368 10.784C10.08 10.56 9.664 10.656 9.44 10.944ZM8 19.328C8 19.712 7.712 20 7.328 20H2.016C1.632 20 1.344 19.712 1.344 19.328V13.984C1.344 13.632 1.632 13.344 2.016 13.344H7.328C7.488 13.344 7.584 13.376 7.712 13.44L5.248 16.96L3.808 15.52C3.552 15.264 3.136 15.264 2.848 15.52C2.56 15.776 2.592 16.224 2.848 16.48L4.864 18.464C4.992 18.592 5.152 18.656 5.344 18.656C5.344 18.656 5.376 18.656 5.408 18.656C5.6 18.656 5.76 18.528 5.888 18.368L8 15.36V19.328V19.328Z" fill="black"/>
</g>
<defs>
<clipPath id="clip0_4013_1189">
<rect width="32" height="32" fill="white"/>
</clipPath>
</defs>
</svg>
