<svg width="6" height="10" viewBox="0 0 6 10" fill="none" xmlns="http://www.w3.org/2000/svg">
<g clip-path="url(#clip0)">
<path d="M3.78133 5.05071L0.481336 1.515C0.359897 1.38028 0.292701 1.19985 0.29422 1.01257C0.295739 0.825285 0.365851 0.646133 0.489457 0.513698C0.613062 0.381264 0.78027 0.306143 0.955068 0.304516C1.12987 0.302889 1.29827 0.374885 1.424 0.504997L5.19533 4.54571C5.32032 4.67966 5.39053 4.86131 5.39053 5.05071C5.39053 5.24012 5.32032 5.42176 5.19533 5.55571L1.424 9.59643C1.29827 9.72654 1.12987 9.79854 0.955068 9.79691C0.78027 9.79528 0.613061 9.72016 0.489456 9.58772C0.365851 9.45529 0.295738 9.27614 0.29422 9.08886C0.2927 8.90157 0.359897 8.72114 0.481335 8.58643L3.78133 5.05071Z" fill="white"/>
</g>
<defs>
<clipPath id="clip0">
<rect width="10" height="6" fill="white" transform="translate(6) rotate(90)"/>
</clipPath>
</defs>
</svg>
