<svg width="15" height="15" viewBox="0 0 15 15" fill="none" xmlns="http://www.w3.org/2000/svg">
    <path d="M14.6722 0H0.327769C0.14684 0 0 0.1261 0 0.281473V3.36853C0 3.5239 0.14684 3.65 0.327769 3.65H14.6721C14.853 3.65 14.9998 3.5239 14.9998 3.36853V0.281473C15 0.1261 14.8533 0 14.6722 0Z" fill="#8E94AA"/>
    <path d="M9.02116 4.96118H5.97914C5.79821 4.96118 5.65137 5.10416 5.65137 5.28033V7.54405C5.65137 7.72022 5.79821 7.8632 5.97914 7.8632H9.02132C9.20225 7.8632 9.34909 7.72022 9.34909 7.54405V5.28033C9.34892 5.104 9.20225 4.96118 9.02116 4.96118Z" fill="#8E94AA"/>
    <path d="M9.02116 9.14709H5.97914C5.79821 9.14709 5.65137 9.29007 5.65137 9.46624V14.6808C5.65137 14.857 5.79821 15 5.97914 15H9.02132C9.20225 15 9.34909 14.857 9.34909 14.6808V9.46624C9.34892 9.29007 9.20225 9.14709 9.02116 9.14709Z" fill="#8E94AA"/>
    <path d="M14.6722 4.96118H11.63C11.4491 4.96118 11.3022 5.10416 11.3022 5.28033V9.94948C11.3022 10.1256 11.4491 10.2686 11.63 10.2686H14.6722C14.8531 10.2686 15 10.1256 15 9.94948V5.28033C15 5.104 14.8533 4.96118 14.6722 4.96118Z" fill="#8E94AA"/>
    <path d="M3.36995 4.96118H0.327769C0.14684 4.96118 0 5.10416 0 5.28033V9.94948C0 10.1256 0.14684 10.2686 0.327769 10.2686H3.36995C3.55088 10.2686 3.69772 10.1256 3.69772 9.94948V5.28033C3.69772 5.104 3.55088 4.96118 3.36995 4.96118Z" fill="#8E94AA"/>
    <path d="M3.36995 11.5549H0.327769C0.14684 11.5549 0 11.6979 0 11.8741V14.6808C0 14.857 0.14684 15 0.327769 15H3.36995C3.55088 15 3.69772 14.857 3.69772 14.6808V11.8741C3.69772 11.6979 3.55088 11.5549 3.36995 11.5549Z" fill="#8E94AA"/>
    <path d="M14.6722 11.5549H11.63C11.4491 11.5549 11.3022 11.6979 11.3022 11.8741V14.6808C11.3022 14.857 11.4491 15 11.63 15H14.6722C14.8531 15 15 14.857 15 14.6808V11.8741C15 11.6979 14.8533 11.5549 14.6722 11.5549Z" fill="#8E94AA"/>
</svg>