<svg viewBox="0 0 22 22" xmlns="http://www.w3.org/2000/svg">
<path d="M19.1872 1.08133L19.1872 1.08133L17.5808 2.68773L17.4614 2.56832C17.2863 2.39321 17.0023 2.39321 16.8272 2.56832L16.8625 2.60368L16.8272 2.56832L4.00996 15.3855C3.20178 16.1936 2.58533 17.1449 2.1779 18.2127L1.63216 19.6428C1.61737 19.6816 1.60878 19.7212 1.60517 19.7606L1.08133 20.2845C0.90622 20.4596 0.906226 20.7435 1.08133 20.9187L1.08134 20.9187C1.16891 21.0062 1.28374 21.0499 1.39841 21.0499C1.51306 21.0499 1.62795 21.0062 1.71549 20.9186L2.23912 20.395C2.27872 20.3914 2.3184 20.3826 2.35708 20.3678L3.7872 19.8221C4.85499 19.4146 5.80627 18.7981 6.61449 17.99L17.7669 6.8376C17.7744 6.97626 17.741 7.14994 17.6622 7.33965C17.5646 7.5748 17.3989 7.82991 17.1636 8.06518L13.7859 11.4429C13.6107 11.6181 13.6108 11.902 13.7859 12.0771L13.8212 12.0418L13.7859 12.0771C13.8734 12.1647 13.9883 12.2084 14.1029 12.2084C14.2176 12.2084 14.3325 12.1647 14.42 12.0771C14.42 12.0771 14.42 12.0771 14.42 12.0771L17.7978 8.69936C18.2052 8.29185 18.4943 7.80325 18.6096 7.32203L18.561 7.31038L18.6096 7.32203C18.7164 6.87671 18.664 6.45935 18.4621 6.14236L19.4317 5.17281C19.6068 4.9977 19.6068 4.71378 19.4317 4.53863L19.3123 4.41922L20.9187 2.81282L20.8833 2.77746L20.9187 2.81282C21.0938 2.63767 21.0938 2.35371 20.9187 2.1786L20.8833 2.21395L20.9187 2.17859L19.8214 1.08133C19.6462 0.90622 19.3623 0.906226 19.1872 1.08133ZM5.98038 17.3558C5.262 18.0742 4.41665 18.622 3.46749 18.9842L2.73702 19.2629L3.01578 18.5325L2.96907 18.5146L3.01578 18.5325C3.37796 17.5833 3.92576 16.738 4.64414 16.0196L5.04066 15.6231L6.37686 16.9593L5.98038 17.3558ZM7.01097 16.3252L5.67477 14.989L17.1443 3.5195L18.4805 4.85574L7.01097 16.3252ZM18.6781 3.78503L18.2149 3.32188L19.5042 2.03255L19.9674 2.49571L18.6781 3.78503Z" fill="#343B4C" stroke="#3C455B" stroke-width="0.1"/>
</svg>
