<svg width="18" height="18" viewBox="0 0 18 18" fill="none" xmlns="http://www.w3.org/2000/svg">
<path d="M14.75 3.5H5.25002C5.0511 3.5 4.86034 3.57902 4.71969 3.71967C4.57903 3.86032 4.50002 4.05109 4.50002 4.25V16.25C4.50002 16.4489 4.57903 16.6397 4.71969 16.7803C4.86034 16.921 5.0511 17 5.25002 17H14.75C14.9489 17 15.1397 16.921 15.2803 16.7803C15.421 16.6397 15.5 16.4489 15.5 16.25V4.25C15.5 4.05109 15.421 3.86032 15.2803 3.71967C15.1397 3.57902 14.9489 3.5 14.75 3.5ZM14.5 16H5.50002V4.5H14.5V16Z" fill="black"/>
<path d="M13 1.75C13 1.55109 12.921 1.36032 12.7803 1.21967C12.6397 1.07902 12.4489 1 12.25 1H2.75002C2.5511 1 2.36034 1.07902 2.21969 1.21967C2.07903 1.36032 2.00002 1.55109 2.00002 1.75V13.75C2.00002 13.9489 2.07903 14.1397 2.21969 14.2803C2.36034 14.421 2.5511 14.5 2.75002 14.5H3.00002V2H13V1.75Z" fill="black"/>
</svg>
