<svg width="32" height="32" viewBox="0 0 32 32" fill="none" xmlns="http://www.w3.org/2000/svg">
<g clip-path="url(#clip0_4010_1095)">
<path d="M30.016 5.98401H2.016C0.896 5.98401 0 6.88001 0 8.00001V24C0 25.088 0.896 25.984 2.016 25.984H30.016C31.104 25.984 32 25.088 32 24V8.00001C32 6.88001 31.104 5.98401 30.016 5.98401ZM30.656 24C30.656 24.352 30.368 24.672 30.016 24.672H2.016C1.632 24.672 1.344 24.352 1.344 24V8.00001C1.344 7.61601 1.632 7.32801 2.016 7.32801H30.016C30.368 7.32801 30.656 7.61601 30.656 8.00001V24ZM12.896 10.048C12.544 9.92 12.16 10.08 12.032 10.432L8.032 21.088C7.904 21.44 8.096 21.824 8.448 21.952C8.512 21.984 8.576 21.984 8.672 21.984C8.928 21.984 9.184 21.824 9.28 21.568L13.28 10.912C13.408 10.56 13.248 10.176 12.896 10.048ZM23.584 10.048C23.232 9.92 22.848 10.08 22.72 10.432L18.72 21.088C18.592 21.44 18.752 21.824 19.104 21.952C19.168 21.984 19.264 21.984 19.328 21.984C19.616 21.984 19.872 21.824 19.968 21.568L23.968 10.912C24.096 10.56 23.904 10.176 23.584 10.048ZM6.016 20.672H3.328C2.976 20.672 2.656 20.96 2.656 21.344C2.656 21.696 2.976 21.984 3.328 21.984H6.016C6.368 21.984 6.656 21.696 6.656 21.344C6.656 20.992 6.368 20.672 6.016 20.672ZM16.672 20.672H11.328C10.976 20.672 10.656 20.96 10.656 21.344C10.656 21.696 10.976 21.984 11.328 21.984H16.672C17.024 21.984 17.344 21.696 17.344 21.344C17.344 20.992 17.024 20.672 16.672 20.672ZM28.672 20.672H22.016C21.632 20.672 21.344 20.96 21.344 21.344C21.344 21.696 21.632 21.984 22.016 21.984H28.672C29.024 21.984 29.344 21.696 29.344 21.344C29.344 20.992 29.024 20.672 28.672 20.672Z" fill="black"/>
</g>
<defs>
<clipPath id="clip0_4010_1095">
<rect width="32" height="32" fill="white"/>
</clipPath>
</defs>
</svg>
