<svg width="32" height="32" viewBox="0 0 32 32" fill="none" xmlns="http://www.w3.org/2000/svg">
<g clip-path="url(#clip0_4013_1200)">
<path d="M28.672 1.98401C30.4 1.98401 31.872 3.20001 32 4.80001V27.072C32 28.672 30.656 30.016 28.928 30.016H3.328C1.6 30.016 0.128 28.8 0 27.2V4.92801C0 3.32801 1.344 1.98401 3.072 1.98401H28.672V1.98401ZM28.672 3.32801H3.328C2.272 3.32801 1.472 4.00001 1.344 4.80001V26.944C1.344 27.744 2.144 28.544 3.2 28.544H28.672C29.728 28.544 30.528 27.872 30.656 27.072V4.92801C30.656 4.12801 29.856 3.32801 28.8 3.32801H28.672V3.32801ZM7.328 21.056C7.744 21.056 8 21.344 8 21.728V24.384C8 24.8 7.744 25.056 7.328 25.056H4.672C4.256 25.056 4 24.8 4 24.384V21.728C4 21.344 4.256 21.056 4.672 21.056H7.328V21.056ZM14.016 23.744C14.4 23.744 14.656 24 14.656 24.384C14.656 24.8 14.4 25.056 14.016 25.056H10.016C9.6 25.056 9.344 24.8 9.344 24.384C9.344 24 9.6 23.744 10.016 23.744H14.016ZM20.672 21.056C21.056 21.056 21.344 21.344 21.344 21.728V24.384C21.344 24.8 21.056 25.056 20.672 25.056H18.016C17.6 25.056 17.344 24.8 17.344 24.384V21.728C17.344 21.344 17.6 21.056 18.016 21.056H20.672ZM27.328 23.744C27.744 23.744 28 24 28 24.384C28 24.8 27.744 25.056 27.328 25.056H23.328C22.944 25.056 22.656 24.8 22.656 24.384C22.656 24 22.944 23.744 23.328 23.744H27.328ZM6.656 22.4H5.344V23.744H6.656V22.4ZM20 22.4H18.656V23.744H20V22.4ZM14.016 21.056C14.4 21.056 14.656 21.344 14.656 21.728C14.656 22.144 14.4 22.4 14.016 22.4H10.016C9.6 22.4 9.344 22.144 9.344 21.728C9.344 21.344 9.6 21.056 10.016 21.056H14.016ZM27.328 21.056C27.744 21.056 28 21.344 28 21.728C28 22.144 27.744 22.4 27.328 22.4H23.328C22.944 22.4 22.656 22.144 22.656 21.728C22.656 21.344 22.944 21.056 23.328 21.056H27.328ZM7.328 14.4C7.744 14.4 8 14.656 8 15.072V17.728C8 18.144 7.744 18.4 7.328 18.4H4.672C4.256 18.4 4 18.144 4 17.728V15.072C4 14.656 4.256 14.4 4.672 14.4H7.328V14.4ZM14.016 17.056C14.4 17.056 14.656 17.344 14.656 17.728C14.656 18.112 14.4 18.4 14.016 18.4H10.016C9.6 18.4 9.344 18.144 9.344 17.728C9.344 17.312 9.6 17.056 10.016 17.056H14.016ZM20.672 14.4C21.056 14.4 21.344 14.656 21.344 15.072V17.728C21.344 18.144 21.056 18.4 20.672 18.4H18.016C17.6 18.4 17.344 18.144 17.344 17.728V15.072C17.344 14.656 17.6 14.4 18.016 14.4H20.672ZM27.328 17.056C27.744 17.056 28 17.344 28 17.728C28 18.112 27.744 18.4 27.328 18.4H23.328C22.944 18.4 22.656 18.144 22.656 17.728C22.656 17.312 22.944 17.056 23.328 17.056H27.328ZM6.656 15.744H5.344V17.056H6.656V15.744V15.744ZM20 15.744H18.656V17.056H20V15.744V15.744ZM14.016 14.4C14.4 14.4 14.656 14.656 14.656 15.072C14.656 15.488 14.4 15.744 14.016 15.744H10.016C9.6 15.744 9.344 15.456 9.344 15.072C9.344 14.688 9.6 14.4 10.016 14.4H14.016ZM27.328 14.4C27.744 14.4 28 14.656 28 15.072C28 15.488 27.744 15.744 27.328 15.744H23.328C22.944 15.744 22.656 15.456 22.656 15.072C22.656 14.688 22.944 14.4 23.328 14.4H27.328ZM7.328 7.74401C7.744 7.74401 8 8.00001 8 8.38401V11.072C8 11.456 7.744 11.744 7.328 11.744H4.672C4.256 11.744 4 11.456 4 11.072V8.38401C4 8.00001 4.256 7.74401 4.672 7.74401H7.328V7.74401ZM14.016 10.4C14.4 10.4 14.656 10.656 14.656 11.072C14.656 11.488 14.4 11.744 14.016 11.744H10.016C9.6 11.744 9.344 11.456 9.344 11.072C9.344 10.688 9.6 10.4 10.016 10.4H14.016ZM20.672 7.74401C21.056 7.74401 21.344 8.00001 21.344 8.38401V11.072C21.344 11.456 21.056 11.744 20.672 11.744H18.016C17.6 11.744 17.344 11.456 17.344 11.072V8.38401C17.344 8.00001 17.6 7.74401 18.016 7.74401H20.672V7.74401ZM27.328 10.4C27.744 10.4 28 10.656 28 11.072C28 11.488 27.744 11.744 27.328 11.744H23.328C22.944 11.744 22.656 11.456 22.656 11.072C22.656 10.688 22.944 10.4 23.328 10.4H27.328ZM6.656 9.05601H5.344V10.4H6.656V9.05601ZM20 9.05601H18.656V10.4H20V9.05601ZM14.016 7.74401C14.4 7.74401 14.656 8.00001 14.656 8.38401C14.656 8.80001 14.4 9.05601 14.016 9.05601H10.016C9.6 9.05601 9.344 8.80001 9.344 8.38401C9.344 8.00001 9.6 7.74401 10.016 7.74401H14.016V7.74401ZM27.328 7.74401C27.744 7.74401 28 8.00001 28 8.38401C28 8.80001 27.744 9.05601 27.328 9.05601H23.328C22.944 9.05601 22.656 8.80001 22.656 8.38401C22.656 8.00001 22.944 7.74401 23.328 7.74401H27.328V7.74401Z" fill="black"/>
</g>
<defs>
<clipPath id="clip0_4013_1200">
<rect width="32" height="32" fill="white"/>
</clipPath>
</defs>
</svg>
