<svg width="15" height="15" viewBox="0 0 11 9" fill="none" xmlns="http://www.w3.org/2000/svg">
<path d="M10.4247 0.117904C10.3461 0.0393013 10.2478 0 10.1299 0H0.402838C0.186681 0 0 0.186681 0 0.412664V7.22162C0 7.4476 0.186681 7.63428 0.412664 7.63428H3.92031V8.16485H3.40939C3.34061 8.16485 3.28166 8.2238 3.28166 8.29258V8.87227C3.28166 8.94105 3.34061 9 3.40939 9H7.14301C7.21179 9 7.27074 8.94105 7.27074 8.87227V8.29258C7.27074 8.2238 7.21179 8.16485 7.14301 8.16485H6.6321V7.63428H10.1397C10.3657 7.63428 10.5524 7.4476 10.5524 7.22162V0.412664C10.5426 0.304585 10.5033 0.196507 10.4247 0.117904ZM9.46179 6.55349H1.08079V1.08079H9.47162V6.55349H9.46179Z" fill="#8E94AA"/>
</svg>
