<svg width="17" height="15" viewBox="0 0 17 15" fill="none" xmlns="http://www.w3.org/2000/svg">
<path d="M14.9999 0H1.36364C0.611908 0 0 0.611589 0 1.36364V10.9091C0 11.6611 0.611908 12.2727 1.36364 12.2727H6.13788C6.12356 12.8166 6.01969 13.6866 5.62965 14.0974C5.4865 14.2479 5.3227 14.3182 5.11362 14.3182C4.92518 14.3182 4.7727 14.4706 4.7727 14.6591C4.7727 14.8475 4.92518 15 5.11362 15H11.25C11.4384 15 11.5909 14.8475 11.5909 14.6591C11.5909 14.4706 11.4384 14.3182 11.25 14.3182C11.0409 14.3182 10.8771 14.2482 10.7346 14.0978C10.3455 13.689 10.241 12.8177 10.2261 12.2727H15C15.7517 12.2727 16.3636 11.6612 16.3636 10.9091V1.36364C16.3636 0.611589 15.7517 0 14.9999 0ZM8.18179 11.5929C7.80492 11.5929 7.49797 11.2859 7.49797 10.909C7.49797 10.5322 7.80492 10.2252 8.18179 10.2252C8.55866 10.2252 8.86561 10.5322 8.86561 10.909C8.86561 11.2859 8.55866 11.5929 8.18179 11.5929ZM1.36364 9.54543V1.36364H15L15.0005 9.54543H1.36364Z" fill="#8E94AA"/>
</svg>
