<!-- Generated by IcoMoon.io -->
<svg version="1.1" xmlns="http://www.w3.org/2000/svg" width="32" height="32" viewBox="0 0 32 32">
<title>divider</title>
<path d="M1.344 12.672h29.312c0.384 0 0.672-0.32 0.672-0.672s-0.288-0.672-0.672-0.672h-29.312c-0.384 0-0.672 0.288-0.672 0.672s0.288 0.672 0.672 0.672zM12 7.328h8c0.256 0 0.48-0.16 0.608-0.384s0.064-0.48-0.064-0.672l-4-5.344c-0.256-0.352-0.832-0.352-1.088 0l-4 5.344c-0.128 0.192-0.16 0.448-0.064 0.672 0.128 0.224 0.352 0.384 0.608 0.384zM16 2.432l2.656 3.552h-5.312l2.656-3.552zM20 24.672h-8c-0.256 0-0.48 0.128-0.608 0.352-0.096 0.224-0.064 0.512 0.064 0.704l4 5.344c0.128 0.16 0.352 0.256 0.544 0.256s0.416-0.096 0.544-0.256l4-5.344c0.128-0.192 0.16-0.48 0.064-0.704-0.128-0.224-0.352-0.352-0.608-0.352zM16 29.536l-2.656-3.552h5.312l-2.656 3.552zM30.656 19.328h-29.312c-0.384 0-0.672 0.288-0.672 0.672s0.288 0.672 0.672 0.672h29.312c0.384 0 0.672-0.32 0.672-0.672s-0.288-0.672-0.672-0.672z"></path>
</svg>
