<svg width="43" height="56" viewBox="0 0 43 56" fill="none" xmlns="http://www.w3.org/2000/svg">
<path d="M30.485 0H1.463C0.655 0 0 0.655 0 1.926V55C0 55.345 0.655 56 1.463 56H41.537C42.345 56 43 55.345 43 55V12.978C43 12.282 42.907 12.058 42.743 11.893L31.107 0.257C30.942 0.093 30.718 0 30.485 0Z" fill="#F7F8F9"/>
<path d="M31 0.151001V12H42.849L31 0.151001Z" fill="#E0E1E6"/>
<path d="M41.537 56H1.463C0.655 56 0 55.345 0 54.537V39H43V54.537C43 55.345 42.345 56 41.537 56Z" fill="#1565C0"/>
<path d="M11.6788 52H8.25983V43.329H11.6788C13.0395 43.329 14.1445 43.7277 14.9938 44.525C15.8518 45.3224 16.2808 46.371 16.2808 47.671C16.2808 48.971 15.8562 50.0197 15.0068 50.817C14.1575 51.6057 13.0482 52 11.6788 52ZM11.6788 50.375C12.5108 50.375 13.1695 50.115 13.6548 49.595C14.1488 49.075 14.3958 48.4337 14.3958 47.671C14.3958 46.8737 14.1575 46.2237 13.6808 45.721C13.2042 45.2097 12.5368 44.954 11.6788 44.954H10.1058V50.375H11.6788Z" fill="white"/>
<path d="M21.6989 52.156C20.3902 52.156 19.3069 51.7357 18.4489 50.895C17.5995 50.0457 17.1749 48.971 17.1749 47.671C17.1749 46.371 17.5995 45.3007 18.4489 44.46C19.3069 43.6107 20.3902 43.186 21.6989 43.186C23.0162 43.186 24.0995 43.6064 24.9489 44.447C25.8069 45.2877 26.2359 46.3624 26.2359 47.671C26.2359 48.9797 25.8069 50.0544 24.9489 50.895C24.0995 51.7357 23.0162 52.156 21.6989 52.156ZM19.7879 49.712C20.2732 50.2494 20.9102 50.518 21.6989 50.518C22.4875 50.518 23.1245 50.2494 23.6099 49.712C24.0952 49.1747 24.3379 48.4944 24.3379 47.671C24.3379 46.8477 24.0952 46.1674 23.6099 45.63C23.1245 45.0927 22.4875 44.824 21.6989 44.824C20.9102 44.824 20.2732 45.0927 19.7879 45.63C19.3112 46.1674 19.0729 46.8477 19.0729 47.671C19.0729 48.4944 19.3112 49.1747 19.7879 49.712Z" fill="white"/>
<path d="M31.7303 52.156C30.413 52.156 29.3123 51.74 28.4283 50.908C27.553 50.0674 27.1153 48.9884 27.1153 47.671C27.1153 46.3537 27.553 45.279 28.4283 44.447C29.3123 43.6064 30.413 43.186 31.7303 43.186C33.351 43.186 34.56 43.8924 35.3573 45.305L33.7713 46.085C33.5806 45.721 33.299 45.422 32.9263 45.188C32.5623 44.9454 32.1636 44.824 31.7303 44.824C30.9416 44.824 30.2916 45.0927 29.7803 45.63C29.269 46.1674 29.0133 46.8477 29.0133 47.671C29.0133 48.4944 29.269 49.1747 29.7803 49.712C30.2916 50.2494 30.9416 50.518 31.7303 50.518C32.1636 50.518 32.5623 50.401 32.9263 50.167C33.299 49.933 33.5806 49.6297 33.7713 49.257L35.3573 50.024C34.534 51.4454 33.325 52.156 31.7303 52.156Z" fill="white"/>
<path d="M12 14H6C5.448 14 5 13.552 5 13C5 12.448 5.448 12 6 12H12C12.552 12 13 12.448 13 13C13 13.552 12.552 14 12 14Z" fill="#D5D7DE"/>
<path d="M15 19H6C5.448 19 5 18.552 5 18C5 17.448 5.448 17 6 17H15C15.552 17 16 17.448 16 18C16 18.552 15.552 19 15 19Z" fill="#D5D7DE"/>
<path d="M19 19C18.74 19 18.48 18.8899 18.29 18.7099C18.11 18.5199 18 18.26 18 18C18 17.74 18.11 17.48 18.29 17.29C18.66 16.92 19.34 16.92 19.71 17.29C19.89 17.48 20 17.74 20 18C20 18.26 19.89 18.5199 19.71 18.7099C19.52 18.8899 19.26 19 19 19Z" fill="#D5D7DE"/>
<path d="M31 19H23C22.448 19 22 18.552 22 18C22 17.448 22.448 17 23 17H31C31.552 17 32 17.448 32 18C32 18.552 31.552 19 31 19Z" fill="#D5D7DE"/>
<path d="M6 34C5.74 34 5.48 33.8899 5.29 33.7099C5.11 33.5199 5 33.26 5 33C5 32.74 5.11 32.48 5.29 32.29C5.66 31.92 6.34 31.92 6.71 32.29C6.89 32.48 7 32.73 7 33C7 33.26 6.89 33.5199 6.71 33.7099C6.52 33.8899 6.26 34 6 34Z" fill="#D5D7DE"/>
<path d="M18 34H10C9.448 34 9 33.552 9 33C9 32.448 9.448 32 10 32H18C18.552 32 19 32.448 19 33C19 33.552 18.552 34 18 34Z" fill="#D5D7DE"/>
<path d="M37 19H35C34.448 19 34 18.552 34 18C34 17.448 34.448 17 35 17H37C37.552 17 38 17.448 38 18C38 18.552 37.552 19 37 19Z" fill="#D5D7DE"/>
<path d="M28 24H6C5.448 24 5 23.552 5 23C5 22.448 5.448 22 6 22H28C28.552 22 29 22.448 29 23C29 23.552 28.552 24 28 24Z" fill="#D5D7DE"/>
<path d="M37 24H31C30.448 24 30 23.552 30 23C30 22.448 30.448 22 31 22H37C37.552 22 38 22.448 38 23C38 23.552 37.552 24 37 24Z" fill="#D5D7DE"/>
<path d="M10 29H6C5.448 29 5 28.552 5 28C5 27.448 5.448 27 6 27H10C10.552 27 11 27.448 11 28C11 28.552 10.552 29 10 29Z" fill="#D5D7DE"/>
<path d="M24 29H14C13.448 29 13 28.552 13 28C13 27.448 13.448 27 14 27H24C24.552 27 25 27.448 25 28C25 28.552 24.552 29 24 29Z" fill="#D5D7DE"/>
<path d="M37 29H28C27.448 29 27 28.552 27 28C27 27.448 27.448 27 28 27H37C37.552 27 38 27.448 38 28C38 28.552 37.552 29 37 29Z" fill="#D5D7DE"/>
</svg>
