<svg width="43" height="56" viewBox="0 0 43 56" fill="none" xmlns="http://www.w3.org/2000/svg">
<path d="M30.485 0H1.463C0.655 0 0 0.655 0 1.926V55C0 55.345 0.655 56 1.463 56H41.537C42.345 56 43 55.345 43 55V12.978C43 12.282 42.907 12.058 42.743 11.893L31.107 0.257C30.942 0.093 30.718 0 30.485 0Z" fill="#F7F8F9"/>
<path d="M31 0.151001V12H42.849L31 0.151001Z" fill="#E0E1E6"/>
<path d="M41.537 56H1.463C0.655 56 0 55.345 0 54.537V39H43V54.537C43 55.345 42.345 56 41.537 56Z" fill="#1565C0"/>
<path d="M7.33703 52H3.91803V43.329H7.33703C8.6977 43.329 9.8027 43.7277 10.652 44.525C11.51 45.3224 11.939 46.371 11.939 47.671C11.939 48.971 11.5144 50.0197 10.665 50.817C9.8157 51.6057 8.70636 52 7.33703 52ZM7.33703 50.375C8.16903 50.375 8.8277 50.115 9.31303 49.595C9.80703 49.075 10.054 48.4337 10.054 47.671C10.054 46.8737 9.8157 46.2237 9.33903 45.721C8.86236 45.2097 8.19503 44.954 7.33703 44.954H5.76403V50.375H7.33703Z" fill="white"/>
<path d="M17.3571 52.156C16.0484 52.156 14.9651 51.7357 14.1071 50.895C13.2578 50.0457 12.8331 48.971 12.8331 47.671C12.8331 46.371 13.2578 45.3007 14.1071 44.46C14.9651 43.6107 16.0484 43.186 17.3571 43.186C18.6744 43.186 19.7578 43.6064 20.6071 44.447C21.4651 45.2877 21.8941 46.3624 21.8941 47.671C21.8941 48.9797 21.4651 50.0544 20.6071 50.895C19.7578 51.7357 18.6744 52.156 17.3571 52.156ZM15.4461 49.712C15.9314 50.2494 16.5684 50.518 17.3571 50.518C18.1458 50.518 18.7828 50.2494 19.2681 49.712C19.7534 49.1747 19.9961 48.4944 19.9961 47.671C19.9961 46.8477 19.7534 46.1674 19.2681 45.63C18.7828 45.0927 18.1458 44.824 17.3571 44.824C16.5684 44.824 15.9314 45.0927 15.4461 45.63C14.9694 46.1674 14.7311 46.8477 14.7311 47.671C14.7311 48.4944 14.9694 49.1747 15.4461 49.712Z" fill="white"/>
<path d="M27.3885 52.156C26.0712 52.156 24.9705 51.74 24.0865 50.908C23.2112 50.0674 22.7735 48.9884 22.7735 47.671C22.7735 46.3537 23.2112 45.279 24.0865 44.447C24.9705 43.6064 26.0712 43.186 27.3885 43.186C29.0092 43.186 30.2182 43.8924 31.0155 45.305L29.4295 46.085C29.2388 45.721 28.9572 45.422 28.5845 45.188C28.2205 44.9454 27.8218 44.824 27.3885 44.824C26.5998 44.824 25.9498 45.0927 25.4385 45.63C24.9272 46.1674 24.6715 46.8477 24.6715 47.671C24.6715 48.4944 24.9272 49.1747 25.4385 49.712C25.9498 50.2494 26.5998 50.518 27.3885 50.518C27.8218 50.518 28.2205 50.401 28.5845 50.167C28.9572 49.933 29.2388 49.6297 29.4295 49.257L31.0155 50.024C30.1922 51.4454 28.9832 52.156 27.3885 52.156Z" fill="white"/>
<path d="M39.9793 52H37.7693L35.5983 48.828L33.4143 52H31.2173L34.3633 47.554L31.4123 43.329H33.6093L35.5983 46.293L37.5613 43.329H39.7843L36.8333 47.541L39.9793 52Z" fill="white"/>
<path d="M12 14H6C5.448 14 5 13.552 5 13C5 12.448 5.448 12 6 12H12C12.552 12 13 12.448 13 13C13 13.552 12.552 14 12 14Z" fill="#D5D7DE"/>
<path d="M15 19H6C5.448 19 5 18.552 5 18C5 17.448 5.448 17 6 17H15C15.552 17 16 17.448 16 18C16 18.552 15.552 19 15 19Z" fill="#D5D7DE"/>
<path d="M19 19C18.74 19 18.48 18.8899 18.29 18.7099C18.11 18.5199 18 18.26 18 18C18 17.74 18.11 17.48 18.29 17.29C18.66 16.92 19.34 16.92 19.71 17.29C19.89 17.48 20 17.74 20 18C20 18.26 19.89 18.5199 19.71 18.7099C19.52 18.8899 19.26 19 19 19Z" fill="#D5D7DE"/>
<path d="M31 19H23C22.448 19 22 18.552 22 18C22 17.448 22.448 17 23 17H31C31.552 17 32 17.448 32 18C32 18.552 31.552 19 31 19Z" fill="#D5D7DE"/>
<path d="M6 34C5.74 34 5.48 33.8899 5.29 33.7099C5.11 33.5199 5 33.26 5 33C5 32.74 5.11 32.48 5.29 32.29C5.66 31.92 6.34 31.92 6.71 32.29C6.89 32.48 7 32.73 7 33C7 33.26 6.89 33.5199 6.71 33.7099C6.52 33.8899 6.26 34 6 34Z" fill="#D5D7DE"/>
<path d="M18 34H10C9.448 34 9 33.552 9 33C9 32.448 9.448 32 10 32H18C18.552 32 19 32.448 19 33C19 33.552 18.552 34 18 34Z" fill="#D5D7DE"/>
<path d="M37 19H35C34.448 19 34 18.552 34 18C34 17.448 34.448 17 35 17H37C37.552 17 38 17.448 38 18C38 18.552 37.552 19 37 19Z" fill="#D5D7DE"/>
<path d="M28 24H6C5.448 24 5 23.552 5 23C5 22.448 5.448 22 6 22H28C28.552 22 29 22.448 29 23C29 23.552 28.552 24 28 24Z" fill="#D5D7DE"/>
<path d="M37 24H31C30.448 24 30 23.552 30 23C30 22.448 30.448 22 31 22H37C37.552 22 38 22.448 38 23C38 23.552 37.552 24 37 24Z" fill="#D5D7DE"/>
<path d="M10 29H6C5.448 29 5 28.552 5 28C5 27.448 5.448 27 6 27H10C10.552 27 11 27.448 11 28C11 28.552 10.552 29 10 29Z" fill="#D5D7DE"/>
<path d="M24 29H14C13.448 29 13 28.552 13 28C13 27.448 13.448 27 14 27H24C24.552 27 25 27.448 25 28C25 28.552 24.552 29 24 29Z" fill="#D5D7DE"/>
<path d="M37 29H28C27.448 29 27 28.552 27 28C27 27.448 27.448 27 28 27H37C37.552 27 38 27.448 38 28C38 28.552 37.552 29 37 29Z" fill="#D5D7DE"/>
</svg>
