<svg width="18" height="10" viewBox="0 0 18 10" fill="none" xmlns="http://www.w3.org/2000/svg">
<path fill-rule="evenodd" clip-rule="evenodd" d="M2 4C0.89543 4 0 3.10457 0 2C0 0.89543 0.89543 0 2 0C3.10457 0 4 0.89543 4 2C4 3.10457 3.10457 4 2 4ZM9 4C7.89543 4 7 3.10457 7 2C7 0.89543 7.89543 0 9 0C10.1046 0 11 0.89543 11 2C11 3.10457 10.1046 4 9 4ZM14 2C14 3.10457 14.8954 4 16 4C17.1046 4 18 3.10457 18 2C18 0.89543 17.1046 0 16 0C14.8954 0 14 0.89543 14 2Z" fill="#333333"/>
<path fill-rule="evenodd" clip-rule="evenodd" d="M2 10C0.89543 10 0 9.10457 0 8C0 6.89543 0.89543 6 2 6C3.10457 6 4 6.89543 4 8C4 9.10457 3.10457 10 2 10ZM9 10C7.89543 10 7 9.10457 7 8C7 6.89543 7.89543 6 9 6C10.1046 6 11 6.89543 11 8C11 9.10457 10.1046 10 9 10ZM14 8C14 9.10457 14.8954 10 16 10C17.1046 10 18 9.10457 18 8C18 6.89543 17.1046 6 16 6C14.8954 6 14 6.89543 14 8Z" fill="#333333"/>
</svg>
