<svg width="32" height="32" viewBox="0 0 32 32" fill="none" xmlns="http://www.w3.org/2000/svg">
<path d="M7.99975 12H23.9998C24.4158 12 24.6718 11.744 24.6718 11.328C24.6718 10.912 24.4158 10.656 23.9998 10.656H7.99975C7.61575 10.656 7.32775 10.944 7.32775 11.328C7.32775 11.712 7.61575 12 7.99975 12ZM7.99975 17.344H23.9998C24.4158 17.344 24.6718 17.056 24.6718 16.672C24.6718 16.288 24.4158 16 23.9998 16H7.99975C7.61575 16 7.32775 16.256 7.32775 16.672C7.32775 17.088 7.61575 17.344 7.99975 17.344ZM7.99975 22.656H23.9998C24.4158 22.656 24.6718 22.4 24.6718 21.984C24.6718 21.568 24.4158 21.344 23.9998 21.344H7.99975C7.61575 21.344 7.32775 21.6 7.32775 21.984C7.32775 22.368 7.61575 22.656 7.99975 22.656ZM29.3438 27.2V4.79999C29.3438 3.58399 28.5438 2.65599 27.6158 2.65599H4.41575C3.45575 2.65599 2.65575 3.58399 2.65575 4.79999V27.2C2.65575 28.416 3.45575 29.344 4.41575 29.344H27.4558C28.5438 29.344 29.3438 28.416 29.3438 27.2V27.2ZM30.6558 27.2C30.6558 29.056 29.3438 30.656 27.6158 30.656H4.41575C2.65575 30.656 1.34375 29.056 1.34375 27.2V4.79999C1.34375 2.94399 2.65575 1.34399 4.41575 1.34399H27.4558C29.3438 1.34399 30.6558 2.94399 30.6558 4.79999V27.2Z" fill="black"/>
</svg>
