<svg width="20" height="20" viewBox="0 0 20 20" fill="none" xmlns="http://www.w3.org/2000/svg">
<path fill-rule="evenodd" clip-rule="evenodd" d="M18 3V14C19.1046 14 20 13.1046 20 12V2C20 0.89543 19.1046 0 18 0H8C6.89543 0 6 0.89543 6 2H17C17.5523 2 18 2.44772 18 3ZM15 17V6C15 5.44772 14.5523 5 14 5H3C3 3.89543 3.89543 3 5 3H15C16.1046 3 17 3.89543 17 5V15C17 16.1046 16.1046 17 15 17ZM12 6H2C0.89543 6 0 6.89543 0 8V18C0 19.1046 0.89543 20 2 20H12C13.1046 20 14 19.1046 14 18V8C14 6.89543 13.1046 6 12 6ZM2 18V8H12V18H2Z" fill="#333333"/>
</svg>
