<svg width="9" height="8" viewBox="0 0 9 8" fill="none" xmlns="http://www.w3.org/2000/svg">
<path d="M8.11586 1.45736C8.11602 1.45218 8.11717 1.44716 8.11717 1.4419C8.11717 0.645539 6.30045 0 4.05949 0C1.81844 0 0.00179891 0.645539 0.00179891 1.4419C0.00179891 1.44716 0.00286795 1.45218 0.00303242 1.45736C0.00221008 1.45801 0.00163444 1.45859 0.000976562 1.45908V2.67582C0.669377 3.23773 2.23487 3.63196 4.05949 3.63196C5.8841 3.63196 7.4496 3.23773 8.11808 2.67582V1.45917C8.11726 1.45859 8.1166 1.45801 8.11586 1.45736Z" fill="#8E94AA"/>
<path d="M8.03331 3.79609C7.98158 3.7669 7.91818 3.76805 7.86711 3.79897C7.07741 4.27971 5.61808 4.57831 4.05859 4.57831C2.4991 4.57831 1.03977 4.27971 0.250075 3.79897C0.199254 3.76805 0.135769 3.76682 0.0839612 3.79609C0.0320714 3.8252 0 3.88005 0 3.93943V4.7806C0 4.83183 0.0239302 4.88019 0.0647184 4.91136C0.78542 5.46093 2.35313 5.81593 4.05859 5.81593C5.76405 5.81593 7.33176 5.46093 8.05238 4.91152C8.09317 4.88035 8.1171 4.832 8.1171 4.7806V3.93951C8.11718 3.88005 8.08511 3.8252 8.03331 3.79609Z" fill="#8E94AA"/>
<path d="M8.03331 5.98016C7.98158 5.95105 7.91818 5.95204 7.86711 5.98304C7.07741 6.46378 5.61808 6.76237 4.05859 6.76237C2.4991 6.76237 1.03977 6.46378 0.250075 5.98304C0.199254 5.95204 0.135769 5.95088 0.0839612 5.98016C0.0320714 6.00919 0 6.06404 0 6.12341V6.96459C0 7.01598 0.0239302 7.06434 0.0647184 7.0955C0.78542 7.64499 2.35313 8 4.05859 8C5.76405 8 7.33176 7.64499 8.05238 7.09559C8.09317 7.06442 8.1171 7.01598 8.1171 6.96475V6.12349C8.11718 6.06404 8.08511 6.00919 8.03331 5.98016Z" fill="#8E94AA"/>
</svg>
