<svg width="32" height="32" viewBox="0 0 32 32" fill="none" xmlns="http://www.w3.org/2000/svg">
<g clip-path="url(#clip0_4010_953)">
<path d="M31.328 6.65599H0.672C0.288 6.65599 0 6.36799 0 5.98399C0 5.59999 0.288 5.34399 0.672 5.34399H31.328C31.712 5.34399 32 5.63199 32 5.98399C32 6.33599 31.712 6.65599 31.328 6.65599ZM22.016 10.656H0.672C0.288 10.656 0 10.368 0 9.98399C0 9.59999 0.288 9.34399 0.672 9.34399H22.016C22.368 9.34399 22.656 9.63199 22.656 9.98399C22.656 10.336 22.368 10.656 22.016 10.656ZM31.328 14.656H0.672C0.288 14.656 0 14.368 0 13.984C0 13.6 0.288 13.344 0.672 13.344H31.328C31.712 13.344 32 13.632 32 13.984C32 14.336 31.712 14.656 31.328 14.656ZM22.016 18.656H0.672C0.288 18.656 0 18.368 0 17.984C0 17.6 0.288 17.344 0.672 17.344H22.016C22.368 17.344 22.656 17.632 22.656 17.984C22.656 18.336 22.368 18.656 22.016 18.656ZM31.328 22.656H0.672C0.288 22.656 0 22.368 0 21.984C0 21.6 0.288 21.344 0.672 21.344H31.328C31.712 21.344 32 21.632 32 21.984C32 22.336 31.712 22.656 31.328 22.656ZM22.016 26.656H0.672C0.288 26.656 0 26.368 0 25.984C0 25.6 0.288 25.344 0.672 25.344H22.016C22.368 25.344 22.656 25.632 22.656 25.984C22.656 26.336 22.368 26.656 22.016 26.656Z" fill="black"/>
</g>
<defs>
<clipPath id="clip0_4010_953">
<rect width="32" height="32" fill="white"/>
</clipPath>
</defs>
</svg>
