<svg width="43" height="56" viewBox="0 0 43 56" fill="none" xmlns="http://www.w3.org/2000/svg">
<path d="M30.485 0H1.463C0.655 0 0 0.655 0 1.926V55C0 55.345 0.655 56 1.463 56H41.537C42.345 56 43 55.345 43 55V12.978C43 12.282 42.907 12.058 42.743 11.893L31.107 0.257C30.942 0.093 30.718 0 30.485 0Z" fill="#F7F8F9"/>
<path d="M31 0.151001V12H42.849L31 0.151001Z" fill="#E0E1E6"/>
<path d="M41.537 56H1.463C0.655 56 0 55.345 0 54.537V39H43V54.537C43 55.345 42.345 56 41.537 56Z" fill="#343B4C"/>
<path d="M16.1097 52H9.97369V43.329H16.1097V44.954H11.8197V46.787H16.0187V48.412H11.8197V50.375H16.1097V52Z" fill="white"/>
<path d="M21.6608 52.156C20.3521 52.156 19.2688 51.7357 18.4108 50.895C17.5615 50.0457 17.1368 48.971 17.1368 47.671C17.1368 46.371 17.5615 45.3007 18.4108 44.46C19.2688 43.6107 20.3521 43.186 21.6608 43.186C22.9781 43.186 24.0615 43.6064 24.9108 44.447C25.7688 45.2877 26.1978 46.3624 26.1978 47.671C26.1978 48.9797 25.7688 50.0544 24.9108 50.895C24.0615 51.7357 22.9781 52.156 21.6608 52.156ZM19.7498 49.712C20.2351 50.2494 20.8721 50.518 21.6608 50.518C22.4495 50.518 23.0865 50.2494 23.5718 49.712C24.0571 49.1747 24.2998 48.4944 24.2998 47.671C24.2998 46.8477 24.0571 46.1674 23.5718 45.63C23.0865 45.0927 22.4495 44.824 21.6608 44.824C20.8721 44.824 20.2351 45.0927 19.7498 45.63C19.2731 46.1674 19.0348 46.8477 19.0348 47.671C19.0348 48.4944 19.2731 49.1747 19.7498 49.712Z" fill="white"/>
<path d="M31.0368 52H29.1778V44.954H26.6428V43.329H33.5588V44.954H31.0368V52Z" fill="white"/>
<path d="M29 12H13V17.6406H15.1538C15.1538 13.1875 19.4615 14.0781 19.4615 14.0781V27.4375C19.4615 27.4375 19.4615 29.5156 16.3846 29.5156V31H25.6154V29.5156C22.5385 29.5156 22.5385 27.4375 22.5385 27.4375V14.0781C22.5385 14.0781 26.5385 13.1875 26.5385 17.6406H29V12Z" fill="#D5D7DE"/>
</svg>
