<!-- Generated by IcoMoon.io -->
<svg version="1.1" xmlns="http://www.w3.org/2000/svg" width="32" height="32" viewBox="0 0 32 32">
<title>favorite</title>
<path d="M16 32c-8.832 0-16-7.168-16-16s7.168-16 16-16 16 7.168 16 16-7.168 16-16 16zM16 1.344c-8.096 0-14.656 6.56-14.656 14.656s6.56 14.656 14.656 14.656 14.656-6.56 14.656-14.656-6.56-14.656-14.656-14.656zM22.016 25.344c-0.128 0-0.256-0.064-0.384-0.128l-5.632-3.744-5.632 3.744c-0.224 0.16-0.544 0.16-0.768 0s-0.32-0.448-0.256-0.736l1.888-6.88-5.632-4.416c-0.224-0.16-0.32-0.48-0.224-0.736s0.352-0.448 0.64-0.448h6.88l2.496-6.24c0.192-0.512 1.024-0.512 1.216 0l2.496 6.24h6.912c0.256 0 0.512 0.192 0.608 0.448s0 0.576-0.224 0.736l-5.632 4.416 1.888 6.88c0.064 0.288-0.032 0.576-0.256 0.736-0.128 0.064-0.256 0.128-0.384 0.128zM16 20c0.128 0 0.256 0.032 0.384 0.096l4.512 3.040-1.536-5.632c-0.064-0.256 0.032-0.544 0.224-0.704l4.48-3.456h-5.408c-0.256 0-0.512-0.192-0.608-0.416l-2.048-5.12-2.048 5.088c-0.096 0.256-0.352 0.448-0.608 0.448h-5.408l4.48 3.456c0.192 0.16 0.288 0.448 0.224 0.704l-1.536 5.632 4.512-3.040c0.128-0.064 0.256-0.096 0.384-0.096z"></path>
</svg>
