<svg width="32" height="35" viewBox="0 0 32 35" fill="none" xmlns="http://www.w3.org/2000/svg">
<path d="M28 0H4C1.791 0 0 1.95891 0 4.375V21.875C0 24.2911 1.791 26.25 4 26.25H10L18 35V26.25H28C30.209 26.25 32 24.2911 32 21.875V4.375C32 1.95891 30.209 0 28 0ZM30 21.875C30 23.082 29.1025 24.0625 28 24.0625H16V29.7194L10.8282 24.0625H4C2.8975 24.0625 2 23.082 2 21.875V4.375C2 3.16805 2.8975 2.1875 4 2.1875H28C29.1025 2.1875 30 3.16805 30 4.375V21.875ZM6 8.75H26V6.5625H6V8.75ZM6 13.125H26V10.9375H6V13.125ZM6 17.5H18V15.3125H6V17.5Z" fill="black"/>
</svg>
