<svg width="43" height="56" viewBox="0 0 43 56" fill="none" xmlns="http://www.w3.org/2000/svg">
<path d="M30.485 0H1.463C0.655 0 0 0.655 0 1.926V55C0 55.345 0.655 56 1.463 56H41.537C42.345 56 43 55.345 43 55V12.978C43 12.282 42.907 12.058 42.743 11.893L31.107 0.257C30.942 0.093 30.718 0 30.485 0Z" fill="#F7F8F9"/>
<path d="M31 0.151001V12H42.849L31 0.151001Z" fill="#E0E1E6"/>
<path d="M41.537 56H1.463C0.655 56 0 55.345 0 54.537V39H43V54.537C43 55.345 42.345 56 41.537 56Z" fill="#D5D7DE"/>
<path d="M11.515 52.0001H9.66901V43.3291H15.805V44.9541H11.515V46.7871H15.714V48.4121H11.515V52.0001Z" fill="white"/>
<path d="M18.9418 52.0001H17.0958V43.3291H18.9418V52.0001Z" fill="white"/>
<path d="M26.1751 52.0001H20.6631V43.3291H22.5091V50.3751H26.1751V52.0001Z" fill="white"/>
<path d="M33.6038 52.0001H27.4678V43.3291H33.6038V44.9541H29.3138V46.7871H33.5128V48.4121H29.3138V50.3751H33.6038V52.0001Z" fill="white"/>
<path d="M16.7073 14.2932C16.3163 13.9022 15.6842 13.9022 15.2932 14.2932L9.29325 20.2933C8.90225 20.6843 8.90225 21.3163 9.29325 21.7073L15.2932 27.7073C15.4882 27.9023 15.7442 28.0003 16.0002 28.0003C16.2562 28.0003 16.5123 27.9023 16.7073 27.7073C17.0983 27.3163 17.0983 26.6843 16.7073 26.2933L11.4142 21.0003L16.7073 15.7073C17.0983 15.3163 17.0983 14.6842 16.7073 14.2932Z" fill="#D5D7DE"/>
<path d="M34.7073 20.2933L28.7073 14.2932C28.3163 13.9022 27.6842 13.9022 27.2932 14.2932C26.9022 14.6842 26.9022 15.3163 27.2932 15.7073L32.5862 21.0003L27.2932 26.2933C26.9022 26.6843 26.9022 27.3163 27.2932 27.7073C27.4882 27.9023 27.7443 28.0003 28.0003 28.0003C28.2563 28.0003 28.5123 27.9023 28.7073 27.7073L34.7073 21.7073C35.0983 21.3163 35.0983 20.6843 34.7073 20.2933Z" fill="#D5D7DE"/>
</svg>
