<svg width="32" height="32" viewBox="0 0 32 32" fill="none" xmlns="http://www.w3.org/2000/svg">
<g clip-path="url(#clip0_4013_1208)">
<path d="M28.384 30.432H3.584C1.6 30.432 0 28.8 0 26.816V5.60001C0 3.61601 1.6 1.98401 3.584 1.98401H28.352C30.336 1.98401 31.936 3.61601 31.936 5.60001V26.816C31.968 28.8 30.336 30.432 28.384 30.432ZM3.584 3.36001C2.368 3.36001 1.344 4.35201 1.344 5.60001V26.816C1.344 28.064 2.368 29.056 3.584 29.056H28.352C29.6 29.056 30.592 28.032 30.592 26.816V5.60001C30.592 4.35201 29.6 3.36001 28.352 3.36001H3.584V3.36001ZM16.608 19.552V10.88L20.224 13.984C20.48 14.24 20.928 14.208 21.152 13.92C21.408 13.632 21.376 13.184 21.088 12.96L16.384 8.92801C16.352 8.86401 16.288 8.83201 16.256 8.80001C16.224 8.80001 16.192 8.80001 16.16 8.80001C16.128 8.76801 16.096 8.76801 16.064 8.76801C16 8.76801 16 8.73601 15.936 8.73601C15.936 8.73601 15.872 8.73601 15.84 8.73601C15.808 8.73601 15.776 8.76801 15.712 8.80001C15.68 8.80001 15.68 8.80001 15.648 8.80001C15.616 8.83201 15.552 8.86401 15.52 8.92801L10.752 12.96C10.496 13.184 10.464 13.632 10.688 13.92C10.944 14.208 11.36 14.24 11.648 13.984L15.264 10.88V19.552C15.264 19.904 15.552 20.224 15.936 20.224C16.32 20.224 16.608 19.936 16.608 19.552ZM21.344 22.24C21.344 21.888 21.056 21.568 20.64 21.568H11.2C10.848 21.568 10.528 21.856 10.528 22.24C10.528 22.624 10.816 22.944 11.2 22.944H20.672C21.056 22.944 21.344 22.624 21.344 22.24Z" fill="black"/>
</g>
<defs>
<clipPath id="clip0_4013_1208">
<rect width="32" height="32" fill="white"/>
</clipPath>
</defs>
</svg>
