<svg width="27" height="23" viewBox="0 0 27 23" fill="none" xmlns="http://www.w3.org/2000/svg">
<path d="M21.7392 20.9529C21.6242 21.3837 21.2 21.7083 20.7183 21.7083H2.06875C1.73333 21.7083 1.42417 21.5558 1.22 21.2892C1.07741 21.1024 1.00453 20.8802 1.0025 20.6524V20.8829H1H0.774207M21.7392 20.9529L21.974 21.0386L21.9776 21.0288M21.7392 20.9529L21.9807 21.0174C21.9797 21.0212 21.9787 21.025 21.9776 21.0288M21.7392 20.9529L1 20.6329L0.75251 20.6307C0.752503 20.6314 0.752497 20.6322 0.752492 20.6329C0.751884 20.717 0.75913 20.8006 0.774207 20.8829M21.9776 21.0288C21.8277 21.5684 21.3036 21.9583 20.7183 21.9583H2.06875C1.65555 21.9583 1.27299 21.7696 1.0215 21.4411L1.0213 21.4409C0.893212 21.2731 0.810732 21.0822 0.774207 20.8829M21.9776 21.0288L26.2349 9.35607L26.25 9.31457V9.27041V9.19666C26.25 8.38232 25.736 7.70832 24.9542 7.70832H23.75V5.34666C23.75 4.58061 23.1272 3.95832 22.3617 3.95832H12.1766L10.168 1.14635L10.0932 1.04166H9.96458H2.13833C1.37276 1.04166 0.75 1.66442 0.75 2.42999V20.6329V20.8829H0.774207M11.4901 5.29166L11.4153 5.18697L9.40676 2.37499H2.13833C2.10827 2.37499 2.08333 2.39995 2.08333 2.42999V16.7166L5.04578 8.63726C5.17686 8.16562 5.59431 7.80933 6.08516 7.72686C6.08537 7.72683 6.08557 7.72679 6.08578 7.72676L6.12708 7.97332C6.185 7.96332 6.24458 7.95832 6.30458 7.95832L11.4901 5.29166ZM11.4901 5.29166H11.6187H22.3612C22.3915 5.29166 22.4163 5.3164 22.4163 5.34666V7.70832L11.4901 5.29166ZM20.7105 20.6156L20.7071 20.625H2.09237L6.31196 9.05104L6.31538 9.04166H23.5H24.8933C24.897 9.05322 24.9005 9.06683 24.9037 9.08229C24.9052 9.08956 24.9066 9.09683 24.9078 9.10402L20.7105 20.6156Z" fill="white" stroke="white" stroke-width="0.5"/>
</svg>
