<!-- Generated by IcoMoon.io -->
<svg version="1.1" xmlns="http://www.w3.org/2000/svg" width="32" height="32" viewBox="0 0 32 32">
<title>form-horizontal</title>
<path d="M0.672 1.344h30.656c0.384 0 0.672-0.32 0.672-0.672s-0.288-0.672-0.672-0.672h-30.656c-0.384 0-0.672 0.288-0.672 0.672s0.288 0.672 0.672 0.672zM31.328 4h-30.656c-0.384 0-0.672 0.288-0.672 0.672s0.288 0.672 0.672 0.672h30.656c0.384 0 0.672-0.32 0.672-0.672s-0.288-0.672-0.672-0.672zM31.328 8h-30.656c-0.384 0-0.672 0.288-0.672 0.672v16c0 0.352 0.288 0.672 0.672 0.672h30.656c0.384 0 0.672-0.32 0.672-0.672v-16c0-0.384-0.288-0.672-0.672-0.672zM1.344 9.344h29.312v11.040l-3.584 3.616h-25.728v-14.656zM28.96 24l1.696-1.728v1.728h-1.696zM9.344 26.656h-6.688c-1.472 0-2.656 1.216-2.656 2.688s1.184 2.656 2.656 2.656h6.688c1.472 0 2.656-1.184 2.656-2.656s-1.184-2.688-2.656-2.688zM9.344 30.656h-6.688c-0.736 0-1.312-0.576-1.312-1.312s0.576-1.344 1.312-1.344h6.688c0.736 0 1.312 0.608 1.312 1.344s-0.576 1.312-1.312 1.312z"></path>
</svg>
