<svg width="32" height="32" viewBox="0 0 32 32" fill="none" xmlns="http://www.w3.org/2000/svg">
<g clip-path="url(#clip0_4015_1345)">
<path d="M29.9543 2.40952e-06H1.42471C0.921529 -0.000949395 0.460223 0.280149 0.230204 0.727813C-0.00298685 1.1815 0.0379406 1.72784 0.335854 2.14219L10.7879 16.8659C10.7914 16.871 10.7952 16.8757 10.7987 16.8808C11.1785 17.3935 11.3837 18.0144 11.385 18.6528V30.6569C11.3828 31.0125 11.5224 31.3539 11.773 31.6061C12.0237 31.8584 12.3644 31.9999 12.7197 31.9999C12.9006 31.9999 13.0792 31.9637 13.2461 31.8945L19.1193 29.6549C19.6457 29.4944 19.995 28.9979 19.995 28.3998V18.6528C19.9959 18.0147 20.2015 17.3935 20.581 16.8808C20.5845 16.8757 20.5883 16.871 20.5918 16.8659L31.0435 2.14155C31.3414 1.72752 31.3823 1.1815 31.1491 0.727813C30.9191 0.280149 30.4578 -0.000949395 29.9543 2.40952e-06V2.40952e-06ZM19.2713 15.9185C18.6875 16.7108 18.3719 17.6686 18.3699 18.6528V28.2025L13.0094 30.2463V18.6528C13.0075 17.6686 12.6918 16.7108 12.1077 15.9185L1.96058 1.62441H29.4188L19.2713 15.9185Z" fill="black"/>
</g>
<defs>
<clipPath id="clip0_4015_1345">
<rect width="32" height="32" fill="white"/>
</clipPath>
</defs>
</svg>
