<svg width="16" height="16" viewBox="0 0 16 16" fill="none" xmlns="http://www.w3.org/2000/svg">
    <path d="M15.6336 1.79182H14.6319V14.265C14.6319 14.4674 14.4675 14.6316 14.2652 14.6316H1.79199V15.6334C1.79199 15.8358 1.95639 16 2.15872 16H15.6336C15.8359 16 16.0003 15.8358 16.0003 15.6334V2.15838C16.0003 1.95571 15.8359 1.79182 15.6336 1.79182Z" fill="#8E94AA"/>
    <path d="M13.7851 13.4182V0.36673C13.7851 0.164402 13.6207 0 13.4183 0H0.36673C0.164402 0 0 0.164402 0 0.36673V13.4185C0 13.6208 0.164402 13.7851 0.36673 13.7851H13.4183C13.6207 13.7849 13.7851 13.6208 13.7851 13.4182ZM10.0338 2.70815C10.8072 2.70815 11.4345 3.33511 11.4345 4.10887C11.4345 4.88245 10.8072 5.50942 10.0338 5.50942C9.26036 5.50942 8.63306 4.88245 8.63306 4.10887C8.63289 3.33511 9.26019 2.70815 10.0338 2.70815ZM1.1967 12.6222C1.26883 11.0385 2.09642 7.96123 3.30226 6.82751C4.38197 5.81977 5.29998 6.70154 6.01989 7.72724C6.68563 8.6808 7.26518 9.52466 7.75331 10.0549C8.55721 10.8585 9.24377 9.6403 10.0866 9.23886C11.3151 8.65422 12.3273 11.6956 12.5882 12.6259L1.1967 12.6222Z" fill="#8E94AA"/>
</svg>