<!-- Generated by IcoMoon.io -->
<svg version="1.1" xmlns="http://www.w3.org/2000/svg" width="32" height="32" viewBox="0 0 32 32">
<title>gallery-group</title>
<path d="M31.328 7.328h-6.656c-0.384 0-0.672 0.288-0.672 0.672v6.656c0 0.384 0.288 0.672 0.672 0.672h6.656c0.384 0 0.672-0.288 0.672-0.672v-6.656c0-0.384-0.288-0.672-0.672-0.672zM30.656 13.984h-5.312v-5.312h5.312v5.312zM31.328 16.672h-6.656c-0.384 0-0.672 0.288-0.672 0.672v6.656c0 0.352 0.288 0.672 0.672 0.672h6.656c0.384 0 0.672-0.32 0.672-0.672v-6.656c0-0.384-0.288-0.672-0.672-0.672zM30.656 23.328h-5.312v-5.344h5.312v5.344zM22.016 7.328h-21.344c-0.384 0-0.672 0.288-0.672 0.672v16c0 0.352 0.288 0.672 0.672 0.672h21.344c0.352 0 0.64-0.32 0.64-0.672v-16c0-0.384-0.288-0.672-0.64-0.672zM21.344 23.328h-20v-14.656h20v14.656z"></path>
</svg>
