<svg width="32" height="32" viewBox="0 0 32 32" fill="none" xmlns="http://www.w3.org/2000/svg">
<path d="M31.9678 6.9194C31.9366 6.63159 31.6478 6.37565 31.3278 6.37565H30.5134V4.27878L30.4822 4.16003C30.4509 3.89315 30.1853 3.65565 29.8884 3.65565H28.5359V1.90628L28.5091 1.79878C28.4822 1.55722 28.2406 1.34253 27.9722 1.34253H17.9059L17.7988 1.3694C17.5303 1.39628 17.3422 1.63784 17.3422 1.90628C17.3405 1.9806 17.3539 2.05449 17.3816 2.12349C17.4093 2.19249 17.4507 2.25517 17.5032 2.30773C17.5558 2.3603 17.6185 2.40168 17.6875 2.42935C17.7565 2.45703 17.8304 2.47044 17.9047 2.46878H27.4072V3.65628H18.7553L18.6366 3.68753C18.3397 3.71878 18.1319 3.9844 18.1319 4.28128C18.1299 4.36383 18.1446 4.44594 18.1754 4.5226C18.2061 4.59925 18.2521 4.66886 18.3105 4.72718C18.369 4.7855 18.4387 4.83131 18.5154 4.86183C18.5922 4.89235 18.6743 4.90694 18.7569 4.90471H29.2656V6.37503H19.3281L19.2003 6.40628C18.8803 6.43753 18.6562 6.72628 18.6562 7.04628C18.6562 7.43034 18.9441 7.71815 19.3281 7.71815H30.6562V27.6869L20.7681 15.3028L20.6722 15.2069C20.4163 14.951 19.9681 14.9828 19.7441 15.2694L13.5681 22.8213L9.15219 19.7494L9.05625 19.6869C8.92859 19.6246 8.78387 19.6066 8.64483 19.6355C8.50579 19.6645 8.38031 19.7388 8.28812 19.8469L1.34406 27.431V7.71878H3.32812C3.71219 7.71878 4.00031 7.43096 4.00031 7.0469V6.91878C3.96688 6.76517 3.88205 6.62757 3.75983 6.52871C3.63762 6.42984 3.48532 6.37563 3.32812 6.37503H2.22813V5.12847H3.85094C4.165 5.12847 4.40063 4.86128 4.40063 4.50347V4.38472C4.34844 4.11753 4.13906 3.88003 3.85094 3.88003H3.37968V2.46909H4.84843C5.1325 2.46909 5.34531 2.22753 5.34531 1.90659V1.79909C5.29813 1.55753 5.10875 1.34284 4.84843 1.34284H2.88406L2.79031 1.36972C2.57719 1.39659 2.38781 1.63816 2.38781 1.90659V3.88128H1.68063L1.57594 3.91253C1.34031 3.94378 1.13094 4.2094 1.13094 4.50628V6.37503H0.671875L0.543747 6.40628C0.255934 6.43753 0 6.72628 0 7.04628V29.8303C0.0625 30.1503 0.32 30.3744 0.671875 30.3744H31.4559C31.6096 30.341 31.7472 30.2561 31.8461 30.1339C31.945 30.0117 31.9993 29.8594 32 29.7022V7.04596L31.9678 6.9194ZM1.66375 29.0313L8.89594 21.1591L13.3119 24.2313L13.44 24.3272C13.5724 24.3762 13.7166 24.384 13.8535 24.3498C13.9905 24.3156 14.114 24.2408 14.2078 24.1353L20.2559 16.7753L30.08 29.0313H1.66375Z" fill="black"/>
<path d="M8.67188 7.65624H10.6559V9.67217L10.6872 9.7681C10.7184 10.0881 11.0072 10.3122 11.3272 10.3122C11.7112 10.3122 11.9994 10.024 11.9994 9.67217V7.65624H14.1113C14.4313 7.59374 14.6553 7.33624 14.6553 6.98405C14.6553 6.63186 14.3672 6.31218 14.0153 6.31218H11.9994V4.2C11.966 4.04655 11.8813 3.90907 11.7593 3.81022C11.6372 3.71137 11.4852 3.65706 11.3281 3.65625C10.9762 3.65625 10.6562 3.97625 10.6562 4.32812V6.31249H8.67188L8.54375 6.34374C8.25593 6.40624 8 6.66374 8 6.98374C8 7.36749 8.28781 7.65624 8.67188 7.65624Z" fill="black"/>
<path d="M11.3278 13C14.6559 13 17.3438 10.2813 17.3438 6.98407C17.3438 3.68688 14.6556 1 11.3278 1C8 1 5.34375 3.65625 5.34375 6.98407C5.34375 10.3119 7.99969 13 11.3278 13ZM11.3278 2.3125C11.9419 2.3104 12.5504 2.4298 13.1182 2.66383C13.686 2.89787 14.2019 3.24191 14.6361 3.67615C15.0704 4.11039 15.4145 4.62625 15.6486 5.19402C15.8826 5.76179 16.0021 6.37026 16 6.98438C16 9.57813 13.8878 11.6566 11.3278 11.6566C8.76781 11.6566 6.65594 9.54438 6.65594 6.98438C6.65594 4.42438 8.7675 2.3125 11.3278 2.3125Z" fill="black"/>
</svg>
