<svg width="32" height="32" viewBox="0 0 32 32" fill="none" xmlns="http://www.w3.org/2000/svg">
<g clip-path="url(#clip0_4013_1260)">
<path d="M23.3276 22.656H0.671584C0.287583 22.656 -0.000416939 22.368 -0.000416939 21.984V1.98399C-0.000416939 1.63199 0.287583 1.34399 0.671584 1.34399H23.3276C23.7116 1.34399 23.9996 1.63199 23.9996 1.98399V21.984C23.9996 22.368 23.7116 22.656 23.3276 22.656ZM1.34358 21.344H22.6556V2.65599H1.34358V21.344V21.344ZM23.3276 22.656C23.1036 22.656 22.8476 22.528 22.7516 22.304L15.9676 8.736L11.2316 16.992C11.1356 17.184 10.9756 17.312 10.7516 17.312C10.5596 17.344 10.3356 17.28 10.2076 17.152L6.78359 13.728L1.21558 22.368C1.02358 22.656 0.607584 22.752 0.319583 22.56C-0.000416931 22.368 -0.0964171 21.952 0.0955832 21.632L6.11159 12.32C6.20759 12.128 6.39959 12.032 6.59159 12C6.78359 11.968 7.00759 12.064 7.13559 12.192L10.5276 15.584L15.4236 7.00799C15.5516 6.78399 15.7756 6.656 16.0316 6.656C16.2556 6.656 16.4796 6.81599 16.6076 7.03999L23.9356 21.696C24.0956 22.016 23.9676 22.432 23.6476 22.592C23.5516 22.656 23.4236 22.656 23.3276 22.656ZM7.32759 10.656C5.50359 10.656 3.99959 9.184 3.99959 7.328C3.99959 5.47199 5.50359 3.99999 7.32759 3.99999C9.15159 3.99999 10.6556 5.50399 10.6556 7.328C10.6556 9.152 9.18359 10.656 7.32759 10.656V10.656ZM7.32759 5.34399C6.23959 5.34399 5.34359 6.23999 5.34359 7.328C5.34359 8.416 6.23959 9.344 7.32759 9.344C8.41559 9.344 9.34359 8.448 9.34359 7.328C9.34359 6.20799 8.44759 5.34399 7.32759 5.34399V5.34399ZM26.0156 25.344H3.32759C2.97559 25.344 2.65559 25.024 2.65559 24.672V21.984C2.65559 21.632 2.97559 21.344 3.32759 21.344C3.67959 21.344 3.99959 21.632 3.99959 21.984V24H25.3436V5.34399H23.9996C23.6476 5.34399 23.3276 5.02399 23.3276 4.67199C23.3276 4.31999 23.6476 3.99999 23.9996 3.99999H26.0156C26.3676 3.99999 26.6556 4.28799 26.6556 4.67199V24.672C26.6556 25.024 26.3676 25.344 26.0156 25.344ZM28.6716 28H6.01559C5.63159 28 5.34359 27.712 5.34359 27.328V24.672C5.34359 24.288 5.63159 24 6.01559 24C6.39959 24 6.65559 24.288 6.65559 24.672V26.656H27.9996V8H26.0156C25.6316 8 25.3436 7.712 25.3436 7.328C25.3436 6.944 25.6316 6.656 26.0156 6.656H28.6716C29.0236 6.656 29.3436 6.976 29.3436 7.328V27.328C29.3436 27.712 29.0236 28 28.6716 28V28ZM31.3276 30.656H8.67159C8.28759 30.656 7.99959 30.368 7.99959 30.016V27.328C7.99959 26.976 8.28759 26.656 8.67159 26.656C9.05559 26.656 9.34359 26.976 9.34359 27.328V29.344H30.6556V12H28.6716C28.2876 12 27.9996 11.712 27.9996 11.328C27.9996 10.944 28.2876 10.656 28.6716 10.656H31.3276C31.7116 10.656 31.9996 10.976 31.9996 11.328V30.016C31.9996 30.368 31.7116 30.656 31.3276 30.656Z" fill="black"/>
</g>
<defs>
<clipPath id="clip0_4013_1260">
<rect width="32" height="32" fill="white"/>
</clipPath>
</defs>
</svg>
