<svg width="43" height="56" viewBox="0 0 43 56" fill="none" xmlns="http://www.w3.org/2000/svg">
<path d="M30.485 0H1.463C0.655 0 0 0.655 0 1.926V55C0 55.345 0.655 56 1.463 56H41.537C42.345 56 43 55.345 43 55V12.978C43 12.282 42.907 12.058 42.743 11.893L31.107 0.257C30.942 0.093 30.718 0 30.485 0Z" fill="#F7F8F9"/>
<path d="M31 0.151001V12H42.849L31 0.151001Z" fill="#E0E1E6"/>
<path d="M41.537 56H1.463C0.655 56 0 55.345 0 54.537V39H43V54.537C43 55.345 42.345 56 41.537 56Z" fill="#7841B8"/>
<path d="M16.3817 52.169C15.0817 52.169 13.9854 51.753 13.0927 50.921C12.2087 50.089 11.7667 49.0057 11.7667 47.671C11.7667 46.3277 12.2087 45.2444 13.0927 44.421C13.9854 43.5977 15.0817 43.186 16.3817 43.186C17.9591 43.186 19.1551 43.8317 19.9697 45.123L18.4357 45.955C18.2277 45.6257 17.9417 45.357 17.5777 45.149C17.2224 44.9324 16.8237 44.824 16.3817 44.824C15.5931 44.824 14.9431 45.0927 14.4317 45.63C13.9204 46.1674 13.6647 46.8477 13.6647 47.671C13.6647 48.4944 13.9204 49.1747 14.4317 49.712C14.9431 50.2494 15.5931 50.518 16.3817 50.518C16.7457 50.518 17.0967 50.453 17.4347 50.323C17.7727 50.193 18.0371 50.037 18.2277 49.855V48.815H15.9397V47.203H20.0737V50.531C19.0944 51.623 17.8637 52.169 16.3817 52.169Z" fill="white"/>
<path d="M23.3852 52H21.5392V43.329H23.3852V52Z" fill="white"/>
<path d="M26.9526 52H25.1066V43.329H31.2426V44.954H26.9526V46.787H31.1516V48.412H26.9526V52Z" fill="white"/>
<path d="M0 39.1379H11H43V28.1379L33 18.6379L22.5 30.1379L17.017 24.6549L0 39.1379Z" fill="#E0E1E6"/>
<path d="M12.431 19.138C14.9544 19.138 17 17.0924 17 14.569C17 12.0456 14.9544 10 12.431 10C9.90761 10 7.862 12.0456 7.862 14.569C7.862 17.0924 9.90761 19.138 12.431 19.138Z" fill="#D5D7DE"/>
</svg>
