<!-- Generated by IcoMoon.io -->
<svg version="1.1" xmlns="http://www.w3.org/2000/svg" width="32" height="32" viewBox="0 0 32 32">
<title>google-maps</title>
<path d="M24 24c-0.32 0-0.576-0.224-0.64-0.544-1.056-5.184-2.912-8.064-4.384-10.368-0.384-0.576-0.736-1.12-1.056-1.664-0.576-0.832-0.96-1.824-1.12-2.88-0.096-0.448-0.128-0.832-0.128-1.216 0-4.032 3.296-7.328 7.328-7.328s7.328 3.296 7.328 7.328c0 0.384-0.032 0.768-0.128 1.216-0.16 1.056-0.544 2.048-1.152 2.912-0.256 0.512-0.64 1.056-0.992 1.632-1.504 2.304-3.36 5.184-4.416 10.368-0.032 0.32-0.32 0.544-0.64 0.544zM24 1.344c-3.296 0-5.984 2.688-5.984 5.984 0 0.288 0.032 0.608 0.096 0.96 0.128 0.928 0.448 1.728 0.928 2.432 0.32 0.544 0.672 1.088 1.056 1.664 1.248 1.952 2.784 4.352 3.904 8.16 1.12-3.808 2.656-6.176 3.936-8.16 0.352-0.576 0.704-1.12 0.992-1.632 0.512-0.736 0.832-1.536 0.96-2.432 0.096-0.384 0.128-0.704 0.128-0.992 0-3.296-2.72-5.984-6.016-5.984zM24 10.656c-1.824 0-3.328-1.472-3.328-3.328s1.504-3.328 3.328-3.328 3.328 1.504 3.328 3.328-1.504 3.328-3.328 3.328zM24 5.344c-1.088 0-1.984 0.896-1.984 1.984s0.896 2.016 1.984 2.016 2.016-0.896 2.016-2.016-0.896-1.984-2.016-1.984zM26.656 32h-22.656c-1.824 0-3.328-1.504-3.328-3.328v-21.344c0-1.824 1.504-3.328 3.328-3.328h13.344c0.352 0 0.672 0.288 0.672 0.672s-0.32 0.672-0.672 0.672h-13.344c-1.088 0-1.984 0.896-1.984 1.984v21.344c0 1.088 0.896 1.984 1.984 1.984h22.656c1.12 0 2.016-0.896 2.016-1.984v-16.672c0-0.384 0.288-0.672 0.672-0.672s0.672 0.288 0.672 0.672v16.672c0 1.824-1.504 3.328-3.36 3.328zM2.656 30.656c-0.16 0-0.32-0.064-0.448-0.192-0.256-0.256-0.256-0.672 0-0.928l16.64-16.672c0.288-0.256 0.704-0.256 0.96 0s0.256 0.672 0 0.928l-16.672 16.672c-0.128 0.128-0.288 0.192-0.48 0.192zM28 30.656c-0.16 0-0.352-0.064-0.48-0.192l-12.672-12.672c-0.256-0.256-0.256-0.672 0-0.928s0.704-0.256 0.96 0l12.672 12.672c0.256 0.256 0.256 0.672 0 0.928-0.128 0.128-0.32 0.192-0.48 0.192zM6.656 12c-1.472 0-2.656-1.184-2.656-2.656s1.184-2.688 2.656-2.688 2.688 1.216 2.688 2.688-1.216 2.656-2.688 2.656zM6.656 8c-0.736 0-1.312 0.608-1.312 1.344s0.576 1.312 1.312 1.312 1.344-0.576 1.344-1.312-0.608-1.344-1.344-1.344zM9.344 8h-2.688c-0.352 0-0.64-0.288-0.64-0.672s0.288-0.672 0.64-0.672h2.688c0.352 0 0.672 0.32 0.672 0.672s-0.32 0.672-0.672 0.672zM6.656 17.344c-2.272 0-3.328-1.568-3.328-2.688 0-1.248 1.184-2.080 3.52-2.496-0.096-0.256-0.192-0.512-0.192-0.832 0-0.352 0.32-0.672 0.672-0.672s0.672 0.32 0.672 0.672c0 0.32 0.288 0.608 0.736 1.024 0.576 0.544 1.28 1.248 1.28 2.304 0 2.368-1.632 2.688-3.36 2.688zM7.84 13.344c-2.336 0.32-3.168 0.896-3.168 1.312 0 0.288 0.352 1.344 1.984 1.344 1.92 0 2.016-0.448 2.016-1.344 0-0.448-0.32-0.8-0.832-1.312z"></path>
</svg>
