<svg width="20" height="16" viewBox="0 0 20 16" fill="none" xmlns="http://www.w3.org/2000/svg">
    <path d="M13.2661 5.17598C13.122 4.1193 12.5232 3.20853 11.6772 2.64015C11.7546 1.28016 12.8803 0.200461 14.2594 0.2L13.2661 5.17598ZM13.2661 5.17598C13.5728 5.30424 13.9072 5.37662 14.2594 5.37662C15.6891 5.37662 16.8478 4.21786 16.8478 2.78843C16.8478 1.35877 15.6891 0.200033 14.2594 0.2L13.2661 5.17598ZM15.2644 12.9028V12.2202C15.2644 10.3253 14.0699 8.70563 12.3955 8.07151C12.8961 7.49887 13.2201 6.76937 13.2844 5.96691H15.4426C17.3006 5.96691 18.8126 7.47896 18.8126 9.33691V12.0985L18.7168 12.147C18.7167 12.1471 18.7165 12.1472 18.7164 12.1473C18.6442 12.1834 17.4142 12.7896 15.2644 12.9028ZM14.1024 15.0257L14.102 15.0259C14.0295 15.0628 12.5397 15.8 9.95406 15.8C8.63039 15.8 7.01833 15.6072 5.15935 15.0263L5.09303 15.0056V12.216C5.09303 10.3578 6.6051 8.8455 8.46327 8.8455H10.8294C12.6875 8.8455 14.1996 10.3578 14.1989 12.2159V12.216V14.9769L14.1024 15.0257ZM6.89671 8.07154C5.22187 8.70598 4.02772 10.3252 4.02725 12.2202V12.2202V12.8806C2.92477 12.8002 1.66725 12.5848 0.266545 12.1476C0.266451 12.1476 0.266358 12.1475 0.266265 12.1475L0.2 12.1266V9.33691C0.2 7.47897 1.71204 5.96691 3.57024 5.96691H5.93608C5.96021 5.96691 5.98416 5.96747 6.00831 5.96844C6.07306 6.76995 6.39648 7.49925 6.89671 8.07154ZM12.235 5.66702C12.235 7.09647 11.0762 8.25545 9.64655 8.25545C8.21704 8.25545 7.05765 7.09663 7.05765 5.66726C7.05765 4.23786 8.21707 3.07883 9.64655 3.07883C11.076 3.07883 12.235 4.2376 12.235 5.66702ZM6.05451 5.0234C5.67165 5.24737 5.22815 5.37709 4.75376 5.37709C3.32384 5.37709 2.16533 4.21811 2.16533 2.78914C2.16533 1.35945 3.32385 0.200712 4.75376 0.200712C6.18271 0.200712 7.34171 1.35945 7.34171 2.78914C7.34171 2.80834 7.34099 2.82595 7.33989 2.84463C6.67961 3.38452 6.2117 4.14971 6.05451 5.0234Z" fill="#8E94AA" stroke="#343B4C" stroke-width="0.4"/>
</svg>