<svg width="27" height="33" viewBox="0 0 27 33" fill="none" xmlns="http://www.w3.org/2000/svg">
<path fill-rule="evenodd" clip-rule="evenodd" d="M0 0H27V10.4914H22.3078L22.0368 9.44238C21.7178 8.2078 21.4124 7.28687 21.1287 6.64842L21.1239 6.63765L21.1193 6.6268C20.8396 5.96748 20.581 5.56934 20.3771 5.35066C20.1385 5.09468 19.9222 4.95675 19.7348 4.88388L19.7266 4.88068L19.7184 4.87738C19.575 4.81949 19.187 4.737 18.4171 4.737H16.987V26.0058C16.987 26.8289 17.0295 27.4275 17.0977 27.8318C17.1742 28.2035 17.2652 28.4302 17.3369 28.5573C17.4022 28.6407 17.4896 28.7173 17.6168 28.7861C17.8196 28.8779 18.2245 29.0089 18.9044 29.16L20.0043 29.4045V33H6.97333V29.4141L8.06172 29.1626C8.47246 29.0677 8.81805 28.9699 9.10363 28.8716C9.34221 28.7894 9.46558 28.7152 9.51853 28.6752C9.57336 28.6307 9.62398 28.5717 9.66997 28.4806L9.68366 28.4535L9.69852 28.4271C9.73794 28.3568 9.81381 28.1704 9.87451 27.7978L9.87801 27.7763L9.8822 27.7549C9.94552 27.4309 9.99064 26.8664 9.99064 26.0058V4.737H8.58291C7.96565 4.737 7.52985 4.79637 7.23916 4.87892C7.09453 4.92302 6.88996 5.03374 6.63662 5.31355L6.6284 5.32263L6.62003 5.33155C6.38898 5.57795 6.11028 6.00916 5.81853 6.70377C5.54207 7.38299 5.26413 8.28195 4.99142 9.419L4.73421 10.4914H0V0ZM4.51513 6.17526C4.84294 5.39325 5.20054 4.79568 5.58795 4.38254C5.97536 3.95465 6.39257 3.67431 6.83957 3.54151C7.30148 3.40872 7.88259 3.34232 8.58291 3.34232H11.3991V26.0058C11.3991 26.8911 11.3544 27.5625 11.265 28.0199C11.1905 28.4773 11.0787 28.8388 10.9297 29.1044C10.7956 29.37 10.6168 29.5913 10.3933 29.7683C10.1847 29.9306 9.90903 30.0708 9.56633 30.1889C9.54515 30.1961 9.52378 30.2034 9.50221 30.2106C9.17463 30.3205 8.80115 30.4239 8.38175 30.5208V31.6053H18.5959V30.5208C18.1308 30.4174 17.7443 30.314 17.4364 30.2106C17.2609 30.1517 17.111 30.0928 16.9867 30.0339C16.644 29.8569 16.3683 29.6208 16.1597 29.3257C15.966 29.0158 15.817 28.6027 15.7127 28.0863C15.6233 27.5699 15.5786 26.8764 15.5786 26.0058V3.34232H18.4171C19.2366 3.34232 19.8475 3.42348 20.2498 3.58578C20.667 3.74808 21.0544 4.02105 21.4121 4.40468C21.7697 4.7883 22.1049 5.34899 22.4178 6.08673C22.7456 6.82448 23.0734 7.82781 23.4012 9.09673H25.5916V1.39468H1.40842V9.09673H3.62111C3.90422 7.91634 4.20222 6.94252 4.51513 6.17526Z" fill="#515F81"/>
</svg>
