<svg width="32" height="32" viewBox="0 0 32 32" fill="none" xmlns="http://www.w3.org/2000/svg">
<path d="M15.9999 5.98401C19.7439 5.98401 23.4559 7.58401 26.8158 10.272C29.3438 12.256 31.3278 14.944 31.3278 16C31.3278 17.056 29.3438 19.584 26.8158 21.728C23.4559 24.384 19.7439 25.984 15.9999 25.984C12.2559 25.984 8.54387 24.384 5.21587 21.728C2.65587 19.584 0.671875 17.056 0.671875 16C0.671875 14.944 2.65587 12.384 5.21587 10.272C8.54387 7.58401 12.2559 5.98401 15.9999 5.98401ZM22.1439 8.928C23.3279 10.4 23.9999 12.128 23.9999 13.984C23.9999 18.4 20.4159 21.984 15.9999 21.984C11.5839 21.984 7.99987 18.4 7.99987 13.984C7.99987 12 8.67187 10.272 9.85587 8.928C8.54387 9.6 7.32787 10.4 6.01587 11.456C3.74387 13.344 2.01587 15.584 2.01587 16.128C2.01587 16.672 3.87187 18.944 6.01587 20.8C9.05587 23.328 12.5439 24.8 15.9999 24.8C19.4559 24.8 22.9439 23.328 26.0159 20.8C28.2558 18.944 30.0158 16.672 30.0158 16.128C30.0158 15.584 28.1278 13.344 26.0159 11.456C24.6719 10.4 23.4559 9.472 22.1439 8.928V8.928ZM15.9999 7.32801H15.7439C12.1279 7.45601 9.34387 10.4 9.34387 13.984C9.34387 17.728 12.2559 20.672 15.9999 20.672C19.7439 20.672 22.6559 17.728 22.6559 13.984C22.6559 10.4 19.8719 7.45601 16.2559 7.32801H15.9999V7.32801ZM15.9999 10.784C17.7279 10.784 19.1999 12.256 19.1999 13.984C19.1999 15.744 17.7279 17.184 15.9999 17.184C14.2719 17.184 12.7999 15.744 12.7999 13.984C12.7999 13.856 12.7999 13.856 12.7999 13.728C13.0559 13.856 13.3439 13.856 13.5999 13.856C14.9439 13.856 15.9999 12.8 15.9999 11.456C16.1279 11.2 16.1279 11.072 15.9999 10.784Z" fill="black"/>
</svg>
