<svg width="18" height="15" viewBox="0 0 18 15" fill="none" xmlns="http://www.w3.org/2000/svg">
<path d="M9.64284 0C5.87199 0 2.75113 2.80048 2.22846 6.42855H0L3.21429 9.64284L6.42858 6.42855H4.39401C4.89184 3.98645 7.05596 2.14284 9.64284 2.14284C12.5966 2.14284 15 4.54623 15 7.49997C15 10.4537 12.5966 12.8571 9.64284 12.8571C7.92428 12.8571 6.29777 12.0232 5.29226 10.6274L3.55329 11.8788C4.96058 13.8333 7.23685 15 9.64284 15C13.7784 15 17.1428 11.635 17.1428 7.5C17.1428 3.36495 13.7784 0 9.64284 0Z" fill="#8E94AA"/>
<path d="M8.57142 4.28571V8.64257L11.77 10.5615L12.8728 8.7242L10.7143 7.42887V4.28574L8.57142 4.28571Z" fill="#8E94AA"/>
</svg>
