<svg width="32" height="32" viewBox="0 0 32 32" fill="none" xmlns="http://www.w3.org/2000/svg">
<g clip-path="url(#clip0_4014_1285)">
<path d="M10.0162 31.3279C9.92018 31.3279 9.82418 31.3279 9.76018 31.2959C9.40818 31.1359 9.24818 30.7519 9.37618 30.4319L21.3762 1.08794C21.5362 0.73594 21.9202 0.57594 22.2402 0.70394C22.5922 0.86394 22.7522 1.24794 22.6242 1.59994L10.6242 30.9119C10.5282 31.1679 10.2722 31.3279 10.0162 31.3279V31.3279ZM23.3282 25.9839C23.1682 25.9839 23.0402 25.9519 22.9122 25.8239C22.6242 25.5999 22.5922 25.1839 22.8162 24.8959L30.4642 15.9999L22.8162 7.10394C22.5922 6.81594 22.6242 6.39994 22.9122 6.14394C23.1682 5.91994 23.6162 5.95194 23.8402 6.23994L31.8402 15.5519C32.0642 15.8079 32.0642 16.1919 31.8402 16.4159L23.8402 25.7599C23.7122 25.9199 23.5202 25.9839 23.3282 25.9839V25.9839ZM8.67218 25.9839C8.48018 25.9839 8.28818 25.9199 8.16018 25.7599L0.160187 16.4159C-0.0638125 16.1919 -0.0638125 15.8079 0.160187 15.5519L8.16018 6.23994C8.41618 5.95194 8.83218 5.91994 9.08818 6.14394C9.37618 6.39994 9.40818 6.81594 9.18418 7.10394L1.53619 15.9999L9.18418 24.8959C9.40818 25.1839 9.37618 25.5999 9.08818 25.8239C8.99218 25.9519 8.83218 25.9839 8.67218 25.9839V25.9839Z" fill="black"/>
</g>
<defs>
<clipPath id="clip0_4014_1285">
<rect width="32" height="32" fill="white"/>
</clipPath>
</defs>
</svg>
