<!-- Generated by IcoMoon.io -->
<svg version="1.1" xmlns="http://www.w3.org/2000/svg" width="32" height="32" viewBox="0 0 32 32">
<title>image</title>
<path d="M1.344 24.544l6.784-9.6c0.288-0.288 0.672-0.416 1.088-0.16l4.384 3.072 6.144-7.456c0.256-0.416 0.928-0.416 1.184 0l9.728 14.528v-19.456h-29.312v19.072zM30.016 26.656l-9.888-14.656-5.856 7.2c-0.256 0.256-0.672 0.384-0.928 0.128l-4.288-3.072-7.328 10.4h28.288zM0.672 28.128c-0.416 0-0.8-0.256-0.8-0.672v-22.656c0-0.544 0.384-0.8 0.8-0.8h30.656c0.416 0 0.672 0.256 0.672 0.672v22.656c0 0.416-0.256 0.672-0.672 0.672h-30.656zM8.544 9.856c0-0.8-0.672-1.6-1.472-1.6s-1.6 0.672-1.6 1.6 0.672 1.6 1.472 1.6 1.6-0.8 1.6-1.6zM10.016 9.856c0 1.6-1.344 3.072-2.944 3.072s-3.072-1.472-3.072-3.072 1.344-3.072 2.944-3.072 3.072 1.344 3.072 3.072z"></path>
</svg>
