<svg width="32" height="32" viewBox="0 0 32 32" fill="none" xmlns="http://www.w3.org/2000/svg">
<g clip-path="url(#clip0_4013_1204)">
<path d="M7.328 14.656C9.184 14.656 10.656 13.184 10.656 11.328C10.656 9.472 9.184 8 7.328 8C5.472 8 4 9.504 4 11.328C4 13.152 5.504 14.656 7.328 14.656V14.656ZM7.328 9.344C8.448 9.344 9.344 10.24 9.344 11.328C9.344 12.416 8.448 13.344 7.328 13.344C6.208 13.344 5.344 12.448 5.344 11.328C5.344 10.208 6.24 9.344 7.328 9.344V9.344ZM31.328 4H16V1.344H16.672C17.024 1.344 17.344 1.024 17.344 0.672C17.344 0.32 17.024 0 16.672 0H14.016C13.632 0 13.344 0.288 13.344 0.672C13.344 1.056 13.632 1.344 14.016 1.344H14.656V4H0.672C0.288 4 0 4.288 0 4.672V27.328C0 27.712 0.288 28 0.672 28H14.656V30.656H14.016C13.632 30.656 13.344 30.976 13.344 31.328C13.344 31.68 13.632 32 14.016 32H16.672C17.024 32 17.344 31.712 17.344 31.328C17.344 30.944 17.024 30.656 16.672 30.656H16V28H31.328C31.712 28 32 27.712 32 27.328V4.672C32 4.288 31.712 4 31.328 4V4ZM14.656 5.344V14.464L10.592 20.896L6.496 16.224C6.368 16.064 6.144 16 5.92 16C5.728 16.032 5.536 16.16 5.408 16.32L1.344 23.488V5.344H14.656V5.344ZM1.344 26.656V26.176L6.112 17.792L10.176 22.432C10.304 22.592 10.528 22.688 10.72 22.656C10.944 22.656 11.104 22.528 11.232 22.368L14.656 16.96V26.656H1.344V26.656ZM30.656 26.656H16V5.344H30.656V26.656Z" fill="black"/>
</g>
<defs>
<clipPath id="clip0_4013_1204">
<rect width="32" height="32" fill="white"/>
</clipPath>
</defs>
</svg>
