<svg width="32" height="32" viewBox="0 0 32 32" fill="none" xmlns="http://www.w3.org/2000/svg">
<g clip-path="url(#clip0_4010_943)">
<path d="M1.472 24.544L8.256 14.944C8.544 14.656 8.928 14.528 9.344 14.784L13.728 17.856L19.872 10.4C20.128 9.984 20.8 9.984 21.056 10.4L30.784 24.928V5.472H1.472V24.544V24.544ZM30.144 26.656L20.256 12L14.4 19.2C14.144 19.456 13.728 19.584 13.472 19.328L9.184 16.256L1.856 26.656H30.144ZM0.8 28.128C0.384 28.128 0 27.872 0 27.456V4.8C0 4.256 0.384 4 0.8 4H31.456C31.872 4 32.128 4.256 32.128 4.672V27.328C32.128 27.744 31.872 28 31.456 28H0.8V28.128ZM8.672 9.856C8.672 9.056 8 8.256 7.2 8.256C6.4 8.256 5.6 8.928 5.6 9.856C5.6 10.784 6.272 11.456 7.072 11.456C7.872 11.456 8.672 10.656 8.672 9.856ZM10.144 9.856C10.144 11.456 8.8 12.928 7.2 12.928C5.6 12.928 4.128 11.456 4.128 9.856C4.128 8.256 5.472 6.784 7.072 6.784C8.672 6.784 10.144 8.128 10.144 9.856V9.856Z" fill="black"/>
</g>
<defs>
<clipPath id="clip0_4010_943">
<rect width="32" height="32" fill="white"/>
</clipPath>
</defs>
</svg>
