<svg width="42" height="34" viewBox="0 0 42 34" fill="none" xmlns="http://www.w3.org/2000/svg">
<path d="M41.2759 0H0.724138C0.324414 0 0 0.32369 0 0.724138V32.5862C0 32.9867 0.324414 33.3103 0.724138 33.3103H41.2759C41.6756 33.3103 42 32.9867 42 32.5862V0.724138C42 0.32369 41.6756 0 41.2759 0ZM40.5517 31.8621H1.44828V1.44828H40.5517V31.8621Z" fill="#515F81"/>
<path d="M11.5862 16.031C13.81 16.031 15.6189 14.2221 15.6189 11.999C15.6189 9.77441 13.81 7.96552 11.5862 7.96552C9.36238 7.96552 7.55348 9.77441 7.55348 11.9982C7.55348 14.2221 9.36238 16.031 11.5862 16.031ZM11.5862 9.41379C13.0113 9.41379 14.1707 10.5739 14.1707 11.9982C14.1707 13.4226 13.0113 14.5827 11.5862 14.5827C10.1611 14.5827 9.00176 13.4233 9.00176 11.999C9.00176 10.5746 10.1611 9.41379 11.5862 9.41379Z" fill="#515F81"/>
<path d="M5.06897 28.9655C5.23842 28.9655 5.40932 28.9061 5.5469 28.7852L17.3598 18.3851L24.8198 25.8445C25.103 26.1276 25.5606 26.1276 25.8438 25.8445C26.1269 25.5613 26.1269 25.1037 25.8438 24.8205L22.3628 21.3396L29.0111 14.0591L37.1657 21.5344C37.4604 21.8045 37.9188 21.7842 38.1889 21.4895C38.459 21.1948 38.4394 20.7364 38.144 20.4663L29.4543 12.5008C29.3124 12.3712 29.1234 12.3067 28.9329 12.3111C28.741 12.3197 28.56 12.4045 28.4304 12.5464L21.3382 20.3142L17.9036 16.8796C17.6328 16.6095 17.1997 16.5958 16.913 16.8478L4.59032 27.6975C4.2898 27.9619 4.26083 28.4195 4.52515 28.72C4.66852 28.883 4.86839 28.9655 5.06897 28.9655Z" fill="#515F81"/>
</svg>
