<svg width="12" height="12" viewBox="0 0 12 12" xmlns="http://www.w3.org/2000/svg">
<path  d="M10.7639 0H0.252632C0.113179 0 0 0.113179 0 0.252632V1.90472C0 2.04417 0.113179 2.15735 0.252632 2.15735H10.7639C10.9033 2.15735 11.0165 2.04417 11.0165 1.90472V0.252632C11.0165 0.113179 10.9033 0 10.7639 0Z"/>
<path  d="M0.252632 5.43811H10.7603C10.8998 5.43811 11.013 5.32493 11.013 5.18548V3.53339C11.013 3.39394 10.8998 3.28076 10.7603 3.28076H0.252632C0.113179 3.28076 0 3.39394 0 3.53339V5.18548C0 5.32493 0.113179 5.43811 0.252632 5.43811Z"/>
<path  d="M10.7639 6.56189H0.252632C0.113179 6.56189 0 6.67507 0 6.81452V8.46661C0 8.60606 0.113179 8.71924 0.252632 8.71924H10.7639C10.9033 8.71924 11.0165 8.60606 11.0165 8.46661V6.81452C11.0165 6.67507 10.9033 6.56189 10.7639 6.56189Z"/>
<path  d="M10.7603 9.84265H0.252632C0.113179 9.84265 0 9.95583 0 10.0953V11.7474C0 11.8868 0.113179 12 0.252632 12H10.7603C10.8998 12 11.013 11.8868 11.013 11.7474V10.0953C11.013 9.9557 10.8997 9.84265 10.7603 9.84265Z"/>
</svg>
