<svg width="18" height="11" viewBox="0 0 18 11" fill="none" xmlns="http://www.w3.org/2000/svg">
    <path d="M8.86593 0C3.9773 0 0 3.97712 0 8.86593C0 9.4294 0.0552102 9.99882 0.164007 10.5585C0.197025 10.7281 0.345515 10.8506 0.518182 10.8506H17.2135C17.3862 10.8506 17.5346 10.7281 17.5677 10.5585C17.6766 9.99864 17.7317 9.42922 17.7317 8.86593C17.7319 3.97712 13.7546 0 8.86593 0ZM8.86593 1.02951C9.37653 1.02951 9.79223 1.44503 9.79223 1.95563C9.79187 2.46624 9.37635 2.88176 8.86575 2.88176C8.61838 2.88176 8.38581 2.78541 8.2108 2.61058C8.03597 2.43556 7.93962 2.203 7.93962 1.95563C7.93962 1.44485 8.35532 1.02951 8.86593 1.02951ZM1.95563 9.79205C1.44503 9.79205 1.02951 9.37653 1.02951 8.86593C1.02951 8.35532 1.44503 7.9398 1.95563 7.9398C2.46642 7.9398 2.88194 8.35532 2.88194 8.86593C2.88194 9.37653 2.46642 9.79205 1.95563 9.79205ZM4.63459 4.63441C4.45958 4.80942 4.22701 4.90577 3.97964 4.90577C3.73228 4.90577 3.49971 4.80942 3.3247 4.63441C3.14969 4.45958 3.05352 4.22701 3.05352 3.97964C3.05352 3.73228 3.14969 3.49971 3.32488 3.3247C3.49971 3.14969 3.73228 3.05334 3.97964 3.05334C4.22701 3.05334 4.45958 3.14969 4.63459 3.32452C4.8096 3.49953 4.90577 3.7321 4.90577 3.97946C4.90577 4.22683 4.8096 4.45958 4.63459 4.63441ZM10.4122 9.72078C9.42362 10.5424 7.95117 10.4069 7.12933 9.41839C6.30749 8.4302 6.44299 6.95757 7.43154 6.13555C8.41991 5.31389 14.1692 3.56593 14.1692 3.56593C14.1692 3.56593 11.4004 8.89913 10.4122 9.72078ZM15.7762 9.79205C15.2654 9.79205 14.8497 9.37653 14.8497 8.86593C14.8497 8.35532 15.2654 7.9398 15.7762 7.9398C16.2868 7.9398 16.7023 8.35532 16.7023 8.86593C16.7023 9.37653 16.287 9.79205 15.7762 9.79205Z" fill="#8E94AA"/>
</svg>
