<svg width="32" height="32" viewBox="0 0 32 32" fill="none" xmlns="http://www.w3.org/2000/svg">
<g clip-path="url(#clip0_4010_1078)">
<path d="M30.9211 8H1.0817C0.79531 8.00081 0.520927 8.11515 0.318706 8.31794C0.116485 8.52073 0.00292854 8.79544 0.00292969 9.08183V23.6985C0.00292969 23.9854 0.116907 24.2605 0.31979 24.4634C0.522672 24.6663 0.79784 24.7803 1.08476 24.7803H30.9211C31.0632 24.7803 31.2039 24.7523 31.3351 24.6979C31.4664 24.6436 31.5856 24.5639 31.6861 24.4634C31.7865 24.363 31.8662 24.2437 31.9206 24.1125C31.975 23.9812 32.0029 23.8405 32.0029 23.6985V9.08183C32.0029 8.93976 31.975 8.79908 31.9206 8.66783C31.8662 8.53658 31.7865 8.41732 31.6861 8.31686C31.5856 8.2164 31.4664 8.13672 31.3351 8.08235C31.2039 8.02798 31.0632 8 30.9211 8ZM30.5507 23.3703H1.4521V9.41121H30.5476L30.5507 23.3703Z" fill="black"/>
<path d="M4.01247 20.9269C3.87762 20.9277 3.74852 20.9816 3.65317 21.0769C3.55781 21.1723 3.50389 21.3014 3.50308 21.4362C3.50389 21.5711 3.55781 21.7002 3.65317 21.7955C3.74852 21.8909 3.87762 21.9448 4.01247 21.9456H6.02674C6.09407 21.9472 6.16102 21.9351 6.22354 21.9101C6.28606 21.8851 6.34285 21.8476 6.39047 21.8C6.4381 21.7524 6.47556 21.6956 6.50059 21.633C6.52563 21.5705 6.53772 21.5036 6.53612 21.4362C6.5378 21.3689 6.52578 21.3019 6.50077 21.2393C6.47577 21.1768 6.43831 21.12 6.39067 21.0723C6.34303 21.0247 6.28621 20.9872 6.22364 20.9622C6.16108 20.9372 6.09409 20.9252 6.02674 20.9269H5.51674V11.8283H6.02674C6.09228 11.831 6.15768 11.8204 6.21906 11.7973C6.28044 11.7742 6.33655 11.7389 6.38405 11.6937C6.43156 11.6485 6.46951 11.5942 6.49563 11.534C6.52175 11.4738 6.53552 11.409 6.53612 11.3435C6.53532 11.2085 6.48142 11.0794 6.38608 10.9839C6.29074 10.8885 6.16165 10.8344 6.02674 10.8335H4.01247C3.94509 10.8319 3.87809 10.844 3.81552 10.869C3.75296 10.8941 3.69614 10.9316 3.64851 10.9793C3.60088 11.027 3.56343 11.0839 3.53843 11.1465C3.51343 11.2091 3.50141 11.2761 3.50308 11.3435C3.50308 11.6343 3.72165 11.8283 4.01247 11.8283H4.52247V20.9269H4.01247Z" fill="black"/>
</g>
<defs>
<clipPath id="clip0_4010_1078">
<rect width="32" height="16.7797" fill="white" transform="translate(0 8)"/>
</clipPath>
</defs>
</svg>
