<svg width="43" height="56" viewBox="0 0 43 56" fill="none" xmlns="http://www.w3.org/2000/svg">
<path d="M30.485 0H1.463C0.655 0 0 0.655 0 1.926V55C0 55.345 0.655 56 1.463 56H41.537C42.345 56 43 55.345 43 55V12.978C43 12.282 42.907 12.058 42.743 11.893L31.107 0.257C30.942 0.093 30.718 0 30.485 0Z" fill="#F7F8F9"/>
<path d="M31 0.151001V12H42.849L31 0.151001Z" fill="#E0E1E6"/>
<path d="M41.537 56H1.463C0.655 56 0 55.345 0 54.537V39H43V54.537C43 55.345 42.345 56 41.537 56Z" fill="#7841B8"/>
<path d="M8.21994 52.156C7.24061 52.156 6.46494 51.8744 5.89294 51.311L6.69894 49.894C7.13228 50.31 7.59161 50.518 8.07694 50.518C8.48428 50.518 8.80928 50.3924 9.05194 50.141C9.30328 49.8897 9.42894 49.5517 9.42894 49.127V43.329H11.2749V49.153C11.2749 50.141 10.9976 50.8907 10.4429 51.402C9.88828 51.9047 9.14728 52.156 8.21994 52.156Z" fill="white"/>
<path d="M14.8412 52H12.9952V43.329H17.0512C17.9612 43.329 18.6719 43.5977 19.1832 44.135C19.7032 44.6637 19.9632 45.3267 19.9632 46.124C19.9632 46.9127 19.7032 47.5757 19.1832 48.113C18.6632 48.6504 17.9525 48.919 17.0512 48.919H14.8412V52ZM16.8042 47.294C17.1769 47.294 17.4802 47.19 17.7142 46.982C17.9569 46.7654 18.0782 46.4794 18.0782 46.124C18.0782 45.7687 17.9569 45.487 17.7142 45.279C17.4802 45.0624 17.1769 44.954 16.8042 44.954H14.8412V47.294H16.8042Z" fill="white"/>
<path d="M27.2435 52H21.1075V43.329H27.2435V44.954H22.9535V46.787H27.1525V48.412H22.9535V50.375H27.2435V52Z" fill="white"/>
<path d="M32.8856 52.169C31.5856 52.169 30.4893 51.753 29.5966 50.921C28.7126 50.089 28.2706 49.0057 28.2706 47.671C28.2706 46.3277 28.7126 45.2444 29.5966 44.421C30.4893 43.5977 31.5856 43.186 32.8856 43.186C34.4629 43.186 35.659 43.8317 36.4736 45.123L34.9396 45.955C34.7316 45.6257 34.4456 45.357 34.0816 45.149C33.7263 44.9324 33.3276 44.824 32.8856 44.824C32.0969 44.824 31.4469 45.0927 30.9356 45.63C30.4243 46.1674 30.1686 46.8477 30.1686 47.671C30.1686 48.4944 30.4243 49.1747 30.9356 49.712C31.4469 50.2494 32.0969 50.518 32.8856 50.518C33.2496 50.518 33.6006 50.453 33.9386 50.323C34.2766 50.193 34.541 50.037 34.7316 49.855V48.815H32.4436V47.203H36.5776V50.531C35.5983 51.623 34.3676 52.169 32.8856 52.169Z" fill="white"/>
<path d="M0 39.1379H11H43V28.1379L33 18.6379L22.5 30.1379L17.017 24.6549L0 39.1379Z" fill="#E0E1E6"/>
<path d="M12.431 19.138C14.9544 19.138 17 17.0924 17 14.569C17 12.0456 14.9544 10 12.431 10C9.90761 10 7.862 12.0456 7.862 14.569C7.862 17.0924 9.90761 19.138 12.431 19.138Z" fill="#D5D7DE"/>
</svg>
