<svg width="43" height="56" viewBox="0 0 43 56" fill="none" xmlns="http://www.w3.org/2000/svg">
<path d="M30.485 0H1.463C0.655 0 0 0.655 0 1.926V55C0 55.345 0.655 56 1.463 56H41.537C42.345 56 43 55.345 43 55V12.978C43 12.282 42.907 12.058 42.743 11.893L31.107 0.257C30.942 0.093 30.718 0 30.485 0Z" fill="#F7F8F9"/>
<path d="M31 0.151001V12H42.849L31 0.151001Z" fill="#E0E1E6"/>
<path d="M41.537 56H1.463C0.655 56 0 55.345 0 54.537V39H43V54.537C43 55.345 42.345 56 41.537 56Z" fill="#7841B8"/>
<path d="M12.0095 52.156C11.0302 52.156 10.2545 51.8744 9.6825 51.311L10.4885 49.894C10.9218 50.31 11.3812 50.518 11.8665 50.518C12.2738 50.518 12.5988 50.3924 12.8415 50.141C13.0928 49.8897 13.2185 49.5517 13.2185 49.127V43.329H15.0645V49.153C15.0645 50.141 14.7872 50.8907 14.2325 51.402C13.6778 51.9047 12.9368 52.156 12.0095 52.156Z" fill="white"/>
<path d="M18.6308 52H16.7848V43.329H20.8408C21.7508 43.329 22.4614 43.5977 22.9728 44.135C23.4928 44.6637 23.7528 45.3267 23.7528 46.124C23.7528 46.9127 23.4928 47.5757 22.9728 48.113C22.4528 48.6504 21.7421 48.919 20.8408 48.919H18.6308V52ZM20.5938 47.294C20.9664 47.294 21.2698 47.19 21.5038 46.982C21.7464 46.7654 21.8678 46.4794 21.8678 46.124C21.8678 45.7687 21.7464 45.487 21.5038 45.279C21.2698 45.0624 20.9664 44.954 20.5938 44.954H18.6308V47.294H20.5938Z" fill="white"/>
<path d="M29.0961 52.169C27.7961 52.169 26.6997 51.753 25.8071 50.921C24.9231 50.089 24.4811 49.0057 24.4811 47.671C24.4811 46.3277 24.9231 45.2444 25.8071 44.421C26.6997 43.5977 27.7961 43.186 29.0961 43.186C30.6734 43.186 31.8694 43.8317 32.6841 45.123L31.1501 45.955C30.9421 45.6257 30.6561 45.357 30.2921 45.149C29.9367 44.9324 29.5381 44.824 29.0961 44.824C28.3074 44.824 27.6574 45.0927 27.1461 45.63C26.6347 46.1674 26.3791 46.8477 26.3791 47.671C26.3791 48.4944 26.6347 49.1747 27.1461 49.712C27.6574 50.2494 28.3074 50.518 29.0961 50.518C29.4601 50.518 29.8111 50.453 30.1491 50.323C30.4871 50.193 30.7514 50.037 30.9421 49.855V48.815H28.6541V47.203H32.7881V50.531C31.8087 51.623 30.5781 52.169 29.0961 52.169Z" fill="white"/>
<path d="M0 39.1379H11H43V28.1379L33 18.6379L22.5 30.1379L17.017 24.6549L0 39.1379Z" fill="#E0E1E6"/>
<path d="M12.431 19.138C14.9544 19.138 17 17.0924 17 14.569C17 12.0456 14.9544 10 12.431 10C9.90761 10 7.862 12.0456 7.862 14.569C7.862 17.0924 9.90761 19.138 12.431 19.138Z" fill="#D5D7DE"/>
</svg>
