<svg width="13" height="8" viewBox="0 0 13 8" fill="none" xmlns="http://www.w3.org/2000/svg">
<path d="M12.9743 6.75339C12.9622 6.74129 12.938 6.72919 12.9259 6.72919H0.0605144C0.0363086 6.72919 0.0242057 6.74129 0.0121029 6.75339C0 6.7655 0 6.7897 0 6.80181C0 6.81391 0.193646 7.99999 1.70651 7.99999H11.292C12.7927 7.99999 12.9864 6.81391 12.9985 6.80181C12.9864 6.7776 12.9864 6.7655 12.9743 6.75339ZM7.89107 7.68532H5.09531V7.04386H7.89107V7.68532Z" fill="#8E94AA"/>
<path d="M11.0986 0H1.86413C1.731 0 1.62207 0.108926 1.62207 0.242057V5.91831C1.62207 6.05144 1.731 6.16036 1.86413 6.16036H11.1107C11.2439 6.16036 11.3528 6.05144 11.3528 5.91831V0.242057C11.3407 0.108926 11.2318 0 11.0986 0ZM2.86867 5.0469V1.10136H10.1062V5.0469H2.86867Z" fill="#8E94AA"/>
</svg>
