<!-- Generated by IcoMoon.io -->
<svg version="1.1" xmlns="http://www.w3.org/2000/svg" width="32" height="32" viewBox="0 0 32 32">
<title>layout-settings</title>
<path d="M28.672 1.344c1.76 0 3.2 1.376 3.328 3.104v24.224c0 1.76-1.376 3.2-3.104 3.328h-25.568c-1.76 0-3.2-1.376-3.328-3.104v-24.224c0-1.792 1.376-3.232 3.136-3.328h25.536zM4.672 12.672h-3.328v16c0 1.024 0.768 1.888 1.792 1.984h1.536v-2.656h-1.344c-0.352 0-0.672-0.288-0.672-0.672 0-0.32 0.256-0.608 0.544-0.64l0.128-0.032h1.344v-2.656h-1.344c-0.352 0-0.672-0.288-0.672-0.672 0-0.32 0.256-0.608 0.544-0.64l0.128-0.032h1.344v-2.656h-1.344c-0.352 0-0.672-0.288-0.672-0.672 0-0.32 0.256-0.608 0.544-0.64l0.128-0.032h1.344v-2.656h-1.344c-0.352 0-0.672-0.288-0.672-0.672 0-0.32 0.256-0.608 0.544-0.64l0.128-0.032h1.344v-1.984zM30.656 12.672h-24.64v17.984h22.656c1.024 0 1.888-0.768 1.984-1.792v-16.192zM8.672 22.656c0.384 0 0.672 0.288 0.672 0.672 0 0.352-0.256 0.608-0.544 0.672h-1.472c-0.352 0-0.672-0.288-0.672-0.672 0-0.32 0.256-0.608 0.544-0.64l0.128-0.032h1.344zM12.672 22.656c0.384 0 0.672 0.288 0.672 0.672 0 0.352-0.256 0.608-0.544 0.672h-1.472c-0.352 0-0.672-0.288-0.672-0.672 0-0.32 0.256-0.608 0.544-0.64l0.128-0.032h1.344zM16.672 21.344c0.32 0 0.608 0.224 0.64 0.544l0.032 0.096v1.344c0 0.352-0.256 0.608-0.544 0.672h-1.472c-0.352 0-0.672-0.288-0.672-0.672 0-0.32 0.256-0.608 0.544-0.64l0.128-0.032h0.672v-0.672c0-0.32 0.256-0.576 0.544-0.64h0.128zM16.672 17.344c0.32 0 0.608 0.224 0.64 0.544l0.032 0.096v1.344c0 0.384-0.288 0.672-0.672 0.672-0.352 0-0.608-0.256-0.672-0.544v-1.472c0-0.352 0.288-0.64 0.672-0.64zM16.672 13.344c0.32 0 0.608 0.224 0.64 0.544l0.032 0.096v1.344c0 0.384-0.288 0.672-0.672 0.672-0.352 0-0.608-0.256-0.672-0.544v-1.472c0-0.352 0.288-0.64 0.672-0.64zM4.672 8h-3.328v3.328h3.328v-3.328zM30.656 8h-24.64v3.328h1.984v-1.344c0-0.352 0.288-0.64 0.672-0.64 0.32 0 0.608 0.224 0.64 0.544l0.032 0.096v1.344h2.656v-1.344c0-0.352 0.288-0.64 0.672-0.64 0.32 0 0.608 0.224 0.64 0.544l0.032 0.096v1.344h2.656v-1.344c0-0.352 0.288-0.64 0.672-0.64 0.32 0 0.608 0.224 0.64 0.544l0.032 0.096v1.344h2.656v-1.344c0-0.352 0.288-0.64 0.672-0.64 0.32 0 0.608 0.224 0.64 0.544l0.032 0.096v1.344h2.656v-1.344c0-0.352 0.288-0.64 0.672-0.64 0.32 0 0.608 0.224 0.64 0.544l0.032 0.096v1.344h2.656v-1.344c0-0.352 0.288-0.64 0.672-0.64 0.32 0 0.608 0.224 0.64 0.544l0.032 0.096v1.344h1.312v-3.328zM28.672 2.656h-25.344c-1.024 0-1.888 0.8-1.984 1.824v2.176h29.312v-1.984c0-1.056-0.768-1.888-1.792-1.984l-0.192-0.032zM3.328 4c0.384 0 0.672 0.288 0.672 0.672s-0.288 0.672-0.672 0.672-0.672-0.32-0.672-0.672 0.32-0.672 0.672-0.672zM6.016 4c0.352 0 0.64 0.288 0.64 0.672s-0.288 0.672-0.64 0.672-0.672-0.32-0.672-0.672 0.288-0.672 0.672-0.672zM8.672 4c0.384 0 0.672 0.288 0.672 0.672s-0.288 0.672-0.672 0.672c-0.384 0-0.672-0.32-0.672-0.672s0.288-0.672 0.672-0.672z"></path>
</svg>
