<svg width="12" height="12" viewBox="0 0 12 12" xmlns="http://www.w3.org/2000/svg">
<path data-choose="0" d="M0.252632 2.15735H7.67116C7.81061 2.15735 7.92379 2.04417 7.92379 1.90472V0.252632C7.92379 0.113179 7.81061 0 7.67116 0H0.252632C0.113179 0 0 0.113179 0 0.252632V1.90472C0 2.04429 0.113053 2.15735 0.252632 2.15735Z"/>
<path data-choose="0" d="M10.7536 3.28076H0.252632C0.113179 3.28076 0 3.39394 0 3.53339V5.18548C0 5.32493 0.113179 5.43811 0.252632 5.43811H10.7539C10.8933 5.43811 11.0065 5.32493 11.0065 5.18548V3.53339C11.0063 3.39381 10.8932 3.28076 10.7536 3.28076Z"/>
<path data-choose="0" d="M0.252632 8.71924H7.67116C7.81061 8.71924 7.92379 8.60606 7.92379 8.46661V6.81452C7.92379 6.67507 7.81061 6.56189 7.67116 6.56189H0.252632C0.113179 6.56189 0 6.67507 0 6.81452V8.46661C0 8.60618 0.113053 8.71924 0.252632 8.71924Z"/>
<path data-choose="0" d="M10.7536 9.84265H0.252632C0.113179 9.84265 0 9.95583 0 10.0953V11.7474C0 11.8868 0.113179 12 0.252632 12H10.7539C10.8933 12 11.0065 11.8868 11.0065 11.7474V10.0953C11.0063 9.9557 10.8932 9.84265 10.7536 9.84265Z"/>
</svg>
