<svg width="32" height="32" viewBox="0 0 32 32" fill="none" xmlns="http://www.w3.org/2000/svg">
<g clip-path="url(#clip0_4013_1266)">
<path d="M31.2992 3.99995H0.701531C0.608821 3.99772 0.516621 4.01433 0.430521 4.04879C0.344422 4.08324 0.266214 4.13482 0.200638 4.20039C0.135063 4.26597 0.0834852 4.34418 0.0490311 4.43028C0.014577 4.51638 -0.002036 4.60858 0.000198977 4.70129V26.9483C-0.002036 27.041 0.014577 27.1332 0.0490311 27.2193C0.0834852 27.3054 0.135063 27.3836 0.200638 27.4492C0.266214 27.5147 0.344422 27.5663 0.430521 27.6008C0.516621 27.6352 0.608821 27.6518 0.701531 27.6496H31.2992C31.3919 27.6518 31.4841 27.6352 31.5702 27.6008C31.6563 27.5663 31.7345 27.5147 31.8001 27.4492C31.8657 27.3836 31.9172 27.3054 31.9517 27.2193C31.9862 27.1332 32.0028 27.041 32.0005 26.9483V4.70129C32.0028 4.60858 31.9862 4.51638 31.9517 4.43028C31.9172 4.34418 31.8657 4.26597 31.8001 4.20039C31.7345 4.13482 31.6563 4.08324 31.5702 4.04879C31.4841 4.01433 31.3919 3.99772 31.2992 3.99995V3.99995ZM30.6311 26.2469H1.40352V5.37H30.6311V26.2469ZM9.88768 21.7705C9.88768 21.8031 9.9203 21.8373 9.95455 21.8706C9.95455 21.9032 9.98717 21.9032 10.0198 21.9358C10.0524 21.9685 10.1203 22.0027 10.1535 22.036C10.2402 22.0614 10.3305 22.0724 10.4207 22.0686H13.226C13.5933 22.0686 13.9274 21.7678 13.9274 21.4005C13.9274 21.0332 13.5953 20.7015 13.2277 20.7015H12.1257L14.3971 18.3969C14.5256 18.2684 14.5977 18.0942 14.5977 17.9125C14.5977 17.7308 14.5256 17.5565 14.3971 17.4281C14.2686 17.2996 14.0944 17.2274 13.9127 17.2274C13.731 17.2274 13.5567 17.2996 13.4283 17.4281L11.1237 19.6994V18.5975C11.1226 18.4118 11.0484 18.2339 10.9171 18.1026C10.7858 17.9712 10.608 17.8969 10.4223 17.8958C10.0214 17.8958 9.75427 18.2299 9.75427 18.5972V21.4025C9.75043 21.4927 9.76145 21.583 9.78689 21.6697L9.88703 21.7698L9.88768 21.7705ZM9.75394 10.2467V13.0521C9.75446 13.2292 9.82504 13.3989 9.95028 13.5241C10.0755 13.6493 10.2452 13.7199 10.4223 13.7204C10.79 13.7204 11.124 13.4197 11.124 13.0524V11.9501L13.4286 14.2215C13.494 14.2873 13.5721 14.339 13.6582 14.3735C13.7443 14.408 13.8366 14.4245 13.9293 14.4221C14.1299 14.4221 14.2633 14.3552 14.3971 14.2218C14.4607 14.1582 14.5112 14.0827 14.5456 13.9996C14.58 13.9165 14.5977 13.8274 14.5977 13.7374C14.5977 13.6474 14.58 13.5584 14.5456 13.4752C14.5112 13.3921 14.4607 13.3166 14.3971 13.253L12.1257 10.9481H13.2277C13.41 10.9425 13.5829 10.8662 13.7099 10.7352C13.8369 10.6043 13.9079 10.4291 13.9079 10.2467C13.9079 10.0643 13.8369 9.88911 13.7099 9.7582C13.5829 9.62728 13.41 9.55095 13.2277 9.54539H10.4223C10.3897 9.54539 10.3555 9.57801 10.3222 9.57801C10.2645 9.57252 10.2065 9.58385 10.1552 9.61063C10.0883 9.64325 10.0214 9.71077 9.95488 9.77764H9.92226C9.88964 9.84288 9.82211 9.91106 9.78884 9.97793C9.76341 10.0646 9.75239 10.1549 9.75622 10.2451L9.75394 10.2467ZM18.1047 14.4221C18.192 14.4213 18.2783 14.4032 18.3586 14.3688C18.4389 14.3344 18.5116 14.2845 18.5725 14.2218L20.8771 11.9505V13.0521C20.8771 13.4194 21.1778 13.7201 21.5787 13.7201C21.946 13.7201 22.2801 13.4194 22.2801 13.0521V10.2467C22.2801 10.2141 22.2474 10.1466 22.2474 10.1133C22.2148 10.0807 22.2148 10.0128 22.2148 9.97956C22.1816 9.89667 22.132 9.82137 22.0689 9.75823C22.0057 9.69509 21.9304 9.64543 21.8475 9.61226C21.7806 9.61226 21.7474 9.61226 21.7138 9.57964C21.6812 9.57964 21.6136 9.54702 21.5804 9.54702H18.7731C18.4058 9.54702 18.105 9.88105 18.105 10.2484C18.105 10.6157 18.4054 10.9481 18.7731 10.9481H19.8753L17.604 13.2527C17.5071 13.3494 17.4415 13.473 17.4155 13.6075C17.3896 13.7419 17.4045 13.881 17.4584 14.0069C17.5123 14.1328 17.6027 14.2396 17.7179 14.3136C17.8331 14.3876 17.9678 14.4254 18.1047 14.4221V14.4221ZM19.875 20.7015H18.7731C18.4058 20.7015 18.105 21.0023 18.105 21.4032C18.1056 21.5801 18.1762 21.7497 18.3013 21.8749C18.4265 22 18.5961 22.0706 18.7731 22.0712H21.5784C21.6686 22.075 21.7589 22.064 21.8456 22.0386C21.9108 22.006 21.9793 21.9385 22.0459 21.9052V21.8726C22.1111 21.8073 22.1796 21.7391 22.2129 21.6723C22.2396 21.6209 22.251 21.5629 22.2455 21.5053C22.2455 21.4726 22.2781 21.4384 22.2781 21.4051V18.5975C22.2781 18.2302 21.9441 17.8962 21.5768 17.8962C21.2095 17.8962 20.8771 18.2299 20.8771 18.5975V19.6997L18.5725 17.4284C18.444 17.2999 18.2697 17.2277 18.0881 17.2277C17.9064 17.2277 17.7321 17.2999 17.6036 17.4284C17.4752 17.5569 17.403 17.7311 17.403 17.9128C17.403 18.0945 17.4752 18.2687 17.6036 18.3972L19.875 20.7018V20.7015Z" fill="black"/>
</g>
<defs>
<clipPath id="clip0_4013_1266">
<rect width="32" height="23.6493" fill="white" transform="translate(0 4)"/>
</clipPath>
</defs>
</svg>
