<svg width="32" height="32" viewBox="0 0 32 32" fill="none" xmlns="http://www.w3.org/2000/svg">
<g clip-path="url(#clip0_4015_1348)">
<path d="M31.684 1.43331C31.4893 1.312 31.2413 1.29863 31.036 1.404L25.8427 4H20.6667C20.4694 4 20.2814 4.088 20.156 4.24L13.688 12H4V0.666687C4 0.298687 3.70131 0 3.33331 0C2.96531 0 2.66669 0.298687 2.66669 0.666687V27.332C2.66669 27.3333 2.66669 27.3347 2.66669 27.336V28H0.666687C0.298687 28 0 28.2987 0 28.6667C0 29.0347 0.298687 29.3334 0.666687 29.3334H2.66669V31.3334C2.66669 31.7014 2.96537 32.0001 3.33337 32.0001C3.70137 32.0001 4 31.7013 4 31.3333V29.3333H31.3333C31.7013 29.3333 32 29.0346 32 28.6666V2C32 1.76931 31.88 1.55469 31.684 1.43331ZM30.6667 28H4V27.608L8.87069 22.7373L13.8387 23.9786C14.0427 24.0306 14.2547 23.9813 14.4174 23.8533L20.7507 18.7866L25.7027 21.2626C25.8894 21.3559 26.1107 21.3559 26.2987 21.2626L30.6667 19.0786V28V28ZM30.6667 17.588L26 19.9213L20.9653 17.404C20.7306 17.2893 20.4546 17.3173 20.2506 17.48L13.8413 22.608L8.828 21.3547C8.6 21.2947 8.36 21.364 8.19469 21.5294L4 25.724V21.0787L8.824 18.6667H14C14.1773 18.6667 14.3467 18.596 14.472 18.4707L20.7987 12.144L25.7027 14.596C25.928 14.708 26.1987 14.6853 26.4 14.5333L30.6667 11.3333V17.588ZM30.6667 9.66669L25.9307 13.2187L20.9654 10.736C20.7081 10.608 20.3987 10.6587 20.1961 10.8613L13.724 17.3333H8.66669C8.564 17.3333 8.46138 17.3573 8.36938 17.404L4 19.588V13.3333H14C14.1973 13.3333 14.3853 13.2453 14.5107 13.0933L20.9787 5.33331H26C26.1027 5.33331 26.2053 5.30931 26.2987 5.26263L30.6667 3.07862V9.66669V9.66669Z" fill="black"/>
</g>
<defs>
<clipPath id="clip0_4015_1348">
<rect width="32" height="32" fill="white"/>
</clipPath>
</defs>
</svg>
