<svg width="32" height="32" viewBox="0 0 32 32" fill="none" xmlns="http://www.w3.org/2000/svg">
  <path
    d="M23.9999 24C23.6799 24 23.4239 23.776 23.3599 23.456C22.3039 18.272 20.4479 15.392 18.9759 13.088C18.5919 12.512 18.2399 11.968 17.9199 11.424C17.3439 10.592 16.9599 9.6 16.7999 8.544C16.7039 8.096 16.6719 7.712 16.6719 7.328C16.6719 3.296 19.9679 0 23.9999 0C28.0319 0 31.3279 3.296 31.3279 7.328C31.3279 7.712 31.2959 8.096 31.1999 8.544C31.0399 9.6 30.6559 10.592 30.0479 11.456C29.7919 11.968 29.4079 12.512 29.0559 13.088C27.5519 15.392 25.6959 18.272 24.6399 23.456C24.6079 23.776 24.3199 24 23.9999 24V24ZM23.9999 1.344C20.7039 1.344 18.0159 4.032 18.0159 7.328C18.0159 7.616 18.0479 7.936 18.1119 8.288C18.2399 9.216 18.5599 10.016 19.0399 10.72C19.3599 11.264 19.7119 11.808 20.0959 12.384C21.3439 14.336 22.8799 16.736 23.9999 20.544C25.1199 16.736 26.6559 14.368 27.9359 12.384C28.2879 11.808 28.6399 11.264 28.9279 10.752C29.4399 10.016 29.7599 9.216 29.8879 8.32C29.9839 7.936 30.0159 7.616 30.0159 7.328C30.0159 4.032 27.2959 1.344 23.9999 1.344V1.344ZM23.9999 10.656C22.1759 10.656 20.6719 9.184 20.6719 7.328C20.6719 5.472 22.1759 4 23.9999 4C25.8239 4 27.3279 5.504 27.3279 7.328C27.3279 9.152 25.8239 10.656 23.9999 10.656ZM23.9999 5.344C22.9119 5.344 22.0159 6.24 22.0159 7.328C22.0159 8.416 22.9119 9.344 23.9999 9.344C25.0879 9.344 26.0159 8.448 26.0159 7.328C26.0159 6.208 25.1199 5.344 23.9999 5.344V5.344ZM26.6559 32H3.99988C2.17588 32 0.671875 30.496 0.671875 28.672V7.328C0.671875 5.504 2.17588 4 3.99988 4H17.3439C17.6959 4 18.0159 4.288 18.0159 4.672C18.0159 5.056 17.6959 5.344 17.3439 5.344H3.99988C2.91188 5.344 2.01588 6.24 2.01588 7.328V28.672C2.01588 29.76 2.91188 30.656 3.99988 30.656H26.6559C27.7759 30.656 28.6719 29.76 28.6719 28.672V12C28.6719 11.616 28.9599 11.328 29.3439 11.328C29.7279 11.328 30.0159 11.616 30.0159 12V28.672C30.0159 30.496 28.5119 32 26.6559 32V32ZM2.65587 30.656C2.49587 30.656 2.33588 30.592 2.20788 30.464C1.95188 30.208 1.95188 29.792 2.20788 29.536L18.8479 12.864C19.1359 12.608 19.5519 12.608 19.8079 12.864C20.0639 13.12 20.0639 13.536 19.8079 13.792L3.13587 30.464C3.00787 30.592 2.84787 30.656 2.65587 30.656V30.656ZM27.9999 30.656C27.8399 30.656 27.6479 30.592 27.5199 30.464L14.8479 17.792C14.5919 17.536 14.5919 17.12 14.8479 16.864C15.1039 16.608 15.5519 16.608 15.8079 16.864L28.4799 29.536C28.7359 29.792 28.7359 30.208 28.4799 30.464C28.3519 30.592 28.1599 30.656 27.9999 30.656ZM6.65588 12Z"
    fill="black" />
</svg>