<svg width="52" height="22" viewBox="0 0 52 22" fill="none" xmlns="http://www.w3.org/2000/svg">
<path d="M6.48795 17.1266C8.55085 17.1266 9.76165 16.0055 9.94095 15.5795H10.0082V16.9024H13.4836V5.2429H10.0082V6.5658H9.94095C9.76165 6.1398 8.55085 5.01868 6.48795 5.01868C3.84215 5.01868 0.927246 7.0142 0.927246 11.0727C0.927246 15.1311 3.84215 17.1266 6.48795 17.1266ZM4.35785 11.0727C4.35785 9.1892 5.72565 8.1129 7.20545 8.1129C8.73015 8.1129 10.0979 9.1668 10.0979 11.0727C10.0979 12.9785 8.73015 14.0324 7.20545 14.0324C5.72565 14.0324 4.35785 12.9561 4.35785 11.0727Z" fill="white"/>
<path d="M15.5891 16.9024H19.0646V0.982727H15.5891V16.9024Z" fill="white"/>
<path d="M26.0609 17.037C26.8681 17.037 27.8547 16.88 28.3031 16.4316V13.7858C27.8771 13.9203 27.4735 13.9651 27.2044 13.9651C26.1506 13.9651 25.8143 13.3373 25.8143 12.7543V8.00083H28.2583V5.24295H25.8143V2.2608H22.3388V5.24295H20.6123V8.00083H22.3388V13.3149C22.3388 15.9831 23.9084 17.037 26.0609 17.037Z" fill="white"/>
<path d="M29.9097 16.9024H33.3852V12.1041C33.3852 9.9067 34.7081 8.3596 37.0175 8.3596C37.309 8.3596 37.5557 8.382 37.8247 8.4268V5.13079C37.5332 5.0411 37.2642 5.01868 36.9951 5.01868C34.8874 5.01868 33.7663 6.521 33.3852 8.4044V5.2429H29.9097V16.9024Z" fill="white"/>
<path d="M39.3691 21.1626H42.8445V15.5795H42.9118C43.0911 16.0055 44.3019 17.1266 46.3648 17.1266C49.0106 17.1266 51.9255 15.1311 51.9255 11.0727C51.9255 7.0142 49.0106 5.01868 46.3648 5.01868C44.3019 5.01868 43.0911 6.1398 42.9118 6.5658H42.8445V5.2429H39.3691V21.1626ZM42.7548 11.0727C42.7548 9.1668 44.1226 8.1129 45.6473 8.1129C47.1271 8.1129 48.4949 9.1892 48.4949 11.0727C48.4949 12.9561 47.1271 14.0324 45.6473 14.0324C44.1226 14.0324 42.7548 12.9785 42.7548 11.0727Z" fill="white"/>
</svg>
