<svg width="97" height="35" viewBox="0 0 97 35" fill="none" xmlns="http://www.w3.org/2000/svg">
<path d="M20.2447 8.30899L16.4977 17.8789C16.4977 20.1884 16.9743 21.967 17.9409 23.1882C18.2587 23.5996 18.7486 23.9845 19.4238 24.3429L18.3381 27.7408C17.3716 27.3825 16.5374 26.7586 15.8224 25.8561C15.3722 25.272 14.9485 24.5951 14.5646 23.7987C13.7172 25.219 12.7639 26.2012 11.6781 26.7188C10.8572 27.1303 9.85094 27.3294 8.64606 27.3294C6.22304 27.3294 4.19724 26.4666 2.59514 24.7278C0.860633 22.8829 0 20.3875 0 17.2285C0 16.1269 0.0662026 15.1314 0.198608 14.2686C0.331013 13.4059 0.569342 12.5829 0.900355 11.8131C1.6021 10.2469 2.54218 9.05228 3.74707 8.22935C4.95195 7.40642 6.34221 6.99495 7.93107 6.99495C9.40076 6.99495 10.6719 7.28696 11.7443 7.8577C13.2538 8.65409 14.366 9.95486 15.0545 11.76L17.2656 6.90204L20.2447 8.30899ZM13.0816 17.8391C13.1081 17.7462 13.1213 17.5869 13.1213 17.3745C13.1213 17.2551 13.1213 17.1622 13.1213 17.0825C13.1213 17.0162 13.1081 16.9365 13.0816 16.8702C13.0816 15.1845 12.605 13.6846 11.6649 12.3706C10.7116 11.0565 9.66558 10.4061 8.51365 10.4061C7.14988 10.4061 6.03767 10.9902 5.20352 12.1715C4.28993 13.4457 3.83975 15.2243 3.83975 17.5205C3.83975 19.6177 4.30317 21.2237 5.24324 22.3254C6.0774 23.3076 7.13664 23.812 8.40773 23.812C9.29484 23.812 10.0231 23.5465 10.5659 23.0156C11.4663 22.113 12.3137 20.4008 13.0816 17.8391Z" fill="white"/>
<path d="M38.8741 27.0506H34.9549L30.8769 15.8879L29.9103 12.8218L28.904 15.9676L24.9451 27.0506H20.7611L27.9639 7.91078C27.8183 7.55241 27.5667 6.87548 27.2092 5.89327C27.0371 5.44198 26.9047 5.1367 26.812 4.99069C26.3089 4.19431 25.5012 3.79611 24.4022 3.79611C24.0183 3.79611 23.2768 3.91557 22.1646 4.15449L22.6015 0.464559C23.1576 0.292009 23.6078 0.172551 23.9521 0.106185C24.2963 0.0398194 24.6406 0 24.9848 0C27.0503 0 28.6657 1.07512 29.8176 3.2121C30.2546 3.95539 30.8504 5.38889 31.6183 7.51259L38.8741 27.0506Z" fill="white"/>
<path d="M55.054 10.8043H49.4665V21.383C49.4665 22.1529 49.493 22.644 49.5327 22.8696C49.5857 23.082 49.7181 23.2811 49.9697 23.4536C50.208 23.5731 50.5258 23.6394 50.9097 23.6394C51.201 23.6394 51.7571 23.5731 52.6045 23.4536L53.1871 26.9577C52.7502 27.0506 52.1544 27.1435 51.3864 27.2099C50.6185 27.2763 50.0888 27.3161 49.7975 27.3161C48.5927 27.3161 47.6526 27.1303 46.9641 26.7586C46.2756 26.387 45.7857 25.8428 45.4679 25.1128C45.3222 24.7544 45.2163 24.2766 45.1501 23.666C45.0839 23.0687 45.0442 22.2458 45.0442 21.2105V10.8043L42.4491 10.7645C41.893 10.7645 41.3766 11.0167 40.8999 11.5211C40.7543 11.6936 40.5689 11.9591 40.3173 12.3175L37.8016 9.75575C38.2783 9.10537 38.6887 8.62754 39.033 8.30898C40.0922 7.34005 41.2309 6.86221 42.4623 6.86221L55.0673 6.90203V10.8043H55.054Z" fill="white"/>
<path d="M73.5775 11.5609C74.2263 13.1271 74.544 14.9323 74.544 16.9763C74.544 19.1 74.1998 20.9317 73.498 22.4714C72.7963 24.0111 71.7768 25.2322 70.4395 26.1215C69.0889 27.0108 67.6457 27.4621 66.0833 27.4621C65.1433 27.4621 64.4018 27.3692 63.8457 27.1701C63.0777 26.9046 62.2966 26.387 61.5021 25.6171V34.6429H57.146L57.1857 16.1136C57.1857 12.3838 58.4436 9.70265 60.9725 8.09661C62.5349 7.11439 64.3091 6.61002 66.3084 6.61002C67.9635 6.61002 69.42 7.03476 70.691 7.89751C71.9357 8.74699 72.9022 9.96812 73.5775 11.5609ZM69.2213 11.4813C68.321 10.3796 67.2485 9.82211 65.9774 9.82211C64.7328 9.82211 63.6206 10.4061 62.6673 11.5874C62.2171 12.1715 61.8596 12.9811 61.608 14.0297C61.3565 15.0783 61.2241 16.2198 61.2241 17.4409C61.2241 19.7504 61.6743 21.4494 62.5878 22.5378C63.5014 23.6262 64.5872 24.1571 65.8318 24.1571C67.1293 24.1571 68.2415 23.5996 69.1816 22.4979C69.6318 21.9139 69.9893 21.1441 70.2409 20.1486C70.4924 19.1664 70.6248 18.078 70.6248 16.8967C70.6248 15.7154 70.5057 14.6668 70.2806 13.751C70.0555 12.8484 69.698 12.0918 69.2213 11.4813Z" fill="white"/>
<path d="M97 10.7247L94.8418 10.6849L94.8021 27.0506H90.724V10.6981H84.0243V27.0639H80.0257V10.7379C79.7874 10.7379 79.4961 10.8309 79.1386 11.0034C78.7943 11.1892 78.3839 11.5078 77.9337 11.9591L75.2723 9.29118C76.2521 8.32224 77.126 7.6984 77.8675 7.39312C78.6089 7.08784 79.4563 6.94183 80.3832 6.94183H97V10.7247Z" fill="white"/>
</svg>
