<svg width="36" height="36" viewBox="0 0 36 36" fill="none" xmlns="http://www.w3.org/2000/svg">
<g clip-path="url(#clip0)">
<path d="M18 6.55994C17.0142 6.55994 16.0653 6.85652 15.2561 7.41761C15.0169 7.58348 14.9564 7.91331 15.121 8.15434C15.2857 8.39537 15.613 8.45627 15.8522 8.29047C16.4853 7.85151 17.228 7.61948 18 7.61948C20.0921 7.61948 21.7941 9.33426 21.7941 11.442C21.7941 13.5498 20.0921 15.2646 18 15.2646C15.9079 15.2646 14.206 13.5498 14.206 11.442C14.206 10.8202 14.3492 10.2275 14.6318 9.68034C14.7659 9.42074 14.6657 9.10089 14.4081 8.96589C14.1504 8.83096 13.8331 8.93172 13.699 9.19131C13.3427 9.88122 13.1544 10.6595 13.1544 11.442C13.1544 14.1341 15.3281 16.3242 18 16.3242C20.6719 16.3242 22.8456 14.1341 22.8456 11.442C22.8456 8.75003 20.6719 6.55994 18 6.55994Z" fill="#515F81"/>
<path d="M35.9602 35.2667L30.7708 22.7043C30.6892 22.5068 30.4978 22.3781 30.2854 22.3781H25.1142C26.12 21.0072 26.9572 19.6417 27.611 18.3009C28.7698 15.9247 29.3572 13.6171 29.3572 11.4421C29.3572 5.13288 24.2626 0 18.0005 0C11.7384 0 6.64385 5.13288 6.64385 11.442C6.64385 13.6171 7.23131 15.9247 8.39006 18.3008C9.04383 19.6416 9.88104 21.0072 10.8869 22.3781H5.71565C5.50331 22.3781 5.31178 22.5068 5.23029 22.7043L1.69413 31.2645C1.58254 31.5347 1.70939 31.8447 1.97749 31.9571C2.04358 31.9848 2.11193 31.998 2.17929 31.998C2.3853 31.998 2.58084 31.8752 2.66486 31.6716L3.16943 30.4502H6.74875L4.89391 34.9405H1.31465L1.85233 33.6388C1.96392 33.3686 1.83708 33.0585 1.56897 32.9462C1.30073 32.8336 0.993044 32.9616 0.881528 33.2317L0.0409425 35.2667C-0.0266278 35.4302 -0.00862783 35.6169 0.0889659 35.7642C0.186419 35.9115 0.350528 36 0.52631 36H35.4747C35.6504 36 35.8146 35.9115 35.9121 35.7642C36.0097 35.6169 36.0277 35.4302 35.9602 35.2667ZM7.69544 11.442C7.69544 5.71704 12.3183 1.05947 18.0005 1.05947C23.6827 1.05947 28.3056 5.71711 28.3056 11.442C28.3056 13.8427 27.4777 17.679 23.6477 22.5676C23.6439 22.5722 23.6404 22.5771 23.6368 22.5818C23.4412 22.8312 23.238 23.0832 23.0264 23.3381C20.9218 25.8737 18.792 27.7253 18.0004 28.3831C17.2112 27.7275 15.0915 25.8853 12.9884 23.3545C12.7715 23.0936 12.5635 22.8356 12.3633 22.5804C12.3601 22.5763 12.3571 22.5721 12.3537 22.5681C8.52393 17.6797 7.69544 13.8436 7.69544 11.442ZM6.0663 23.4376H9.6457L8.34014 26.598H4.76081L6.0663 23.4376ZM9.14093 34.9405L12.4274 26.9848L21.78 34.9405H9.14093ZM23.41 34.9405L12.5571 25.7085C12.429 25.5994 12.2569 25.5586 12.0942 25.5984C11.9313 25.6381 11.7969 25.7538 11.7326 25.9097L8.00201 34.9405H6.03297L8.02254 30.1239C8.09011 29.9604 8.07211 29.7738 7.97451 29.6265C7.87706 29.4791 7.71288 29.3906 7.5371 29.3906H3.60726L4.32318 27.6574H8.69086C8.9032 27.6574 9.09473 27.5287 9.17622 27.3312L10.7847 23.4375H11.6972C11.8556 23.6365 12.0166 23.8356 12.1819 24.0346C14.8949 27.2992 17.5663 29.3951 17.6788 29.4828C17.7735 29.5567 17.887 29.5935 18.0005 29.5935C18.114 29.5935 18.2276 29.5566 18.3223 29.4828C18.3841 29.4346 19.2192 28.779 20.4086 27.6575H26.3628C26.6532 27.6575 26.8886 27.4203 26.8886 27.1278C26.8886 26.8352 26.6532 26.598 26.3628 26.598H21.4923C22.2213 25.8595 23.0181 24.9985 23.8192 24.0346C23.9845 23.8357 24.1455 23.6367 24.3039 23.4376H29.9347L31.2402 26.598H28.4659C28.1755 26.598 27.9401 26.8352 27.9401 27.1278C27.9401 27.4203 28.1754 27.6575 28.4659 27.6575H31.6778L32.3938 29.3907H21.5607C21.3413 29.3907 21.145 29.5279 21.0681 29.7351C20.9914 29.9422 21.0503 30.1756 21.216 30.3205L26.4988 34.9405H23.41V34.9405ZM28.1031 34.9405L22.9686 30.4502H32.8315L34.6864 34.9405H28.1031Z" fill="#515F81"/>
</g>
<defs>
<clipPath id="clip0">
<rect width="36" height="36" fill="white"/>
</clipPath>
</defs>
</svg>
