<svg width="32" height="32" viewBox="0 0 32 32" fill="none" xmlns="http://www.w3.org/2000/svg">
<path d="M30.6559 5.34399H1.34387C0.959875 5.34399 0.671875 5.63199 0.671875 5.98399V9.98399C0.671875 10.368 0.959875 10.656 1.34387 10.656H10.0159V25.984C10.0159 26.368 10.3039 26.656 10.6559 26.656H23.9999C24.3839 26.656 24.6719 26.368 24.6719 25.984V10.656H30.6559C31.0399 10.656 31.3279 10.368 31.3279 9.98399V5.98399C31.3279 5.63199 31.0399 5.34399 30.6559 5.34399V5.34399ZM20.6719 9.34399H11.3279V6.65599H20.6719V9.34399ZM2.01588 6.65599H10.0159V9.34399H2.01588V6.65599V6.65599ZM23.3279 25.344H11.3279V10.656H23.3279V25.344ZM30.0159 9.34399H22.0159V6.65599H30.0159V9.34399ZM13.3439 13.344C12.9599 13.344 12.6719 13.632 12.6719 13.984C12.6719 14.336 12.9599 14.656 13.3439 14.656H21.3439C21.6959 14.656 22.0159 14.368 22.0159 13.984C22.0159 13.6 21.6959 13.344 21.3439 13.344H13.3439V13.344ZM21.3439 17.344H13.3439C12.9599 17.344 12.6719 17.632 12.6719 17.984C12.6719 18.336 12.9599 18.656 13.3439 18.656H21.3439C21.6959 18.656 22.0159 18.368 22.0159 17.984C22.0159 17.6 21.6959 17.344 21.3439 17.344ZM21.3439 21.344H13.3439C12.9599 21.344 12.6719 21.632 12.6719 21.984C12.6719 22.336 12.9599 22.656 13.3439 22.656H21.3439C21.6959 22.656 22.0159 22.368 22.0159 21.984C22.0159 21.6 21.6959 21.344 21.3439 21.344Z" fill="black"/>
</svg>
