<svg width="43" height="56" viewBox="0 0 43 56" fill="none" xmlns="http://www.w3.org/2000/svg">
<path d="M30.485 0H1.463C0.655 0 0 0.655 0 1.926V55C0 55.345 0.655 56 1.463 56H41.537C42.345 56 43 55.345 43 55V12.978C43 12.282 42.907 12.058 42.743 11.893L31.107 0.257C30.942 0.093 30.718 0 30.485 0Z" fill="#F7F8F9"/>
<path d="M31 0.151001V12H42.849L31 0.151001Z" fill="#E0E1E6"/>
<path d="M41.537 56H1.463C0.655 56 0 55.345 0 54.537V39H43V54.537C43 55.345 42.345 56 41.537 56Z" fill="#0CA7FF"/>
<path d="M18.3253 52H16.4663V45.929L14.0223 52H13.2163L10.7723 45.929V52H8.92633V43.329H11.5133L13.6193 48.568L15.7253 43.329H18.3253V52Z" fill="white"/>
<path d="M21.8934 52H20.0474V43.329H24.1034C25.0134 43.329 25.7241 43.5976 26.2354 44.135C26.7554 44.6636 27.0154 45.3266 27.0154 46.124C27.0154 46.9126 26.7554 47.5756 26.2354 48.113C25.7154 48.6503 25.0048 48.919 24.1034 48.919H21.8934V52ZM23.8564 47.294C24.2291 47.294 24.5324 47.19 24.7664 46.982C25.0091 46.7653 25.1304 46.4793 25.1304 46.124C25.1304 45.7686 25.0091 45.487 24.7664 45.279C24.5324 45.0623 24.2291 44.954 23.8564 44.954H21.8934V47.294H23.8564Z" fill="white"/>
<path d="M30.9807 52.156C30.2181 52.156 29.5421 52.0303 28.9527 51.779C28.3634 51.519 27.8997 51.181 27.5617 50.765L28.5237 49.53C28.8184 49.8333 29.1824 50.076 29.6157 50.258C30.0491 50.4313 30.4824 50.518 30.9157 50.518C31.4357 50.518 31.8387 50.4183 32.1247 50.219C32.4107 50.011 32.5537 49.7423 32.5537 49.413C32.5537 49.0663 32.4151 48.815 32.1377 48.659C31.8604 48.4943 31.4184 48.412 30.8117 48.412C30.2657 48.412 29.9061 48.4206 29.7327 48.438V46.774C29.8367 46.7826 30.1964 46.787 30.8117 46.787C31.8777 46.787 32.4107 46.4793 32.4107 45.864C32.4107 45.5346 32.2591 45.2833 31.9557 45.11C31.6611 44.928 31.2754 44.837 30.7987 44.837C29.9581 44.837 29.2257 45.136 28.6017 45.734L27.6787 44.577C28.4934 43.6583 29.5984 43.199 30.9937 43.199C32.0077 43.199 32.8051 43.4113 33.3857 43.836C33.9751 44.2606 34.2697 44.8326 34.2697 45.552C34.2697 46.072 34.0834 46.5096 33.7107 46.865C33.3381 47.2116 32.8917 47.4326 32.3717 47.528C32.8831 47.58 33.3467 47.7923 33.7627 48.165C34.1874 48.529 34.3997 49.01 34.3997 49.608C34.3997 50.362 34.0877 50.9773 33.4637 51.454C32.8397 51.922 32.0121 52.156 30.9807 52.156Z" fill="white"/>
<path d="M29.17 14.986C28.603 14.19 27.87 13.443 26.862 12.635C22.948 9.504 22.105 6.358 22 5.897V5C22 4.447 21.553 4 21 4C20.447 4 20 4.447 20 5V6V14.359V23.412H16.294C12.412 23.412 10 25.373 10 28.529C10 31.995 12.24 34.235 15.706 34.235C19.177 34.235 22 31.412 22 27.941V16.468L22.298 16.711C22.638 17.047 23.159 17.431 23.819 17.916C26.137 19.625 30.019 22.483 29.043 25.709C29.014 25.807 29 25.904 29 26C29 26.43 29.278 26.826 29.71 26.957C29.807 26.986 29.904 27 30 27C30.43 27 30.826 26.722 30.957 26.29C32.584 20.915 30.535 16.9 29.17 14.986ZM20 27.941C20 30.309 18.074 32.235 15.706 32.235C13.351 32.235 12 30.884 12 28.529C12 25.953 14.335 25.412 16.294 25.412H20V27.941ZM25.005 16.308C24.434 15.886 23.94 15.523 23.634 15.227L22 13.887V10.414C22.827 11.588 23.987 12.897 25.612 14.197C26.47 14.885 27.084 15.505 27.541 16.147C28.257 17.15 28.972 18.486 29.329 20.125C28.002 18.515 26.245 17.221 25.005 16.308Z" fill="#D5D7DE"/>
</svg>
