<svg width="43" height="56" viewBox="0 0 43 56" fill="none" xmlns="http://www.w3.org/2000/svg">
<path d="M30.485 0H1.463C0.655 0 0 0.655 0 1.926V55C0 55.345 0.655 56 1.463 56H41.537C42.345 56 43 55.345 43 55V12.978C43 12.282 42.907 12.058 42.743 11.893L31.107 0.257C30.942 0.093 30.718 0 30.485 0Z" fill="#F7F8F9"/>
<path d="M31 0.151001V12H42.849L31 0.151001Z" fill="#E0E1E6"/>
<path d="M41.537 56H1.463C0.655 56 0 55.345 0 54.537V39H43V54.537C43 55.345 42.345 56 41.537 56Z" fill="#7CA727"/>
<path d="M18.2619 52.0001H16.4029V45.9291L13.9589 52.0001H13.1529L10.7089 45.9291V52.0001H8.86285V43.3291H11.4499L13.5559 48.5681L15.6619 43.3291H18.2619V52.0001Z" fill="white"/>
<path d="M21.8299 52.0001H19.9839V43.3291H24.0399C24.9499 43.3291 25.6606 43.5978 26.1719 44.1351C26.6919 44.6638 26.9519 45.3268 26.9519 46.1241C26.9519 46.9128 26.6919 47.5758 26.1719 48.1131C25.6519 48.6504 24.9413 48.9191 24.0399 48.9191H21.8299V52.0001ZM23.7929 47.2941C24.1656 47.2941 24.4689 47.1901 24.7029 46.9821C24.9456 46.7654 25.0669 46.4794 25.0669 46.1241C25.0669 45.7688 24.9456 45.4871 24.7029 45.2791C24.4689 45.0624 24.1656 44.9541 23.7929 44.9541H21.8299V47.2941H23.7929Z" fill="white"/>
<path d="M33.5563 52.0001H31.7103V50.2061H27.5633V48.7501L31.0083 43.3291H33.5563V48.5811H34.6743V50.2061H33.5563V52.0001ZM31.7103 48.5811V44.9671L29.3703 48.5811H31.7103Z" fill="white"/>
<path d="M16.9231 28C16.7698 28 16.6175 27.9641 16.4791 27.8924C16.1837 27.7384 16 27.4444 16 27.125V14.8748C16 14.5554 16.1837 14.2614 16.4791 14.1074C16.7754 13.9543 17.1345 13.9657 17.4197 14.1363L27.5735 20.2614C27.8385 20.4224 28 20.7007 28 20.9999C28 21.2992 27.8385 21.5774 27.5726 21.7384L17.4188 27.8635C17.2683 27.9536 17.0957 28 16.9231 28ZM17.8462 16.4682V25.5307L25.3572 20.9999L17.8462 16.4682Z" fill="#D5D7DE"/>
<path d="M21 35C13.2804 35 7 28.7196 7 21C7 13.2804 13.2804 7 21 7C28.7196 7 35 13.2804 35 21C35 28.7196 28.7196 35 21 35ZM21 8.86667C14.3099 8.86667 8.86667 14.3099 8.86667 21C8.86667 27.6901 14.3099 33.1333 21 33.1333C27.6901 33.1333 33.1333 27.6901 33.1333 21C33.1333 14.3099 27.6901 8.86667 21 8.86667Z" fill="#D5D7DE"/>
</svg>
