<!-- Generated by IcoMoon.io -->
<svg version="1.1" xmlns="http://www.w3.org/2000/svg" width="32" height="32" viewBox="0 0 32 32">
<title>nav-menu</title>
<path d="M30.656 5.344h-29.312c-0.384 0-0.672 0.288-0.672 0.64v4c0 0.384 0.288 0.672 0.672 0.672h8.672v15.328c0 0.384 0.288 0.672 0.64 0.672h13.344c0.384 0 0.672-0.288 0.672-0.672v-15.328h5.984c0.384 0 0.672-0.288 0.672-0.672v-4c0-0.352-0.288-0.64-0.672-0.64zM20.672 9.344h-9.344v-2.688h9.344v2.688zM2.016 6.656h8v2.688h-8v-2.688zM23.328 25.344h-12v-14.688h12v14.688zM30.016 9.344h-8v-2.688h8v2.688zM13.344 13.344c-0.384 0-0.672 0.288-0.672 0.64s0.288 0.672 0.672 0.672h8c0.352 0 0.672-0.288 0.672-0.672s-0.32-0.64-0.672-0.64h-8zM21.344 17.344h-8c-0.384 0-0.672 0.288-0.672 0.64s0.288 0.672 0.672 0.672h8c0.352 0 0.672-0.288 0.672-0.672s-0.32-0.64-0.672-0.64zM21.344 21.344h-8c-0.384 0-0.672 0.288-0.672 0.64s0.288 0.672 0.672 0.672h8c0.352 0 0.672-0.288 0.672-0.672s-0.32-0.64-0.672-0.64z"></path>
</svg>
