<svg width="43" height="56" viewBox="0 0 43 56" fill="none" xmlns="http://www.w3.org/2000/svg">
<path d="M30.485 0H1.463C0.655 0 0 0.655 0 1.926V55C0 55.345 0.655 56 1.463 56H41.537C42.345 56 43 55.345 43 55V12.978C43 12.282 42.907 12.058 42.743 11.893L31.107 0.257C30.942 0.093 30.718 0 30.485 0Z" fill="#F7F8F9"/>
<path d="M31 0.151001V12H42.849L31 0.151001Z" fill="#E0E1E6"/>
<path d="M41.537 56H1.463C0.655 56 0 55.345 0 54.537V39H43V54.537C43 55.345 42.345 56 41.537 56Z" fill="#FF5722"/>
<path d="M12.7741 52.156C11.4655 52.156 10.3821 51.7357 9.52412 50.895C8.67479 50.0457 8.25012 48.971 8.25012 47.671C8.25012 46.371 8.67479 45.3007 9.52412 44.46C10.3821 43.6107 11.4655 43.186 12.7741 43.186C14.0915 43.186 15.1748 43.6064 16.0241 44.447C16.8821 45.2877 17.3111 46.3624 17.3111 47.671C17.3111 48.9797 16.8821 50.0544 16.0241 50.895C15.1748 51.7357 14.0915 52.156 12.7741 52.156ZM10.8631 49.712C11.3485 50.2494 11.9855 50.518 12.7741 50.518C13.5628 50.518 14.1998 50.2494 14.6851 49.712C15.1705 49.1747 15.4131 48.4944 15.4131 47.671C15.4131 46.8477 15.1705 46.1674 14.6851 45.63C14.1998 45.0927 13.5628 44.824 12.7741 44.824C11.9855 44.824 11.3485 45.0927 10.8631 45.63C10.3865 46.1674 10.1481 46.8477 10.1481 47.671C10.1481 48.4944 10.3865 49.1747 10.8631 49.712Z" fill="white"/>
<path d="M22.0256 52H18.6066V43.329H22.0256C23.3862 43.329 24.4912 43.7277 25.3406 44.525C26.1986 45.3224 26.6276 46.371 26.6276 47.671C26.6276 48.971 26.2029 50.0197 25.3535 50.817C24.5042 51.6057 23.3949 52 22.0256 52ZM22.0256 50.375C22.8576 50.375 23.5162 50.115 24.0016 49.595C24.4956 49.075 24.7426 48.4337 24.7426 47.671C24.7426 46.8737 24.5042 46.2237 24.0276 45.721C23.5509 45.2097 22.8836 44.954 22.0256 44.954H20.4526V50.375H22.0256Z" fill="white"/>
<path d="M29.7836 52H27.9376V43.329H31.9936C32.9036 43.329 33.6143 43.5977 34.1256 44.135C34.6456 44.6637 34.9056 45.3267 34.9056 46.124C34.9056 46.9127 34.6456 47.5757 34.1256 48.113C33.6056 48.6504 32.8949 48.919 31.9936 48.919H29.7836V52ZM31.7466 47.294C32.1193 47.294 32.4226 47.19 32.6566 46.982C32.8993 46.7654 33.0206 46.4794 33.0206 46.124C33.0206 45.7687 32.8993 45.487 32.6566 45.279C32.4226 45.0624 32.1193 44.954 31.7466 44.954H29.7836V47.294H31.7466Z" fill="white"/>
<path d="M34 29H10V13H34V29ZM12 27H32V15H12V27Z" fill="#D5D7DE"/>
<path d="M14.999 34C14.824 34 14.646 33.954 14.485 33.857C14.011 33.573 13.858 32.959 14.142 32.485L17.142 27.485C17.426 27.011 18.04 26.858 18.514 27.142C18.988 27.426 19.141 28.04 18.857 28.514L15.857 33.514C15.67 33.827 15.339 34 14.999 34Z" fill="#D5D7DE"/>
<path d="M29.001 34C28.661 34 28.33 33.827 28.143 33.515L25.143 28.515C24.859 28.041 25.012 27.427 25.486 27.143C25.96 26.86 26.574 27.012 26.858 27.486L29.858 32.486C30.142 32.96 29.989 33.574 29.515 33.858C29.354 33.954 29.176 34 29.001 34Z" fill="#D5D7DE"/>
<path d="M22 15C21.448 15 21 14.553 21 14V11C21 10.447 21.448 10 22 10C22.552 10 23 10.447 23 11V14C23 14.553 22.552 15 22 15Z" fill="#D5D7DE"/>
<path d="M32 15H12V27H32V15Z" fill="#F7F8F9"/>
</svg>
