<svg width="43" height="56" viewBox="0 0 43 56" fill="none" xmlns="http://www.w3.org/2000/svg">
<path d="M30.485 0H1.463C0.655 0 0 0.655 0 1.926V55C0 55.345 0.655 56 1.463 56H41.537C42.345 56 43 55.345 43 55V12.978C43 12.282 42.907 12.058 42.743 11.893L31.107 0.257C30.942 0.093 30.718 0 30.485 0Z" fill="#F7F8F9"/>
<path d="M31 0.151001V12H42.849L31 0.151001Z" fill="#E0E1E6"/>
<path d="M41.537 56H1.463C0.655 56 0 55.345 0 54.537V39H43V54.537C43 55.345 42.345 56 41.537 56Z" fill="#06AF36"/>
<path d="M17 16V12H5V16V18V20V22V24V26V28V30V34H15H17H38V30V28V26V24V22V20V16H17ZM7 14H15V16H7V14ZM7 18H15V20H7V18ZM7 22H15V24H7V22ZM7 26H15V28H7V26ZM15 32H7V30H15V32ZM36 32H17V30H36V32ZM36 28H17V26H36V28ZM36 24H17V22H36V24ZM17 20V18H36V20H17Z" fill="#D5D7DE"/>
<path d="M12.9328 52.156C11.6241 52.156 10.5408 51.7357 9.68281 50.895C8.83348 50.0457 8.40881 48.971 8.40881 47.671C8.40881 46.371 8.83348 45.3007 9.68281 44.46C10.5408 43.6107 11.6241 43.186 12.9328 43.186C14.2501 43.186 15.3335 43.6064 16.1828 44.447C17.0408 45.2877 17.4698 46.3624 17.4698 47.671C17.4698 48.9797 17.0408 50.0544 16.1828 50.895C15.3335 51.7357 14.2501 52.156 12.9328 52.156ZM11.0218 49.712C11.5071 50.2494 12.1441 50.518 12.9328 50.518C13.7215 50.518 14.3585 50.2494 14.8438 49.712C15.3291 49.1747 15.5718 48.4944 15.5718 47.671C15.5718 46.8477 15.3291 46.1674 14.8438 45.63C14.3585 45.0927 13.7215 44.824 12.9328 44.824C12.1441 44.824 11.5071 45.0927 11.0218 45.63C10.5451 46.1674 10.3068 46.8477 10.3068 47.671C10.3068 48.4944 10.5451 49.1747 11.0218 49.712Z" fill="white"/>
<path d="M22.1842 52H18.7652V43.329H22.1842C23.5449 43.329 24.6499 43.7277 25.4992 44.525C26.3572 45.3224 26.7862 46.371 26.7862 47.671C26.7862 48.971 26.3616 50.0197 25.5122 50.817C24.6629 51.6057 23.5536 52 22.1842 52ZM22.1842 50.375C23.0162 50.375 23.6749 50.115 24.1602 49.595C24.6542 49.075 24.9012 48.4337 24.9012 47.671C24.9012 46.8737 24.6629 46.2237 24.1862 45.721C23.7096 45.2097 23.0422 44.954 22.1842 44.954H20.6112V50.375H22.1842Z" fill="white"/>
<path d="M31.1773 52.156C29.6346 52.156 28.4126 51.6967 27.5113 50.778L28.5123 49.374C29.2576 50.154 30.1763 50.544 31.2683 50.544C31.745 50.544 32.1133 50.453 32.3733 50.271C32.642 50.0804 32.7763 49.8507 32.7763 49.582C32.7763 49.348 32.6506 49.153 32.3993 48.997C32.1566 48.841 31.849 48.7284 31.4763 48.659C31.1123 48.5897 30.7136 48.49 30.2803 48.36C29.847 48.23 29.444 48.0827 29.0713 47.918C28.7073 47.7534 28.3996 47.4934 28.1483 47.138C27.9056 46.7827 27.7843 46.3494 27.7843 45.838C27.7843 45.0927 28.0833 44.4687 28.6813 43.966C29.2793 43.4547 30.0766 43.199 31.0733 43.199C32.4513 43.199 33.578 43.602 34.4533 44.408L33.4263 45.76C32.7416 45.1274 31.901 44.811 30.9043 44.811C30.5143 44.811 30.211 44.889 29.9943 45.045C29.7776 45.201 29.6693 45.4134 29.6693 45.682C29.6693 45.89 29.7906 46.0677 30.0333 46.215C30.2846 46.3537 30.5923 46.4577 30.9563 46.527C31.329 46.5964 31.7276 46.7004 32.1523 46.839C32.5856 46.969 32.9843 47.1207 33.3483 47.294C33.721 47.4587 34.0286 47.723 34.2713 48.087C34.5226 48.4424 34.6483 48.8714 34.6483 49.374C34.6483 50.206 34.3493 50.8777 33.7513 51.389C33.162 51.9004 32.304 52.156 31.1773 52.156Z" fill="white"/>
</svg>
