<svg width="43" height="56" viewBox="0 0 43 56" fill="none" xmlns="http://www.w3.org/2000/svg">
<path d="M30.485 0H1.463C0.655 0 0 0.655 0 1.926V55C0 55.345 0.655 56 1.463 56H41.537C42.345 56 43 55.345 43 55V12.978C43 12.282 42.907 12.058 42.743 11.893L31.107 0.257C30.942 0.093 30.718 0 30.485 0Z" fill="#F7F8F9"/>
<path d="M31 0.151001V12H42.849L31 0.151001Z" fill="#E0E1E6"/>
<path d="M41.537 56H1.463C0.655 56 0 55.345 0 54.537V39H43V54.537C43 55.345 42.345 56 41.537 56Z" fill="#1565C0"/>
<path d="M13.2058 52.156C11.8971 52.156 10.8138 51.7357 9.95576 50.895C9.10643 50.0457 8.68176 48.971 8.68176 47.671C8.68176 46.371 9.10643 45.3007 9.95576 44.46C10.8138 43.6107 11.8971 43.186 13.2058 43.186C14.5231 43.186 15.6064 43.6064 16.4558 44.447C17.3138 45.2877 17.7428 46.3624 17.7428 47.671C17.7428 48.9797 17.3138 50.0544 16.4558 50.895C15.6064 51.7357 14.5231 52.156 13.2058 52.156ZM11.2948 49.712C11.7801 50.2494 12.4171 50.518 13.2058 50.518C13.9944 50.518 14.6314 50.2494 15.1168 49.712C15.6021 49.1747 15.8448 48.4944 15.8448 47.671C15.8448 46.8477 15.6021 46.1674 15.1168 45.63C14.6314 45.0927 13.9944 44.824 13.2058 44.824C12.4171 44.824 11.7801 45.0927 11.2948 45.63C10.8181 46.1674 10.5798 46.8477 10.5798 47.671C10.5798 48.4944 10.8181 49.1747 11.2948 49.712Z" fill="white"/>
<path d="M22.4572 52H19.0382V43.329H22.4572C23.8179 43.329 24.9229 43.7277 25.7722 44.525C26.6302 45.3224 27.0592 46.371 27.0592 47.671C27.0592 48.971 26.6345 50.0197 25.7852 50.817C24.9359 51.6057 23.8265 52 22.4572 52ZM22.4572 50.375C23.2892 50.375 23.9479 50.115 24.4332 49.595C24.9272 49.075 25.1742 48.4337 25.1742 47.671C25.1742 46.8737 24.9359 46.2237 24.4592 45.721C23.9825 45.2097 23.3152 44.954 22.4572 44.954H20.8842V50.375H22.4572Z" fill="white"/>
<path d="M31.9129 52H30.0539V44.954H27.5189V43.329H34.4349V44.954H31.9129V52Z" fill="white"/>
<path d="M12 14H6C5.448 14 5 13.552 5 13C5 12.448 5.448 12 6 12H12C12.552 12 13 12.448 13 13C13 13.552 12.552 14 12 14Z" fill="#D5D7DE"/>
<path d="M15 19H6C5.448 19 5 18.552 5 18C5 17.448 5.448 17 6 17H15C15.552 17 16 17.448 16 18C16 18.552 15.552 19 15 19Z" fill="#D5D7DE"/>
<path d="M19 19C18.74 19 18.48 18.8899 18.29 18.7099C18.11 18.5199 18 18.26 18 18C18 17.74 18.11 17.48 18.29 17.29C18.66 16.92 19.34 16.92 19.71 17.29C19.89 17.48 20 17.74 20 18C20 18.26 19.89 18.5199 19.71 18.7099C19.52 18.8899 19.26 19 19 19Z" fill="#D5D7DE"/>
<path d="M31 19H23C22.448 19 22 18.552 22 18C22 17.448 22.448 17 23 17H31C31.552 17 32 17.448 32 18C32 18.552 31.552 19 31 19Z" fill="#D5D7DE"/>
<path d="M6 34C5.74 34 5.48 33.8899 5.29 33.7099C5.11 33.5199 5 33.26 5 33C5 32.74 5.11 32.48 5.29 32.29C5.66 31.92 6.34 31.92 6.71 32.29C6.89 32.48 7 32.73 7 33C7 33.26 6.89 33.5199 6.71 33.7099C6.52 33.8899 6.26 34 6 34Z" fill="#D5D7DE"/>
<path d="M18 34H10C9.448 34 9 33.552 9 33C9 32.448 9.448 32 10 32H18C18.552 32 19 32.448 19 33C19 33.552 18.552 34 18 34Z" fill="#D5D7DE"/>
<path d="M37 19H35C34.448 19 34 18.552 34 18C34 17.448 34.448 17 35 17H37C37.552 17 38 17.448 38 18C38 18.552 37.552 19 37 19Z" fill="#D5D7DE"/>
<path d="M28 24H6C5.448 24 5 23.552 5 23C5 22.448 5.448 22 6 22H28C28.552 22 29 22.448 29 23C29 23.552 28.552 24 28 24Z" fill="#D5D7DE"/>
<path d="M37 24H31C30.448 24 30 23.552 30 23C30 22.448 30.448 22 31 22H37C37.552 22 38 22.448 38 23C38 23.552 37.552 24 37 24Z" fill="#D5D7DE"/>
<path d="M10 29H6C5.448 29 5 28.552 5 28C5 27.448 5.448 27 6 27H10C10.552 27 11 27.448 11 28C11 28.552 10.552 29 10 29Z" fill="#D5D7DE"/>
<path d="M24 29H14C13.448 29 13 28.552 13 28C13 27.448 13.448 27 14 27H24C24.552 27 25 27.448 25 28C25 28.552 24.552 29 24 29Z" fill="#D5D7DE"/>
<path d="M37 29H28C27.448 29 27 28.552 27 28C27 27.448 27.448 27 28 27H37C37.552 27 38 27.448 38 28C38 28.552 37.552 29 37 29Z" fill="#D5D7DE"/>
</svg>
