<svg width="43" height="56" viewBox="0 0 43 56" fill="none" xmlns="http://www.w3.org/2000/svg">
<path d="M30.485 0H1.463C0.655 0 0 0.655 0 1.926V55C0 55.345 0.655 56 1.463 56H41.537C42.345 56 43 55.345 43 55V12.978C43 12.282 42.907 12.058 42.743 11.893L31.107 0.257C30.942 0.093 30.718 0 30.485 0Z" fill="#F7F8F9"/>
<path d="M31 0.151001V12H42.849L31 0.151001Z" fill="#E0E1E6"/>
<path d="M41.537 56H1.463C0.655 56 0 55.345 0 54.537V39H43V54.537C43 55.345 42.345 56 41.537 56Z" fill="#343B4C"/>
<path d="M14.1579 52.156C12.8492 52.156 11.7659 51.7357 10.9079 50.895C10.0586 50.0457 9.63391 48.971 9.63391 47.671C9.63391 46.371 10.0586 45.3007 10.9079 44.46C11.7659 43.6107 12.8492 43.186 14.1579 43.186C15.4752 43.186 16.5586 43.6064 17.4079 44.447C18.2659 45.2877 18.6949 46.3624 18.6949 47.671C18.6949 48.9797 18.2659 50.0544 17.4079 50.895C16.5586 51.7357 15.4752 52.156 14.1579 52.156ZM12.2469 49.712C12.7322 50.2494 13.3692 50.518 14.1579 50.518C14.9466 50.518 15.5836 50.2494 16.0689 49.712C16.5542 49.1747 16.7969 48.4944 16.7969 47.671C16.7969 46.8477 16.5542 46.1674 16.0689 45.63C15.5836 45.0927 14.9466 44.824 14.1579 44.824C13.3692 44.824 12.7322 45.0927 12.2469 45.63C11.7702 46.1674 11.5319 46.8477 11.5319 47.671C11.5319 48.4944 11.7702 49.1747 12.2469 49.712Z" fill="white"/>
<path d="M23.534 52H21.675V44.954H19.14V43.329H26.056V44.954H23.534V52Z" fill="white"/>
<path d="M29.0854 52H27.2394V43.329H33.3754V44.954H29.0854V46.787H33.2844V48.412H29.0854V52Z" fill="white"/>
<path d="M29 12H13V17.6406H15.1538C15.1538 13.1875 19.4615 14.0781 19.4615 14.0781V27.4375C19.4615 27.4375 19.4615 29.5156 16.3846 29.5156V31H25.6154V29.5156C22.5385 29.5156 22.5385 27.4375 22.5385 27.4375V14.0781C22.5385 14.0781 26.5385 13.1875 26.5385 17.6406H29V12Z" fill="#D5D7DE"/>
</svg>
