<svg width="43" height="56" viewBox="0 0 43 56" fill="none" xmlns="http://www.w3.org/2000/svg">
<path d="M30.485 0H1.463C0.655 0 0 0.655 0 1.926V55C0 55.345 0.655 56 1.463 56H41.537C42.345 56 43 55.345 43 55V12.978C43 12.282 42.907 12.058 42.743 11.893L31.107 0.257C30.942 0.093 30.718 0 30.485 0Z" fill="#F7F8F9"/>
<path d="M31 0.151001V12H42.849L31 0.151001Z" fill="#E0E1E6"/>
<path d="M41.537 56H1.463C0.655 56 0 55.345 0 54.537V39H43V54.537C43 55.345 42.345 56 41.537 56Z" fill="#CC4B4C"/>
<path d="M11.7689 52H9.92291V43.329H13.9789C14.8889 43.329 15.5996 43.5976 16.1109 44.135C16.6309 44.6636 16.8909 45.3266 16.8909 46.124C16.8909 46.9126 16.6309 47.5756 16.1109 48.113C15.5909 48.6503 14.8802 48.919 13.9789 48.919H11.7689V52ZM13.7319 47.294C14.1046 47.294 14.4079 47.19 14.6419 46.982C14.8846 46.7653 15.0059 46.4793 15.0059 46.124C15.0059 45.7686 14.8846 45.487 14.6419 45.279C14.4079 45.0623 14.1046 44.954 13.7319 44.954H11.7689V47.294H13.7319Z" fill="white"/>
<path d="M21.4542 52H18.0352V43.329H21.4542C22.8149 43.329 23.9199 43.7276 24.7692 44.525C25.6272 45.3223 26.0562 46.371 26.0562 47.671C26.0562 48.971 25.6316 50.0196 24.7822 50.817C23.9329 51.6056 22.8236 52 21.4542 52ZM21.4542 50.375C22.2862 50.375 22.9449 50.115 23.4302 49.595C23.9242 49.075 24.1712 48.4336 24.1712 47.671C24.1712 46.8736 23.9329 46.2236 23.4562 45.721C22.9796 45.2096 22.3122 44.954 21.4542 44.954H19.8812V50.375H21.4542Z" fill="white"/>
<path d="M29.2123 52H27.3663V43.329H33.5023V44.954H29.2123V46.787H33.4113V48.412H29.2123V52Z" fill="white"/>
<path d="M11.0958 32.416C10.7478 32.416 10.4138 32.303 10.1288 32.09C9.08777 31.309 8.94777 30.44 9.01377 29.848C9.19577 28.22 11.2088 26.516 14.9988 24.78C16.5028 21.484 17.9338 17.423 18.7868 14.03C17.7888 11.858 16.8188 9.04 17.5258 7.387C17.7738 6.808 18.0828 6.364 18.6598 6.172C18.8878 6.096 19.4638 6 19.6758 6C20.1798 6 20.6228 6.649 20.9368 7.049C21.2318 7.425 21.9008 8.222 20.5638 13.851C21.9118 16.635 23.8218 19.471 25.6518 21.413C26.9628 21.176 28.0908 21.055 29.0098 21.055C30.5758 21.055 31.5248 21.42 31.9118 22.172C32.2318 22.794 32.1008 23.521 31.5218 24.332C30.9648 25.111 30.1968 25.523 29.3018 25.523C28.0858 25.523 26.6698 24.755 25.0908 23.238C22.2538 23.831 18.9408 24.889 16.2628 26.06C15.4268 27.834 14.6258 29.263 13.8798 30.311C12.8548 31.746 11.9708 32.416 11.0958 32.416ZM13.7578 27.29C11.6208 28.491 10.7498 29.478 10.6868 30.034C10.6768 30.126 10.6498 30.368 11.1178 30.726C11.2668 30.679 12.1368 30.282 13.7578 27.29ZM27.3948 22.848C28.2098 23.475 28.4088 23.792 28.9418 23.792C29.1758 23.792 29.8428 23.782 30.1518 23.351C30.3008 23.142 30.3588 23.008 30.3818 22.936C30.2588 22.871 30.0958 22.739 29.2068 22.739C28.7018 22.74 28.0668 22.762 27.3948 22.848ZM19.9248 16.266C19.2098 18.74 18.2658 21.411 17.2508 23.83C19.3408 23.019 21.6128 22.311 23.7468 21.81C22.3968 20.242 21.0478 18.284 19.9248 16.266ZM19.3178 7.804C19.2198 7.837 17.9878 9.561 19.4138 11.02C20.3628 8.905 19.3608 7.79 19.3178 7.804Z" fill="#CC4B4C"/>
</svg>
