<svg width="35" height="35" viewBox="0 0 35 35" fill="none" xmlns="http://www.w3.org/2000/svg">
<g clip-path="url(#clip0)">
<path d="M19.7194 3.67468H18.9918V18.5915L8.36804 29.2152L8.87737 29.7246C11.7152 32.6352 15.5717 34.236 19.6466 34.236C28.0873 34.236 35 27.3961 35 18.9553C35 10.5146 28.1601 3.67468 19.7194 3.67468ZM19.6466 32.7807C16.2266 32.7807 12.9522 31.5437 10.4054 29.2152L20.3742 19.2464V5.12996C27.6508 5.49378 33.472 11.6061 33.472 18.9553C33.472 26.5957 27.287 32.7807 19.6466 32.7807Z" fill="#515F81"/>
<path d="M0.0727234 19.7557L0.145517 20.4834C0.436543 23.976 2.03741 27.3233 4.51143 29.7973L5.02076 30.3066L17.3181 18.0093L0.0727234 19.7557ZM1.60087 21.0655L13.316 19.9012L5.02083 28.1964C3.20166 26.2318 2.03741 23.685 1.60087 21.0655Z" fill="#515F81"/>
<path d="M15.2806 0.764038C6.83993 0.764038 0 7.60397 0 16.0448C0 16.5541 0 17.0635 0.0727935 17.5728L0.145587 18.3005L16.0084 16.6996V0.764038H15.2806ZM14.553 15.3898L1.45528 16.6996C1.45528 16.4813 1.45528 16.263 1.45528 16.0447C1.45528 8.62263 7.27647 2.58314 14.553 2.21932V15.3898Z" fill="#515F81"/>
</g>
<defs>
<clipPath id="clip0">
<rect width="35" height="35" fill="white"/>
</clipPath>
</defs>
</svg>
