<svg width="32" height="32" viewBox="0 0 32 32" fill="none" xmlns="http://www.w3.org/2000/svg">
<g clip-path="url(#clip0_4015_1368)">
<path d="M14.6667 16.4386V1.99994C14.6667 1.63194 14.368 1.33325 14 1.33325C6.28 1.33325 0 8.21194 0 16.6666C0 25.1212 6.87869 31.9999 15.3333 31.9999C19.116 31.9999 21.1626 31.3146 23.7573 29.1812C24.036 28.9519 24.0813 28.5426 23.86 28.2572L14.6667 16.4386ZM15.3333 30.6666C7.61331 30.6666 1.33331 24.3866 1.33331 16.6666C1.33331 9.19462 6.65731 3.07063 13.3333 2.68531V16.6666C13.3333 16.8146 13.3826 16.9586 13.4746 17.0759L22.4026 28.5546C20.2973 30.1626 18.5413 30.6666 15.3333 30.6666Z" fill="black"/>
<path d="M16.6667 16H31.3334C31.7014 16 32.0001 15.7013 32.0001 15.3333C32 6.87869 25.1213 0 16.6667 0C16.2987 0 16 0.298687 16 0.666687V15.3334C16 15.7013 16.2987 16 16.6667 16ZM17.3333 1.34931C24.524 1.688 30.312 7.476 30.6506 14.6666H17.3333V1.34931Z" fill="black"/>
<path d="M31.3338 17.3333H18.0004C17.7444 17.3333 17.5084 17.4813 17.3977 17.7133C17.287 17.9453 17.3204 18.2199 17.4817 18.4186L26.1484 29.1479C26.2644 29.2932 26.4351 29.3812 26.6204 29.3946C26.6364 29.3959 26.6511 29.3959 26.6671 29.3959C26.8351 29.3959 26.9978 29.3319 27.1218 29.2172C30.2217 26.3253 32.0004 22.2373 32.0004 17.9999C32.0004 17.6319 31.7018 17.3333 31.3338 17.3333ZM26.7244 27.7386L19.3964 18.6666H30.6511C30.4871 22.0559 29.0844 25.2973 26.7244 27.7386Z" fill="black"/>
</g>
<defs>
<clipPath id="clip0_4015_1368">
<rect width="32" height="32" fill="white"/>
</clipPath>
</defs>
</svg>
