<svg width="17" height="17" viewBox="0 0 17 17" fill="none" xmlns="http://www.w3.org/2000/svg">
    <path d="M4.30613 2.66556C4.22406 2.58349 4.11126 2.53816 3.99622 2.54142C3.88033 2.54434 3.77061 2.59448 3.69266 2.68015C1.14659 5.48309 2.53166 11.5436 2.67691 12.1432L0.124136 14.6961C0.0446409 14.7756 0 14.8834 0 14.9959C0 15.1082 0.0446409 15.2162 0.124136 15.2957L1.66219 16.8336C1.74495 16.916 1.85346 16.9577 1.96197 16.9577C2.07031 16.9577 2.17899 16.9165 2.26158 16.8336L4.81384 14.2815C6.0564 14.6007 7.61059 14.7911 8.98262 14.7911C10.6307 14.7911 12.8868 14.5261 14.277 13.2654C14.3629 13.1874 14.4132 13.0777 14.4159 12.9617C14.419 12.8456 14.3739 12.7336 14.2918 12.6517L4.30613 2.66556Z" fill="#8E94AA"/>
    <path d="M7.9934 5.18899C8.07616 5.27175 8.18467 5.31313 8.29318 5.31313C8.4017 5.31313 8.51021 5.27175 8.59296 5.18882L11.757 2.02481C11.981 1.80075 12.1043 1.50285 12.1043 1.18608C12.1043 0.869125 11.9809 0.571061 11.757 0.347169C11.5329 0.123106 11.2352 0 10.9182 0C10.6015 0 10.3034 0.123278 10.0792 0.347169L6.91515 3.51135C6.74964 3.67687 6.74964 3.94523 6.91515 4.11092L7.9934 5.18899Z" fill="#8E94AA"/>
    <path d="M16.6527 5.2432C16.4286 5.01914 16.1309 4.89569 15.8139 4.89569C15.4968 4.89569 15.1989 5.01897 14.975 5.24303L11.8108 8.40722C11.7312 8.48671 11.6865 8.59454 11.6865 8.707C11.6865 8.81946 11.7312 8.92711 11.8108 9.00678L12.8891 10.0847C12.9717 10.1674 13.0802 10.209 13.1889 10.209C13.2972 10.209 13.4059 10.1676 13.4886 10.0847L16.653 6.9205C17.1155 6.45778 17.1155 5.70541 16.6527 5.2432Z" fill="#8E94AA"/>
</svg>