<svg width="43" height="56" viewBox="0 0 43 56" fill="none" xmlns="http://www.w3.org/2000/svg">
<path d="M30.485 0H1.463C0.655 0 0 0.655 0 1.926V55C0 55.345 0.655 56 1.463 56H41.537C42.345 56 43 55.345 43 55V12.978C43 12.282 42.907 12.058 42.743 11.893L31.107 0.257C30.942 0.093 30.718 0 30.485 0Z" fill="#F7F8F9"/>
<path d="M31 0.151001V12H42.849L31 0.151001Z" fill="#E0E1E6"/>
<path d="M41.537 56H1.463C0.655 56 0 55.345 0 54.537V39H43V54.537C43 55.345 42.345 56 41.537 56Z" fill="#7841B8"/>
<path d="M10.7342 52H8.88824V43.329H12.9442C13.8542 43.329 14.5649 43.5977 15.0762 44.135C15.5962 44.6637 15.8562 45.3267 15.8562 46.124C15.8562 46.9127 15.5962 47.5757 15.0762 48.113C14.5562 48.6504 13.8456 48.919 12.9442 48.919H10.7342V52ZM12.6972 47.294C13.0699 47.294 13.3732 47.19 13.6072 46.982C13.8499 46.7654 13.9712 46.4794 13.9712 46.124C13.9712 45.7687 13.8499 45.487 13.6072 45.279C13.3732 45.0624 13.0699 44.954 12.6972 44.954H10.7342V47.294H12.6972Z" fill="white"/>
<path d="M24.7616 52H22.9806L18.8465 46.345V52H17.0005V43.329H18.8986L22.9156 48.776V43.329H24.7616V52Z" fill="white"/>
<path d="M30.6703 52.169C29.3703 52.169 28.2739 51.753 27.3813 50.921C26.4973 50.089 26.0553 49.0057 26.0553 47.671C26.0553 46.3277 26.4973 45.2444 27.3813 44.421C28.2739 43.5977 29.3703 43.186 30.6703 43.186C32.2476 43.186 33.4436 43.8317 34.2583 45.123L32.7243 45.955C32.5163 45.6257 32.2303 45.357 31.8663 45.149C31.5109 44.9324 31.1123 44.824 30.6703 44.824C29.8816 44.824 29.2316 45.0927 28.7203 45.63C28.2089 46.1674 27.9533 46.8477 27.9533 47.671C27.9533 48.4944 28.2089 49.1747 28.7203 49.712C29.2316 50.2494 29.8816 50.518 30.6703 50.518C31.0343 50.518 31.3853 50.453 31.7233 50.323C32.0613 50.193 32.3256 50.037 32.5163 49.855V48.815H30.2283V47.203H34.3623V50.531C33.3829 51.623 32.1523 52.169 30.6703 52.169Z" fill="white"/>
<path d="M0 39.1379H11H43V28.1379L33 18.6379L22.5 30.1379L17.017 24.6549L0 39.1379Z" fill="#E0E1E6"/>
<path d="M12.431 19.138C14.9544 19.138 17 17.0924 17 14.569C17 12.0456 14.9544 10 12.431 10C9.90761 10 7.862 12.0456 7.862 14.569C7.862 17.0924 9.90761 19.138 12.431 19.138Z" fill="#D5D7DE"/>
</svg>
