<svg width="43" height="56" viewBox="0 0 43 56" fill="none" xmlns="http://www.w3.org/2000/svg">
<path d="M30.485 0H1.463C0.655 0 0 0.655 0 1.926V55C0 55.345 0.655 56 1.463 56H41.537C42.345 56 43 55.345 43 55V12.978C43 12.282 42.907 12.058 42.743 11.893L31.107 0.257C30.942 0.093 30.718 0 30.485 0Z" fill="#F7F8F9"/>
<path d="M31 0.151001V12H42.849L31 0.151001Z" fill="#E0E1E6"/>
<path d="M41.537 56H1.463C0.655 56 0 55.345 0 54.537V39H43V54.537C43 55.345 42.345 56 41.537 56Z" fill="#FF5722"/>
<path d="M12.3085 52H10.4625V43.329H14.5185C15.4285 43.329 16.1391 43.5976 16.6505 44.135C17.1705 44.6636 17.4305 45.3266 17.4305 46.124C17.4305 46.9126 17.1705 47.5756 16.6505 48.113C16.1305 48.6503 15.4198 48.919 14.5185 48.919H12.3085V52ZM14.2715 47.294C14.6441 47.294 14.9475 47.19 15.1815 46.982C15.4241 46.7653 15.5455 46.4793 15.5455 46.124C15.5455 45.7686 15.4241 45.487 15.1815 45.279C14.9475 45.0623 14.6441 44.954 14.2715 44.954H12.3085V47.294H14.2715Z" fill="white"/>
<path d="M20.4208 52H18.5748V43.329H22.6308C23.5408 43.329 24.2514 43.5976 24.7628 44.135C25.2828 44.6636 25.5428 45.3266 25.5428 46.124C25.5428 46.9126 25.2828 47.5756 24.7628 48.113C24.2428 48.6503 23.5321 48.919 22.6308 48.919H20.4208V52ZM22.3838 47.294C22.7564 47.294 23.0598 47.19 23.2938 46.982C23.5364 46.7653 23.6578 46.4793 23.6578 46.124C23.6578 45.7686 23.5364 45.487 23.2938 45.279C23.0598 45.0623 22.7564 44.954 22.3838 44.954H20.4208V47.294H22.3838Z" fill="white"/>
<path d="M30.5481 52H28.6891V44.954H26.1541V43.329H33.0701V44.954H30.5481V52Z" fill="white"/>
<path d="M34 29H10V13H34V29ZM12 27H32V15H12V27Z" fill="#D5D7DE"/>
<path d="M14.999 34C14.824 34 14.646 33.954 14.485 33.857C14.011 33.573 13.858 32.959 14.142 32.485L17.142 27.485C17.426 27.011 18.04 26.858 18.514 27.142C18.988 27.426 19.141 28.04 18.857 28.514L15.857 33.514C15.67 33.827 15.339 34 14.999 34Z" fill="#D5D7DE"/>
<path d="M29.001 34C28.661 34 28.33 33.827 28.143 33.515L25.143 28.515C24.859 28.041 25.012 27.427 25.486 27.143C25.96 26.86 26.574 27.012 26.858 27.486L29.858 32.486C30.142 32.96 29.989 33.574 29.515 33.858C29.354 33.954 29.176 34 29.001 34Z" fill="#D5D7DE"/>
<path d="M22 15C21.448 15 21 14.553 21 14V11C21 10.447 21.448 10 22 10C22.552 10 23 10.447 23 11V14C23 14.553 22.552 15 22 15Z" fill="#D5D7DE"/>
<path d="M32 15H12V27H32V15Z" fill="#F7F8F9"/>
</svg>
