<svg width="43" height="56" viewBox="0 0 43 56" fill="none" xmlns="http://www.w3.org/2000/svg">
<path d="M30.485 0H1.463C0.655 0 0 0.655 0 1.926V55C0 55.345 0.655 56 1.463 56H41.537C42.345 56 43 55.345 43 55V12.978C43 12.282 42.907 12.058 42.743 11.893L31.107 0.257C30.942 0.093 30.718 0 30.485 0Z" fill="#F7F8F9"/>
<path d="M31 0.151001V12H42.849L31 0.151001Z" fill="#E0E1E6"/>
<path d="M41.537 56H1.463C0.655 56 0 55.345 0 54.537V39H43V54.537C43 55.345 42.345 56 41.537 56Z" fill="#FF5722"/>
<path d="M7.96667 52H6.12067V43.329H10.1767C11.0867 43.329 11.7973 43.5976 12.3087 44.135C12.8287 44.6636 13.0887 45.3266 13.0887 46.124C13.0887 46.9126 12.8287 47.5756 12.3087 48.113C11.7887 48.6503 11.078 48.919 10.1767 48.919H7.96667V52ZM9.92967 47.294C10.3023 47.294 10.6057 47.19 10.8397 46.982C11.0823 46.7653 11.2037 46.4793 11.2037 46.124C11.2037 45.7686 11.0823 45.487 10.8397 45.279C10.6057 45.0623 10.3023 44.954 9.92967 44.954H7.96667V47.294H9.92967Z" fill="white"/>
<path d="M16.079 52H14.233V43.329H18.289C19.199 43.329 19.9096 43.5976 20.421 44.135C20.941 44.6636 21.201 45.3266 21.201 46.124C21.201 46.9126 20.941 47.5756 20.421 48.113C19.901 48.6503 19.1903 48.919 18.289 48.919H16.079V52ZM18.042 47.294C18.4146 47.294 18.718 47.19 18.952 46.982C19.1946 46.7653 19.316 46.4793 19.316 46.124C19.316 45.7686 19.1946 45.487 18.952 45.279C18.718 45.0623 18.4146 44.954 18.042 44.954H16.079V47.294H18.042Z" fill="white"/>
<path d="M26.2063 52H24.3473V44.954H21.8123V43.329H28.7283V44.954H26.2063V52Z" fill="white"/>
<path d="M37.7767 52H35.5667L33.3957 48.828L31.2117 52H29.0147L32.1607 47.554L29.2097 43.329H31.4067L33.3957 46.293L35.3587 43.329H37.5817L34.6307 47.541L37.7767 52Z" fill="white"/>
<path d="M34 29H10V13H34V29ZM12 27H32V15H12V27Z" fill="#D5D7DE"/>
<path d="M14.999 34C14.824 34 14.646 33.954 14.485 33.857C14.011 33.573 13.858 32.959 14.142 32.485L17.142 27.485C17.426 27.011 18.04 26.858 18.514 27.142C18.988 27.426 19.141 28.04 18.857 28.514L15.857 33.514C15.67 33.827 15.339 34 14.999 34Z" fill="#D5D7DE"/>
<path d="M29.001 34C28.661 34 28.33 33.827 28.143 33.515L25.143 28.515C24.859 28.041 25.012 27.427 25.486 27.143C25.96 26.86 26.574 27.012 26.858 27.486L29.858 32.486C30.142 32.96 29.989 33.574 29.515 33.858C29.354 33.954 29.176 34 29.001 34Z" fill="#D5D7DE"/>
<path d="M22 15C21.448 15 21 14.553 21 14V11C21 10.447 21.448 10 22 10C22.552 10 23 10.447 23 11V14C23 14.553 22.552 15 22 15Z" fill="#D5D7DE"/>
<path d="M32 15H12V27H32V15Z" fill="#F7F8F9"/>
</svg>
