<svg width="17" height="10" viewBox="0 0 17 10" fill="none" xmlns="http://www.w3.org/2000/svg">
<path d="M8.38795 0C5.18274 0 2.27608 1.7536 0.131263 4.60192C-0.0437543 4.83528 -0.0437543 5.16129 0.131263 5.39465C2.27608 8.2464 5.18274 10 8.38795 10C11.5932 10 14.4998 8.2464 16.6446 5.39808C16.8197 5.16472 16.8197 4.83871 16.6446 4.60535C14.4998 1.7536 11.5932 0 8.38795 0ZM8.61788 8.52093C6.49022 8.65477 4.73318 6.90117 4.86702 4.77008C4.97684 3.01304 6.401 1.58888 8.15803 1.47907C10.2857 1.34523 12.0427 3.09883 11.9089 5.22992C11.7956 6.98353 10.3715 8.40769 8.61788 8.52093ZM8.5115 6.8943C7.36531 6.96637 6.41815 6.02265 6.49365 4.87646C6.55199 3.92931 7.32069 3.16404 8.26785 3.10227C9.41404 3.0302 10.3612 3.97392 10.2857 5.12011C10.2239 6.07069 9.45522 6.83596 8.5115 6.8943Z" fill="#8E94AA"/>
</svg>
