<svg width="32" height="32" viewBox="0 0 32 32" fill="none" xmlns="http://www.w3.org/2000/svg">
<g clip-path="url(#clip0_4016_1416)">
<path d="M30.016 0.672119H2.016C0.896 0.672119 0 1.56812 0 2.65612V5.34411C0 6.43211 0.896 7.32811 2.016 7.32811H25.984C25.984 7.32811 25.984 7.32811 26.016 7.32811C26.048 7.32811 26.016 7.32811 26.016 7.32811H30.016C31.104 7.32811 32 6.43211 32 5.34411V2.65612C32 1.56812 31.104 0.672119 30.016 0.672119V0.672119ZM25.344 5.98411H22.272L25.344 2.94412V5.98411ZM20.384 5.98411H18.272L22.272 1.98412H24.384L20.384 5.98411ZM14.272 5.98411L18.272 1.98412H20.384L16.384 5.98411H14.272ZM10.272 5.98411L14.272 1.98412H16.384L12.384 5.98411H10.272ZM6.272 5.98411L10.272 1.98412H12.384L8.384 5.98411H6.272ZM2.272 5.98411L6.272 1.98412H8.384L4.384 5.98411H2.272V5.98411ZM2.016 1.98412H4.384L1.344 5.05612V2.65612C1.344 2.30412 1.632 1.98412 2.016 1.98412V1.98412ZM30.656 5.34411C30.656 5.69611 30.368 5.98411 30.016 5.98411H26.656V1.98412H30.016C30.368 1.98412 30.656 2.30412 30.656 2.65612V5.34411ZM30.016 8.67211H2.016C0.896 8.67211 0 9.56811 0 10.6561V13.3441C0 14.4321 0.896 15.3281 2.016 15.3281H17.984C17.984 15.3281 17.984 15.3281 18.016 15.3281C18.048 15.3281 18.016 15.3281 18.016 15.3281H30.016C31.104 15.3281 32 14.4321 32 13.3441V10.6561C32 9.56811 31.104 8.67211 30.016 8.67211ZM17.344 13.9841H14.272L17.344 10.9441V13.9841V13.9841ZM12.384 13.9841H10.272L14.272 9.98411H16.384L12.384 13.9841ZM6.272 13.9841L10.272 9.98411H12.384L8.384 13.9841H6.272ZM2.272 13.9841L6.272 9.98411H8.384L4.384 13.9841H2.272V13.9841ZM2.016 9.98411H4.384L1.344 13.0561V10.6561C1.344 10.3041 1.632 9.98411 2.016 9.98411V9.98411ZM30.656 13.3441C30.656 13.6961 30.368 13.9841 30.016 13.9841H18.656V9.98411H30.016C30.368 9.98411 30.656 10.3041 30.656 10.6561V13.3441V13.3441ZM30.016 24.6721H2.016C0.896 24.6721 0 25.5681 0 26.6561V29.3441C0 30.4321 0.896 31.3281 2.016 31.3281H9.984C9.984 31.3281 9.984 31.3281 10.016 31.3281C10.048 31.3281 10.016 31.3281 10.016 31.3281H30.016C31.104 31.3281 32 30.4321 32 29.3441V26.6561C32 25.5681 31.104 24.6721 30.016 24.6721V24.6721ZM9.344 30.0161H6.272L9.344 26.9441V30.0161ZM4.384 30.0161H2.272L6.272 25.9841H8.384L4.384 30.0161ZM2.016 25.9841H4.384L1.344 29.0561V26.6561C1.344 26.3041 1.632 25.9841 2.016 25.9841V25.9841ZM30.656 29.3441C30.656 29.6961 30.368 30.0161 30.016 30.0161H10.656V25.9841H30.016C30.368 25.9841 30.656 26.3041 30.656 26.6561V29.3441ZM30.016 16.6721H2.016C0.896 16.6721 0 17.5681 0 18.6561V21.3441C0 22.4321 0.896 23.3281 2.016 23.3281H21.984C21.984 23.3281 21.984 23.3281 22.016 23.3281C22.048 23.3281 22.016 23.3281 22.016 23.3281H30.016C31.104 23.3281 32 22.4321 32 21.3441V18.6561C32 17.5681 31.104 16.6721 30.016 16.6721V16.6721ZM21.344 21.9841H18.272L21.344 18.9441V21.9841ZM16.384 21.9841H14.272L18.272 17.9841H20.384L16.384 21.9841ZM10.272 21.9841L14.272 17.9841H16.384L12.384 21.9841H10.272ZM6.272 21.9841L10.272 17.9841H12.384L8.384 21.9841H6.272ZM2.272 21.9841L6.272 17.9841H8.384L4.384 21.9841H2.272V21.9841ZM2.016 17.9841H4.384L1.344 21.0561V18.6561C1.344 18.3041 1.632 17.9841 2.016 17.9841V17.9841ZM30.656 21.3441C30.656 21.6961 30.368 21.9841 30.016 21.9841H22.656V17.9841H30.016C30.368 17.9841 30.656 18.3041 30.656 18.6561V21.3441Z" fill="black"/>
</g>
<defs>
<clipPath id="clip0_4016_1416">
<rect width="32" height="32" fill="white"/>
</clipPath>
</defs>
</svg>
