<svg width="32" height="32" viewBox="0 0 32 32" fill="none" xmlns="http://www.w3.org/2000/svg">
<path d="M16 0C15.616 0 15.3043 0.311674 15.3043 0.695673V6.26087C15.3043 6.64486 15.616 6.95654 16 6.95654C20.9864 6.95654 25.0435 11.0136 25.0435 16C25.0435 20.9865 20.9864 25.0435 16 25.0435C11.0135 25.0435 6.95647 20.9864 6.95647 16C6.95647 15.616 6.6448 15.3043 6.2608 15.3043H0.695673C0.311674 15.3044 0 15.616 0 16C0 24.8222 7.17776 31.9999 16 31.9999C24.8222 31.9999 31.9999 24.8222 31.9999 16C31.9999 7.17776 24.8222 0 16 0ZM16 30.6087C8.17806 30.6087 1.77248 24.4299 1.40798 16.6956H5.58887C5.94645 22.1259 10.4793 26.4347 16 26.4347C21.7544 26.4347 26.4347 21.7544 26.4347 16C26.4347 10.4807 22.1259 5.94782 16.6956 5.58887V1.40798C24.4299 1.77111 30.6087 8.17806 30.6087 16C30.6087 24.0556 24.0556 30.6087 16 30.6087Z" fill="black"/>
<path d="M16.0004 20.8695C18.6857 20.8695 20.87 18.6852 20.87 16C20.87 13.3147 18.6857 11.1304 16.0004 11.1304C13.3152 11.1304 11.1309 13.3147 11.1309 16C11.1309 18.6852 13.3152 20.8695 16.0004 20.8695ZM16.0004 12.5217C17.9191 12.5217 19.4787 14.0828 19.4787 16C19.4787 17.9171 17.919 19.4782 16.0004 19.4782C14.0819 19.4782 12.5222 17.9172 12.5222 16C12.5222 14.0827 14.0819 12.5217 16.0004 12.5217Z" fill="black"/>
</svg>
