<svg width="32" height="32" viewBox="0 0 32 32" fill="none" xmlns="http://www.w3.org/2000/svg">
<path d="M4.672 0.671997C2.08 0.671997 0 2.752 0 5.34399C0 7.93599 2.08 9.98399 4.672 9.98399C7.264 9.98399 9.344 7.90399 9.344 5.34399C9.344 2.784 7.232 0.671997 4.672 0.671997V0.671997ZM4.672 8.67199C2.816 8.67199 1.344 7.16799 1.344 5.34399C1.344 3.51999 2.816 1.984 4.672 1.984C6.528 1.984 8 3.48799 8 5.34399C8 7.19999 6.496 8.67199 4.672 8.67199V8.67199ZM4.672 11.328C2.08 11.328 0 13.44 0 16C0 18.56 2.08 20.672 4.672 20.672C7.264 20.672 9.344 18.56 9.344 16C9.344 13.44 7.232 11.328 4.672 11.328ZM4.672 19.328C2.816 19.328 1.344 17.824 1.344 16C1.344 14.176 2.816 12.672 4.672 12.672C6.528 12.672 8 14.176 8 16C8 17.824 6.496 19.328 4.672 19.328V19.328ZM4.672 21.984C2.08 21.984 0 24.096 0 26.656C0 29.216 2.08 31.328 4.672 31.328C7.264 31.328 9.344 29.248 9.344 26.656C9.344 24.064 7.232 21.984 4.672 21.984ZM4.672 30.016C2.816 30.016 1.344 28.512 1.344 26.656C1.344 24.8 2.816 23.328 4.672 23.328C6.528 23.328 8 24.832 8 26.656C8 28.48 6.496 30.016 4.672 30.016V30.016ZM12.672 5.98399H31.328C31.712 5.98399 32 5.69599 32 5.34399C32 4.99199 31.712 4.67199 31.328 4.67199H12.672C12.288 4.67199 12 4.95999 12 5.34399C12 5.72799 12.288 5.98399 12.672 5.98399ZM31.328 15.328H12.672C12.288 15.328 12 15.616 12 16C12 16.384 12.288 16.672 12.672 16.672H31.328C31.712 16.672 32 16.352 32 16C32 15.648 31.712 15.328 31.328 15.328ZM31.328 25.984H12.672C12.288 25.984 12 26.304 12 26.656C12 27.008 12.288 27.328 12.672 27.328H31.328C31.712 27.328 32 27.04 32 26.656C32 26.272 31.712 25.984 31.328 25.984ZM4.672 13.984C3.552 13.984 2.656 14.88 2.656 16C2.656 17.12 3.552 17.984 4.672 17.984C5.792 17.984 6.656 17.088 6.656 16C6.656 14.912 5.76 13.984 4.672 13.984ZM4.672 16.672C4.288 16.672 4 16.352 4 16C4 15.648 4.288 15.328 4.672 15.328C5.056 15.328 5.344 15.616 5.344 16C5.344 16.384 5.024 16.672 4.672 16.672Z" fill="black"/>
</svg>
