<svg width="43" height="56" viewBox="0 0 43 56" fill="none" xmlns="http://www.w3.org/2000/svg">
<path d="M30.485 0H1.463C0.655 0 0 0.655 0 1.926V55C0 55.345 0.655 56 1.463 56H41.537C42.345 56 43 55.345 43 55V12.978C43 12.282 42.907 12.058 42.743 11.893L31.107 0.257C30.942 0.093 30.718 0 30.485 0Z" fill="#F7F8F9"/>
<path d="M31 0.151001V12H42.849L31 0.151001Z" fill="#E0E1E6"/>
<path d="M41.537 56H1.463C0.655 56 0 55.345 0 54.537V39H43V54.537C43 55.345 42.345 56 41.537 56Z" fill="#F0C419"/>
<path d="M16.5811 52H14.4621L12.7591 48.919H11.4071V52H9.5611V43.329H13.6171C14.5098 43.329 15.2161 43.589 15.7361 44.109C16.2648 44.629 16.5291 45.3006 16.5291 46.124C16.5291 46.8346 16.3428 47.411 15.9701 47.853C15.6061 48.295 15.1598 48.5766 14.6311 48.698L16.5811 52ZM13.3441 47.294C13.7254 47.294 14.0374 47.19 14.2801 46.982C14.5228 46.7653 14.6441 46.4793 14.6441 46.124C14.6441 45.7686 14.5228 45.487 14.2801 45.279C14.0374 45.0623 13.7254 44.954 13.3441 44.954H11.4071V47.294H13.3441Z" fill="white"/>
<path d="M26.0006 52H23.8946L23.3616 50.531H19.6436L19.0976 52H16.9916L20.3456 43.329H22.6596L26.0006 52ZM22.8546 48.906L21.5026 45.175L20.1506 48.906H22.8546Z" fill="white"/>
<path d="M33.8213 52H31.7023L29.9993 48.919H28.6473V52H26.8013V43.329H30.8573C31.75 43.329 32.4563 43.589 32.9763 44.109C33.505 44.629 33.7693 45.3006 33.7693 46.124C33.7693 46.8346 33.583 47.411 33.2103 47.853C32.8463 48.295 32.4 48.5766 31.8713 48.698L33.8213 52ZM30.5843 47.294C30.9657 47.294 31.2777 47.19 31.5203 46.982C31.763 46.7653 31.8843 46.4793 31.8843 46.124C31.8843 45.7686 31.763 45.487 31.5203 45.279C31.2777 45.0623 30.9657 44.954 30.5843 44.954H28.6473V47.294H30.5843Z" fill="white"/>
<path d="M22 24V22H24V20H22V18H24V16H22V14H24V12H22V10H24V8H22V6H20V8H18V10H20V12H18V14H20V16H18V18H20V20H18V22H20V24H16V29C16 31.757 18.243 34 21 34C23.757 34 26 31.757 26 29V24H22ZM24 29C24 30.654 22.654 32 21 32C19.346 32 18 30.654 18 29V26H24V29Z" fill="#D5D7DE"/>
<path d="M20 30H22C22.552 30 23 29.553 23 29C23 28.447 22.552 28 22 28H20C19.448 28 19 28.447 19 29C19 29.553 19.448 30 20 30Z" fill="#D5D7DE"/>
</svg>
