<svg width="12" height="12" viewBox="0 0 12 12" xmlns="http://www.w3.org/2000/svg">
<path  d="M10.7537 2.15735H3.33515C3.1957 2.15735 3.08252 2.04417 3.08252 1.90472V0.252632C3.08252 0.113179 3.1957 0 3.33515 0H10.7537C10.8931 0 11.0063 0.113179 11.0063 0.252632V1.90472C11.0063 2.04429 10.8933 2.15735 10.7537 2.15735Z"/>
<path  d="M0.252632 3.28076H10.7539C10.8933 3.28076 11.0065 3.39394 11.0065 3.53339V5.18548C11.0065 5.32493 10.8933 5.43811 10.7539 5.43811H0.252632C0.113179 5.43811 0 5.32493 0 5.18548V3.53339C0 3.39381 0.113053 3.28076 0.252632 3.28076Z"/>
<path  d="M10.7537 8.71924H3.33515C3.1957 8.71924 3.08252 8.60606 3.08252 8.46661V6.81452C3.08252 6.67507 3.1957 6.56189 3.33515 6.56189H10.7537C10.8931 6.56189 11.0063 6.67507 11.0063 6.81452V8.46661C11.0063 8.60618 10.8933 8.71924 10.7537 8.71924Z"/>
<path  d="M0.252632 9.84265H10.7539C10.8933 9.84265 11.0065 9.95583 11.0065 10.0953V11.7474C11.0065 11.8868 10.8933 12 10.7539 12H0.252632C0.113179 12 0 11.8868 0 11.7474V10.0953C0 9.9557 0.113053 9.84265 0.252632 9.84265Z"/>
</svg>
