<svg width="20" height="20" viewBox="0 0 20 20" fill="none" xmlns="http://www.w3.org/2000/svg">
<g clip-path="url(#clip0)">
<path fill-rule="evenodd" clip-rule="evenodd" d="M18 20L2 20C0.895399 20 -8.35089e-07 19.1046 -7.86805e-07 18L-4.80825e-07 11L-3.93402e-07 9L-8.74228e-08 2C-3.91405e-08 0.895429 0.8954 -8.35089e-07 2 -7.86805e-07L18 -8.74228e-08C19.1046 -3.91405e-08 20 0.89543 20 2L20 9L20 11L20 18C20 19.1046 19.1046 20 18 20ZM18 11L18 18L2 18L2 11L18 11ZM18 9L2 9L2 2L18 2L18 9Z" fill="#333333"/>
</g>
<defs>
<clipPath id="clip0">
<rect width="20" height="20" fill="white" transform="translate(20) rotate(90)"/>
</clipPath>
</defs>
</svg>
