<svg width="16" height="16" viewBox="0 0 16 16" fill="none" xmlns="http://www.w3.org/2000/svg">
<path d="M15.0297 14.4466L15.0296 14.4465L11.0571 10.4685C12.0611 9.44712 12.6795 8.06778 12.6795 6.55073C12.6795 3.40176 10.021 0.85 6.76474 0.85C3.50845 0.85 0.85 3.40176 0.85 6.55073C0.85 9.6997 3.50845 12.2515 6.76474 12.2515C8.14607 12.2515 9.41846 11.7922 10.4264 11.0241L14.4212 15.0245C14.4212 15.0246 14.4213 15.0246 14.4213 15.0246C14.5053 15.1092 14.6164 15.15 14.7256 15.15C14.8299 15.15 14.9351 15.1126 15.0176 15.0365L15.0178 15.0363C15.1893 14.8774 15.1947 14.6121 15.0297 14.4466ZM6.76474 11.4228C3.96613 11.4228 1.69902 9.23188 1.69902 6.55073C1.69902 3.86959 3.96613 1.67864 6.76474 1.67864C9.56335 1.67864 11.8305 3.86959 11.8305 6.55073C11.8305 9.23187 9.56308 11.4228 6.76474 11.4228Z" fill="#515F81" stroke="#3C455B" stroke-width="0.3"/>
</svg>
