<svg width="32" height="32" viewBox="0 0 32 32" fill="none" xmlns="http://www.w3.org/2000/svg">
<g clip-path="url(#clip0_4010_1042)">
<path d="M30.9182 4H1.08183C0.79491 4 0.519743 4.11398 0.31686 4.31686C0.113978 4.51974 0 4.79491 0 5.08183V26.959C0 27.246 0.113978 27.5211 0.31686 27.724C0.519743 27.9269 0.79491 28.0409 1.08183 28.0409H30.9182C31.2051 28.0409 31.4803 27.9269 31.6831 27.724C31.886 27.5211 32 27.246 32 26.959V5.08183C32 4.79491 31.886 4.51974 31.6831 4.31686C31.4803 4.11398 31.2051 4 30.9182 4ZM30.5478 5.40815V15.3154H1.45285V5.40815H30.5478ZM1.45285 26.6327V16.7248H30.5478V26.6327H1.45285Z" fill="black"/>
</g>
<defs>
<clipPath id="clip0_4010_1042">
<rect width="32" height="32" fill="white"/>
</clipPath>
</defs>
</svg>
