<svg width="32" height="32" viewBox="0 0 32 32" fill="none" xmlns="http://www.w3.org/2000/svg">
<g clip-path="url(#clip0_4010_1092)">
<path d="M30.9182 8.00244H1.08122C0.794406 8.0026 0.519393 8.11665 0.316643 8.31952C0.113893 8.52238 -4.59299e-08 8.79746 0 9.08427V23.7009C0.00129465 23.9869 0.11576 24.2607 0.31837 24.4625C0.52098 24.6643 0.795253 24.7777 1.08122 24.7778H30.9182C31.205 24.7777 31.48 24.6636 31.6827 24.4608C31.8855 24.2579 31.9994 23.9828 31.9994 23.696V9.08182C31.9987 8.79543 31.8845 8.52099 31.6819 8.31865C31.4792 8.11632 31.2045 8.0026 30.9182 8.00244V8.00244ZM30.5471 23.3697H1.45224V9.4106H30.5471V23.3697Z" fill="black"/>
<path d="M21.2345 19.7844C21.3021 19.8524 21.3828 19.9058 21.4718 19.9414C21.5608 19.977 21.6561 19.994 21.7519 19.9913C21.8426 19.9938 21.9327 19.9767 22.0161 19.9409C22.0995 19.9052 22.1742 19.8518 22.2349 19.7844L27.9967 14.0226C28.1293 13.8899 28.2038 13.71 28.2038 13.5224C28.2038 13.3348 28.1293 13.1549 27.9967 13.0222C27.7206 12.7112 27.2724 12.7112 26.962 13.0222L21.7519 18.2318L16.508 13.0228C16.197 12.7118 15.7488 12.7118 15.4727 13.0228C15.1966 13.3338 15.1966 13.7471 15.4727 14.0232L21.2345 19.7844Z" fill="black"/>
</g>
<defs>
<clipPath id="clip0_4010_1092">
<rect width="32" height="16.7797" fill="white" transform="translate(0 8)"/>
</clipPath>
</defs>
</svg>
