<svg width="32" height="32" viewBox="0 0 32 32" fill="none" xmlns="http://www.w3.org/2000/svg">
<g clip-path="url(#clip0_4013_1138)">
<path d="M30.9211 8H1.0817C0.79531 8.00081 0.520927 8.11515 0.318706 8.31794C0.116485 8.52073 0.00292854 8.79544 0.00292969 9.08183V23.6985C0.003092 23.9853 0.117142 24.2603 0.320007 24.463C0.522872 24.6658 0.797946 24.7797 1.08476 24.7797H30.9211C31.2079 24.7797 31.483 24.6658 31.6859 24.463C31.8887 24.2603 32.0028 23.9853 32.0029 23.6985V9.08183C32.0029 8.93976 31.975 8.79908 31.9206 8.66783C31.8662 8.53658 31.7865 8.41732 31.6861 8.31686C31.5856 8.2164 31.4664 8.13672 31.3351 8.08235C31.2039 8.02798 31.0632 8 30.9211 8V8ZM30.5507 23.3673H1.4521V9.40815H30.5476L30.5507 23.3673Z" fill="black"/>
<path d="M13.7538 11.1677H4.46554C3.79208 11.1677 3.29004 11.7322 3.29004 12.4216V20.2583C3.29004 21.0107 3.79391 21.5746 4.46554 21.5746H13.7538C14.4273 21.5746 14.9293 21.0107 14.9293 20.2583V12.4198C14.9293 11.7322 14.4255 11.1677 13.7538 11.1677ZM13.5996 20.344H4.61982V12.3983H13.5996V20.344Z" fill="black"/>
<path d="M27.5342 11.2051H18.2478C17.5743 11.2051 17.0723 11.7696 17.0723 12.459V20.2956C17.0723 21.0481 17.5761 21.612 18.2478 21.612H27.5361C28.2095 21.612 28.7116 21.0481 28.7116 20.2956V12.459C28.7097 11.7696 28.2059 11.2051 27.5342 11.2051ZM27.38 20.3789H18.4002V12.4357H27.38V20.3789Z" fill="black"/>
</g>
<defs>
<clipPath id="clip0_4013_1138">
<rect width="32" height="16.7797" fill="white" transform="translate(0 8)"/>
</clipPath>
</defs>
</svg>
