<svg width="15" height="15" viewBox="0 0 15 15" fill="none" xmlns="http://www.w3.org/2000/svg">
<path d="M14.354 9.14376L12.9752 8.06563C12.9927 7.89937 13.0077 7.70502 13.0077 7.49938C13.0077 7.29375 12.9933 7.09939 12.9752 6.93314L14.3552 5.85439C14.6115 5.65189 14.6815 5.29251 14.5184 4.99315L13.0846 2.5125C12.9315 2.23251 12.5958 2.08875 12.2552 2.21438L10.6283 2.86749C10.3165 2.64249 9.98958 2.4525 9.65147 2.30063L9.40397 0.57501C9.36333 0.2475 9.07833 0 8.74148 0H5.86649C5.5296 0 5.24525 0.2475 5.20523 0.57L4.95711 2.30188C4.6296 2.44939 4.30775 2.63689 3.98211 2.86875L2.35086 2.21376C2.04521 2.09563 1.67958 2.22812 1.52771 2.50688L0.0921015 4.99063C-0.0772637 5.27689 -0.00727348 5.64876 0.254611 5.85627L1.63335 6.93439C1.61147 7.14501 1.60086 7.32814 1.60086 7.50003C1.60086 7.67191 1.6115 7.85502 1.63335 8.06628L0.253352 9.14502C-0.00290824 9.34813 -0.0722832 9.70752 0.0908418 10.0063L1.5246 12.4869C1.67774 12.7663 2.01023 12.9113 2.35397 12.785L3.98085 12.1319C4.2921 12.3563 4.61897 12.5463 4.95711 12.6988L5.20461 14.4238C5.24522 14.7525 5.5296 15 5.8671 15H8.74209C9.07898 15 9.36398 14.7525 9.40397 14.43L9.65208 12.6988C9.97959 12.5506 10.3008 12.3637 10.6271 12.1312L12.2583 12.7862C12.3371 12.8169 12.419 12.8325 12.5033 12.8325C12.7458 12.8325 12.969 12.7 13.0815 12.4937L14.5215 9.99999C14.6815 9.70749 14.6115 9.34813 14.354 9.14376ZM7.30397 9.99999C5.92523 9.99999 4.80398 8.87874 4.80398 7.5C4.80398 6.12126 5.92523 5.00001 7.30397 5.00001C8.68271 5.00001 9.80396 6.12126 9.80396 7.5C9.80396 8.87874 8.68271 9.99999 7.30397 9.99999Z" fill="#8E94AA"/>
</svg>
