<!-- Generated by IcoMoon.io -->
<svg version="1.1" xmlns="http://www.w3.org/2000/svg" width="32" height="32" viewBox="0 0 32 32">
<title>sidebar</title>
<path d="M31.328 0h-30.656c-0.384 0-0.672 0.288-0.672 0.672v30.656c0 0.384 0.288 0.672 0.672 0.672h30.656c0.384 0 0.672-0.288 0.672-0.672v-30.656c0-0.384-0.288-0.672-0.672-0.672zM30.656 1.344v5.312h-29.312v-5.312h29.312zM1.344 8h17.312v22.656h-17.312v-22.656zM20 30.656v-22.656h10.656v22.656h-10.656zM27.328 26.656h-4c-0.352 0-0.672 0.32-0.672 0.672s0.32 0.672 0.672 0.672h4c0.384 0 0.672-0.288 0.672-0.672s-0.288-0.672-0.672-0.672zM27.328 22.656h-4c-0.352 0-0.672 0.32-0.672 0.672s0.32 0.672 0.672 0.672h4c0.384 0 0.672-0.288 0.672-0.672s-0.288-0.672-0.672-0.672zM27.328 18.656h-4c-0.352 0-0.672 0.32-0.672 0.672s0.32 0.672 0.672 0.672h4c0.384 0 0.672-0.288 0.672-0.672s-0.288-0.672-0.672-0.672zM27.328 14.656h-4c-0.352 0-0.672 0.32-0.672 0.672s0.32 0.672 0.672 0.672h4c0.384 0 0.672-0.288 0.672-0.672s-0.288-0.672-0.672-0.672zM27.328 10.656h-4c-0.352 0-0.672 0.32-0.672 0.672s0.32 0.672 0.672 0.672h4c0.384 0 0.672-0.288 0.672-0.672s-0.288-0.672-0.672-0.672z"></path>
</svg>
