<!-- Generated by IcoMoon.io -->
<svg version="1.1" xmlns="http://www.w3.org/2000/svg" width="32" height="32" viewBox="0 0 32 32">
<title>skill-bar</title>
<path d="M30.016 0.672h-28c-1.12 0-2.016 0.896-2.016 1.984v2.688c0 1.088 0.896 1.984 2.016 1.984h23.968c0 0 0 0 0.032 0s0 0 0 0h4c1.088 0 1.984-0.896 1.984-1.984v-2.688c0-1.088-0.896-1.984-1.984-1.984zM25.344 5.984h-3.072l3.072-3.040v3.040zM20.384 5.984h-2.112l4-4h2.112l-4 4zM14.272 5.984l4-4h2.112l-4 4h-2.112zM10.272 5.984l4-4h2.112l-4 4h-2.112zM6.272 5.984l4-4h2.112l-4 4h-2.112zM2.272 5.984l4-4h2.112l-4 4h-2.112zM2.016 1.984h2.368l-3.040 3.072v-2.4c0-0.352 0.288-0.672 0.672-0.672zM30.656 5.344c0 0.352-0.288 0.64-0.64 0.64h-3.36v-4h3.36c0.352 0 0.64 0.32 0.64 0.672v2.688zM30.016 8.672h-28c-1.12 0-2.016 0.896-2.016 1.984v2.688c0 1.088 0.896 1.984 2.016 1.984h15.968c0 0 0 0 0.032 0s0 0 0 0h12c1.088 0 1.984-0.896 1.984-1.984v-2.688c0-1.088-0.896-1.984-1.984-1.984zM17.344 13.984h-3.072l3.072-3.040v3.040zM12.384 13.984h-2.112l4-4h2.112l-4 4zM6.272 13.984l4-4h2.112l-4 4h-2.112zM2.272 13.984l4-4h2.112l-4 4h-2.112zM2.016 9.984h2.368l-3.040 3.072v-2.4c0-0.352 0.288-0.672 0.672-0.672zM30.656 13.344c0 0.352-0.288 0.64-0.64 0.64h-11.36v-4h11.36c0.352 0 0.64 0.32 0.64 0.672v2.688zM30.016 24.672h-28c-1.12 0-2.016 0.896-2.016 1.984v2.688c0 1.088 0.896 1.984 2.016 1.984h7.968c0 0 0 0 0.032 0s0 0 0 0h20c1.088 0 1.984-0.896 1.984-1.984v-2.688c0-1.088-0.896-1.984-1.984-1.984zM9.344 30.016h-3.072l3.072-3.072v3.072zM4.384 30.016h-2.112l4-4.032h2.112l-4 4.032zM2.016 25.984h2.368l-3.040 3.072v-2.4c0-0.352 0.288-0.672 0.672-0.672zM30.656 29.344c0 0.352-0.288 0.672-0.64 0.672h-19.36v-4.032h19.36c0.352 0 0.64 0.32 0.64 0.672v2.688zM30.016 16.672h-28c-1.12 0-2.016 0.896-2.016 1.984v2.688c0 1.088 0.896 1.984 2.016 1.984h19.968c0 0 0 0 0.032 0s0 0 0 0h8c1.088 0 1.984-0.896 1.984-1.984v-2.688c0-1.088-0.896-1.984-1.984-1.984zM21.344 21.984h-3.072l3.072-3.040v3.040zM16.384 21.984h-2.112l4-4h2.112l-4 4zM10.272 21.984l4-4h2.112l-4 4h-2.112zM6.272 21.984l4-4h2.112l-4 4h-2.112zM2.272 21.984l4-4h2.112l-4 4h-2.112zM2.016 17.984h2.368l-3.040 3.072v-2.4c0-0.352 0.288-0.672 0.672-0.672zM30.656 21.344c0 0.352-0.288 0.64-0.64 0.64h-7.36v-4h7.36c0.352 0 0.64 0.32 0.64 0.672v2.688z"></path>
</svg>
