<!-- Generated by IcoMoon.io -->
<svg version="1.1" xmlns="http://www.w3.org/2000/svg" width="32" height="32" viewBox="0 0 32 32">
<title>slider-push</title>
<path d="M25.344 7.328h-18.688c-0.352 0-0.64 0.288-0.64 0.672v13.344c0 0.352 0.288 0.64 0.64 0.64h18.688c0.352 0 0.672-0.288 0.672-0.64v-13.344c0-0.384-0.32-0.672-0.672-0.672zM24.672 20.672h-17.344v-12h17.344v12zM4 7.328h-2.656c-0.384 0-0.672 0.288-0.672 0.672s0.288 0.672 0.672 0.672h1.984v12h-1.984c-0.384 0-0.672 0.288-0.672 0.672 0 0.352 0.288 0.64 0.672 0.64h2.656c0.384 0 0.672-0.288 0.672-0.64v-13.344c0-0.384-0.288-0.672-0.672-0.672zM30.656 20.672h-1.984v-12h1.984c0.384 0 0.672-0.32 0.672-0.672s-0.288-0.672-0.672-0.672h-2.656c-0.352 0-0.672 0.288-0.672 0.672v13.344c0 0.352 0.32 0.64 0.672 0.64h2.656c0.384 0 0.672-0.288 0.672-0.64s-0.288-0.672-0.672-0.672z"></path>
</svg>
