<svg width="32" height="32" viewBox="0 0 32 32" fill="none" xmlns="http://www.w3.org/2000/svg">
<path d="M31.9977 15.8175C31.9886 15.6602 31.925 15.511 31.8178 15.3955C31.7107 15.2799 31.5667 15.2053 31.4105 15.1844H31.4024C31.3887 15.1824 31.375 15.1804 31.3609 15.1795C31.3404 15.1775 31.3198 15.1765 31.2986 15.1765H29.2275V14.4748C29.2275 12.5707 27.6578 11.0007 25.7536 11.0007H22.9482C21.0441 11.0007 19.4743 12.5707 19.4743 14.4748V15.1762H12.526V14.5075C12.526 12.5701 10.9562 11 9.05212 11H6.24668C4.34256 11 2.77282 12.5701 2.77282 14.5075V15.1755H0.701687C0.664879 15.1755 0.628121 15.1784 0.591749 15.184C0.533542 15.1933 0.476759 15.21 0.422772 15.2336C0.391247 15.2474 0.360819 15.2635 0.331757 15.2819C0.23102 15.3453 0.147847 15.4331 0.0898762 15.537C0.031905 15.641 0.000998254 15.7579 0 15.8769C0 15.8971 2.867e-06 15.917 0.0029388 15.9366C0.0120204 16.0939 0.0755973 16.2431 0.182755 16.3586C0.289912 16.4741 0.433958 16.5486 0.590125 16.5695H0.59828C0.611981 16.5714 0.625675 16.573 0.639702 16.5744C0.660253 16.5744 0.68081 16.5773 0.702014 16.5773H2.77315V17.2803C2.77315 19.1844 4.34289 20.7545 6.247 20.7545H9.05245C10.9566 20.7545 12.5263 19.1844 12.5263 17.2803V16.5789H19.4747V17.2477C19.4747 19.185 21.0444 20.7551 22.9485 20.7551H25.754C27.6581 20.7551 29.2278 19.185 29.2278 17.2477V16.5796H31.299C31.4299 16.58 31.5582 16.5431 31.6689 16.4732C31.6881 16.4612 31.7067 16.4481 31.7247 16.4344C31.7513 16.4135 31.7765 16.3909 31.8 16.3666C31.8314 16.3343 31.8596 16.2991 31.8842 16.2615C31.909 16.2241 31.9301 16.1843 31.9471 16.1428C31.9559 16.122 31.9635 16.1007 31.97 16.0792C31.98 16.0471 31.9876 16.0144 31.9928 15.9813C31.9961 15.9588 31.9984 15.9363 31.9997 15.9134C31.9997 15.902 31.9997 15.8906 31.9997 15.8789C32.0006 15.857 31.9993 15.8371 31.9977 15.8175ZM11.1229 17.2803C11.1244 17.5527 11.0718 17.8226 10.9682 18.0745C10.8646 18.3265 10.7121 18.5554 10.5195 18.748C10.3269 18.9406 10.098 19.0931 9.84606 19.1967C9.59414 19.3002 9.32418 19.3528 9.05179 19.3514H6.24635C5.97397 19.3528 5.70401 19.3002 5.45208 19.1967C5.20015 19.0931 4.97126 18.9406 4.77866 18.748C4.58605 18.5554 4.43355 18.3265 4.32997 18.0745C4.22639 17.8226 4.17379 17.5527 4.17522 17.2803V14.5075C4.17522 13.3383 5.1108 12.403 6.24635 12.403H9.05179C10.1873 12.403 11.1229 13.3383 11.1229 14.5075V17.2803ZM27.8251 17.2477C27.8251 18.4168 26.8895 19.3521 25.754 19.3521H22.9485C21.813 19.3521 20.8774 18.4168 20.8774 17.2477V14.4748C20.876 14.2025 20.9286 13.9325 21.0321 13.6806C21.1357 13.4286 21.2882 13.1997 21.4808 13.0071C21.6734 12.8145 21.9023 12.662 22.1543 12.5585C22.4062 12.4549 22.6761 12.4023 22.9485 12.4037H25.754C26.0263 12.4023 26.2963 12.4549 26.5482 12.5585C26.8002 12.662 27.0291 12.8145 27.2217 13.0071C27.4143 13.1997 27.5668 13.4286 27.6703 13.6806C27.7739 13.9325 27.8265 14.2025 27.8251 14.4748V17.2477Z" fill="black"/>
</svg>
