<svg width="32" height="32" viewBox="0 0 32 32" fill="none" xmlns="http://www.w3.org/2000/svg">
<path d="M31.2985 15.1754H20.8767V14.474C20.8767 12.57 19.3067 11 17.4027 11H14.5973C12.6933 11 11.1233 12.57 11.1233 14.474V15.1754H0.70153C0.30063 15.1754 0.000199032 15.4761 0.000199032 15.877C-0.00203594 15.9697 0.0145715 16.0619 0.0490255 16.148C0.0834796 16.2341 0.135059 16.3123 0.200634 16.3779C0.266209 16.4435 0.344419 16.4951 0.430519 16.5295C0.516619 16.564 0.608819 16.5806 0.70153 16.5784H11.1233V17.2797C11.1233 19.1837 12.6933 20.7537 14.5973 20.7537H17.4027C19.3067 20.7537 20.8767 19.1837 20.8767 17.2797V16.5784H31.2985C31.3912 16.5806 31.4834 16.564 31.5695 16.5295C31.6556 16.4951 31.7338 16.4435 31.7994 16.3779C31.8649 16.3123 31.9165 16.2341 31.951 16.148C31.9854 16.0619 32.002 15.9697 31.9998 15.877C32.0021 15.7843 31.9855 15.6921 31.9511 15.6059C31.9166 15.5198 31.8651 15.4415 31.7995 15.3759C31.7339 15.3103 31.6557 15.2587 31.5696 15.2242C31.4834 15.1898 31.3912 15.1731 31.2985 15.1754V15.1754ZM19.4737 17.2797C19.471 17.8281 19.2519 18.3533 18.8641 18.7411C18.4763 19.1289 17.9511 19.348 17.4027 19.3507H14.5973C14.0489 19.348 13.5237 19.1289 13.1359 18.7411C12.7481 18.3533 12.529 17.8281 12.5263 17.2797V14.4744C12.529 13.9259 12.7481 13.4007 13.1359 13.0129C13.5237 12.6251 14.0489 12.4061 14.5973 12.4033H17.4027C17.9511 12.4061 18.4763 12.6251 18.8641 13.0129C19.2519 13.4007 19.471 13.9259 19.4737 14.4744V17.2797Z" fill="black"/>
</svg>
