<svg width="7" height="10" viewBox="0 0 7 10" fill="none" xmlns="http://www.w3.org/2000/svg">
<path d="M6.33916 0H0.309556C0.13459 0 0 0.161507 0 0.363392V9.63661C0 9.83849 0.13459 10 0.309556 10H6.33916C6.51413 10 6.64872 9.83849 6.64872 9.63661V0.363392C6.64872 0.161507 6.51413 0 6.33916 0ZM3.32436 9.52894C2.96097 9.52894 2.65141 9.23284 2.65141 8.85599C2.65141 8.4926 2.94751 8.18304 3.32436 8.18304C3.68775 8.18304 3.99731 8.47914 3.99731 8.85599C3.99731 9.23284 3.70121 9.52894 3.32436 9.52894ZM5.27591 7.63123H1.35935V1.14401H5.27591V7.63123Z" fill="#8E94AA"/>
</svg>
