<svg width="32" height="32" viewBox="0 0 32 32" fill="none" xmlns="http://www.w3.org/2000/svg">
<path d="M10.4004 12.9279L13.0564 12.5439L15.4564 7.74394C15.7444 7.19994 16.4164 7.19994 16.6724 7.74394L19.0724 12.5439L21.6004 12.9279L23.8724 8.92794C24.1284 8.38394 24.8004 8.54394 25.0564 8.92794L26.6564 12.9279L30.8164 13.7279C31.3284 13.8559 31.4564 14.5279 31.0724 14.9439L28.0004 17.7279L28.5444 21.9839C28.5444 22.5279 28.0004 22.9439 27.4564 22.6559L23.8724 20.5439L21.6004 21.5999H21.4724L21.8564 23.7439C22.0164 24.2559 21.3444 24.6719 20.9284 24.3839L16.0004 21.7279L11.2004 24.2559C10.6564 24.5439 10.1444 24.1279 10.2724 23.5839L10.6564 21.4719C10.5284 21.4719 10.5284 21.4719 10.4004 21.4719L8.12843 20.3839L4.54442 22.5279C4.00042 22.7839 3.45642 22.3999 3.45642 21.8559L4.00042 17.7279L0.800423 14.9439C0.416423 14.5279 0.544423 13.8559 1.05642 13.7279L5.21642 12.9279L6.94442 9.05594C7.20043 8.54394 7.87243 8.54394 8.12843 9.05594L10.4004 12.9279V12.9279ZM8.92843 13.1839L7.61643 10.7839L6.27242 13.7279C6.14442 13.9839 6.01643 14.1439 5.72842 14.1439L2.65642 14.7839L5.05642 16.9279C5.21642 17.0559 5.34442 17.3439 5.34442 17.4719L4.92842 20.6719L7.74443 19.0719C7.87243 18.9439 8.12843 18.9439 8.41643 19.0719L10.9444 20.2559L11.2004 18.3999L7.32843 14.6559C6.94443 14.2719 7.20043 13.5999 7.74443 13.4719L8.92843 13.1839V13.1839ZM22.9444 13.0559L24.2564 13.1839C24.8004 13.3439 25.0564 13.9839 24.6724 14.3999L20.8004 18.1439L21.0564 19.9999L23.4564 18.9439C23.6164 18.7839 23.8724 18.7839 24.1284 18.9439L26.9444 20.5439L26.6564 17.4719C26.6564 17.1839 26.6564 17.0559 26.9444 16.9279L29.3444 14.7839L26.1444 14.1439C25.8564 14.1439 25.7284 13.9839 25.6004 13.7279L24.2564 10.7839L22.9444 13.0559V13.0559ZM11.7444 22.3999L15.6164 20.3839C15.7444 20.2559 16.0004 20.2559 16.2564 20.3839L20.1284 22.3999L19.3284 17.9839C19.3284 17.7279 19.3284 17.5999 19.4564 17.4719L22.6564 14.3999L18.2724 13.7279C18.0164 13.7279 17.8564 13.5999 17.7284 13.3439L15.7444 9.34394L13.7284 13.3439C13.6004 13.4719 13.4724 13.5999 13.2164 13.7279L8.80043 14.3999L12.0004 17.4719C12.1284 17.5999 12.2564 17.8559 12.1284 17.9839L11.7444 22.3999V22.3999Z" fill="black"/>
</svg>
