<svg width="20" height="19" viewBox="0 0 20 19" fill="none" xmlns="http://www.w3.org/2000/svg">
<path d="M5.6 15.8833C5.6 14.7467 4.76539 13.8032 3.67143 13.6068V1.31667C3.67143 1.08486 3.48118 0.9 3.25 0.9C3.01882 0.9 2.82857 1.08486 2.82857 1.31667V13.6068C1.73461 13.8032 0.9 14.7467 0.9 15.8833C0.9 17.162 1.95546 18.2 3.25 18.2C4.54454 18.2 5.6 17.162 5.6 15.8833ZM3.25 17.3667C2.41764 17.3667 1.74286 16.6998 1.74286 15.8833C1.74286 15.0669 2.41764 14.4 3.25 14.4C4.08236 14.4 4.75714 15.0669 4.75714 15.8833C4.75714 16.6998 4.08236 17.3667 3.25 17.3667Z" fill="#343B4C" stroke="#343B4C" stroke-width="0.2"/>
<path d="M11.9 9.48445C11.9 8.33729 11.0952 7.37842 10.0269 7.15406V1.31667C10.0269 1.0876 9.84351 0.9 9.61467 0.9C9.38584 0.9 9.20248 1.0876 9.20248 1.31667V7.12908C8.06991 7.29998 7.20005 8.29177 7.20005 9.48445C7.20005 10.6771 8.06991 11.6689 9.20248 11.8398V17.7833C9.20248 18.0124 9.38584 18.2 9.61467 18.2C9.84351 18.2 10.0269 18.0124 10.0269 17.7833V11.8148C11.0952 11.5905 11.9 10.6316 11.9 9.48445ZM9.55005 11.0333C8.7103 11.0333 8.02444 10.3397 8.02444 9.48445C8.02444 8.62917 8.71 7.93557 9.55005 7.93557C10.3901 7.93557 11.0757 8.62917 11.0757 9.48445C11.0757 10.3397 10.3898 11.0333 9.55005 11.0333Z" fill="#343B4C" stroke="#343B4C" stroke-width="0.2"/>
<path d="M19.1 3.21667C19.1 1.93803 18.0445 0.9 16.75 0.9C15.4555 0.9 14.4 1.93803 14.4 3.21667C14.4 4.35331 15.2346 5.29678 16.3286 5.4932V17.7833C16.3286 18.0151 16.5188 18.2 16.75 18.2C16.9812 18.2 17.1714 18.0151 17.1714 17.7833V5.4932C18.2654 5.29678 19.1 4.35331 19.1 3.21667ZM16.75 4.7C15.9176 4.7 15.2429 4.03309 15.2429 3.21667C15.2429 2.40025 15.9176 1.73333 16.75 1.73333C17.5824 1.73333 18.2571 2.40025 18.2571 3.21667C18.2571 4.03309 17.5824 4.7 16.75 4.7Z" fill="#343B4C" stroke="#343B4C" stroke-width="0.2"/>
</svg>
