<svg width="43" height="56" viewBox="0 0 43 56" fill="none" xmlns="http://www.w3.org/2000/svg">
<path d="M30.485 0H1.463C0.655 0 0 0.655 0 1.926V55C0 55.345 0.655 56 1.463 56H41.537C42.345 56 43 55.345 43 55V12.978C43 12.282 42.907 12.058 42.743 11.893L31.107 0.257C30.942 0.093 30.718 0 30.485 0Z" fill="#F7F8F9"/>
<path d="M31 0.151001V12H42.849L31 0.151001Z" fill="#E0E1E6"/>
<path d="M41.537 56H1.463C0.655 56 0 55.345 0 54.537V39H43V54.537C43 55.345 42.345 56 41.537 56Z" fill="#FF4E6E"/>
<path d="M12.5469 52.156C11.0043 52.156 9.78225 51.6967 8.88092 50.778L9.88192 49.374C10.6273 50.154 11.5459 50.544 12.6379 50.544C13.1146 50.544 13.4829 50.453 13.7429 50.271C14.0116 50.0804 14.1459 49.8507 14.1459 49.582C14.1459 49.348 14.0203 49.153 13.7689 48.997C13.5263 48.841 13.2186 48.7284 12.8459 48.659C12.4819 48.5897 12.0833 48.49 11.6499 48.36C11.2166 48.23 10.8136 48.0827 10.4409 47.918C10.0769 47.7534 9.76925 47.4934 9.51792 47.138C9.27525 46.7827 9.15392 46.3494 9.15392 45.838C9.15392 45.0927 9.45292 44.4687 10.0509 43.966C10.6489 43.4547 11.4463 43.199 12.4429 43.199C13.8209 43.199 14.9476 43.602 15.8229 44.408L14.7959 45.76C14.1113 45.1274 13.2706 44.811 12.2739 44.811C11.8839 44.811 11.5806 44.889 11.3639 45.045C11.1473 45.201 11.0389 45.4134 11.0389 45.682C11.0389 45.89 11.1603 46.0677 11.4029 46.215C11.6543 46.3537 11.9619 46.4577 12.3259 46.527C12.6986 46.5964 13.0973 46.7004 13.5219 46.839C13.9553 46.969 14.3539 47.1207 14.7179 47.294C15.0906 47.4587 15.3983 47.723 15.6409 48.087C15.8923 48.4424 16.0179 48.8714 16.0179 49.374C16.0179 50.206 15.7189 50.8777 15.1209 51.389C14.5316 51.9004 13.6736 52.156 12.5469 52.156Z" fill="white"/>
<path d="M22.0058 52H19.6918L16.3378 43.329H18.4438L20.8488 49.998L23.2408 43.329H25.3468L22.0058 52Z" fill="white"/>
<path d="M30.0927 52.169C28.7927 52.169 27.6963 51.753 26.8037 50.921C25.9197 50.089 25.4777 49.0057 25.4777 47.671C25.4777 46.3277 25.9197 45.2444 26.8037 44.421C27.6963 43.5977 28.7927 43.186 30.0927 43.186C31.67 43.186 32.866 43.8317 33.6807 45.123L32.1467 45.955C31.9387 45.6257 31.6527 45.357 31.2887 45.149C30.9333 44.9324 30.5347 44.824 30.0927 44.824C29.304 44.824 28.654 45.0927 28.1427 45.63C27.6313 46.1674 27.3757 46.8477 27.3757 47.671C27.3757 48.4944 27.6313 49.1747 28.1427 49.712C28.654 50.2494 29.304 50.518 30.0927 50.518C30.4567 50.518 30.8077 50.453 31.1457 50.323C31.4837 50.193 31.748 50.037 31.9387 49.855V48.815H29.6507V47.203H33.7847V50.531C32.8053 51.623 31.5747 52.169 30.0927 52.169Z" fill="white"/>
<path d="M39 21V15H33V17H27V13H17V17H11V15H5V21H11V19H14.548C9.982 21.636 7 26.588 7 32C7 32.552 7.447 33 8 33C8.553 33 9 32.552 9 32C9 26.754 12.229 22.001 17 20.005V23H27V20.005C31.771 22.002 35 26.755 35 32C35 32.552 35.447 33 36 33C36.553 33 37 32.552 37 32C37 26.588 34.018 21.636 29.452 19H33V21H39ZM9 19H7V17H9V19ZM25 21H19V17.246V15H25V17.246V21ZM35 17H37V19H35V17Z" fill="#D5D7DE"/>
</svg>
