<!-- Generated by IcoMoon.io -->
<svg version="1.1" xmlns="http://www.w3.org/2000/svg" width="32" height="32" viewBox="0 0 32 32">
<title>t-letter</title>
<path d="M20.704 30.656c0 0-0.032 0-0.032 0h-9.344c-0.352 0-0.672-0.288-0.672-0.64s0.32-0.672 0.672-0.672c1.12 0 2.016-0.896 2.016-2.016v-20.672h-8.672c-1.12 0-2.016 0.896-2.016 2.016 0 0.352-0.288 0.672-0.64 0.672s-0.672-0.32-0.672-0.672v-6.688c0-0.352 0.288-0.64 0.672-0.64h28c0.352 0 0.64 0.288 0.64 0.64v6.688c0 0.352-0.288 0.672-0.64 0.672s-0.672-0.32-0.672-0.672c0-1.12-0.896-2.016-2.016-2.016h-8.672v20.672c0 1.12 0.896 2.016 2.016 2.016 0 0 0 0 0 0h0.032c0.352 0 0.672 0.288 0.672 0.672s-0.32 0.64-0.672 0.64zM14.016 29.344h4c-0.416-0.576-0.672-1.248-0.672-2.016v-21.344c0-0.352 0.288-0.64 0.672-0.64h9.312c0.768 0 1.44 0.224 2.016 0.64v-3.328h-26.688v3.328c0.576-0.416 1.248-0.64 2.016-0.64h9.344c0.352 0 0.64 0.288 0.64 0.64v21.344c0 0.768-0.224 1.44-0.64 2.016z"></path>
</svg>
