<svg width="11" height="9" viewBox="0 0 11 9" fill="none" xmlns="http://www.w3.org/2000/svg">
<path d="M3.59016e-07 8.21333L1.72604e-08 0.394872C7.89047e-09 0.180513 0.180513 -7.89047e-09 0.394872 -1.72604e-08L10.6051 -4.63565e-07C10.8195 -4.72935e-07 11 0.180512 11 0.394871L11 8.21333C11 8.42769 10.8195 8.60821 10.6051 8.60821L0.394872 8.60821C0.169231 8.60821 3.68386e-07 8.42769 3.59016e-07 8.21333ZM1.24103 7.33333L9.29641 7.33333L9.29641 1.27487L1.24103 1.27487L1.24103 7.33333ZM10.7292 4.24205C10.7292 3.93744 10.481 3.67795 10.1651 3.67795C9.86051 3.67795 9.60103 3.92615 9.60103 4.24205C9.60103 4.54667 9.84923 4.80615 10.1651 4.80615C10.481 4.80615 10.7292 4.55795 10.7292 4.24205Z" fill="#8E94AA"/>
</svg>
