<!-- Generated by IcoMoon.io -->
<svg version="1.1" xmlns="http://www.w3.org/2000/svg" width="32" height="32" viewBox="0 0 32 32">
<title>table</title>
<path d="M31.328 4h-30.656c-0.384 0-0.672 0.288-0.672 0.672v22.656c0 0.384 0.288 0.672 0.672 0.672h30.656c0.384 0 0.672-0.288 0.672-0.672v-22.656c0-0.384-0.288-0.672-0.672-0.672zM12.064 21.344v-4h7.936v4h-7.936zM20 22.656v4h-7.936v-4h7.936zM20 12v4h-7.936v-4h7.936zM21.344 12h9.312v4h-9.312v-4zM10.72 16h-9.376v-4h9.376v4zM1.344 17.344h9.376v4h-9.376v-4zM21.344 17.344h9.312v4h-9.312v-4zM30.656 5.344v5.312h-29.312v-5.312h29.312zM1.344 22.656h9.376v4h-9.376v-4zM21.344 26.656v-4h9.312v4h-9.312z"></path>
</svg>
