<!-- Generated by IcoMoon.io -->
<svg version="1.1" xmlns="http://www.w3.org/2000/svg" width="32" height="32" viewBox="0 0 32 32">
<title>tabs</title>
<path d="M31.616 8.832l-1.344-3.552c-0.288-0.768-1.024-1.28-1.856-1.28h-6.112c-0.672 0-1.28 0.32-1.632 0.832-0.384-0.512-0.96-0.832-1.632-0.832h-6.080c-0.672 0-1.248 0.32-1.632 0.832-0.352-0.512-0.96-0.832-1.632-0.832h-6.112c-0.832 0-1.568 0.512-1.856 1.28l-1.44 3.84c-0.192 0.512-0.288 1.024-0.288 1.568v15.296c0 1.12 0.896 2.016 2.016 2.016h28c1.088 0 1.984-0.896 1.984-2.016v-16c0-0.416-0.16-0.832-0.384-1.152zM22.304 5.344h6.112c0.288 0 0.512 0.16 0.64 0.416l0.832 2.24h-8.064l-0.448-1.344 0.288-0.864c0.096-0.288 0.352-0.448 0.64-0.448zM12.96 5.344h6.080c0.288 0 0.544 0.16 0.64 0.448l0.736 2.208h-7.936l-0.448-1.344 0.288-0.864c0.096-0.288 0.352-0.448 0.64-0.448zM30.656 25.984c0 0.384-0.288 0.672-0.64 0.672h-28c-0.384 0-0.672-0.288-0.672-0.672v-15.296c0-0.384 0.064-0.736 0.192-1.088l1.44-3.84c0.096-0.256 0.32-0.416 0.608-0.416h6.112c0.288 0 0.544 0.16 0.64 0.448l1.024 3.072c0.096 0.288 0.352 0.48 0.64 0.48h18.016c0.16 0 0.32 0.064 0.416 0.16l0.032 0.096c0.032 0.064 0.096 0.128 0.16 0.192 0.032 0.064 0.032 0.128 0.032 0.192v16z"></path>
</svg>
