<svg width="32" height="32" viewBox="0 0 32 32" fill="none" xmlns="http://www.w3.org/2000/svg">
<g clip-path="url(#clip0_4094_953)">
<path d="M23.2941 7H8.70588C3.89773 7 0 10.8977 0 15.7059C0 20.514 3.89773 24.4118 8.70588 24.4118H23.2941C28.1023 24.4118 32 20.514 32 15.7059C32 10.8977 28.1023 7 23.2941 7ZM30.651 15.7059C30.651 19.7689 27.3569 23.0627 23.2944 23.0627H8.7062C4.64314 23.0627 1.34902 19.7689 1.34902 15.7059C1.34902 11.6428 4.64314 8.34902 8.70588 8.34902H23.2941C27.3569 8.34902 30.651 11.6428 30.651 15.7059Z" fill="black"/>
<path d="M8.39234 11.0156C5.82231 11.0156 3.70215 13.1358 3.70215 15.7058C3.70215 18.2759 5.82231 20.396 8.39234 20.396C10.9624 20.396 13.0825 18.2759 13.0825 15.7058C13.0825 13.1358 10.9944 11.0156 8.39234 11.0156ZM8.39234 19.047C6.56113 19.047 5.05117 17.537 5.05117 15.7058C5.05117 13.8746 6.56113 12.3646 8.39234 12.3646C10.2236 12.3646 11.7335 13.8746 11.7335 15.7058C11.7339 16.1447 11.6477 16.5793 11.4799 16.9848C11.3121 17.3903 11.066 17.7588 10.7556 18.0691C10.4453 18.3794 10.0769 18.6255 9.67135 18.7933C9.26583 18.9611 8.83121 19.0473 8.39234 19.047V19.047Z" fill="black"/>
</g>
<defs>
<clipPath id="clip0_4094_953">
<rect width="32" height="17.4121" fill="white" transform="translate(0 7)"/>
</clipPath>
</defs>
</svg>
