<svg width="32" height="32" viewBox="0 0 32 32" fill="none" xmlns="http://www.w3.org/2000/svg">
<path d="M29.3438 5.98401C30.0798 5.98401 30.6558 6.59201 30.6558 7.32801V24.672C30.6558 25.408 30.0798 25.984 29.3438 25.984H2.65575C1.91975 25.984 1.34375 25.408 1.34375 24.672V7.32801C1.34375 6.59201 1.91975 5.98401 2.65575 5.98401H29.3438V5.98401ZM29.3438 7.32801H2.65575V24.672H29.3438V7.32801V7.32801ZM5.34375 20.672V21.984H7.99975V23.328H3.99975V20.672H5.34375V20.672ZM14.6558 21.984V23.328H10.6558V21.984H14.6558ZM21.3438 21.984V23.328H17.3438V21.984H21.3438ZM27.9998 20.672V23.328H23.9998V21.984H26.6558V20.672H27.9998V20.672ZM27.9998 13.984V17.984H26.6558V13.984H27.9998V13.984ZM5.34375 13.984V17.984H3.99975V13.984H5.34375V13.984ZM27.9998 8.672V11.328H26.6558V9.984H23.9998V8.672H27.9998V8.672ZM7.99975 8.672V9.984H5.34375V11.328H3.99975V8.672H7.99975V8.672ZM14.6558 8.672V9.984H10.6558V8.672H14.6558ZM21.3438 8.672V9.984H17.3438V8.672H21.3438Z" fill="black"/>
</svg>
