<svg width="32" height="32" viewBox="0 0 32 32" fill="none" xmlns="http://www.w3.org/2000/svg">
<g clip-path="url(#clip0_4013_1185)">
<path d="M30.016 3.00063H2.01596C1.75091 2.99951 1.48826 3.05089 1.24317 3.15181C0.998082 3.25272 0.775401 3.40117 0.587981 3.58859C0.400561 3.77601 0.252113 3.99869 0.151198 4.24378C0.0502832 4.48887 -0.00109855 4.75152 1.78079e-05 5.01657V27.6729C-0.00101583 27.9379 0.0504254 28.2004 0.151377 28.4455C0.25233 28.6905 0.400795 28.9131 0.588206 29.1004C0.775618 29.2878 0.998268 29.4362 1.24332 29.5371C1.48836 29.6379 1.75096 29.6893 2.01596 29.6882H30.016C31.1041 29.6882 32 28.7922 32 27.6722V5.01594C32 3.89594 31.1041 3 30.016 3V3.00063ZM1.34408 27.6726V5.01625C1.3419 4.92741 1.35778 4.83905 1.39077 4.75653C1.42375 4.67401 1.47316 4.59905 1.53598 4.53619C1.59881 4.47334 1.67375 4.4239 1.75625 4.39087C1.83876 4.35785 1.92711 4.34192 2.01596 4.34407H30.016C30.3682 4.34407 30.656 4.63219 30.656 5.01625V24.7279L27.0722 28.3444H2.01596C1.92714 28.3466 1.83881 28.3307 1.75633 28.2976C1.67384 28.2646 1.59892 28.2152 1.5361 28.1524C1.47328 28.0896 1.42387 28.0147 1.39086 27.9322C1.35785 27.8497 1.34194 27.7614 1.34408 27.6726V27.6726ZM30.016 28.3444H28.96L30.656 26.6166V27.6726C30.656 28.056 30.3682 28.3444 30.016 28.3444V28.3444Z" fill="black"/>
</g>
<defs>
<clipPath id="clip0_4013_1185">
<rect width="32" height="26.6881" fill="white" transform="translate(0 3)"/>
</clipPath>
</defs>
</svg>
