<!-- Generated by IcoMoon.io -->
<svg version="1.1" xmlns="http://www.w3.org/2000/svg" width="32" height="32" viewBox="0 0 32 32">
<title>text</title>
<path d="M31.328 6.656h-30.656c-0.384 0-0.672-0.288-0.672-0.672s0.288-0.64 0.672-0.64h30.656c0.384 0 0.672 0.288 0.672 0.64s-0.288 0.672-0.672 0.672zM22.016 10.656h-21.344c-0.384 0-0.672-0.288-0.672-0.672s0.288-0.64 0.672-0.64h21.344c0.352 0 0.64 0.288 0.64 0.64s-0.288 0.672-0.64 0.672zM31.328 14.656h-30.656c-0.384 0-0.672-0.288-0.672-0.672s0.288-0.64 0.672-0.64h30.656c0.384 0 0.672 0.288 0.672 0.64s-0.288 0.672-0.672 0.672zM22.016 18.656h-21.344c-0.384 0-0.672-0.288-0.672-0.672s0.288-0.64 0.672-0.64h21.344c0.352 0 0.64 0.288 0.64 0.64s-0.288 0.672-0.64 0.672zM31.328 22.656h-30.656c-0.384 0-0.672-0.288-0.672-0.672s0.288-0.64 0.672-0.64h30.656c0.384 0 0.672 0.288 0.672 0.64s-0.288 0.672-0.672 0.672zM22.016 26.656h-21.344c-0.384 0-0.672-0.288-0.672-0.672s0.288-0.64 0.672-0.64h21.344c0.352 0 0.64 0.288 0.64 0.64s-0.288 0.672-0.64 0.672z"></path>
</svg>
