<svg width="32" height="32" viewBox="0 0 32 32" fill="none" xmlns="http://www.w3.org/2000/svg">
<path d="M7.87162 7.58395C7.61562 7.07195 6.65562 7.07195 6.52762 7.58395L2.14362 19.3279C2.01563 19.7439 2.14362 20.1279 2.52762 20.2559C2.94362 20.3839 3.32762 20.2559 3.45562 19.8719L4.92762 15.9999H9.34362L10.8156 19.8719C10.9436 20.1279 11.1996 20.3839 11.4556 20.3839C11.6156 20.3839 11.6156 20.3839 11.7436 20.3839C12.1276 20.2559 12.2556 19.8719 12.1276 19.4559L7.87162 7.58395ZM5.47162 14.3999L7.19962 9.85595L8.92762 14.3999H5.47162V14.3999ZM26.1436 11.4559C27.3276 11.4559 28.2556 12.3839 28.2556 13.5999C28.2556 13.9839 28.5436 14.2719 28.9276 14.2719C29.3436 14.2719 29.5996 13.9839 29.5996 13.5999C29.5996 11.5839 27.9996 9.98395 26.0156 9.98395C23.9996 9.98395 22.3996 11.5839 22.3996 13.5999V16.5439C22.3996 18.5279 23.9996 20.1279 26.0156 20.1279C27.9996 20.1279 29.5996 18.5279 29.5996 16.5439C29.5996 16.1279 29.3436 15.8719 28.9276 15.8719C28.5436 15.8719 28.2556 16.1279 28.2556 16.5439C28.2556 17.7279 27.3276 18.6559 26.1436 18.6559C24.9596 18.6559 23.9996 17.7279 23.9996 16.5439V13.5999C23.8716 12.5439 24.9276 11.4559 26.1436 11.4559V11.4559ZM17.3436 9.98395C16.5436 9.98395 15.7436 10.2719 15.1996 10.7839V7.87195C15.1996 7.45595 14.9436 7.19995 14.5276 7.19995C14.1436 7.19995 13.8556 7.45595 13.8556 7.87195V19.4559C13.8556 19.8719 14.1436 20.1279 14.5276 20.1279C14.9436 20.1279 15.1996 19.8719 15.1996 19.4559C15.8716 19.8719 16.5436 20.2559 17.3436 20.2559C19.3276 20.2559 20.9276 18.6559 20.9276 16.6719V13.7279C21.0556 11.5839 19.3276 9.98395 17.3436 9.98395V9.98395ZM19.6156 16.5439C19.6156 17.7279 18.6556 18.6559 17.4716 18.6559C16.2876 18.6559 15.3276 17.7279 15.3276 16.5439V13.7279C15.3276 12.5439 16.2556 11.5839 17.4716 11.5839C18.6876 11.5839 19.6156 12.5439 19.6156 13.7279V16.5439V16.5439ZM2.01562 24.5439C13.7276 22.7839 22.2716 22.2719 27.8716 23.0719C29.5996 23.3279 30.2716 23.8719 29.2156 24.5439" fill="black"/>
</svg>
