<svg width="32" height="32" viewBox="0 0 32 32" fill="none" xmlns="http://www.w3.org/2000/svg">
<path d="M20.36 30.656H20.328H10.984C10.632 30.656 10.312 30.368 10.312 30.016C10.312 29.664 10.632 29.344 10.984 29.344C12.104 29.344 13 28.448 13 27.328V6.656H4.328C3.208 6.656 2.312 7.552 2.312 8.672C2.312 9.024 2.024 9.344 1.672 9.344C1.32 9.344 1 9.024 1 8.672V1.984C1 1.632 1.288 1.344 1.672 1.344H29.672C30.024 1.344 30.312 1.632 30.312 1.984V8.672C30.312 9.024 30.024 9.344 29.672 9.344C29.32 9.344 29 9.024 29 8.672C29 7.552 28.104 6.656 26.984 6.656H18.312V27.328C18.312 28.448 19.208 29.344 20.328 29.344H20.36C20.712 29.344 21.032 29.632 21.032 30.016C21.032 30.4 20.712 30.656 20.36 30.656V30.656ZM13.672 29.344H17.672C17.256 28.768 17 28.096 17 27.328V5.984C17 5.632 17.288 5.344 17.672 5.344H26.984C27.752 5.344 28.424 5.568 29 5.984V2.656H2.312V5.984C2.888 5.568 3.56 5.344 4.328 5.344H13.672C14.024 5.344 14.312 5.632 14.312 5.984V27.328C14.312 28.096 14.088 28.768 13.672 29.344V29.344Z" fill="black"/>
</svg>
