<svg width="32" height="32" viewBox="0 0 32 32" fill="none" xmlns="http://www.w3.org/2000/svg">
<g clip-path="url(#clip0_4016_1422)">
<path d="M28.384 30.4319H3.584C1.6 30.4319 0 28.7999 0 26.8159V5.59989C0 3.61589 1.6 1.98389 3.584 1.98389H28.352C30.336 1.98389 31.936 3.61589 31.936 5.59989V26.8159C31.968 28.7999 30.336 30.4319 28.384 30.4319ZM3.584 3.35989C2.368 3.35989 1.344 4.35189 1.344 5.59989V26.8159C1.344 28.0639 2.368 29.0559 3.584 29.0559H28.352C29.6 29.0559 30.592 28.0319 30.592 26.8159V5.59989C30.592 4.35189 29.6 3.35989 28.352 3.35989H3.584V3.35989ZM11.872 7.39189C12.256 7.39189 12.576 7.67989 12.576 8.06389V10.7839C12.576 11.1679 12.256 11.4559 11.872 11.4559H9.184C8.8 11.4559 8.512 11.1679 8.512 10.7839V8.06389C8.512 7.71189 8.8 7.39189 9.184 7.39189H11.872ZM20 10.1119C20.352 10.1119 20.672 10.3999 20.672 10.7839C20.672 11.1679 20.384 11.4559 20 11.4559H14.592C14.208 11.4559 13.92 11.1679 13.92 10.7839C13.92 10.3999 14.208 10.1119 14.592 10.1119H20ZM11.2 8.73589H9.856V10.0799H11.2V8.73589ZM22.688 7.39189C23.04 7.39189 23.36 7.67989 23.36 8.06389C23.36 8.44789 23.072 8.76789 22.688 8.76789H14.56C14.208 8.76789 13.888 8.47989 13.888 8.06389C13.888 7.71189 14.176 7.39189 14.56 7.39189H22.688ZM11.872 14.1439C12.256 14.1439 12.576 14.4319 12.576 14.8159V17.5359C12.576 17.9199 12.256 18.2079 11.872 18.2079H9.184C8.8 18.2079 8.512 17.9199 8.512 17.5359V14.8159C8.512 14.4639 8.8 14.1439 9.184 14.1439H11.872ZM20 16.8639C20.352 16.8639 20.672 17.1519 20.672 17.5359C20.672 17.9199 20.384 18.2079 20 18.2079H14.592C14.208 18.2079 13.92 17.9199 13.92 17.5359C13.92 17.1519 14.208 16.8639 14.592 16.8639H20ZM11.2 15.5199H9.856V16.8639H11.2V15.5199V15.5199ZM22.688 14.1439C23.04 14.1439 23.36 14.4319 23.36 14.8159C23.36 15.1999 23.072 15.5199 22.688 15.5199H14.56C14.208 15.5199 13.888 15.1999 13.888 14.8159C13.888 14.4319 14.176 14.1439 14.56 14.1439H22.688ZM11.872 20.8959C12.256 20.8959 12.576 21.1839 12.576 21.5999V24.2879C12.576 24.6719 12.256 24.9599 11.872 24.9599H9.184C8.8 24.9599 8.512 24.6719 8.512 24.2879V21.5999C8.512 21.2159 8.8 20.8959 9.184 20.8959H11.872ZM20 23.5839C20.352 23.5839 20.672 23.9039 20.672 24.2879C20.672 24.6719 20.384 24.9599 20 24.9599H14.592C14.208 24.9599 13.92 24.6719 13.92 24.2879C13.92 23.9039 14.208 23.5839 14.592 23.5839H20ZM11.2 22.2399H9.856V23.5839H11.2V22.2399ZM22.688 20.8959C23.04 20.8959 23.36 21.1839 23.36 21.5999C23.36 21.9519 23.072 22.2719 22.688 22.2719H14.56C14.208 22.2719 13.888 21.9839 13.888 21.5999C13.888 21.2159 14.176 20.8959 14.56 20.8959H22.688Z" fill="black"/>
</g>
<defs>
<clipPath id="clip0_4016_1422">
<rect width="32" height="32" fill="white"/>
</clipPath>
</defs>
</svg>
