<svg width="32" height="32" viewBox="0 0 32 32" fill="none" xmlns="http://www.w3.org/2000/svg">
<path d="M15.3277 13.856V8.92805H12.9277C12.5437 8.92805 12.2557 8.67204 12.2557 8.25604V2.14405C12.2557 1.72805 12.5437 1.47205 12.9277 1.47205H19.0717C19.4557 1.47205 19.7437 1.72805 19.7437 2.14405V8.38404C19.7437 8.80004 19.4557 9.05604 19.0717 9.05604H16.6717V13.984H25.2157C26.3997 13.984 27.4557 14.944 27.4557 16.256V21.856H29.8557C30.2717 21.856 30.5277 22.144 30.5277 22.528V28.8C30.5277 29.216 30.2717 29.472 29.8557 29.472H23.7437C23.3277 29.472 23.0717 29.216 23.0717 28.8V22.528C23.0717 22.144 23.3277 21.856 23.7437 21.856H26.1437V16.256C26.1437 15.744 25.7277 15.328 25.2157 15.328H16.6717V21.728H19.0717C19.4557 21.728 19.7437 21.984 19.7437 22.4V28.672C19.7437 29.056 19.4557 29.344 19.0717 29.344H12.9277C12.5437 29.344 12.2557 29.056 12.2557 28.672V22.4C12.2557 21.984 12.5437 21.728 12.9277 21.728H15.3277V15.328H6.81568C6.27168 15.328 5.85568 15.744 5.85568 16.256V21.856H8.25568C8.67168 21.856 8.92768 22.144 8.92768 22.528V28.8C8.92768 29.216 8.67168 29.472 8.25568 29.472H2.14368C1.72768 29.472 1.47168 29.216 1.47168 28.8V22.528C1.47168 22.144 1.72768 21.856 2.14368 21.856H4.54368V16.256C4.54368 15.072 5.47168 13.984 6.81568 13.984H15.3277V13.856ZM13.5997 2.78405V7.74404H18.3997V2.78405H13.5997V2.78405ZM2.81568 27.872H7.61568V22.944H2.81568V27.872ZM24.4157 22.944V27.872H29.2157V22.944H24.4157ZM13.5997 27.872H18.3997V22.944H13.5997V27.872V27.872Z" fill="black"/>
</svg>
