<svg width="15" height="15" viewBox="0 0 15 15" fill="none" xmlns="http://www.w3.org/2000/svg">
    <path d="M0 0.200244C0 0.0897872 0.0895431 0.000244141 0.2 0.000244141H3.8C3.91046 0.000244141 4 0.0897872 4 0.200244V3.80024C4 3.9107 3.91046 4.00024 3.8 4.00024H0.2C0.0895431 4.00024 0 3.9107 0 3.80024V0.200244Z" fill="#8E94AA"/>
    <path d="M6 0.2C6 0.0895431 6.08954 0 6.2 0H14.8C14.9105 0 15 0.0895431 15 0.2V3.8C15 3.91046 14.9105 4 14.8 4H6.2C6.08954 4 6 3.91046 6 3.8V0.2Z" fill="#8E94AA"/>
    <path d="M0 6.2C0 6.08954 0.0895431 6 0.2 6H3.8C3.91046 6 4 6.08954 4 6.2V14.8C4 14.9105 3.91046 15 3.8 15H0.2C0.0895431 15 0 14.9105 0 14.8V6.2Z" fill="#8E94AA"/>
    <path d="M6 6.2C6 6.08954 6.08954 6 6.2 6H14.8C14.9105 6 15 6.08954 15 6.2V14.8C15 14.9105 14.9105 15 14.8 15H6.2C6.08954 15 6 14.9105 6 14.8V6.2Z" fill="#8E94AA"/>
</svg>