<svg width="32" height="32" viewBox="0 0 32 32" fill="none" xmlns="http://www.w3.org/2000/svg">
<path d="M29.3442 6.52796V25.184C29.3442 25.6 29.0562 25.856 28.6722 25.856H26.0162C25.6002 25.856 25.3442 25.6 25.3442 25.184C25.3442 24.8 25.6002 24.544 26.0162 24.544H28.0002V7.19996H26.0162C25.6002 7.19996 25.3442 6.94396 25.3442 6.52796C25.3442 6.14396 25.6002 5.85596 26.0162 5.85596H28.6722C29.0562 5.85596 29.3442 6.14396 29.3442 6.52796V6.52796ZM6.01625 7.19996C6.40025 7.19996 6.65625 7.07196 6.65625 6.52796C6.65625 6.14396 6.40025 5.85596 6.01625 5.85596H3.32825C2.94425 5.85596 2.65625 6.14396 2.65625 6.52796V25.184C2.65625 25.6 2.94425 25.856 3.32825 25.856H6.01625C6.40025 25.856 6.65625 25.6 6.65625 25.184C6.65625 24.8 6.40025 24.544 6.01625 24.544H4.00025V7.19996H6.01625V7.19996ZM10.0162 19.456C9.21625 19.456 8.67225 20 8.67225 20.8C8.67225 21.6 9.21625 22.144 10.0162 22.144C10.8162 22.144 11.3282 21.6 11.3282 20.8C11.3282 20 10.8162 19.456 10.0162 19.456ZM16.0002 19.456C15.2002 19.456 14.6562 20 14.6562 20.8C14.6562 21.6 15.2002 22.144 16.0002 22.144C16.8002 22.144 17.3442 21.6 17.3442 20.8C17.3442 20 16.8002 19.456 16.0002 19.456ZM22.0162 19.456C21.2162 19.456 20.6722 20 20.6722 20.8C20.6722 21.6 21.2162 22.144 22.0162 22.144C22.8162 22.144 23.3282 21.6 23.3282 20.8C23.3282 20 22.8162 19.456 22.0162 19.456Z" fill="black"/>
</svg>
