<svg width="43" height="56" viewBox="0 0 43 56" fill="none" xmlns="http://www.w3.org/2000/svg">
<path d="M30.485 0H1.463C0.655 0 0 0.655 0 1.926V55C0 55.345 0.655 56 1.463 56H41.537C42.345 56 43 55.345 43 55V12.978C43 12.282 42.907 12.058 42.743 11.893L31.107 0.257C30.942 0.093 30.718 0 30.485 0Z" fill="#F7F8F9"/>
<path d="M31 0.151001V12H42.849L31 0.151001Z" fill="#E0E1E6"/>
<path d="M41.537 56H1.463C0.655 56 0 55.345 0 54.537V39H43V54.537C43 55.345 42.345 56 41.537 56Z" fill="#343B4C"/>
<path d="M14.9392 52H13.0802V44.954H10.5452V43.329H17.4612V44.954H14.9392V52Z" fill="white"/>
<path d="M22.5056 52H20.6466V44.954H18.1116V43.329H25.0276V44.954H22.5056V52Z" fill="white"/>
<path d="M28.057 52H26.211V43.329H32.347V44.954H28.057V46.787H32.256V48.412H28.057V52Z" fill="white"/>
<path d="M29 12H13V17.6406H15.1538C15.1538 13.1875 19.4615 14.0781 19.4615 14.0781V27.4375C19.4615 27.4375 19.4615 29.5156 16.3846 29.5156V31H25.6154V29.5156C22.5385 29.5156 22.5385 27.4375 22.5385 27.4375V14.0781C22.5385 14.0781 26.5385 13.1875 26.5385 17.6406H29V12Z" fill="#D5D7DE"/>
</svg>
