<svg width="13" height="13" viewBox="0 0 13 13" fill="none" xmlns="http://www.w3.org/2000/svg">
<path fill-rule="evenodd" clip-rule="evenodd" d="M8.50714 5.2536C8.50714 7.05053 7.05046 8.5072 5.25357 8.5072C3.45668 8.5072 2 7.05053 2 5.2536C2 3.45668 3.45668 2 5.25357 2C7.05046 2 8.50714 3.45668 8.50714 5.2536ZM8.23763 9.57802C7.3901 10.164 6.36192 10.5072 5.25357 10.5072C2.3521 10.5072 0 8.15508 0 5.2536C0 2.35212 2.3521 0 5.25357 0C8.15504 0 10.5071 2.35212 10.5071 5.2536C10.5071 6.36195 10.1639 7.39014 9.57798 8.23767C9.60916 8.26193 9.6392 8.28839 9.66786 8.31705L12.7202 11.3694C13.0933 11.7425 13.0933 12.3473 12.7202 12.7203C12.3472 13.0933 11.7424 13.0933 11.3694 12.7203L8.31701 9.6679C8.28835 9.63924 8.26189 9.60921 8.23763 9.57802Z" fill="#76767A"/>
</svg>
