<svg width="13" height="13" viewBox="0 0 13 13" fill="none" xmlns="http://www.w3.org/2000/svg">
<path d="M7.42857 5.57143V0.928571C7.42857 0.682299 7.33074 0.446113 7.1566 0.271972C6.98246 0.0978314 6.74627 0 6.5 0C6.25373 0 6.01754 0.0978314 5.8434 0.271972C5.66926 0.446113 5.57143 0.682299 5.57143 0.928571V5.57143H0.928571C0.682299 5.57143 0.446113 5.66926 0.271972 5.8434C0.0978314 6.01754 0 6.25373 0 6.5C0 6.74627 0.0978314 6.98246 0.271972 7.1566C0.446113 7.33074 0.682299 7.42857 0.928571 7.42857H5.57143V12.0714C5.57143 12.3177 5.66926 12.5539 5.8434 12.728C6.01754 12.9022 6.25373 13 6.5 13C6.74627 13 6.98246 12.9022 7.1566 12.728C7.33074 12.5539 7.42857 12.3177 7.42857 12.0714V7.42857H12.0714C12.3177 7.42857 12.5539 7.33074 12.728 7.1566C12.9022 6.98246 13 6.74627 13 6.5C13 6.25373 12.9022 6.01754 12.728 5.8434C12.5539 5.66926 12.3177 5.57143 12.0714 5.57143H7.42857Z" fill="#76767A"/>
</svg>
