<svg width="32" height="32" viewBox="0 0 32 32" fill="none" xmlns="http://www.w3.org/2000/svg">
<g clip-path="url(#clip0_4018_1526)">
<path d="M16 27.808C14.432 27.808 12.864 27.744 11.328 27.616L4.256 26.976C1.824 26.784 0 24.768 0 22.336V9.66395C0 7.23195 1.824 5.21595 4.256 5.02395L11.328 4.41595C14.432 4.12795 17.568 4.12795 20.672 4.41595L27.744 5.02395C30.176 5.21595 32 7.23195 32 9.66395V22.336C32 24.768 30.176 26.784 27.744 26.976L20.672 27.616C19.136 27.744 17.568 27.808 16 27.808ZM16 5.53595C14.464 5.53595 12.96 5.59995 11.424 5.72795L4.384 6.33595C2.656 6.49595 1.344 7.93595 1.344 9.66395V22.336C1.344 24.064 2.656 25.504 4.384 25.664L11.424 26.272C14.464 26.528 17.536 26.528 20.576 26.272L27.616 25.664C29.344 25.504 30.656 24.064 30.656 22.336V9.66395C30.656 7.93595 29.344 6.49595 27.616 6.33595L20.576 5.72795C19.04 5.59995 17.536 5.53595 16 5.53595ZM12.672 22.656C12.544 22.656 12.448 22.656 12.352 22.592C12.128 22.464 12 22.24 12 22.016V10.016C12 9.75995 12.128 9.53595 12.352 9.40795C12.576 9.31195 12.832 9.31195 13.024 9.43995L22.368 15.456C22.56 15.552 22.656 15.776 22.656 16C22.656 16.224 22.56 16.448 22.368 16.576L13.024 22.56C12.928 22.624 12.8 22.656 12.672 22.656ZM13.344 11.232V20.768L20.768 16L13.344 11.232Z" fill="black"/>
</g>
<defs>
<clipPath id="clip0_4018_1526">
<rect width="32" height="32" fill="white"/>
</clipPath>
</defs>
</svg>
