<svg width="43" height="56" viewBox="0 0 43 56" fill="none" xmlns="http://www.w3.org/2000/svg">
<path d="M30.485 0H1.463C0.655 0 0 0.655 0 1.926V55C0 55.345 0.655 56 1.463 56H41.537C42.345 56 43 55.345 43 55V12.978C43 12.282 42.907 12.058 42.743 11.893L31.107 0.257C30.942 0.093 30.718 0 30.485 0Z" fill="#F7F8F9"/>
<path d="M31 0.151001V12H42.849L31 0.151001Z" fill="#E0E1E6"/>
<path d="M41.537 56H1.463C0.655 56 0 55.345 0 54.537V39H43V54.537C43 55.345 42.345 56 41.537 56Z" fill="#0CA7FF"/>
<path d="M16.6878 52.0001H14.7248L13.2038 46.0461L11.6958 52.0001H9.73282L7.24982 43.3291H9.31682L10.8378 49.5951L12.4888 43.3291H13.9318L15.5698 49.5951L17.0778 43.3291H19.1578L16.6878 52.0001Z" fill="white"/>
<path d="M27.5431 52.0001H25.4371L24.9041 50.5311H21.1861L20.6401 52.0001H18.5341L21.8881 43.3291H24.2021L27.5431 52.0001ZM24.3971 48.9061L23.0451 45.1751L21.6931 48.9061H24.3971Z" fill="white"/>
<path d="M32.4795 52.0001H30.1655L26.8115 43.3291H28.9175L31.3225 49.9981L33.7145 43.3291H35.8205L32.4795 52.0001Z" fill="white"/>
<path d="M29.17 14.986C28.603 14.19 27.87 13.443 26.862 12.635C22.948 9.504 22.105 6.358 22 5.897V5C22 4.447 21.553 4 21 4C20.447 4 20 4.447 20 5V6V14.359V23.412H16.294C12.412 23.412 10 25.373 10 28.529C10 31.995 12.24 34.235 15.706 34.235C19.177 34.235 22 31.412 22 27.941V16.468L22.298 16.711C22.638 17.047 23.159 17.431 23.819 17.916C26.137 19.625 30.019 22.483 29.043 25.709C29.014 25.807 29 25.904 29 26C29 26.43 29.278 26.826 29.71 26.957C29.807 26.986 29.904 27 30 27C30.43 27 30.826 26.722 30.957 26.29C32.584 20.915 30.535 16.9 29.17 14.986ZM20 27.941C20 30.309 18.074 32.235 15.706 32.235C13.351 32.235 12 30.884 12 28.529C12 25.953 14.335 25.412 16.294 25.412H20V27.941ZM25.005 16.308C24.434 15.886 23.94 15.523 23.634 15.227L22 13.887V10.414C22.827 11.588 23.987 12.897 25.612 14.197C26.47 14.885 27.084 15.505 27.541 16.147C28.257 17.15 28.972 18.486 29.329 20.125C28.002 18.515 26.245 17.221 25.005 16.308Z" fill="#D5D7DE"/>
</svg>
