<svg width="43" height="56" viewBox="0 0 43 56" fill="none" xmlns="http://www.w3.org/2000/svg">
<path d="M30.485 0H1.463C0.655 0 0 0.655 0 1.926V55C0 55.345 0.655 56 1.463 56H41.537C42.345 56 43 55.345 43 55V12.978C43 12.282 42.907 12.058 42.743 11.893L31.107 0.257C30.942 0.093 30.718 0 30.485 0Z" fill="#F7F8F9"/>
<path d="M31 0.151001V12H42.849L31 0.151001Z" fill="#E0E1E6"/>
<path d="M41.537 56H1.463C0.655 56 0 55.345 0 54.537V39H43V54.537C43 55.345 42.345 56 41.537 56Z" fill="#7CA727"/>
<path d="M11.324 52.0001H9.36105L7.84005 46.0461L6.33205 52.0001H4.36905L1.88605 43.3291H3.95305L5.47405 49.5951L7.12505 43.3291H8.56805L10.206 49.5951L11.714 43.3291H13.794L11.324 52.0001Z" fill="white"/>
<path d="M20.8006 52.0001H14.6646V43.3291H20.8006V44.9541H16.5106V46.7871H20.7096V48.4121H16.5106V50.3751H20.8006V52.0001Z" fill="white"/>
<path d="M26.9497 52.0001H22.2437V43.3291H26.8067C27.5954 43.3291 28.2064 43.5458 28.6397 43.9791C29.0817 44.4038 29.3027 44.9238 29.3027 45.5391C29.3027 46.0678 29.1597 46.5098 28.8737 46.8651C28.5877 47.2204 28.2324 47.4414 27.8077 47.5281C28.2757 47.5974 28.6701 47.8358 28.9907 48.2431C29.3114 48.6504 29.4717 49.1228 29.4717 49.6601C29.4717 50.3361 29.2507 50.8951 28.8087 51.3371C28.3667 51.7791 27.7471 52.0001 26.9497 52.0001ZM26.4037 46.8001C26.7157 46.8001 26.9627 46.7134 27.1447 46.5401C27.3267 46.3668 27.4177 46.1414 27.4177 45.8641C27.4177 45.5868 27.3224 45.3614 27.1317 45.1881C26.9497 45.0061 26.7071 44.9151 26.4037 44.9151H24.0897V46.8001H26.4037ZM26.4687 50.4011C26.8154 50.4011 27.0884 50.3144 27.2877 50.1411C27.4871 49.9591 27.5867 49.7121 27.5867 49.4001C27.5867 49.1141 27.4871 48.8758 27.2877 48.6851C27.0884 48.4858 26.8154 48.3861 26.4687 48.3861H24.0897V50.4011H26.4687Z" fill="white"/>
<path d="M40.2629 52.0001H38.4039V45.9291L35.9599 52.0001H35.1539L32.7099 45.9291V52.0001H30.8639V43.3291H33.4509L35.5569 48.5681L37.6629 43.3291H40.2629V52.0001Z" fill="white"/>
<path d="M16.9231 28C16.7698 28 16.6175 27.9641 16.4791 27.8924C16.1837 27.7384 16 27.4444 16 27.125V14.8748C16 14.5554 16.1837 14.2614 16.4791 14.1074C16.7754 13.9543 17.1345 13.9657 17.4197 14.1363L27.5735 20.2614C27.8385 20.4224 28 20.7007 28 20.9999C28 21.2992 27.8385 21.5774 27.5726 21.7384L17.4188 27.8635C17.2683 27.9536 17.0957 28 16.9231 28ZM17.8462 16.4682V25.5307L25.3572 20.9999L17.8462 16.4682Z" fill="#D5D7DE"/>
<path d="M21 35C13.2804 35 7 28.7196 7 21C7 13.2804 13.2804 7 21 7C28.7196 7 35 13.2804 35 21C35 28.7196 28.7196 35 21 35ZM21 8.86667C14.3099 8.86667 8.86667 14.3099 8.86667 21C8.86667 27.6901 14.3099 33.1333 21 33.1333C27.6901 33.1333 33.1333 27.6901 33.1333 21C33.1333 14.3099 27.6901 8.86667 21 8.86667Z" fill="#D5D7DE"/>
</svg>
