<svg width="43" height="56" viewBox="0 0 43 56" fill="none" xmlns="http://www.w3.org/2000/svg">
<path d="M30.485 0H1.463C0.655 0 0 0.655 0 1.926V55C0 55.345 0.655 56 1.463 56H41.537C42.345 56 43 55.345 43 55V12.978C43 12.282 42.907 12.058 42.743 11.893L31.107 0.257C30.942 0.093 30.718 0 30.485 0Z" fill="#F7F8F9"/>
<path d="M31 0.151001V12H42.849L31 0.151001Z" fill="#E0E1E6"/>
<path d="M41.537 56H1.463C0.655 56 0 55.345 0 54.537V39H43V54.537C43 55.345 42.345 56 41.537 56Z" fill="#7841B8"/>
<path d="M12.8284 52H10.8654L9.34444 46.046L7.83644 52H5.87344L3.39044 43.329H5.45744L6.97844 49.595L8.62944 43.329H10.0724L11.7104 49.595L13.2184 43.329H15.2984L12.8284 52Z" fill="white"/>
<path d="M22.305 52H16.169V43.329H22.305V44.954H18.015V46.787H22.214V48.412H18.015V50.375H22.305V52Z" fill="white"/>
<path d="M28.4541 52H23.7481V43.329H28.3111C29.0998 43.329 29.7108 43.5456 30.1441 43.979C30.5861 44.4036 30.8071 44.9236 30.8071 45.539C30.8071 46.0676 30.6641 46.5096 30.3781 46.865C30.0921 47.2203 29.7368 47.4413 29.3121 47.528C29.7801 47.5973 30.1745 47.8356 30.4951 48.243C30.8158 48.6503 30.9761 49.1226 30.9761 49.66C30.9761 50.336 30.7551 50.895 30.3131 51.337C29.8711 51.779 29.2515 52 28.4541 52ZM27.9081 46.8C28.2201 46.8 28.4671 46.7133 28.6491 46.54C28.8311 46.3666 28.9221 46.1413 28.9221 45.864C28.9221 45.5866 28.8268 45.3613 28.6361 45.188C28.4541 45.006 28.2115 44.915 27.9081 44.915H25.5941V46.8H27.9081ZM27.9731 50.401C28.3198 50.401 28.5928 50.3143 28.7921 50.141C28.9915 49.959 29.0911 49.712 29.0911 49.4C29.0911 49.114 28.9915 48.8756 28.7921 48.685C28.5928 48.4856 28.3198 48.386 27.9731 48.386H25.5941V50.401H27.9731Z" fill="white"/>
<path d="M34.2143 52H32.3683V43.329H36.4243C37.3343 43.329 38.0449 43.5976 38.5563 44.135C39.0763 44.6636 39.3363 45.3266 39.3363 46.124C39.3363 46.9126 39.0763 47.5756 38.5563 48.113C38.0363 48.6503 37.3256 48.919 36.4243 48.919H34.2143V52ZM36.1773 47.294C36.5499 47.294 36.8533 47.19 37.0873 46.982C37.3299 46.7653 37.4513 46.4793 37.4513 46.124C37.4513 45.7686 37.3299 45.487 37.0873 45.279C36.8533 45.0623 36.5499 44.954 36.1773 44.954H34.2143V47.294H36.1773Z" fill="white"/>
<path d="M0 39.1379H11H43V28.1379L33 18.6379L22.5 30.1379L17.017 24.6549L0 39.1379Z" fill="#E0E1E6"/>
<path d="M12.431 19.138C14.9544 19.138 17 17.0924 17 14.569C17 12.0456 14.9544 10 12.431 10C9.90761 10 7.862 12.0456 7.862 14.569C7.862 17.0924 9.90761 19.138 12.431 19.138Z" fill="#D5D7DE"/>
</svg>
