<svg width="15" height="10" viewBox="0 0 15 10" fill="none" xmlns="http://www.w3.org/2000/svg">
<path d="M14.2201 0H0.362757C0.157195 0 0 0.133011 0 0.302297V7.52116C0 7.69045 0.157195 7.82346 0.362757 7.82346H6.67473V8.88755H5.76784C5.58646 8.88755 5.42926 9.03265 5.42926 9.22612V9.66143C5.42926 9.84281 5.57437 10 5.76784 10H7.0133H7.44861H8.69408C8.87545 10 9.03265 9.8549 9.03265 9.66143V9.22612C9.03265 9.04474 8.88755 8.88755 8.69408 8.88755H7.78718V7.82346H14.2201C14.4256 7.82346 14.5828 7.69045 14.5828 7.52116V0.302297C14.5828 0.133011 14.4135 0 14.2201 0ZM13.3495 6.7231H1.23338V1.11245H13.3495V6.7231Z" fill="#8E94AA"/>
</svg>
