<svg width="29" height="35" viewBox="0 0 29 35" fill="none" xmlns="http://www.w3.org/2000/svg">
<path d="M5.46883 7.15638L5.46901 7.15593C5.79801 6.3711 6.15831 5.76774 6.55117 5.34868C6.94319 4.91577 7.36778 4.62951 7.82533 4.49359L7.82576 4.49346C8.2937 4.35893 8.87985 4.29232 9.58291 4.29232H12.3991H12.4491V4.34232V27.0058C12.4491 27.8915 12.4044 28.5665 12.3142 29.0287C12.2393 29.4883 12.1264 29.8555 11.9739 30.1279C11.9737 30.1282 11.9735 30.1285 11.9733 30.1288L11.9297 30.1044C11.7956 30.37 11.6168 30.5913 11.3933 30.7683L5.46883 7.15638ZM5.46883 7.15638C5.15805 7.91844 4.86242 8.8821 4.58171 10.0467H2.45842V2.44468H26.5416V10.0467H24.4399C24.1151 8.79444 23.7898 7.80077 23.4637 7.06678C23.1496 6.32641 22.8117 5.76004 22.4486 5.37058C22.0868 4.98248 21.6935 4.70477 21.2682 4.53929C20.8568 4.37339 20.2382 4.29232 19.4171 4.29232H16.5786H16.5286V4.34232V27.0058C16.5286 27.8776 16.5733 28.5743 16.6634 29.0948L16.6637 29.0962C16.7687 29.6161 16.9193 30.0355 17.1173 30.3522L17.1172 30.3522L17.1189 30.3546C17.3324 30.6566 17.6144 30.8979 17.9637 31.0783L17.9653 31.0791C18.0919 31.1391 18.2437 31.1987 18.4204 31.258C18.7218 31.3593 19.0971 31.4602 19.5459 31.5609L5.46883 7.15638ZM1 0.95H0.95V1V11.4914V11.5414H1H5.73421H5.77364L5.78283 11.5031L6.04004 10.4307C6.31237 9.29518 6.58959 8.39892 6.86474 7.72286C7.15518 7.03143 7.43104 6.60619 7.6565 6.36576L7.66488 6.35683L7.66488 6.35683L7.66547 6.35618L7.67368 6.34711C7.92208 6.07276 8.11911 5.9679 8.25329 5.92688C8.53803 5.8461 8.96872 5.787 9.58291 5.787H10.9406V27.0058C10.9406 27.8655 10.8955 28.4261 10.8331 28.7453L10.8289 28.7667L10.8289 28.7667L10.8287 28.7682L10.8252 28.7898C10.765 29.1593 10.6904 29.3394 10.6549 29.4026L10.6401 29.4291L10.64 29.4291L10.639 29.431L10.6253 29.4581C10.5826 29.5428 10.5365 29.5961 10.4877 29.6359C10.4396 29.672 10.3214 29.7437 10.0873 29.8243C9.80378 29.922 9.45992 30.0193 9.05046 30.1139L7.96208 30.3654L7.92333 30.3744V30.4141V34V34.05H7.97333H21.0043H21.0543V34V30.4045V30.3644L21.0152 30.3557L19.9152 30.1112C19.2382 29.9607 18.8376 29.8309 18.6391 29.7413C18.5199 29.6766 18.4389 29.6055 18.3786 29.5294C18.3105 29.4076 18.222 29.1871 18.1468 28.8227C18.0794 28.4223 18.037 27.8271 18.037 27.0058V5.787H19.4171C20.1853 5.787 20.5654 5.86956 20.6997 5.92375L20.7079 5.92705L20.7085 5.92728L20.7167 5.93048C20.8959 6.0002 21.1062 6.13335 21.3406 6.38475C21.5389 6.59753 21.7948 6.98983 22.0732 7.64632L22.0778 7.65718L22.0782 7.65795L22.083 7.66873C22.3651 8.30359 22.6697 9.22155 22.9883 10.4549L23.2593 11.5039L23.269 11.5414H23.3078H28H28.05V11.4914V1V0.95H28H1Z" fill="#515F81" stroke="#515F81" stroke-width="0.1"/>
</svg>
