<svg width="39" height="37" viewBox="0 0 39 37" fill="none" xmlns="http://www.w3.org/2000/svg">
<path d="M37.9633 14.1453L37.9633 14.1454C38.2895 15.1382 38.0222 16.2068 37.2664 16.934L30.7843 23.173C30.7843 23.173 30.7843 23.173 30.7843 23.173C30.5315 23.4166 30.4162 23.7659 30.4756 24.108L32.0063 32.9168L31.9078 32.9339L32.0063 32.9168C32.1848 33.9447 31.765 34.9637 30.9111 35.5769M37.9633 14.1453L30.8527 35.4956M37.9633 14.1453C37.6363 13.1527 36.7845 12.4444 35.7398 12.2942L35.7256 12.3932L35.7398 12.2942L26.7809 11.009C26.7809 11.009 26.7809 11.009 26.7809 11.009C26.4314 10.9587 26.1301 10.7424 25.9745 10.4306L25.9745 10.4305L21.9692 2.41541C21.5023 1.48052 20.5546 0.9 19.5 0.9C18.4461 0.9 17.4984 1.48053 17.0315 2.41541L13.0255 10.4305L13.0255 10.4306C12.87 10.7423 12.568 10.9587 12.2183 11.009C12.2183 11.009 12.2183 11.009 12.2183 11.009L3.25949 12.2949L37.9633 14.1453ZM30.9111 35.5769L30.8527 35.4956M30.9111 35.5769C30.9111 35.5769 30.9111 35.5769 30.9111 35.5769L30.8527 35.4956M30.9111 35.5769C30.4285 35.9235 29.8628 36.0989 29.2946 36.0989C28.8572 36.0989 28.4176 35.9949 28.012 35.7841L28.0581 35.6953C28.4493 35.8987 28.8731 35.9989 29.2946 35.9989C29.8422 35.9989 30.3875 35.8299 30.8527 35.4956M20.781 30.1524L20.7811 30.1525L28.7936 34.3124L20.781 30.1524ZM20.781 30.1524C20.3806 29.9453 19.9396 29.8406 19.5 29.8406C19.0604 29.8406 18.62 29.9453 18.2189 30.1532L18.2188 30.1532M20.781 30.1524L18.2188 30.1532M18.2188 30.1532L10.208 34.3123M18.2188 30.1532L10.208 34.3123M10.1818 24.3894L10.1817 24.3895L8.65183 33.1981L10.1818 24.3894ZM10.1818 24.3894C10.3349 23.5065 10.0385 22.6056 9.38941 21.9814L2.90662 15.7424C2.90662 15.7424 2.90661 15.7424 2.90661 15.7424C2.60731 15.4543 2.50655 15.0511 2.63585 14.6601L2.63592 14.6599M10.1818 24.3894L2.63592 14.6599M2.63592 14.6599C2.76464 14.2679 3.08632 13.9996 3.50049 13.9398L2.63592 14.6599ZM18.5381 3.15212L18.5381 3.15218L14.5321 11.1672C14.1313 11.9709 13.3553 12.5264 12.4587 12.6546C12.4586 12.6546 12.4586 12.6546 12.4586 12.6546L3.50057 13.9398L18.5381 3.15212ZM18.5381 3.15212C18.7225 2.78281 19.0809 2.56301 19.4993 2.56301C19.9183 2.56301 20.2761 2.78277 20.4612 3.15226L24.4671 11.1672C24.868 11.9709 25.6432 12.5264 26.5399 12.6546L35.4987 13.9398C35.9129 13.9996 36.2346 14.2679 36.3633 14.6599L36.3634 14.6599M18.5381 3.15212L36.3634 14.6599M36.3634 14.6599C36.4921 15.0512 36.3919 15.4544 36.0926 15.7424L29.6106 21.9807L29.6105 21.9807M36.3634 14.6599L29.6105 21.9807M29.6105 21.9807C28.9615 22.6056 28.6651 23.5058 28.819 24.3895L30.3489 33.1983M29.6105 21.9807L30.3489 33.1983M30.3489 33.1983C30.4194 33.6033 30.2613 33.9888 29.9233 34.2314M30.3489 33.1983L29.9233 34.2314M29.9233 34.2314C29.5844 34.4735 29.1645 34.5031 28.7939 34.3126L29.9233 34.2314ZM10.208 34.3123C10.2079 34.3124 10.2077 34.3125 10.2075 34.3126M10.208 34.3123L10.2075 34.3126M10.2075 34.3126C9.83534 34.5032 9.41555 34.4734 9.0775 34.2315C8.73961 33.9889 8.58208 33.6043 8.6518 33.1983L10.2075 34.3126ZM19.9993 31.6248L28.012 35.7841L19.9993 31.6248ZM19.0008 31.6248C19.3134 31.4627 19.6866 31.4627 19.9992 31.6248L19.0008 31.6248ZM10.9888 35.7841L19.0007 31.6248L3.25945 12.295C2.21549 12.4444 1.36367 13.1527 1.03674 14.1453L1.03672 14.1454C0.710526 15.1382 0.97781 16.2068 1.73363 16.934C1.73364 16.934 1.73364 16.934 1.73364 16.934L8.21568 23.1723C8.46845 23.4158 8.58382 23.7659 8.5244 24.1072L8.52439 24.1073L6.99444 32.9168C6.81593 33.9447 7.2357 34.9636 8.08959 35.5768C8.94271 36.1907 10.0537 36.2703 10.9888 35.7841Z" fill="#515F81" stroke="#515F81" stroke-width="0.2"/>
</svg>
