<svg width="42" height="50" viewBox="0 0 42 50" fill="none" xmlns="http://www.w3.org/2000/svg">
<path d="M16.8848 39.3945H14.1426V47H13.0234V39.3945H10.2871V38.4688H16.8848V39.3945ZM20.0254 47.1172C19.166 47.1172 18.4668 46.8359 17.9277 46.2734C17.3887 45.707 17.1191 44.9512 17.1191 44.0059V43.8066C17.1191 43.1777 17.2383 42.6172 17.4766 42.125C17.7188 41.6289 18.0547 41.2422 18.4844 40.9648C18.918 40.6836 19.3867 40.543 19.8906 40.543C20.7148 40.543 21.3555 40.8145 21.8125 41.3574C22.2695 41.9004 22.498 42.6777 22.498 43.6895V44.1406H18.2031C18.2188 44.7656 18.4004 45.2715 18.748 45.6582C19.0996 46.041 19.5449 46.2324 20.084 46.2324C20.4668 46.2324 20.791 46.1543 21.0566 45.998C21.3223 45.8418 21.5547 45.6348 21.7539 45.377L22.416 45.8926C21.8848 46.709 21.0879 47.1172 20.0254 47.1172ZM19.8906 41.4336C19.4531 41.4336 19.0859 41.5938 18.7891 41.9141C18.4922 42.2305 18.3086 42.6758 18.2383 43.25H21.4141V43.168C21.3828 42.6172 21.2344 42.1914 20.9688 41.8906C20.7031 41.5859 20.3438 41.4336 19.8906 41.4336ZM25.8848 42.9746L27.291 40.6602H28.5566L26.4824 43.7949L28.6211 47H27.3672L25.9023 44.627L24.4375 47H23.1777L25.3164 43.7949L23.2422 40.6602H24.4961L25.8848 42.9746ZM31.1816 39.125V40.6602H32.3652V41.498H31.1816V45.4297C31.1816 45.6836 31.2344 45.875 31.3398 46.0039C31.4453 46.1289 31.625 46.1914 31.8789 46.1914C32.0039 46.1914 32.1758 46.168 32.3945 46.1211V47C32.1094 47.0781 31.832 47.1172 31.5625 47.1172C31.0781 47.1172 30.7129 46.9707 30.4668 46.6777C30.2207 46.3848 30.0977 45.9688 30.0977 45.4297V41.498H28.9434V40.6602H30.0977V39.125H31.1816Z" fill="#515F81"/>
<rect x="0.95" y="0.95" width="40.1" height="1.29048" fill="#515F81" stroke="#515F81" stroke-width="0.1"/>
<rect x="0.95" y="10.95" width="40.1" height="1.29048" fill="#515F81" stroke="#515F81" stroke-width="0.1"/>
<rect x="0.95" y="20.95" width="40.1" height="1.29048" fill="#515F81" stroke="#515F81" stroke-width="0.1"/>
<rect x="0.95" y="5.95" width="24.8059" height="1.29048" fill="#515F81" stroke="#515F81" stroke-width="0.1"/>
<rect x="0.95" y="15.95" width="24.8059" height="1.29048" fill="#515F81" stroke="#515F81" stroke-width="0.1"/>
<rect x="0.95" y="25.95" width="24.8059" height="1.29048" fill="#515F81" stroke="#515F81" stroke-width="0.1"/>
</svg>
