<svg width="43" height="56" viewBox="0 0 43 56" fill="none" xmlns="http://www.w3.org/2000/svg">
<path d="M30.485 0H1.463C0.655 0 0 0.655 0 1.926V55C0 55.345 0.655 56 1.463 56H41.537C42.345 56 43 55.345 43 55V12.978C43 12.282 42.907 12.058 42.743 11.893L31.107 0.257C30.942 0.093 30.718 0 30.485 0Z" fill="#F7F8F9"/>
<path d="M31 0.151001V12H42.849L31 0.151001Z" fill="#E0E1E6"/>
<path d="M41.537 56H1.463C0.655 56 0 55.345 0 54.537V39H43V54.537C43 55.345 42.345 56 41.537 56Z" fill="#343B4C"/>
<path d="M10.4427 51.8609H8.68672L7.32612 46.5507L5.97714 51.8609H4.22115L2 44.1275H3.84902L5.20962 49.7159L6.68652 44.1275H7.97734L9.44261 49.7159L10.7916 44.1275H12.6522L10.4427 51.8609Z" fill="white"/>
<path d="M16.8787 52C15.708 52 14.7389 51.6251 13.9714 50.8754C13.2116 50.1179 12.8318 49.1594 12.8318 48C12.8318 46.8406 13.2116 45.886 13.9714 45.1362C14.7389 44.3787 15.708 44 16.8787 44C18.0571 44 19.0262 44.3749 19.7859 45.1246C20.5535 45.8744 20.9372 46.8328 20.9372 48C20.9372 49.1671 20.5535 50.1256 19.7859 50.8754C19.0262 51.6251 18.0571 52 16.8787 52ZM15.1692 49.8203C15.6033 50.2995 16.1732 50.5391 16.8787 50.5391C17.5842 50.5391 18.154 50.2995 18.5881 49.8203C19.0223 49.3411 19.2394 48.7343 19.2394 48C19.2394 47.2657 19.0223 46.6589 18.5881 46.1797C18.154 45.7005 17.5842 45.4609 16.8787 45.4609C16.1732 45.4609 15.6033 45.7005 15.1692 46.1797C14.7428 46.6589 14.5296 47.2657 14.5296 48C14.5296 48.7343 14.7428 49.3411 15.1692 49.8203Z" fill="white"/>
<path d="M23.7474 51.8609H22.096V44.1275H27.585V45.5768H23.7474V47.2116H27.5036V48.6609H23.7474V51.8609Z" fill="white"/>
<path d="M30.3909 51.8609H28.7396V44.1275H34.2285V45.5768H30.3909V47.2116H34.1471V48.6609H30.3909V51.8609Z" fill="white"/>
<path d="M41 51.8609H35.1622V50.5739C36.8213 49.3449 37.9183 48.4715 38.4532 47.9536C38.9959 47.428 39.2673 46.9372 39.2673 46.4812C39.2673 46.1643 39.1432 45.9169 38.8951 45.7391C38.6471 45.5614 38.3524 45.4725 38.0113 45.4725C37.1973 45.4725 36.5034 45.77 35.9297 46.3652L34.9878 45.2754C35.3521 44.858 35.7979 44.5449 36.3251 44.3362C36.86 44.1198 37.4105 44.0116 37.9764 44.0116C38.8292 44.0116 39.5347 44.2357 40.0929 44.6841C40.6589 45.1324 40.9419 45.7314 40.9419 46.4812C40.9419 47.115 40.6899 47.7372 40.186 48.3478C39.6898 48.9507 38.9068 49.6386 37.8369 50.4116H41V51.8609Z" fill="white"/>
<path d="M29 12H13V17.6406H15.1538C15.1538 13.1875 19.4615 14.0781 19.4615 14.0781V27.4375C19.4615 27.4375 19.4615 29.5156 16.3846 29.5156V31H25.6154V29.5156C22.5385 29.5156 22.5385 27.4375 22.5385 27.4375V14.0781C22.5385 14.0781 26.5385 13.1875 26.5385 17.6406H29V12Z" fill="#D5D7DE"/>
</svg>
