<svg width="43" height="56" viewBox="0 0 43 56" fill="none" xmlns="http://www.w3.org/2000/svg">
<path d="M30.485 0H1.463C0.655 0 0 0.655 0 1.926V55C0 55.345 0.655 56 1.463 56H41.537C42.345 56 43 55.345 43 55V12.978C43 12.282 42.907 12.058 42.743 11.893L31.107 0.257C30.942 0.093 30.718 0 30.485 0Z" fill="#F7F8F9"/>
<path d="M31 0.151001V12H42.849L31 0.151001Z" fill="#E0E1E6"/>
<path d="M41.537 56H1.463C0.655 56 0 55.345 0 54.537V39H43V54.537C43 55.345 42.345 56 41.537 56Z" fill="#343B4C"/>
<path d="M12.7142 52H10.7512L9.23018 46.046L7.72218 52H5.75918L3.27618 43.329H5.34318L6.86418 49.595L8.51518 43.329H9.95818L11.5962 49.595L13.1042 43.329H15.1842L12.7142 52Z" fill="white"/>
<path d="M19.9089 52.156C18.6002 52.156 17.5169 51.7357 16.6589 50.895C15.8095 50.0457 15.3849 48.971 15.3849 47.671C15.3849 46.371 15.8095 45.3007 16.6589 44.46C17.5169 43.6107 18.6002 43.186 19.9089 43.186C21.2262 43.186 22.3095 43.6064 23.1589 44.447C24.0169 45.2877 24.4459 46.3624 24.4459 47.671C24.4459 48.9797 24.0169 50.0544 23.1589 50.895C22.3095 51.7357 21.2262 52.156 19.9089 52.156ZM17.9979 49.712C18.4832 50.2494 19.1202 50.518 19.9089 50.518C20.6975 50.518 21.3345 50.2494 21.8199 49.712C22.3052 49.1747 22.5479 48.4944 22.5479 47.671C22.5479 46.8477 22.3052 46.1674 21.8199 45.63C21.3345 45.0927 20.6975 44.824 19.9089 44.824C19.1202 44.824 18.4832 45.0927 17.9979 45.63C17.5212 46.1674 17.2829 46.8477 17.2829 47.671C17.2829 48.4944 17.5212 49.1747 17.9979 49.712Z" fill="white"/>
<path d="M27.5873 52H25.7413V43.329H31.8773V44.954H27.5873V46.787H31.7863V48.412H27.5873V52Z" fill="white"/>
<path d="M35.0141 52H33.1681V43.329H39.3041V44.954H35.0141V46.787H39.2131V48.412H35.0141V52Z" fill="white"/>
<path d="M29 12H13V17.6406H15.1538C15.1538 13.1875 19.4615 14.0781 19.4615 14.0781V27.4375C19.4615 27.4375 19.4615 29.5156 16.3846 29.5156V31H25.6154V29.5156C22.5385 29.5156 22.5385 27.4375 22.5385 27.4375V14.0781C22.5385 14.0781 26.5385 13.1875 26.5385 17.6406H29V12Z" fill="#D5D7DE"/>
</svg>
