<svg width="32" height="32" viewBox="0 0 32 32" fill="none" xmlns="http://www.w3.org/2000/svg">
<g clip-path="url(#clip0_4013_1165)">
<path d="M30.016 2.65601H2.016C0.896 2.65601 0 3.55201 0 4.67201V27.328C0 28.448 0.896 29.344 2.016 29.344H30.016C31.104 29.344 32 28.448 32 27.328V4.67201C32 3.55201 31.104 2.65601 30.016 2.65601ZM1.344 27.328V4.67201C1.344 4.28801 1.632 4.00001 2.016 4.00001H30.016C30.368 4.00001 30.656 4.28801 30.656 4.67201V24.384L27.072 28H2.016C1.632 28 1.344 27.712 1.344 27.328ZM30.016 28H28.96L30.656 26.272V27.328C30.656 27.712 30.368 28 30.016 28ZM7.968 7.104C7.776 6.592 6.912 6.592 6.72 7.104L2.72 17.76C2.592 18.112 2.752 18.496 3.104 18.624C3.456 18.752 3.84 18.592 3.968 18.24L5.312 14.656C5.312 14.656 5.312 14.656 5.344 14.656H9.344C9.344 14.656 9.344 14.656 9.376 14.656L10.72 18.24C10.816 18.496 11.072 18.656 11.328 18.656C11.424 18.656 11.488 18.656 11.584 18.624C11.904 18.496 12.096 18.112 11.968 17.76L7.968 7.104ZM5.792 13.344L7.328 9.216L8.864 13.344H5.792ZM28 15.328C28 14.976 27.712 14.656 27.328 14.656C26.944 14.656 26.656 14.976 26.656 15.328C26.656 16.448 25.76 17.344 24.672 17.344C23.584 17.344 22.656 16.448 22.656 15.328V12.672C22.656 11.552 23.552 10.656 24.672 10.656C25.792 10.656 26.656 11.552 26.656 12.672C26.656 13.024 26.976 13.344 27.328 13.344C27.68 13.344 28 13.024 28 12.672C28 10.816 26.496 9.344 24.672 9.344C22.848 9.344 21.344 10.816 21.344 12.672V15.328C21.344 17.184 22.816 18.656 24.672 18.656C26.528 18.656 28 17.184 28 15.328ZM16.672 9.344C15.904 9.344 15.232 9.6 14.656 10.016V7.328C14.656 6.976 14.368 6.656 14.016 6.656C13.664 6.656 13.344 6.976 13.344 7.328V17.984C13.344 18.368 13.632 18.656 14.016 18.656C14.4 18.656 14.656 18.368 14.656 17.984C15.232 18.4 15.904 18.656 16.672 18.656C18.496 18.656 20 17.184 20 15.328V12.672C20 10.816 18.496 9.344 16.672 9.344ZM18.656 15.328C18.656 16.448 17.76 17.344 16.672 17.344C15.584 17.344 14.656 16.448 14.656 15.328V12.672C14.656 11.552 15.552 10.656 16.672 10.656C17.792 10.656 18.656 11.552 18.656 12.672V15.328Z" fill="black"/>
</g>
<defs>
<clipPath id="clip0_4013_1165">
<rect width="32" height="32" fill="white"/>
</clipPath>
</defs>
</svg>
