<svg width="43" height="56" viewBox="0 0 43 56" fill="none" xmlns="http://www.w3.org/2000/svg">
<path d="M30.485 0H1.463C0.655 0 0 0.655 0 1.926V55C0 55.345 0.655 56 1.463 56H41.537C42.345 56 43 55.345 43 55V12.978C43 12.282 42.907 12.058 42.743 11.893L31.107 0.257C30.942 0.093 30.718 0 30.485 0Z" fill="#F7F8F9"/>
<path d="M31 0.151001V12H42.849L31 0.151001Z" fill="#E0E1E6"/>
<path d="M41.537 56H1.463C0.655 56 0 55.345 0 54.537V39H43V54.537C43 55.345 42.345 56 41.537 56Z" fill="#06AF36"/>
<path d="M17 16V12H5V16V18V20V22V24V26V28V30V34H15H17H38V30V28V26V24V22V20V16H17ZM7 14H15V16H7V14ZM7 18H15V20H7V18ZM7 22H15V24H7V22ZM7 26H15V28H7V26ZM15 32H7V30H15V32ZM36 32H17V30H36V32ZM36 28H17V26H36V28ZM36 24H17V22H36V24ZM17 20V18H36V20H17Z" fill="#D5D7DE"/>
<path d="M18.5814 52H16.3714L14.2004 48.828L12.0164 52H9.8194L12.9654 47.554L10.0144 43.329H12.2114L14.2004 46.293L16.1634 43.329H18.3864L15.4354 47.541L18.5814 52Z" fill="white"/>
<path d="M24.912 52H19.4V43.329H21.246V50.375H24.912V52Z" fill="white"/>
<path d="M29.2857 52.156C27.743 52.156 26.521 51.6966 25.6197 50.778L26.6207 49.374C27.366 50.154 28.2847 50.544 29.3767 50.544C29.8533 50.544 30.2217 50.453 30.4817 50.271C30.7503 50.0803 30.8847 49.8506 30.8847 49.582C30.8847 49.348 30.759 49.153 30.5077 48.997C30.265 48.841 29.9573 48.7283 29.5847 48.659C29.2207 48.5896 28.822 48.49 28.3887 48.36C27.9553 48.23 27.5523 48.0826 27.1797 47.918C26.8157 47.7533 26.508 47.4933 26.2567 47.138C26.014 46.7826 25.8927 46.3493 25.8927 45.838C25.8927 45.0926 26.1917 44.4686 26.7897 43.966C27.3877 43.4546 28.185 43.199 29.1817 43.199C30.5597 43.199 31.6863 43.602 32.5617 44.408L31.5347 45.76C30.85 45.1273 30.0093 44.811 29.0127 44.811C28.6227 44.811 28.3193 44.889 28.1027 45.045C27.886 45.201 27.7777 45.4133 27.7777 45.682C27.7777 45.89 27.899 46.0676 28.1417 46.215C28.393 46.3536 28.7007 46.4576 29.0647 46.527C29.4373 46.5963 29.836 46.7003 30.2607 46.839C30.694 46.969 31.0927 47.1206 31.4567 47.294C31.8293 47.4586 32.137 47.723 32.3797 48.087C32.631 48.4423 32.7567 48.8713 32.7567 49.374C32.7567 50.206 32.4577 50.8776 31.8597 51.389C31.2703 51.9003 30.4123 52.156 29.2857 52.156Z" fill="white"/>
</svg>
