<svg width="43" height="56" viewBox="0 0 43 56" fill="none" xmlns="http://www.w3.org/2000/svg">
<path d="M30.485 0H1.463C0.655 0 0 0.655 0 1.926V55C0 55.345 0.655 56 1.463 56H41.537C42.345 56 43 55.345 43 55V12.978C43 12.282 42.907 12.058 42.743 11.893L31.107 0.257C30.942 0.093 30.718 0 30.485 0Z" fill="#F7F8F9"/>
<path d="M31 0.151001V12H42.849L31 0.151001Z" fill="#E0E1E6"/>
<path d="M41.537 56H1.463C0.655 56 0 55.345 0 54.537V39H43V54.537C43 55.345 42.345 56 41.537 56Z" fill="#06AF36"/>
<path d="M17 16V12H5V16V18V20V22V24V26V28V30V34H15H17H38V30V28V26V24V22V20V16H17ZM7 14H15V16H7V14ZM7 18H15V20H7V18ZM7 22H15V24H7V22ZM7 26H15V28H7V26ZM15 32H7V30H15V32ZM36 32H17V30H36V32ZM36 28H17V26H36V28ZM36 24H17V22H36V24ZM17 20V18H36V20H17Z" fill="#D5D7DE"/>
<path d="M14.2396 52H12.0296L9.8586 48.828L7.6746 52H5.4776L8.6236 47.554L5.6726 43.329H7.8696L9.8586 46.293L11.8216 43.329H14.0446L11.0936 47.541L14.2396 52Z" fill="white"/>
<path d="M20.5702 52H15.0582V43.329H16.9042V50.375H20.5702V52Z" fill="white"/>
<path d="M24.9439 52.156C23.4012 52.156 22.1792 51.6966 21.2779 50.778L22.2789 49.374C23.0242 50.154 23.9429 50.544 25.0349 50.544C25.5115 50.544 25.8799 50.453 26.1399 50.271C26.4085 50.0803 26.5429 49.8506 26.5429 49.582C26.5429 49.348 26.4172 49.153 26.1659 48.997C25.9232 48.841 25.6155 48.7283 25.2429 48.659C24.8789 48.5896 24.4802 48.49 24.0469 48.36C23.6135 48.23 23.2105 48.0826 22.8379 47.918C22.4739 47.7533 22.1662 47.4933 21.9149 47.138C21.6722 46.7826 21.5509 46.3493 21.5509 45.838C21.5509 45.0926 21.8499 44.4686 22.4479 43.966C23.0459 43.4546 23.8432 43.199 24.8399 43.199C26.2179 43.199 27.3445 43.602 28.2199 44.408L27.1929 45.76C26.5082 45.1273 25.6675 44.811 24.6709 44.811C24.2809 44.811 23.9775 44.889 23.7609 45.045C23.5442 45.201 23.4359 45.4133 23.4359 45.682C23.4359 45.89 23.5572 46.0676 23.7999 46.215C24.0512 46.3536 24.3589 46.4576 24.7229 46.527C25.0955 46.5963 25.4942 46.7003 25.9189 46.839C26.3522 46.969 26.7509 47.1206 27.1149 47.294C27.4875 47.4586 27.7952 47.723 28.0379 48.087C28.2892 48.4423 28.4149 48.8713 28.4149 49.374C28.4149 50.206 28.1159 50.8776 27.5179 51.389C26.9285 51.9003 26.0705 52.156 24.9439 52.156Z" fill="white"/>
<path d="M37.5228 52H35.3128L33.1418 48.828L30.9578 52H28.7608L31.9068 47.554L28.9558 43.329H31.1528L33.1418 46.293L35.1048 43.329H37.3278L34.3768 47.541L37.5228 52Z" fill="white"/>
</svg>
