<svg width="17" height="17" viewBox="0 0 17 17" fill="none" xmlns="http://www.w3.org/2000/svg">
<path d="M0.85 8C0.85 7.91716 0.917157 7.85 1 7.85H4C4.08284 7.85 4.15 7.91716 4.15 8V16C4.15 16.0828 4.08284 16.15 4 16.15H1C0.917158 16.15 0.85 16.0828 0.85 16V8ZM6.85 1C6.85 0.917157 6.91716 0.85 7 0.85H10C10.0828 0.85 10.15 0.917158 10.15 1V16C10.15 16.0828 10.0828 16.15 10 16.15H7C6.91716 16.15 6.85 16.0828 6.85 16V1ZM12.85 4C12.85 3.91716 12.9172 3.85 13 3.85H16C16.0828 3.85 16.15 3.91716 16.15 4V16C16.15 16.0828 16.0828 16.15 16 16.15H13C12.9172 16.15 12.85 16.0828 12.85 16V4Z" stroke="#76767A" stroke-width="1.7"/>
</svg>
