<svg width="43" height="56" viewBox="0 0 43 56" fill="none" xmlns="http://www.w3.org/2000/svg">
<path d="M30.485 0H1.463C0.655 0 0 0.655 0 1.926V55C0 55.345 0.655 56 1.463 56H41.537C42.345 56 43 55.345 43 55V12.978C43 12.282 42.907 12.058 42.743 11.893L31.107 0.257C30.942 0.093 30.718 0 30.485 0Z" fill="#F7F8F9"/>
<path d="M31 0.151001V12H42.849L31 0.151001Z" fill="#E0E1E6"/>
<path d="M41.537 56H1.463C0.655 56 0 55.345 0 54.537V39H43V54.537C43 55.345 42.345 56 41.537 56Z" fill="#F0C419"/>
<path d="M18.9635 52H12.3595V50.505L16.4545 44.954H12.3595V43.329H18.8725V44.811L14.7775 50.375H18.9635V52Z" fill="white"/>
<path d="M22.2109 52H20.3649V43.329H22.2109V52Z" fill="white"/>
<path d="M25.7782 52H23.9322V43.329H27.9882C28.8982 43.329 29.6089 43.5976 30.1202 44.135C30.6402 44.6636 30.9002 45.3266 30.9002 46.124C30.9002 46.9126 30.6402 47.5756 30.1202 48.113C29.6002 48.6503 28.8896 48.919 27.9882 48.919H25.7782V52ZM27.7412 47.294C28.1139 47.294 28.4172 47.19 28.6512 46.982C28.8939 46.7653 29.0152 46.4793 29.0152 46.124C29.0152 45.7686 28.8939 45.487 28.6512 45.279C28.4172 45.0623 28.1139 44.954 27.7412 44.954H25.7782V47.294H27.7412Z" fill="white"/>
<path d="M22 24V22H24V20H22V18H24V16H22V14H24V12H22V10H24V8H22V6H20V8H18V10H20V12H18V14H20V16H18V18H20V20H18V22H20V24H16V29C16 31.757 18.243 34 21 34C23.757 34 26 31.757 26 29V24H22ZM24 29C24 30.654 22.654 32 21 32C19.346 32 18 30.654 18 29V26H24V29Z" fill="#D5D7DE"/>
<path d="M20 30H22C22.552 30 23 29.553 23 29C23 28.447 22.552 28 22 28H20C19.448 28 19 28.447 19 29C19 29.553 19.448 30 20 30Z" fill="#D5D7DE"/>
</svg>
