<?xml version="1.0" encoding="iso-8859-1"?>
<!-- Generator: Adobe Illustrator 17.1.0, SVG Export Plug-In . SVG Version: 6.00 Build 0)  -->
<!DOCTYPE svg PUBLIC "-//W3C//DTD SVG 1.1//EN" "http://www.w3.org/Graphics/SVG/1.1/DTD/svg11.dtd">
<svg version="1.1" id="Capa_1" xmlns="http://www.w3.org/2000/svg" xmlns:xlink="http://www.w3.org/1999/xlink" x="0px" y="0px"
	 viewBox="0 0 511 511" width="40" height="40" style="enable-background:new 0 0 511 511;" xml:space="preserve">
<g>
	<path d="M508.814,250.207L364.81,105.663c-4.437-4.449-10.341-6.901-16.624-6.905c-0.005,0-0.01,0-0.015,0
		c-6.277,0-12.178,2.444-16.616,6.883L297.6,139.596c-9.141,9.141-9.159,24.032-0.056,33.178L332.391,208H178.747l26.912-26.912
		c9.163-9.163,9.163-24.071,0-33.234l-33.943-33.943c-9.162-9.162-24.071-9.163-33.234,0L2.197,250.197
		c-2.925,2.925-2.93,7.666-0.01,10.597L146.19,405.337c4.437,4.449,10.341,6.901,16.624,6.905c0.005,0,0.01,0,0.015,0
		c6.277,0,12.178-2.444,16.616-6.883l33.955-33.955c9.141-9.141,9.159-24.032,0.056-33.178L178.609,303h153.644l-26.912,26.912
		c-9.163,9.163-9.163,24.071,0,33.234l33.943,33.943c9.162,9.163,24.072,9.164,33.234,0l136.285-136.285
		C511.729,257.879,511.733,253.137,508.814,250.207z M361.912,386.482c-3.314,3.314-8.707,3.314-12.021,0l-33.943-33.943
		c-3.314-3.314-3.314-8.707,0-12.021l39.715-39.715c2.145-2.145,2.787-5.371,1.626-8.173c-1.161-2.803-3.896-4.63-6.929-4.63
		H160.641c-3.026,0-5.756,1.818-6.921,4.611c-1.166,2.792-0.539,6.012,1.589,8.163l47.5,48.016
		c3.298,3.314,3.292,8.701-0.014,12.007l-33.956,33.955c-1.605,1.605-3.739,2.49-6.01,2.49c-0.001,0-0.003,0-0.005,0
		c-2.272-0.001-4.408-0.889-6.01-2.495L18.097,255.51l130.992-130.992c3.314-3.314,8.707-3.314,12.021,0l33.943,33.943
		c3.314,3.314,3.314,8.707,0,12.021l-39.715,39.715c-2.145,2.145-2.787,5.371-1.626,8.173c1.161,2.803,3.896,4.63,6.929,4.63
		h189.719c3.026,0,5.756-1.818,6.921-4.611c1.166-2.792,0.539-6.012-1.589-8.163l-47.5-48.016
		c-3.298-3.314-3.292-8.701,0.014-12.007l33.956-33.955c1.605-1.605,3.739-2.49,6.01-2.49c0.001,0,0.003,0,0.005,0
		c2.272,0.001,4.408,0.889,6.01,2.495L492.903,255.49L361.912,386.482z"/>
	<path d="M434.197,244.803c1.464,1.464,3.384,2.197,5.303,2.197s3.839-0.732,5.303-2.197c2.929-2.929,2.929-7.678,0-10.606
		l-47.989-47.989c-2.929-2.929-7.678-2.929-10.606,0c-2.929,2.929-2.929,7.678,0,10.606L434.197,244.803z"/>
	<path d="M346.197,146.197c-2.929,2.929-2.929,7.678,0,10.606l15.997,15.997c1.464,1.464,3.384,2.197,5.303,2.197
		s3.839-0.732,5.303-2.197c2.929-2.929,2.929-7.678,0-10.606l-15.997-15.997C353.875,143.268,349.126,143.268,346.197,146.197z"/>
	<path d="M122.197,306.197c-2.929,2.929-2.929,7.678,0,10.606l40,40c1.464,1.464,3.384,2.197,5.303,2.197s3.839-0.732,5.303-2.197
		c2.929-2.929,2.929-7.678,0-10.606l-40-40C129.875,303.268,125.126,303.268,122.197,306.197z"/>
</g>
<g>
</g>
<g>
</g>
<g>
</g>
<g>
</g>
<g>
</g>
<g>
</g>
<g>
</g>
<g>
</g>
<g>
</g>
<g>
</g>
<g>
</g>
<g>
</g>
<g>
</g>
<g>
</g>
<g>
</g>
</svg>
