<?xml version="1.0" encoding="iso-8859-1"?>
<!-- Generator: Adobe Illustrator 19.0.0, SVG Export Plug-In . SVG Version: 6.00 Build 0)  -->
<svg version="1.1" id="Layer_1" xmlns="http://www.w3.org/2000/svg" xmlns:xlink="http://www.w3.org/1999/xlink" x="0px" y="0px"
	 viewBox="0 0 512 512" width="40" height="40" style="enable-background:new 0 0 512 512;" xml:space="preserve">
<g>
	<g>
		<path d="M197.999,39.423H95.305c-4.7,0-8.51,3.81-8.51,8.51c0,4.701,3.81,8.51,8.51,8.51h102.695
			c8.228,0,14.924,6.694,14.924,14.923V114.8c0,8.228-6.694,14.924-14.924,14.924H31.943c-8.228,0-14.924-6.694-14.924-14.924
			V71.366c0-8.229,6.694-14.923,14.924-14.923h29.324c4.7,0,8.51-3.809,8.51-8.51c0-4.7-3.81-8.51-8.51-8.51H31.943
			C14.329,39.423,0,53.753,0,71.366V114.8c0,17.614,14.329,31.943,31.943,31.943h166.057c17.613,0,31.943-14.329,31.943-31.943
			V71.366C229.942,53.753,215.613,39.423,197.999,39.423z"/>
	</g>
</g>
<g>
	<g>
		<path d="M480.057,39.423H314.001c-17.614,0-31.943,14.33-31.943,31.943V114.8c0,17.614,14.329,31.943,31.943,31.943h166.057
			c17.613,0,31.943-14.329,31.943-31.943V71.366C512,53.753,497.671,39.423,480.057,39.423z M494.981,114.8
			c0,8.228-6.694,14.924-14.924,14.924H314.001c-8.229,0-14.924-6.694-14.924-14.924V71.366h0c0-8.229,6.694-14.923,14.923-14.923
			h166.057c8.228,0,14.924,6.694,14.924,14.923V114.8z"/>
	</g>
</g>
<g>
	<g>
		<path d="M197.999,202.34H31.943C14.329,202.34,0,216.669,0,234.283v43.434c0,17.614,14.329,31.943,31.943,31.943h166.057
			c17.613,0,31.943-14.329,31.943-31.943v-43.434C229.942,216.669,215.613,202.34,197.999,202.34z M212.923,277.717
			c0,8.228-6.694,14.924-14.924,14.924H31.943c-8.228,0-14.924-6.694-14.924-14.924v-43.434c0-8.229,6.694-14.923,14.924-14.923
			h166.057c8.228,0,14.924,6.694,14.924,14.923V277.717z"/>
	</g>
</g>
<g>
	<g>
		<path d="M480.057,202.342H314.001c-17.614,0-31.943,14.33-31.943,31.943v43.434c0,17.612,14.329,31.941,31.943,31.941H421.97
			c4.7,0,8.51-3.809,8.51-8.51c0-4.7-3.81-8.51-8.51-8.51H314.001c-8.229,0-14.924-6.694-14.924-14.922v-43.434
			c0-8.229,6.694-14.924,14.924-14.924h166.057c8.228,0,14.924,6.694,14.924,14.924v43.434c0,8.228-6.694,14.922-14.924,14.922
			h-24.049c-4.7,0-8.51,3.81-8.51,8.51c0,4.701,3.81,8.51,8.51,8.51h24.049c17.613,0,31.943-14.329,31.943-31.941v-43.434
			C512,216.672,497.671,202.342,480.057,202.342z"/>
	</g>
</g>
<g>
	<g>
		<path d="M197.999,365.258h-31.473c-4.7,0-8.51,3.81-8.51,8.51s3.81,8.51,8.51,8.51h31.473c8.228,0,14.924,6.694,14.924,14.924
			v43.434c0,8.229-6.694,14.924-14.924,14.924H31.943c-8.228,0-14.924-6.694-14.924-14.924V397.2
			c0-8.229,6.694-14.924,14.924-14.924h100.546c4.7,0,8.51-3.81,8.51-8.51s-3.81-8.51-8.51-8.51H31.943
			C14.329,365.258,0,379.587,0,397.2v43.434c0,17.613,14.329,31.943,31.943,31.943h166.057c17.613,0,31.943-14.329,31.943-31.943
			V397.2C229.942,379.587,215.613,365.258,197.999,365.258z"/>
	</g>
</g>
<g>
	<g>
		<path d="M480.057,365.258H314.001c-17.614,0-31.943,14.329-31.943,31.943v43.434c0,17.613,14.329,31.943,31.943,31.943h166.057
			c17.613,0,31.943-14.329,31.943-31.943V397.2C512,379.588,497.671,365.258,480.057,365.258z M494.981,440.634
			c0,8.228-6.694,14.924-14.924,14.924H314.001c-8.229,0-14.924-6.694-14.924-14.924V397.2h0c0-8.228,6.694-14.923,14.923-14.923
			h166.057c8.228,0,14.924,6.694,14.924,14.924V440.634z"/>
	</g>
</g>
<g>
</g>
<g>
</g>
<g>
</g>
<g>
</g>
<g>
</g>
<g>
</g>
<g>
</g>
<g>
</g>
<g>
</g>
<g>
</g>
<g>
</g>
<g>
</g>
<g>
</g>
<g>
</g>
<g>
</g>
</svg>
