<?xml version="1.0" encoding="iso-8859-1"?>
<!-- Generator: Adobe Illustrator 19.0.0, SVG Export Plug-In . SVG Version: 6.00 Build 0)  -->
<svg version="1.1" id="Capa_1" xmlns="http://www.w3.org/2000/svg" xmlns:xlink="http://www.w3.org/1999/xlink" x="0px" y="0px"
	 viewBox="0 0 511.959 511.959" width="100%" height="100%" style="enable-background:new 0 0 511.959 511.959;" xml:space="preserve">
<g>
	<g>
		<path d="M357.42,87.945l-78.88-78.56C266.051-3.119,245.789-3.13,233.286,9.36c-0.008,0.008-0.017,0.017-0.025,0.025l-80,80
			c-12.25,12.738-11.855,32.996,0.884,45.246c1.029,0.99,2.124,1.91,3.276,2.754c13.231,9.135,31.111,7.448,42.4-4l3.68-3.68
			c3.304-3.308,6.107-7.081,8.32-11.2l12.16-22.56v222.24c-0.634,16.247,10.62,30.552,26.56,33.76
			c17.416,3.006,33.971-8.675,36.977-26.09c0.337-1.951,0.492-3.93,0.463-5.91v-224c4.123,9.063,8.771,17.878,13.92,26.4
			c3.164,4.691,7.052,8.849,11.52,12.32c12.492,12.502,32.753,12.509,45.255,0.017c0.621-0.621,1.217-1.267,1.785-1.937
			C371.192,119.275,369.873,99.842,357.42,87.945z"/>
	</g>
</g>
<g>
	<g>
		<path d="M495.98,431.945v-192c0,0,0-1.28,0-1.92c-3.04-48-30.88-75.84-80-77.92h-78.72c-17.673,0-32,14.327-32,32
			c0,17.673,14.327,32,32,32h77.28c13.6,0,16,1.92,17.44,17.12v189.28c0,12.16-3.04,16-17.12,17.44H97.1
			c-14.88-1.12-16-4.64-17.12-16v-190.56c0-17.44,5.44-17.44,16-17.44h80c17.673,0,32-14.327,32-32s-14.327-32-32-32h-80
			c-48,0-77.92,30.08-80,80v193.28c-1.245,42.22,31.972,77.456,74.193,78.701c1.242,0.037,2.485,0.043,3.727,0.019h324.16
			c42.945,0.106,77.846-34.622,77.952-77.568C496.015,433.567,496.004,432.756,495.98,431.945z"/>
	</g>
</g>
<g>
</g>
<g>
</g>
<g>
</g>
<g>
</g>
<g>
</g>
<g>
</g>
<g>
</g>
<g>
</g>
<g>
</g>
<g>
</g>
<g>
</g>
<g>
</g>
<g>
</g>
<g>
</g>
<g>
</g>
</svg>
