<svg id="Capa_1" enable-background="new 0 0 512 512" viewBox="0 0 512 512" width="100%" height="100%" xmlns="http://www.w3.org/2000/svg"><g><path d="m111 417h290v-146h-290zm49-112h48c8.284 0 15 6.716 15 15s-6.716 15-15 15h-48c-8.284 0-15-6.716-15-15s6.716-15 15-15z"/><path d="m337 0c-8.54 0-20.211 0-34 0v96c0 8.284-6.716 15-15 15s-15-6.716-15-15v-96c-29.918 0-64.752 0-98 0v145h162z"/><path d="m490.647 133.435c-.09-.091-101.228-102.018-123.647-124.612v151.177c0 8.284-6.716 15-15 15h-192c-8.284 0-15-6.716-15-15v-160c-51.645 0-93.734 0-98 0-16.542 0-30 13.458-30 30v452c0 16.542 13.458 30 30 30h418c16.542 0 30-13.458 30-30v-338c0-3.958-1.564-7.755-4.353-10.565zm-59.647 298.565c0 8.284-6.716 15-15 15h-320c-8.284 0-15-6.716-15-15v-176c0-8.284 6.716-15 15-15h320c8.284 0 15 6.716 15 15z"/></g></svg>