<svg id="Capa_1" enable-background="new 0 0 512 512" viewBox="0 0 512 512" width="40" height="40" xmlns="http://www.w3.org/2000/svg"><g><g><path d="m276.537 431.28 6.135-32.643c.086-.456.129-.919.129-1.383 0-7.823-6.364-14.189-14.188-14.189h-22.776l5.953-35.481c.684-4.077-2.066-7.937-6.143-8.621-4.079-.68-7.937 2.066-8.621 6.143l-6.292 37.501c-.069.409-.103.823-.103 1.239 0 7.823 6.365 14.189 14.188 14.189h22.733l-5.834 31.039c-.037.2-.066.4-.088.601h-108.368l5.834-31.039c.038-.2.067-.4.088-.601h23.052c7.577 0 13.785-5.97 14.169-13.453l42.387-252.624c.069-.409.103-.823.103-1.239 0-7.823-6.365-14.189-14.188-14.189h-75.348c-7.405 0-13.503 5.703-14.134 12.946l-6.887 23.944c-.121.421-.205.852-.25 1.286h-31.384l4.086-20.794c.797-4.056-1.846-7.991-5.902-8.788-4.056-.792-7.991 1.845-8.788 5.901l-4.523 23.02c-.094.476-.14.959-.14 1.444 0 7.823 6.365 14.188 14.188 14.188h33.204c7.405 0 13.503-5.702 14.134-12.945l6.887-23.944c.121-.422.205-.853.25-1.287h73.588l-42.133 251.106c-.025.152-.046.304-.062.457h-23.052c-7.548 0-13.738 5.924-14.165 13.366l-6.135 32.643c-.086.456-.129.919-.129 1.383 0 7.823 6.365 14.189 14.188 14.189h110.17c7.55.001 13.739-5.923 14.167-13.365z"/><path d="m354.452 155.49c0 7.823 6.365 14.188 14.189 14.188h33.204c7.535 0 13.716-5.903 14.163-13.328l14.414-73.364c.094-.476.14-.959.14-1.443 0-7.823-6.365-14.189-14.189-14.189h-306.22c-7.535 0-13.717 5.904-14.163 13.329l-3.114 15.85c-.797 4.057 1.845 7.991 5.902 8.788 4.054.796 7.991-1.845 8.788-5.901l3.229-16.434c.043-.219.076-.439.099-.662h304.4l-14.092 71.722c-.043.219-.076.44-.099.661h-31.442l3.845-22.74c.069-.412.104-.829.104-1.248 0-7.823-6.365-14.189-14.189-14.189h-72.131c-7.576 0-13.784 5.97-14.169 13.452l-30.327 180.746c-.684 4.077 2.066 7.937 6.143 8.621.42.07.836.104 1.248.104 3.59 0 6.76-2.59 7.374-6.247l30.411-181.248c.025-.152.047-.304.062-.457h70.369l-3.845 22.741c-.069.413-.104.83-.104 1.248z"/><path d="m236.178 474.072h-24.777c-4.134 0-7.485 3.351-7.485 7.485s3.351 7.485 7.485 7.485h24.777c4.134 0 7.485-3.351 7.485-7.485s-3.351-7.485-7.485-7.485z"/><path d="m171.758 474.072h-24.777c-4.134 0-7.485 3.351-7.485 7.485s3.351 7.485 7.485 7.485h24.777c4.134 0 7.485-3.351 7.485-7.485s-3.351-7.485-7.485-7.485z"/><path d="m107.338 474.072h-24.777c-4.134 0-7.485 3.351-7.485 7.485s3.351 7.485 7.485 7.485h24.777c4.134 0 7.485-3.351 7.485-7.485s-3.351-7.485-7.485-7.485z"/><path d="m429.438 474.072h-24.776c-4.135 0-7.485 3.351-7.485 7.485s3.351 7.485 7.485 7.485h24.776c4.135 0 7.485-3.351 7.485-7.485s-3.351-7.485-7.485-7.485z"/><path d="m300.598 474.072h-24.777c-4.134 0-7.485 3.351-7.485 7.485s3.351 7.485 7.485 7.485h24.777c4.134 0 7.485-3.351 7.485-7.485s-3.35-7.485-7.485-7.485z"/><path d="m365.018 474.072h-24.777c-4.134 0-7.485 3.351-7.485 7.485s3.351 7.485 7.485 7.485h24.777c4.134 0 7.485-3.351 7.485-7.485s-3.351-7.485-7.485-7.485z"/><path d="m22.958 365.018c0 4.135 3.351 7.485 7.485 7.485s7.485-3.351 7.485-7.485v-24.777c0-4.135-3.351-7.485-7.485-7.485s-7.485 3.351-7.485 7.485z"/><path d="m22.958 171.759c0 4.134 3.351 7.485 7.485 7.485s7.485-3.351 7.485-7.485v-24.778c0-4.134-3.351-7.485-7.485-7.485s-7.485 3.351-7.485 7.485z"/><path d="m22.958 429.438c0 4.135 3.351 7.485 7.485 7.485s7.485-3.351 7.485-7.485v-24.776c0-4.135-3.351-7.485-7.485-7.485s-7.485 3.351-7.485 7.485z"/><path d="m22.958 236.179c0 4.134 3.351 7.485 7.485 7.485s7.485-3.351 7.485-7.485v-24.777c0-4.135-3.351-7.485-7.485-7.485s-7.485 3.351-7.485 7.485z"/><path d="m30.443 114.824c4.134 0 7.485-3.351 7.485-7.485v-24.778c0-4.134-3.351-7.485-7.485-7.485s-7.485 3.351-7.485 7.485v24.777c0 4.135 3.351 7.486 7.485 7.486z"/><path d="m22.958 300.599c0 4.135 3.351 7.485 7.485 7.485s7.485-3.351 7.485-7.485v-24.778c0-4.134-3.351-7.485-7.485-7.485s-7.485 3.351-7.485 7.485z"/><path d="m275.822 37.928h24.776c4.134 0 7.485-3.351 7.485-7.485s-3.351-7.485-7.485-7.485h-24.776c-4.134 0-7.485 3.351-7.485 7.485s3.35 7.485 7.485 7.485z"/><path d="m211.402 37.928h24.776c4.134 0 7.485-3.351 7.485-7.485s-3.351-7.485-7.485-7.485h-24.776c-4.134 0-7.485 3.351-7.485 7.485s3.351 7.485 7.485 7.485z"/><path d="m340.242 37.928h24.777c4.134 0 7.485-3.351 7.485-7.485s-3.351-7.485-7.485-7.485h-24.777c-4.134 0-7.485 3.351-7.485 7.485s3.351 7.485 7.485 7.485z"/><path d="m429.439 22.958h-24.777c-4.135 0-7.485 3.351-7.485 7.485s3.351 7.485 7.485 7.485h24.777c4.135 0 7.485-3.351 7.485-7.485s-3.351-7.485-7.485-7.485z"/><path d="m82.562 37.928h24.777c4.134 0 7.485-3.351 7.485-7.485s-3.351-7.485-7.485-7.485h-24.777c-4.134 0-7.485 3.351-7.485 7.485s3.351 7.485 7.485 7.485z"/><path d="m146.981 37.928h24.777c4.134 0 7.485-3.351 7.485-7.485s-3.351-7.485-7.485-7.485h-24.777c-4.134 0-7.485 3.351-7.485 7.485s3.352 7.485 7.485 7.485z"/><path d="m489.042 275.821c0-4.134-3.351-7.485-7.485-7.485s-7.485 3.351-7.485 7.485v24.777c0 4.135 3.351 7.485 7.485 7.485s7.485-3.351 7.485-7.485z"/><path d="m489.042 340.241c0-4.135-3.351-7.485-7.485-7.485s-7.485 3.351-7.485 7.485v24.778c0 4.135 3.351 7.485 7.485 7.485s7.485-3.351 7.485-7.485z"/><path d="m481.557 397.176c-4.135 0-7.485 3.351-7.485 7.485v24.777c0 4.135 3.351 7.485 7.485 7.485s7.485-3.351 7.485-7.485v-24.777c0-4.134-3.35-7.485-7.485-7.485z"/><path d="m489.042 211.401c0-4.135-3.351-7.485-7.485-7.485s-7.485 3.351-7.485 7.485v24.778c0 4.134 3.351 7.485 7.485 7.485s7.485-3.351 7.485-7.485z"/><path d="m489.042 82.561c0-4.134-3.351-7.485-7.485-7.485s-7.485 3.351-7.485 7.485v24.776c0 4.135 3.351 7.485 7.485 7.485s7.485-3.351 7.485-7.485z"/><path d="m489.042 146.982c0-4.134-3.351-7.485-7.485-7.485s-7.485 3.351-7.485 7.485v24.777c0 4.134 3.351 7.485 7.485 7.485s7.485-3.351 7.485-7.485z"/><path d="m480.605 62.382c17.199 0 31.192-13.992 31.192-31.191 0-17.2-13.992-31.192-31.192-31.192-17.199 0-31.191 13.992-31.191 31.192 0 17.199 13.992 31.191 31.191 31.191zm0-47.411c8.944 0 16.221 7.277 16.221 16.221 0 8.943-7.277 16.22-16.221 16.22-8.943 0-16.22-7.277-16.22-16.22 0-8.945 7.276-16.221 16.22-16.221z"/><path d="m31.395 0c-17.199 0-31.192 13.992-31.192 31.192 0 17.199 13.993 31.191 31.191 31.191 17.199 0 31.191-13.992 31.191-31.191.001-17.2-13.992-31.192-31.19-31.192zm0 47.412c-8.944 0-16.221-7.277-16.221-16.22 0-8.944 7.277-16.221 16.221-16.221s16.221 7.277 16.221 16.221c-.001 8.943-7.278 16.22-16.221 16.22z"/><path d="m480.605 449.618c-17.199 0-31.191 13.992-31.191 31.191s13.992 31.192 31.191 31.192 31.192-13.992 31.192-31.192c0-17.199-13.993-31.191-31.192-31.191zm0 47.411c-8.943 0-16.22-7.277-16.22-16.221 0-8.943 7.277-16.22 16.22-16.22 8.944 0 16.221 7.277 16.221 16.22 0 8.945-7.277 16.221-16.221 16.221z"/><path d="m31.395 449.618c-17.199 0-31.191 13.992-31.191 31.191-.001 17.199 13.992 31.191 31.191 31.191s31.191-13.992 31.191-31.192c0-17.198-13.993-31.19-31.191-31.19zm0 47.411c-8.944 0-16.221-7.277-16.221-16.221 0-8.943 7.277-16.22 16.221-16.22s16.221 7.277 16.221 16.22c-.001 8.945-7.278 16.221-16.221 16.221z"/></g></g></svg>