<svg width="35" height="38" viewBox="0 0 35 38" fill="none" xmlns="http://www.w3.org/2000/svg">
<path d="M33.8696 26.4347H29.7392V22.3043C29.7392 20.0277 27.8855 18.1739 25.6088 18.1739H18.174V11.5653H22.3044C22.7604 11.5653 23.1305 11.1951 23.1305 10.7392V0.826112C23.1304 0.370113 22.7603 0 22.3043 0H12.3913C11.9353 0 11.5652 0.370113 11.5652 0.826112V10.7392C11.5652 11.1951 11.9353 11.5653 12.3913 11.5653H16.5217V18.1739H9.08693C6.81026 18.1739 4.95652 20.0277 4.95652 22.3043V26.4347H0.826112C0.370113 26.4347 0 26.8049 0 27.2609V37.1739C0 37.6299 0.370113 38 0.826112 38H10.7391C11.1951 38 11.5653 37.6299 11.5653 37.1739V27.2609C11.5653 26.8049 11.1951 26.4347 10.7391 26.4347H6.60874V22.3043C6.60874 20.938 7.72063 19.8261 9.087 19.8261H25.6087C26.9751 19.8261 28.087 20.938 28.087 22.3043V26.4347H23.9566C23.5006 26.4347 23.1304 26.8049 23.1304 27.2609V37.1739C23.1304 37.6299 23.5006 38 23.9566 38H33.8696C34.3256 38 34.6957 37.6299 34.6957 37.1739V27.2609C34.6956 26.8049 34.3256 26.4347 33.8696 26.4347ZM9.91304 28.087V36.3479H1.65222V28.087H9.91304ZM13.2174 9.91304V1.65215H21.4783V9.91304H13.2174ZM33.0435 36.3478H24.7826V28.087H33.0435V36.3478Z" fill="#343B4C"/>
</svg>
