<svg width="36" height="36" viewBox="0 0 36 36" fill="none" xmlns="http://www.w3.org/2000/svg">
<path d="M1.56522 0H34.4348C35.298 0 36 0.702 36 1.56523V34.4348C36 35.298 35.298 36 34.4355 36H1.56522C0.702 36 0 35.298 0 34.4348V1.56523C0 0.702 0.702 0 1.56522 0ZM23.4783 25.0435V17.2174H12.5217V25.0435H23.4783ZM12.5217 26.6087V34.4348H23.4783V26.6087H12.5217ZM12.5217 7.82606V15.6521H23.4783V7.82606H12.5217ZM1.56522 7.82606V15.6521H10.9565V7.82606H1.56522ZM25.0435 15.6522H34.4348V7.82606H25.0435V15.6522ZM34.4348 17.2174H25.0435V25.0435H34.4348V17.2174ZM10.9565 17.2174H1.56522V25.0435H10.9565V17.2174ZM1.56522 1.56523V6.26091H34.4348V1.56523H1.56522ZM34.4348 26.6087H25.0435V34.4348H34.4348V26.6087ZM10.9565 34.4348V26.6087H1.56522V34.4348H10.9565Z" fill="#343B4C"/>
</svg>
