<svg width="29" height="38" viewBox="0 0 29 38" fill="none" xmlns="http://www.w3.org/2000/svg">
<path d="M27.7083 9.5H19.7917C19.3547 9.5 19 9.14375 19 8.70831V0.791691C19 0.354691 18.6453 0 18.2083 0H2.375C1.06556 0 0 1.06556 0 2.375V35.625C0 36.9344 1.06556 38 2.375 38H26.125C27.4344 38 28.5 36.9344 28.5 35.625V10.2917C28.5 9.85469 28.1453 9.5 27.7083 9.5ZM26.9167 35.625C26.9167 36.0604 26.562 36.4167 26.125 36.4167H2.375C1.938 36.4167 1.58331 36.0604 1.58331 35.625V2.375C1.58331 1.93956 1.938 1.58331 2.375 1.58331H17.4167V8.70831C17.4167 10.0177 18.4823 11.0833 19.7917 11.0833H26.9167V35.625Z" fill="#343B4C"/>
<path d="M28.2672 9.73275L18.7672 0.232753C18.4585 -0.0759973 17.9565 -0.0759973 17.6478 0.232753C17.339 0.541503 17.339 1.04344 17.6478 1.35219L27.1478 10.8522C27.303 11.0058 27.5056 11.0834 27.7083 11.0834C27.911 11.0834 28.1136 11.0058 28.2672 10.8522C28.576 10.5434 28.576 10.0415 28.2672 9.73275Z" fill="#343B4C"/>
<path d="M21.375 14.25H7.12497C6.68797 14.25 6.33328 14.6047 6.33328 15.0417C6.33328 15.4787 6.68797 15.8334 7.12497 15.8334H21.375C21.812 15.8334 22.1667 15.4787 22.1667 15.0417C22.1667 14.6047 21.812 14.25 21.375 14.25Z" fill="#343B4C"/>
<path d="M21.375 20.5833H7.12497C6.68797 20.5833 6.33328 20.938 6.33328 21.375C6.33328 21.812 6.68797 22.1667 7.12497 22.1667H21.375C21.812 22.1667 22.1667 21.812 22.1667 21.375C22.1667 20.938 21.812 20.5833 21.375 20.5833Z" fill="#343B4C"/>
<path d="M21.375 26.9167H7.12497C6.68797 26.9167 6.33328 27.2714 6.33328 27.7084C6.33328 28.1454 6.68797 28.5001 7.12497 28.5001H21.375C21.812 28.5001 22.1667 28.1454 22.1667 27.7084C22.1667 27.2713 21.812 26.9167 21.375 26.9167Z" fill="#343B4C"/>
</svg>
