<svg width="39" height="32" viewBox="0 0 39 32" fill="none" xmlns="http://www.w3.org/2000/svg">
<path d="M33.6 23.2L33.6 8.79999C33.6 6.59519 31.8048 4.79999 29.6 4.79999L8.80002 4.79999C6.59522 4.79999 4.80002 6.59519 4.80002 8.79999L4.80002 23.2C4.80002 25.4048 6.59522 27.2 8.80002 27.2L29.6 27.2C31.8048 27.2 33.6 25.4048 33.6 23.2ZM6.40002 8.79999C6.40002 7.47679 7.47682 6.39999 8.80002 6.39999L29.6 6.39999C30.9232 6.39999 32 7.47679 32 8.79999L32 23.2C32 24.5232 30.9232 25.6 29.6 25.6L8.80002 25.6C7.47682 25.6 6.40002 24.5232 6.40002 23.2L6.40002 8.79999Z" fill="#343B4C"/>
<path d="M6.4 13.6C6.4 13.1584 6.0416 12.8 5.6 12.8L0.8 12.8C0.3584 12.8 -1.56662e-08 13.1584 -3.49692e-08 13.6C-5.42721e-08 14.0416 0.3584 14.4 0.8 14.4L5.6 14.4C6.0416 14.4 6.4 14.0416 6.4 13.6Z" fill="#343B4C"/>
<path d="M6.4 18.4C6.4 17.9584 6.0416 17.6 5.6 17.6L0.8 17.6C0.3584 17.6 -1.56661e-08 17.9584 -3.4969e-08 18.4C-5.42718e-08 18.8416 0.3584 19.2 0.8 19.2L5.6 19.2C6.0416 19.2 6.4 18.8416 6.4 18.4Z" fill="#343B4C"/>
<path d="M38.4 13.6C38.4 13.1584 38.0416 12.8 37.6 12.8L32.8 12.8C32.3584 12.8 32 13.1584 32 13.6C32 14.0416 32.3584 14.4 32.8 14.4L37.6 14.4C38.0416 14.4 38.4 14.0416 38.4 13.6Z" fill="#343B4C"/>
<path d="M38.4 18.4C38.4 17.9584 38.0416 17.6 37.6 17.6L32.8 17.6C32.3584 17.6 32 17.9584 32 18.4C32 18.8416 32.3584 19.2 32.8 19.2L37.6 19.2C38.0416 19.2 38.4 18.8416 38.4 18.4Z" fill="#343B4C"/>
<path d="M12.8 31.2L12.8 26.4C12.8 25.9584 12.4416 25.6 12 25.6C11.5584 25.6 11.2 25.9584 11.2 26.4L11.2 31.2C11.2 31.6416 11.5584 32 12 32C12.4416 32 12.8 31.6416 12.8 31.2Z" fill="#343B4C"/>
<path d="M17.6 31.2L17.6 26.4C17.6 25.9584 17.2416 25.6 16.8 25.6C16.3584 25.6 16 25.9584 16 26.4L16 31.2C16 31.6416 16.3584 32 16.8 32C17.2416 32 17.6 31.6416 17.6 31.2Z" fill="#343B4C"/>
<path d="M22.4 31.2L22.4 26.4C22.4 25.9584 22.0416 25.6 21.6 25.6C21.1584 25.6 20.8 25.9584 20.8 26.4L20.8 31.2C20.8 31.6416 21.1584 32 21.6 32C22.0416 32 22.4 31.6416 22.4 31.2Z" fill="#343B4C"/>
<path d="M27.2 31.2L27.2 26.4C27.2 25.9584 26.8416 25.6 26.4 25.6C25.9584 25.6 25.6 25.9584 25.6 26.4L25.6 31.2C25.6 31.6416 25.9584 32 26.4 32C26.8416 32 27.2 31.6416 27.2 31.2Z" fill="#343B4C"/>
<path d="M12.8 5.6L12.8 0.799999C12.8 0.3584 12.4416 5.42721e-08 12 3.49692e-08C11.5584 1.56662e-08 11.2 0.3584 11.2 0.799999L11.2 5.6C11.2 6.04159 11.5584 6.39999 12 6.39999C12.4416 6.39999 12.8 6.0416 12.8 5.6Z" fill="#343B4C"/>
<path d="M17.6 5.6L17.6 0.799999C17.6 0.3584 17.2416 5.42721e-08 16.8 3.49692e-08C16.3584 1.56662e-08 16 0.3584 16 0.799999L16 5.6C16 6.04159 16.3584 6.39999 16.8 6.39999C17.2416 6.39999 17.6 6.0416 17.6 5.6Z" fill="#343B4C"/>
<path d="M22.4 5.6L22.4 0.799999C22.4 0.3584 22.0416 5.42719e-08 21.6 3.4969e-08C21.1584 1.56661e-08 20.8 0.3584 20.8 0.799999L20.8 5.6C20.8 6.04159 21.1584 6.39999 21.6 6.39999C22.0416 6.39999 22.4 6.0416 22.4 5.6Z" fill="#343B4C"/>
<path d="M27.2 5.6L27.2 0.799999C27.2 0.3584 26.8416 5.42719e-08 26.4 3.4969e-08C25.9584 1.56661e-08 25.6 0.3584 25.6 0.799999L25.6 5.6C25.6 6.04159 25.9584 6.39999 26.4 6.39999C26.8416 6.39999 27.2 6.0416 27.2 5.6Z" fill="#343B4C"/>
</svg>
