<svg width="29" height="32" viewBox="0 0 29 32" fill="none" xmlns="http://www.w3.org/2000/svg">
<path d="M9.08069 4.67769C9.72581 4.43119 10.4482 4.75387 10.6948 5.39875C10.9413 6.0435 10.6185 6.76619 9.97375 7.01275C5.55532 8.70244 2.5 12.9615 2.5 17.875C2.5 24.2851 7.71494 29.5 14.125 29.5C20.5351 29.5 25.75 24.2851 25.75 17.875C25.75 12.9588 22.6933 8.70212 18.2767 7.01294C17.6319 6.76631 17.3091 6.04362 17.5557 5.39887C17.8024 4.75406 18.5252 4.43137 19.1698 4.67787C24.5509 6.73606 28.25 11.9182 28.25 17.875C28.25 25.6826 21.9319 32 14.125 32C6.31738 32 5.72205e-06 25.6819 5.72205e-06 17.875C5.72205e-06 11.9156 3.70138 6.73494 9.08069 4.67769Z" fill="#343B4C"/>
<path d="M14.125 0C14.8154 0 15.375 0.559625 15.375 1.25V13.4907C15.375 14.1811 14.8154 14.7407 14.125 14.7407C13.4346 14.7407 12.875 14.181 12.875 13.4907V1.25C12.875 0.559625 13.4346 0 14.125 0Z" fill="#343B4C"/>
</svg>
