<svg id="Capa_1" enable-background="new 0 0 512 512" viewBox="0 0 512 512" width="100%" height="100%" xmlns="http://www.w3.org/2000/svg"><path d="m318.839 133.688c2.33-6.892 1.314-14.219-2.86-20.258-4.534-6.562-12.172-10.461-20.467-10.461-.133 0-.265 0-.397.004-5.652.183-11.298 2.92-16.779 8.136-39.751 37.821-79.095 74.872-118.665 112.36-5.884 5.575-8.794 13.071-7.985 20.566.8 7.401 5.16 14.001 11.962 18.109 20.746 12.527 41.771 24.308 62.582 36.237-9.716 22.745-18.483 44.113-27.524 65.908-39.85-21.12-65.206-62.801-65.206-108.289 0-28.191 9.807-55.71 27.616-77.489 17.567-21.484 42.092-36.501 69.057-42.286 4.05-.869 6.629-4.856 5.76-8.906-.868-4.05-4.853-6.629-8.906-5.76-30.279 6.495-57.811 23.349-77.523 47.457-19.993 24.45-31.004 55.342-31.004 86.984 0 51.611 29.084 98.853 74.654 122.304-3.702 11.059 1.347 23.056 12.095 28.26 9.241 4.474 18.972 3.208 28.4-5.713 39.228-37.119 79.111-74.826 118.682-112.364 5.949-5.643 8.849-13.176 7.956-20.666-.906-7.604-5.597-14.364-12.871-18.546-20.713-11.91-41.072-23.756-61.638-35.647 9.244-21.758 18.623-43.604 27.558-65.898 39.826 21.13 65.164 62.799 65.164 108.27 0 28.076-9.736 55.508-27.415 77.242-17.433 21.433-41.801 36.488-68.615 42.392-4.045.891-6.603 4.892-5.712 8.938.897 4.075 4.975 6.584 8.938 5.712 30.108-6.629 57.463-23.526 77.026-47.576 19.847-24.401 30.778-55.195 30.778-86.708 0-51.613-29.087-98.858-74.661-122.312zm-14.337-4.429c-8.722 22.519-18.376 45.218-27.713 67.169-2.193 5.157-4.386 10.312-6.568 15.468-1.655 3.913-1.385 9.27 4.337 12.573 21.902 12.641 43.346 25.135 65.381 37.808 3.172 1.824 5.108 4.423 5.454 7.318.331 2.78-.871 5.624-3.385 8.009-39.548 37.52-79.474 75.269-118.668 112.351-5.615 5.312-8.907 4.39-11.554 3.108-4.058-1.964-5.864-6.331-4.296-10.383 10.865-28.081 22.153-53.828 34.318-82.63.798-1.89 2.841-8.38-4.389-12.541-21.949-12.631-44.175-25.014-66.017-38.206-2.8-1.691-4.505-4.134-4.802-6.878-.307-2.841.896-5.706 3.388-8.067 39.578-37.499 78.919-74.543 118.688-112.382 2.657-2.528 5.023-3.912 6.848-4.007 3.409.002 6.363 1.452 8.116 3.989.882 1.277 2.169 3.925.862 7.301zm183.385 63.633h-34.259c-3.807 0-7.266-2.46-8.606-6.121-1.912-5.223-4.067-10.426-6.406-15.465-1.645-3.542-.94-7.732 1.753-10.425l24.225-24.224c9.401-9.402 9.401-24.7 0-34.101l-55.148-55.148c-9.401-9.401-24.699-9.401-34.101 0l-24.225 24.223c-2.693 2.694-6.884 3.396-10.426 1.753-5.04-2.339-10.243-4.495-15.464-6.406-3.661-1.34-6.121-4.799-6.121-8.606v-34.259c-.001-13.296-10.818-24.113-24.114-24.113h-77.99c-13.296 0-24.113 10.817-24.113 24.113v34.259c0 3.807-2.46 7.266-6.121 8.606-5.221 1.911-10.424 4.066-15.464 6.406-3.542 1.644-7.733.94-10.426-1.753l-24.224-24.225c-9.402-9.401-24.7-9.401-34.101 0l-55.148 55.148c-9.401 9.401-9.401 24.699 0 34.101l24.225 24.224c2.693 2.693 3.397 6.883 1.753 10.426-2.339 5.039-4.494 10.242-6.406 15.465-1.34 3.661-4.799 6.121-8.606 6.121h-34.261c-13.296.001-24.113 10.818-24.113 24.114v77.99c0 13.296 10.817 24.113 24.113 24.113h34.259c3.807 0 7.266 2.46 8.606 6.121 1.912 5.223 4.067 10.426 6.406 15.465 1.645 3.543.94 7.732-1.753 10.426l-24.225 24.224c-9.401 9.402-9.401 24.7 0 34.101l55.148 55.148c9.401 9.401 24.699 9.401 34.101 0l24.224-24.225c2.693-2.693 6.883-3.396 10.426-1.753 5.039 2.339 10.242 4.494 15.465 6.406 3.661 1.34 6.121 4.799 6.121 8.606v34.259c0 13.296 10.817 24.113 24.113 24.113h77.99c13.296 0 24.113-10.817 24.113-24.113v-34.259c0-3.807 2.46-7.266 6.121-8.606 5.223-1.912 10.426-4.067 15.465-6.406 3.542-1.645 7.732-.94 10.425 1.753l24.224 24.225c9.402 9.401 24.7 9.401 34.101 0l55.148-55.148c9.401-9.401 9.401-24.699 0-34.101l-24.225-24.224c-2.693-2.693-3.397-6.883-1.753-10.426 2.339-5.039 4.494-10.242 6.406-15.465 1.34-3.661 4.799-6.121 8.606-6.121h34.259c13.296 0 24.113-10.817 24.113-24.113v-77.99c.003-13.296-10.814-24.113-24.11-24.113zm9.113 102.103c0 5.025-4.088 9.113-9.113 9.113h-34.259c-10.077 0-19.197 6.416-22.692 15.965-1.769 4.832-3.762 9.645-5.925 14.305-4.285 9.23-2.375 20.221 4.752 27.348l24.224 24.224c3.553 3.553 3.554 9.335 0 12.888l-55.148 55.148c-3.554 3.554-9.334 3.553-12.888 0l-24.224-24.225c-7.126-7.127-18.115-9.037-27.348-4.752-4.661 2.163-9.474 4.157-14.306 5.925-9.549 3.495-15.965 12.615-15.965 22.692v34.259c0 5.025-4.088 9.113-9.113 9.113h-77.99c-5.025 0-9.113-4.088-9.113-9.113v-34.259c0-10.077-6.416-19.197-15.965-22.692-4.832-1.769-9.645-3.762-14.305-5.925-3.285-1.525-6.792-2.265-10.269-2.265-6.293 0-12.488 2.426-17.079 7.017l-24.224 24.224c-3.553 3.553-9.335 3.554-12.888 0l-55.148-55.148c-3.553-3.553-3.553-9.335 0-12.888l24.225-24.224c7.127-7.127 9.037-18.117 4.752-27.348-2.163-4.661-4.157-9.474-5.925-14.306-3.495-9.549-12.615-15.965-22.692-15.965h-34.261c-5.025 0-9.113-4.088-9.113-9.113v-77.99c0-5.025 4.088-9.113 9.113-9.113h34.259c10.077 0 19.197-6.416 22.692-15.965 1.769-4.832 3.762-9.645 5.925-14.305 4.285-9.23 2.375-20.221-4.752-27.348l-24.224-24.224c-3.553-3.553-3.554-9.335 0-12.888l55.148-55.148c3.554-3.553 9.335-3.552 12.888 0l24.224 24.225c7.127 7.126 18.117 9.037 27.348 4.751 4.662-2.164 9.475-4.157 14.305-5.925 9.549-3.495 15.965-12.615 15.965-22.692v-34.258c0-5.025 4.088-9.113 9.113-9.113h77.99c5.025 0 9.113 4.088 9.113 9.113v34.259c0 10.077 6.416 19.197 15.965 22.692 4.83 1.768 9.643 3.762 14.305 5.925 9.231 4.284 20.221 2.375 27.348-4.752l24.224-24.224c3.553-3.553 9.335-3.554 12.888 0l55.148 55.148c3.553 3.553 3.553 9.335 0 12.888l-24.225 24.224c-7.127 7.127-9.037 18.117-4.752 27.348 2.163 4.661 4.157 9.474 5.925 14.306 3.495 9.549 12.615 15.965 22.692 15.965h34.259c5.025 0 9.113 4.088 9.113 9.113v77.99z"/></svg>