<svg width="100" height="24" viewBox="0 0 100 24" fill="none" xmlns="http://www.w3.org/2000/svg">
<path d="M50.0037 7.79712L47.5969 13.322C47.5969 14.6554 47.9031 15.6822 48.5239 16.3872C48.728 16.6247 49.0427 16.8469 49.4764 17.0538L48.779 19.0155C48.1582 18.8086 47.6224 18.4485 47.1631 17.9274C46.874 17.5902 46.6018 17.1994 46.3552 16.7397C45.8109 17.5596 45.1986 18.1266 44.5012 18.4255C43.9739 18.663 43.3275 18.778 42.5536 18.778C40.9972 18.778 39.696 18.2799 38.6669 17.2761C37.5528 16.2109 37 14.7703 37 12.9465C37 12.3105 37.0425 11.7358 37.1276 11.2377C37.2126 10.7397 37.3657 10.2646 37.5783 9.82011C38.0291 8.9159 38.6329 8.22624 39.4068 7.75115C40.1808 7.27605 41.0738 7.0385 42.0943 7.0385C43.0384 7.0385 43.8548 7.20709 44.5437 7.53659C45.5132 7.99636 46.2276 8.74732 46.6699 9.78946L48.0902 6.98486L50.0037 7.79712ZM45.4027 13.299C45.4197 13.2454 45.4282 13.1534 45.4282 13.0308C45.4282 12.9619 45.4282 12.9082 45.4282 12.8623C45.4282 12.8239 45.4197 12.778 45.4027 12.7397C45.4027 11.7665 45.0965 10.9006 44.4927 10.142C43.8803 9.38333 43.2085 9.00785 42.4685 9.00785C41.5926 9.00785 40.8782 9.34502 40.3424 10.027C39.7555 10.7626 39.4664 11.7895 39.4664 13.1151C39.4664 14.3259 39.764 15.2531 40.3679 15.8891C40.9037 16.4561 41.584 16.7473 42.4005 16.7473C42.9703 16.7473 43.4381 16.5941 43.7868 16.2875C44.3651 15.7665 44.9094 14.778 45.4027 13.299Z" fill="white"/>
<path d="M61.9699 18.6169H59.4525L56.8331 12.1724L56.2122 10.4023L55.5659 12.2184L53.0229 18.6169H50.3354L54.962 7.56705C54.8685 7.36015 54.7069 6.96935 54.4772 6.4023C54.3667 6.14176 54.2816 5.96552 54.2221 5.88123C53.8989 5.42146 53.3801 5.19157 52.6742 5.19157C52.4276 5.19157 51.9513 5.26054 51.2369 5.39847L51.5176 3.2682C51.8748 3.16858 52.164 3.09962 52.3851 3.0613C52.6062 3.02299 52.8273 3 53.0485 3C54.3752 3 55.4128 3.62069 56.1527 4.85441C56.4333 5.28353 56.816 6.11111 57.3093 7.33717L61.9699 18.6169Z" fill="white"/>
<path d="M72.3627 9.23778H68.7737V15.3451C68.7737 15.7895 68.7907 16.073 68.8162 16.2033C68.8502 16.3259 68.9353 16.4408 69.0969 16.5405C69.2499 16.6094 69.4541 16.6477 69.7007 16.6477C69.8878 16.6477 70.245 16.6094 70.7893 16.5405L71.1635 18.5634C70.8828 18.6171 70.5001 18.6707 70.0069 18.709C69.5136 18.7474 69.1734 18.7703 68.9863 18.7703C68.2124 18.7703 67.6085 18.6631 67.1663 18.4485C66.724 18.2339 66.4094 17.9198 66.2052 17.4983C66.1117 17.2914 66.0437 17.0156 66.0011 16.6631C65.9586 16.3182 65.9331 15.8431 65.9331 15.2454V9.23778L64.2662 9.21479C63.909 9.21479 63.5773 9.36038 63.2711 9.65157C63.1776 9.75119 63.0585 9.90444 62.8969 10.1113L61.281 8.63241C61.5872 8.25693 61.8508 7.98107 62.0719 7.79716C62.7523 7.23778 63.4837 6.96191 64.2747 6.96191L72.3712 6.9849V9.23778H72.3627Z" fill="white"/>
<path d="M84.2608 9.67416C84.6775 10.5784 84.8816 11.6205 84.8816 12.8006C84.8816 14.0266 84.6605 15.0841 84.2098 15.973C83.759 16.8619 83.1041 17.5669 82.2452 18.0803C81.3777 18.5937 80.4507 18.8542 79.4471 18.8542C78.8433 18.8542 78.367 18.8006 78.0098 18.6857C77.5165 18.5324 77.0148 18.2335 76.5045 17.7891V22.9998H73.7064L73.7319 12.3025C73.7319 10.1493 74.5399 8.60136 76.1643 7.67416C77.1678 7.10711 78.3075 6.81592 79.5917 6.81592C80.6548 6.81592 81.5903 7.06113 82.4068 7.55921C83.2062 8.04963 83.827 8.75462 84.2608 9.67416ZM81.4627 9.62818C80.8844 8.99216 80.1955 8.67032 79.3791 8.67032C78.5796 8.67032 77.8652 9.00749 77.2529 9.68948C76.9637 10.0266 76.7341 10.4941 76.5725 11.0994C76.4109 11.7048 76.3259 12.3638 76.3259 13.0688C76.3259 14.4021 76.615 15.383 77.2019 16.0113C77.7887 16.6397 78.4861 16.9462 79.2855 16.9462C80.119 16.9462 80.8334 16.6243 81.4372 15.9883C81.7264 15.6512 81.956 15.2067 82.1176 14.632C82.2792 14.065 82.3642 13.4366 82.3642 12.7546C82.3642 12.0726 82.2877 11.4673 82.1431 10.9385C81.9985 10.4175 81.7689 9.98067 81.4627 9.62818Z" fill="white"/>
<path d="M99.3056 9.19172L97.9193 9.16873L97.8938 18.617H95.2744V9.1764H90.971V18.6247H88.4026V9.19938C88.2495 9.19938 88.0624 9.25302 87.8327 9.35264C87.6116 9.45992 87.348 9.64383 87.0588 9.90436L85.3494 8.36413C85.9787 7.80475 86.54 7.44459 87.0163 7.26835C87.4926 7.0921 88.0369 7.00781 88.6322 7.00781H99.3056V9.19172Z" fill="white"/>
<circle cx="12" cy="12" r="12" fill="#D9FF8D"/>
<path d="M17.6029 7.85L15.6775 12.2699C15.6775 13.3366 15.9224 14.1581 16.4191 14.722C16.5824 14.9121 16.8341 15.0899 17.1811 15.2554L16.6232 16.8247C16.1265 16.6592 15.6979 16.3711 15.3305 15.9542C15.0991 15.6845 14.8814 15.3718 14.6841 15.004C14.2487 15.66 13.7588 16.1136 13.2009 16.3527C12.7791 16.5427 12.262 16.6347 11.6428 16.6347C10.3977 16.6347 9.35675 16.2362 8.53349 15.4331C7.6422 14.581 7.19995 13.4285 7.19995 11.9695C7.19995 11.4607 7.23397 11.001 7.30201 10.6025C7.37005 10.204 7.49251 9.82395 7.66261 9.46839C8.02321 8.74502 8.50628 8.1933 9.12542 7.81322C9.74457 7.43315 10.459 7.24311 11.2754 7.24311C12.0306 7.24311 12.6838 7.37797 13.2349 7.64157C14.0105 8.00939 14.5821 8.61016 14.9358 9.44387L16.0721 7.2002L17.6029 7.85ZM13.9221 12.2515C13.9357 12.2086 13.9425 12.1351 13.9425 12.037C13.9425 11.9818 13.9425 11.9389 13.9425 11.9021C13.9425 11.8715 13.9357 11.8347 13.9221 11.804C13.9221 11.0255 13.6772 10.3328 13.1941 9.72587C12.7042 9.11897 12.1667 8.81859 11.5748 8.81859C10.874 8.81859 10.3025 9.08832 9.87384 9.63391C9.40438 10.2224 9.17305 11.0439 9.17305 12.1044C9.17305 13.073 9.41118 13.8148 9.89425 14.3236C10.3229 14.7772 10.8672 15.0102 11.5204 15.0102C11.9762 15.0102 12.3504 14.8876 12.6294 14.6423C13.092 14.2255 13.5275 13.4347 13.9221 12.2515Z" fill="#343B4C"/>
</svg>
