<svg width="24" height="24" viewBox="0 0 24 24" fill="none" xmlns="http://www.w3.org/2000/svg">
<circle cx="12" cy="12" r="12" fill="#D9FF8D"/>
<path d="M17.6029 7.84982L15.6775 12.2697C15.6775 13.3364 15.9224 14.1579 16.4191 14.7219C16.5824 14.9119 16.8341 15.0897 17.1811 15.2552L16.6232 16.8245C16.1265 16.659 15.6979 16.3709 15.3305 15.954C15.0991 15.6843 14.8814 15.3717 14.6841 15.0038C14.2487 15.6598 13.7588 16.1134 13.2009 16.3525C12.7791 16.5425 12.262 16.6345 11.6428 16.6345C10.3977 16.6345 9.35675 16.236 8.53349 15.433C7.6422 14.5809 7.19995 13.4284 7.19995 11.9694C7.19995 11.4605 7.23397 11.0008 7.30201 10.6023C7.37005 10.2038 7.49251 9.82377 7.66261 9.46821C8.02321 8.74484 8.50628 8.19312 9.12542 7.81304C9.74457 7.43296 10.459 7.24292 11.2754 7.24292C12.0306 7.24292 12.6838 7.37779 13.2349 7.64139C14.0105 8.00921 14.5821 8.60997 14.9358 9.44369L16.0721 7.20001L17.6029 7.84982ZM13.9221 12.2514C13.9357 12.2084 13.9425 12.1349 13.9425 12.0368C13.9425 11.9816 13.9425 11.9387 13.9425 11.9019C13.9425 11.8713 13.9357 11.8345 13.9221 11.8038C13.9221 11.0253 13.6772 10.3326 13.1941 9.72568C12.7042 9.11879 12.1667 8.8184 11.5748 8.8184C10.874 8.8184 10.3025 9.08813 9.87384 9.63373C9.40438 10.2222 9.17305 11.0437 9.17305 12.1042C9.17305 13.0728 9.41118 13.8146 9.89425 14.3234C10.3229 14.777 10.8672 15.01 11.5204 15.01C11.9762 15.01 12.3504 14.8874 12.6294 14.6422C13.092 14.2253 13.5275 13.4345 13.9221 12.2514Z" fill="#343B4C"/>
</svg>
