<svg width="80" height="27" viewBox="0 0 80 27" fill="none" xmlns="http://www.w3.org/2000/svg">
<g clip-path="url(#clip0_1_18)">
<path d="M13.2872 26.5744C20.6255 26.5744 26.5744 20.6255 26.5744 13.2872C26.5744 5.94888 20.6255 0 13.2872 0C5.94888 0 0 5.94888 0 13.2872C0 20.6255 5.94888 26.5744 13.2872 26.5744Z" fill="#87CA00"/>
<path d="M19.4912 8.69179L17.3592 13.5858C17.3592 14.7669 17.6304 15.6765 18.1803 16.301C18.3612 16.5114 18.6399 16.7082 19.0241 16.8915L18.4064 18.6292C17.8564 18.4459 17.3818 18.1269 16.975 17.6653C16.7188 17.3666 16.4778 17.0205 16.2593 16.6132C15.7771 17.3395 15.2347 17.8418 14.617 18.1065C14.1499 18.317 13.5773 18.4188 12.8918 18.4188C11.5131 18.4188 10.3605 17.9775 9.44892 17.0884C8.46201 16.1448 7.97232 14.8687 7.97232 13.2532C7.97232 12.6898 8.01 12.1807 8.08534 11.7395C8.16067 11.2983 8.29628 10.8775 8.48463 10.4838C8.88391 9.68282 9.4188 9.07192 10.1043 8.65107C10.7899 8.23023 11.5809 8.01979 12.485 8.01979C13.3212 8.01979 14.0444 8.16913 14.6546 8.46101C15.5135 8.86829 16.1463 9.53348 16.538 10.4566L17.7962 7.97229L19.4912 8.69179ZM15.4155 13.5655C15.4306 13.518 15.4381 13.4365 15.4381 13.3279C15.4381 13.2668 15.4381 13.2193 15.4381 13.1785C15.4381 13.1446 15.4306 13.1039 15.4155 13.07C15.4155 12.2079 15.1443 11.4409 14.6094 10.7689C14.067 10.0969 13.4719 9.76426 12.8164 9.76426C12.0405 9.76426 11.4076 10.0629 10.933 10.667C10.4132 11.3187 10.1571 12.2283 10.1571 13.4025C10.1571 14.475 10.4208 15.2964 10.9556 15.8598C11.4303 16.362 12.0329 16.62 12.7562 16.62C13.2609 16.62 13.6753 16.4842 13.9841 16.2127C14.4964 15.7511 14.9786 14.8755 15.4155 13.5655Z" fill="white"/>
<path d="M39.5449 18.7792C41.3786 18.7792 42.4548 17.7827 42.6143 17.404H42.6741V18.5799H45.7633V8.21591H42.6741V9.39183H42.6143C42.4548 9.01314 41.3786 8.0166 39.5449 8.0166C37.1931 8.0166 34.6021 9.79044 34.6021 13.3979C34.6021 17.0054 37.1931 18.7792 39.5449 18.7792ZM37.6515 13.3979C37.6515 11.7237 38.8673 10.7671 40.1827 10.7671C41.538 10.7671 42.7538 11.7038 42.7538 13.3979C42.7538 15.092 41.538 16.0288 40.1827 16.0288C38.8673 16.0288 37.6515 15.0721 37.6515 13.3979Z" fill="white"/>
<path d="M47.6349 18.5799H50.7242V4.42908H47.6349V18.5799Z" fill="white"/>
<path d="M56.9431 18.6995C57.6606 18.6995 58.5376 18.56 58.9362 18.1614V15.8096C58.5575 15.9291 58.1987 15.969 57.9596 15.969C57.0228 15.969 56.7239 15.4109 56.7239 14.8927V10.6674H58.8963V8.21592H56.7239V5.56512H53.6346V8.21592H52.0999V10.6674H53.6346V15.391C53.6346 17.7628 55.0297 18.6995 56.9431 18.6995Z" fill="white"/>
<path d="M60.3643 18.5799H63.4536V14.3147C63.4536 12.3615 64.6295 10.9863 66.6823 10.9863C66.9414 10.9863 67.1607 11.0062 67.3999 11.0461V8.11626C67.1408 8.03653 66.9016 8.0166 66.6624 8.0166C64.7889 8.0166 63.7924 9.35197 63.4536 11.0262V8.21591H60.3643V18.5799Z" fill="white"/>
<path d="M68.7726 22.3668H71.8619V17.404H71.9217C72.0811 17.7827 73.1574 18.7792 74.991 18.7792C77.3428 18.7792 79.9338 17.0054 79.9338 13.3979C79.9338 9.79044 77.3428 8.0166 74.991 8.0166C73.1574 8.0166 72.0811 9.01314 71.9217 9.39183H71.8619V8.21591H68.7726V22.3668ZM71.7821 13.3979C71.7821 11.7038 72.9979 10.7671 74.3532 10.7671C75.6687 10.7671 76.8844 11.7237 76.8844 13.3979C76.8844 15.0721 75.6687 16.0288 74.3532 16.0288C72.9979 16.0288 71.7821 15.092 71.7821 13.3979Z" fill="white"/>
</g>
<defs>
<clipPath id="clip0_1_18">
<rect width="80" height="26.5744" fill="white"/>
</clipPath>
</defs>
</svg>
