<svg width="33" height="33" viewBox="0 0 33 33" fill="none" xmlns="http://www.w3.org/2000/svg">
<g clip-path="url(#clip0_1_18)">
<path d="M16.609 33.218C25.7819 33.218 33.218 25.7819 33.218 16.609C33.218 7.4361 25.7819 0 16.609 0C7.4361 0 0 7.4361 0 16.609C0 25.7819 7.4361 33.218 16.609 33.218Z" fill="#87CA00"/>
<path d="M24.364 10.8647L21.699 16.9823C21.699 18.4586 22.038 19.5956 22.7254 20.3762C22.9514 20.6392 23.2999 20.8853 23.7801 21.1144L23.008 23.2865C22.3205 23.0574 21.7272 22.6586 21.2187 22.0817C20.8985 21.7083 20.5972 21.2756 20.3241 20.7665C19.7214 21.6744 19.0434 22.3022 18.2712 22.6331C17.6873 22.8962 16.9717 23.0235 16.1147 23.0235C14.3914 23.0235 12.9506 22.4719 11.8111 21.3604C10.5775 20.181 9.96539 18.5859 9.96539 16.5665C9.96539 15.8623 10.0125 15.2259 10.1067 14.6744C10.2008 14.1229 10.3703 13.5969 10.6058 13.1047C11.1049 12.1035 11.7735 11.3399 12.6304 10.8138C13.4874 10.2878 14.4762 10.0247 15.6062 10.0247C16.6515 10.0247 17.5555 10.2114 18.3183 10.5763C19.3918 11.0854 20.1829 11.9169 20.6725 13.0708L22.2452 9.96536L24.364 10.8647ZM19.2694 16.9568C19.2882 16.8974 19.2976 16.7956 19.2976 16.6599C19.2976 16.5835 19.2976 16.5241 19.2976 16.4732C19.2976 16.4308 19.2882 16.3799 19.2694 16.3374C19.2694 15.2599 18.9304 14.3011 18.2618 13.4611C17.5838 12.6211 16.8398 12.2053 16.0205 12.2053C15.0506 12.2053 14.2595 12.5787 13.6663 13.3338C13.0165 14.1484 12.6963 15.2853 12.6963 16.7532C12.6963 18.0938 13.0259 19.1204 13.6945 19.8247C14.2878 20.4526 15.0412 20.775 15.9452 20.775C16.5762 20.775 17.0941 20.6053 17.4802 20.2659C18.1205 19.6889 18.7232 18.5944 19.2694 16.9568Z" fill="white"/>
</g>
<defs>
<clipPath id="clip0_1_18">
<rect width="33" height="33" fill="white"/>
</clipPath>
</defs>
</svg>
