<svg width="90" height="30" viewBox="0 0 90 30" fill="none" xmlns="http://www.w3.org/2000/svg">
<g clip-path="url(#clip0_1_18)">
<path d="M14.9481 29.8962C23.2037 29.8962 29.8962 23.2037 29.8962 14.9481C29.8962 6.69249 23.2037 0 14.9481 0C6.69249 0 0 6.69249 0 14.9481C0 23.2037 6.69249 29.8962 14.9481 29.8962Z" fill="#87CA00"/>
<path d="M21.9276 9.77828L19.5291 15.2841C19.5291 16.6128 19.8342 17.6361 20.4529 18.3386C20.6563 18.5753 20.9699 18.7968 21.4021 19.003L20.7072 20.9579C20.0885 20.7517 19.5545 20.3928 19.0969 19.8735C18.8087 19.5375 18.5375 19.1481 18.2917 18.6899C17.7493 19.507 17.1391 20.072 16.4441 20.3698C15.9186 20.6066 15.2745 20.7211 14.5032 20.7211C12.9523 20.7211 11.6555 20.2248 10.63 19.2244C9.51977 18.1629 8.96887 16.7273 8.96887 14.9099C8.96887 14.2761 9.01126 13.7033 9.09602 13.207C9.18076 12.7106 9.33333 12.2372 9.54521 11.7943C9.99441 10.8932 10.5962 10.2059 11.3674 9.73247C12.1386 9.25902 13.0286 9.02228 14.0456 9.02228C14.9864 9.02228 15.8 9.19029 16.4865 9.51865C17.4527 9.97684 18.1646 10.7252 18.6053 11.7637L20.0207 8.96884L21.9276 9.77828ZM17.3425 15.2611C17.3594 15.2077 17.3679 15.1161 17.3679 14.9939C17.3679 14.9252 17.3679 14.8717 17.3679 14.8259C17.3679 14.7877 17.3594 14.7419 17.3425 14.7037C17.3425 13.7339 17.0374 12.871 16.4356 12.115C15.8254 11.359 15.1559 10.9848 14.4185 10.9848C13.5455 10.9848 12.8336 11.3208 12.2997 12.0004C11.7149 12.7336 11.4267 13.7568 11.4267 15.0779C11.4267 16.2844 11.7234 17.2084 12.3251 17.8422C12.8591 18.4073 13.5371 18.6975 14.3507 18.6975C14.9186 18.6975 15.3847 18.5448 15.7322 18.2393C16.3085 17.72 16.8509 16.735 17.3425 15.2611Z" fill="white"/>
<path d="M44.488 21.1266C46.5509 21.1266 47.7617 20.0055 47.941 19.5795H48.0083V20.9024H51.4837V9.2429H48.0083V10.5658H47.941C47.7617 10.1398 46.5509 9.01868 44.488 9.01868C41.8422 9.01868 38.9273 11.0142 38.9273 15.0727C38.9273 19.1311 41.8422 21.1266 44.488 21.1266ZM42.3579 15.0727C42.3579 13.1892 43.7257 12.1129 45.2055 12.1129C46.7302 12.1129 48.098 13.1668 48.098 15.0727C48.098 16.9785 46.7302 18.0324 45.2055 18.0324C43.7257 18.0324 42.3579 16.9561 42.3579 15.0727Z" fill="white"/>
<path d="M53.5892 20.9024H57.0647V4.9827H53.5892V20.9024Z" fill="white"/>
<path d="M64.061 21.037C64.8682 21.037 65.8548 20.88 66.3032 20.4316V17.7858C65.8772 17.9203 65.4736 17.9651 65.2045 17.9651C64.1507 17.9651 63.8144 17.3373 63.8144 16.7543V12.0008H66.2584V9.24292H63.8144V6.26077H60.3389V9.24292H58.6124V12.0008H60.3389V17.3149C60.3389 19.9831 61.9085 21.037 64.061 21.037Z" fill="white"/>
<path d="M67.9098 20.9024H71.3853V16.1041C71.3853 13.9067 72.7082 12.3596 75.0176 12.3596C75.3091 12.3596 75.5558 12.382 75.8248 12.4268V9.13079C75.5333 9.0411 75.2643 9.01868 74.9952 9.01868C72.8875 9.01868 71.7664 10.521 71.3853 12.4044V9.2429H67.9098V20.9024Z" fill="white"/>
<path d="M77.3692 25.1626H80.8446V19.5795H80.9119C81.0912 20.0055 82.302 21.1266 84.3649 21.1266C87.0107 21.1266 89.9256 19.1311 89.9256 15.0727C89.9256 11.0142 87.0107 9.01868 84.3649 9.01868C82.302 9.01868 81.0912 10.1398 80.9119 10.5658H80.8446V9.2429H77.3692V25.1626ZM80.7549 15.0727C80.7549 13.1668 82.1227 12.1129 83.6474 12.1129C85.1272 12.1129 86.495 13.1892 86.495 15.0727C86.495 16.9561 85.1272 18.0324 83.6474 18.0324C82.1227 18.0324 80.7549 16.9785 80.7549 15.0727Z" fill="white"/>
</g>
<defs>
<clipPath id="clip0_1_18">
<rect width="90" height="29.8962" fill="white"/>
</clipPath>
</defs>
</svg>
