<svg xmlns="http://www.w3.org/2000/svg" viewBox="0 0 16 16"><defs><style>.cls-1{fill:#fff;}</style></defs><title>assets</title><g id="Слой_2" data-name="Слой 2"><g id="Слой_1-2" data-name="Слой 1"><path class="cls-1" d="M15.63,1.79h-1V14.27a.36.36,0,0,1-.36.36H1.79v1a.37.37,0,0,0,.37.37H15.63a.36.36,0,0,0,.37-.37V2.16A.37.37,0,0,0,15.63,1.79Z"/><path class="cls-1" d="M13.79,13.42V.37A.37.37,0,0,0,13.42,0H.37A.36.36,0,0,0,0,.37V13.42a.37.37,0,0,0,.37.37H13.42A.38.38,0,0,0,13.79,13.42ZM10,2.71a1.4,1.4,0,1,1-1.4,1.4A1.4,1.4,0,0,1,10,2.71ZM1.2,12.62C1.27,11,2.1,8,3.3,6.83s2-.13,2.72.9a27.9,27.9,0,0,0,1.73,2.32c.81.81,1.49-.41,2.34-.81,1.23-.59,2.24,2.46,2.5,3.39Z"/></g></g></svg>