<svg width="20" height="22" viewBox="0 0 20 22" fill="none" xmlns="http://www.w3.org/2000/svg">
<path d="M10 22C11.5177 22 12.7487 20.7689 12.7487 19.25H7.25132C7.25132 20.7689 8.48237 22 10 22ZM19.2551 15.5671C18.4249 14.6751 16.8716 13.3332 16.8716 8.9375C16.8716 5.59883 14.5307 2.92617 11.3742 2.27047V1.375C11.3742 0.615742 10.7589 0 10 0C9.2412 0 8.62589 0.615742 8.62589 1.375V2.27047C5.4694 2.92617 3.12847 5.59883 3.12847 8.9375C3.12847 13.3332 1.57515 14.6751 0.744991 15.5671C0.487178 15.8443 0.372881 16.1756 0.37503 16.5C0.379756 17.2047 0.932764 17.875 1.75433 17.875H18.2457C19.0673 17.875 19.6207 17.2047 19.625 16.5C19.6272 16.1756 19.5129 15.8439 19.2551 15.5671Z" fill="#8E94AA"/>
</svg>
