<svg xmlns="http://www.w3.org/2000/svg" viewBox="0 0 17.73 10.85"><defs><style>.cls-1{fill:#fff;}</style></defs><title>dashboard</title><g id="Слой_2" data-name="Слой 2"><g id="Слой_1-2" data-name="Слой 1"><path class="cls-1" d="M8.87,0A8.88,8.88,0,0,0,0,8.87a9.67,9.67,0,0,0,.16,1.69.37.37,0,0,0,.36.29H17.21a.36.36,0,0,0,.36-.29A8.88,8.88,0,0,0,8.87,0Zm0,1a.93.93,0,1,1-.66,1.58A.93.93,0,0,1,8.87,1ZM2,9.79a.93.93,0,1,1,.92-.92A.93.93,0,0,1,2,9.79ZM4.63,4.63A.88.88,0,0,1,4,4.91.94.94,0,0,1,3.05,4,.92.92,0,0,1,4,3.05.94.94,0,0,1,4.91,4,.88.88,0,0,1,4.63,4.63Zm5.78,5.09a2.33,2.33,0,1,1-3-3.58c1-.83,6.74-2.57,6.74-2.57S11.4,8.9,10.41,9.72Zm5.37.07a.93.93,0,1,1,.92-.92A.93.93,0,0,1,15.78,9.79Z"/></g></g></svg>