<svg width="16" height="15" viewBox="0 0 16 15" fill="none" xmlns="http://www.w3.org/2000/svg">
<path d="M14.1176 3.33832L14.4502 2.24157C14.4806 2.14152 14.5304 2.04848 14.5965 1.96776C14.6627 1.88704 14.7441 1.82022 14.8359 1.77111C14.9278 1.722 15.0284 1.69157 15.1319 1.68155C15.2355 1.67152 15.34 1.68211 15.4395 1.71271C15.5389 1.7433 15.6315 1.7933 15.7117 1.85985C15.792 1.9264 15.8585 2.0082 15.9073 2.10058C15.9561 2.19295 15.9864 2.2941 15.9964 2.39823C16.0063 2.50237 15.9958 2.60746 15.9654 2.70751L15.0387 5.75403C14.9773 5.95592 14.8387 6.12504 14.6533 6.22421C14.468 6.32338 14.2511 6.34448 14.0502 6.28289L11.0207 5.35101C10.9192 5.32226 10.8243 5.2734 10.7418 5.20728C10.6593 5.14117 10.5907 5.05913 10.5402 4.96601C10.4896 4.87288 10.4581 4.77053 10.4474 4.66497C10.4367 4.55941 10.4471 4.45276 10.478 4.3513C10.5088 4.24984 10.5596 4.1556 10.6272 4.07413C10.6947 3.99265 10.7778 3.92557 10.8716 3.87684C10.9653 3.8281 11.0678 3.79869 11.1729 3.79033C11.2781 3.78197 11.3839 3.79483 11.4841 3.82815L12.8083 4.23515C12.2229 3.34222 11.4063 2.62681 10.4466 2.16597C9.4868 1.70513 8.42019 1.51633 7.36162 1.6199C6.30306 1.72347 5.29264 2.11548 4.4392 2.75371C3.58575 3.39195 2.92162 4.25223 2.51833 5.2419L2.31241 5.74607C2.27495 5.84559 2.21805 5.93656 2.14506 6.0136C2.07206 6.09063 1.98446 6.15218 1.88741 6.19461C1.79037 6.23703 1.68586 6.25947 1.58005 6.2606C1.47424 6.26173 1.36927 6.24152 1.27136 6.20118C1.17344 6.16083 1.08456 6.10117 1.00995 6.0257C0.93535 5.95024 0.87654 5.86051 0.836998 5.7618C0.797455 5.6631 0.777981 5.55743 0.779726 5.45104C0.78147 5.34464 0.804398 5.23967 0.847156 5.14234L1.05308 4.63817C1.56491 3.38234 2.40723 2.29043 3.48958 1.47968C4.57193 0.668917 5.85344 0.169936 7.19651 0.0363072C8.53958 -0.0973212 9.89348 0.139451 11.1128 0.721201C12.3322 1.30295 13.3709 2.2077 14.1176 3.33832ZM1.82373 11.7913L1.56473 12.8355C1.54156 12.9391 1.49804 13.0369 1.43672 13.1233C1.3754 13.2097 1.29753 13.2829 1.20768 13.3386C1.11783 13.3943 1.01782 13.4314 0.913513 13.4477C0.809208 13.464 0.70272 13.4591 0.600305 13.4334C0.497891 13.4077 0.401616 13.3617 0.317141 13.2981C0.232665 13.2344 0.161691 13.1545 0.108392 13.0628C0.0550919 12.9712 0.0205411 12.8698 0.0067698 12.7646C-0.00700151 12.6593 0.000284464 12.5524 0.0281995 12.45L0.79409 9.35968C0.819929 9.25446 0.866851 9.15565 0.931983 9.0693C0.997116 8.98295 1.07909 8.91088 1.17288 8.85749C1.26667 8.8041 1.37032 8.77053 1.47746 8.75882C1.5846 8.74712 1.693 8.75752 1.796 8.7894L4.82788 9.54924C5.03175 9.60036 5.20706 9.73083 5.31527 9.91193C5.42348 10.093 5.45571 10.31 5.40488 10.515C5.35404 10.72 5.22431 10.8963 5.04421 11.0051C4.86411 11.1139 4.6484 11.1463 4.44454 11.0952L3.02998 10.7408C3.63471 11.6717 4.4895 12.4112 5.4952 12.8734C6.5009 13.3357 7.61631 13.5017 8.71205 13.3523C9.80779 13.2029 10.839 12.7441 11.6859 12.0293C12.5329 11.3144 13.161 10.3728 13.4974 9.31348C13.5613 9.11217 13.702 8.94462 13.8887 8.84768C13.9812 8.79968 14.0821 8.77046 14.1858 8.76169C14.2895 8.75292 14.3939 8.76477 14.493 8.79657C14.5921 8.82837 14.684 8.87949 14.7635 8.94701C14.843 9.01453 14.9085 9.09713 14.9562 9.1901C15.0039 9.28307 15.033 9.38458 15.0417 9.48884C15.0504 9.5931 15.0386 9.69806 15.007 9.79774C14.6773 10.8379 14.1249 11.7928 13.3887 12.5952C12.6525 13.3975 11.7504 14.0279 10.7459 14.442C9.18072 15.0868 7.44366 15.1756 5.82152 14.6937C4.19939 14.2118 2.78918 13.188 1.82373 11.7913Z" fill="#76767A"/>
</svg>
