<svg width="17" height="17" viewBox="0 0 17 17" fill="none" xmlns="http://www.w3.org/2000/svg">
<path d="M13.6 11.9H14.45C14.6754 11.9 14.8916 11.8104 15.051 11.651C15.2104 11.4916 15.3 11.2754 15.3 11.05V5.95C15.3 5.72457 15.2104 5.50837 15.051 5.34896C14.8916 5.18955 14.6754 5.1 14.45 5.1H2.55C2.32457 5.1 2.10837 5.18955 1.94896 5.34896C1.78955 5.50837 1.7 5.72457 1.7 5.95V11.05C1.7 11.2754 1.78955 11.4916 1.94896 11.651C2.10837 11.8104 2.32457 11.9 2.55 11.9H3.4V7.65H13.6V11.9ZM3.4 3.4V0H13.6V3.4H14.45C15.1263 3.4 15.7749 3.66866 16.2531 4.14688C16.7313 4.6251 17 5.2737 17 5.95V11.05C17 11.7263 16.7313 12.3749 16.2531 12.8531C15.7749 13.3313 15.1263 13.6 14.45 13.6H13.6V17H3.4V13.6H2.55C1.8737 13.6 1.2251 13.3313 0.746878 12.8531C0.26866 12.3749 0 11.7263 0 11.05L0 5.95C0 5.2737 0.26866 4.6251 0.746878 4.14688C1.2251 3.66866 1.8737 3.4 2.55 3.4H3.4ZM5.1 15.3H11.9V9.35H5.1V15.3ZM5.1 3.4H11.9V1.7H5.1V3.4Z" fill="#76767A"/>
</svg>
