<?xml version="1.0" encoding="utf-8"?>
<!-- Generator: Adobe Illustrator 24.1.2, SVG Export Plug-In . SVG Version: 6.00 Build 0)  -->
<svg version="1.1" id="Слой_1" xmlns="http://www.w3.org/2000/svg" xmlns:xlink="http://www.w3.org/1999/xlink" x="0px" y="0px"
	 viewBox="0 0 2000 2000" style="enable-background:new 0 0 2000 2000;" xml:space="preserve">
<style type="text/css">
	.st0{fill:#1F2124;}
</style>
<g>
	
		<ellipse transform="matrix(0.7071 -0.7071 0.7071 0.7071 -428.389 1005.1385)" class="st0" cx="999.1" cy="1019.7" rx="200.1" ry="200.1"/>
	<path class="st0" d="M1350.1,1142.7c30-30,64.9-53.5,103.8-69.9c40.3-17,83-25.7,127.1-25.7c4.3,0,8.5,0.1,12.8,0.2
		c22.3,0.9,40.8-17.1,40.8-39.4V818.5v-9c0-37.6-15.2-71.6-39.9-96.2c-24.6-24.6-58.6-39.9-96.2-39.9c-35.2,0-77.8-6.2-113.3-25.1
		c0,0,0,0,0,0c-26.3-13.9-48.7-34.8-61.4-65.2c-6.4-10.7-12.7-22.5-18.6-35.7c-25.7-57-101.9-76.6-169.3-76.6H862.4
		c-67.5,0-143.6,19.6-169.3,76.6c-5.9,13.2-12.2,25.1-18.6,35.7c-18.7,30.8-39.3,51.5-61.4,65.2c0,0,0,0,0,0
		c-32.2,20-67.5,25.1-104.2,25.1c-80.2,0-145.2,64.9-145.2,145.1v431c0,90.7,73.6,164.3,164.3,164.3h687.1
		c21.9,0,39.4-17.9,39.4-39.8c0-0.1,0-0.3,0-0.4c0-44.1,8.6-86.8,25.7-127.1C1296.6,1207.6,1320.2,1172.7,1350.1,1142.7z
		 M1240.6,1121.7c-13.2,31.2-32.1,59.2-56.2,83.3c-24.1,24.1-52.1,43-83.3,56.2c-32.3,13.7-66.7,20.6-102,20.6
		c-35.4,0-69.7-6.9-102-20.6c-31.2-13.2-59.2-32.1-83.3-56.2c-24.1-24.1-43-52.1-56.2-83.3c-13.7-32.3-20.6-66.7-20.6-102
		s6.9-69.7,20.6-102c13.2-31.2,32.1-59.2,56.2-83.3c24.1-24.1,52.1-43,83.3-56.2c32.3-13.7,66.7-20.6,102-20.6
		c35.4,0,69.7,6.9,102,20.6c31.2,13.2,59.2,32.1,83.3,56.2c24.1,24.1,43,52.1,56.2,83.3c13.7,32.3,20.6,66.7,20.6,102
		S1254.3,1089.4,1240.6,1121.7z"/>
	<path class="st0" d="M1581,1098.5c-151.9,0-275.1,123.2-275.1,275.1c0,151.9,123.2,275.1,275.1,275.1
		c151.9,0,275.1-123.2,275.1-275.1C1856.1,1221.6,1732.9,1098.5,1581,1098.5z M1687.2,1373.6L1687.2,1373.6
		c-10.4,10.4-27.3,10.4-37.7,0l-41.9-41.9v148.2c0,14.7-11.9,26.6-26.6,26.6s-26.6-11.9-26.6-26.6v-148.2l-41.9,41.9
		c-10.4,10.4-27.3,10.4-37.7,0h0c-10.4-10.4-10.4-27.3,0-37.7l87.4-87.4c0.3-0.3,0.6-0.6,1-0.9c0.2-0.1,0.3-0.3,0.5-0.4
		c0.2-0.1,0.3-0.3,0.5-0.4c0.2-0.2,0.4-0.3,0.6-0.5c0.1-0.1,0.3-0.2,0.4-0.3c0.2-0.2,0.5-0.3,0.7-0.5c0.1-0.1,0.2-0.2,0.4-0.3
		c0.2-0.2,0.5-0.3,0.7-0.5c0.1-0.1,0.2-0.2,0.4-0.2c0.2-0.1,0.5-0.3,0.7-0.4c0.1-0.1,0.3-0.2,0.4-0.2c0.2-0.1,0.5-0.2,0.7-0.4
		c0.2-0.1,0.3-0.2,0.5-0.2c0.2-0.1,0.4-0.2,0.6-0.3c0.2-0.1,0.4-0.2,0.6-0.2c0.2-0.1,0.4-0.2,0.6-0.2c0.2-0.1,0.4-0.2,0.7-0.2
		c0,0,0.1,0,0.1-0.1c0.1,0,0.2-0.1,0.4-0.1c0.2-0.1,0.5-0.2,0.7-0.2c0.2,0,0.3-0.1,0.5-0.1c0.3-0.1,0.5-0.2,0.8-0.2
		c0.1,0,0.3-0.1,0.4-0.1c0.3-0.1,0.6-0.1,0.8-0.2c0.1,0,0.3-0.1,0.4-0.1c0.3,0,0.6-0.1,0.8-0.1c0.2,0,0.3,0,0.5-0.1
		c0.3,0,0.5-0.1,0.8-0.1c0,0,0,0,0.1,0c0.2,0,0.4,0,0.6,0c0.2,0,0.4,0,0.6,0c0.4,0,0.9,0,1.3,0c0.4,0,0.9,0,1.3,0c0.2,0,0.4,0,0.6,0
		c0.2,0,0.4,0,0.6,0c0,0,0,0,0.1,0c0.3,0,0.5,0.1,0.8,0.1c0.2,0,0.3,0,0.5,0.1c0.3,0,0.6,0.1,0.8,0.1c0.1,0,0.3,0,0.4,0.1
		c0.3,0.1,0.6,0.1,0.8,0.2c0.1,0,0.3,0.1,0.4,0.1c0.3,0.1,0.5,0.1,0.8,0.2c0.2,0,0.3,0.1,0.5,0.1c0.2,0.1,0.5,0.2,0.7,0.2
		c0.1,0,0.2,0.1,0.4,0.1c0,0,0.1,0,0.1,0.1c0.2,0.1,0.4,0.2,0.7,0.2c0.2,0.1,0.4,0.1,0.6,0.2c0.2,0.1,0.4,0.2,0.6,0.2
		c0.2,0.1,0.4,0.2,0.6,0.3c0.2,0.1,0.3,0.2,0.5,0.2c0.2,0.1,0.5,0.2,0.7,0.4c0.1,0.1,0.3,0.2,0.4,0.2c0.2,0.1,0.5,0.3,0.7,0.4
		c0.1,0.1,0.2,0.2,0.4,0.2c0.2,0.2,0.5,0.3,0.7,0.5c0.1,0.1,0.2,0.2,0.4,0.3c0.2,0.2,0.5,0.3,0.7,0.5c0.1,0.1,0.3,0.2,0.4,0.3
		c0.2,0.2,0.4,0.3,0.6,0.5c0.2,0.1,0.3,0.3,0.5,0.4c0.2,0.1,0.3,0.3,0.5,0.4c0.3,0.3,0.6,0.6,1,0.9l87.4,87.4
		C1697.6,1346.3,1697.6,1363.2,1687.2,1373.6z"/>
</g>
</svg>
