<?xml version="1.0" encoding="utf-8"?>
<!-- Generator: Adobe Illustrator 24.1.2, SVG Export Plug-In . SVG Version: 6.00 Build 0)  -->
<svg version="1.1" id="Capa_1" xmlns="http://www.w3.org/2000/svg" xmlns:xlink="http://www.w3.org/1999/xlink" x="0px" y="0px"
	 viewBox="0 0 16 16" style="enable-background:new 0 0 16 16;" xml:space="preserve">
<g>
	<path d="M1.3,7.3h7.3C9.4,7.3,10,6.7,10,6V1.3C10,0.6,9.4,0,8.7,0H1.3C0.6,0,0,0.6,0,1.3V6C0,6.7,0.6,7.3,1.3,7.3z"/>
	<path d="M15.8,0.6C15.5,0.2,15.1,0,14.7,0h-2c-0.7,0-1.3,0.6-1.3,1.3V6c0,0.7,0.6,1.3,1.3,1.3h2C15.4,7.3,16,6.7,16,6V1.3
		C16,1.1,15.9,0.8,15.8,0.6z"/>
	<path d="M4.1,8.9C3.9,8.7,3.6,8.7,3.3,8.7h-2C0.6,8.7,0,9.3,0,10v4.7C0,15.4,0.6,16,1.3,16h2c0.7,0,1.3-0.6,1.3-1.3V10
		C4.7,9.6,4.4,9.1,4.1,8.9z"/>
	<path d="M15.4,8.9c-0.2-0.1-0.5-0.2-0.7-0.2H7.3C6.6,8.7,6,9.3,6,10v4.7C6,15.4,6.6,16,7.3,16h7.3c0.7,0,1.3-0.6,1.3-1.3V10
		C16,9.6,15.8,9.1,15.4,8.9z"/>
</g>
</svg>
