<svg width="18" height="18" viewBox="0 0 18 18" fill="none" xmlns="http://www.w3.org/2000/svg">
<path d="M11.625 13.5H10.875C10.6679 13.5 10.5 13.6679 10.5 13.875V16.5H1.50001V1.50001H10.5V4.12502C10.5 4.33213 10.6679 4.50004 10.875 4.50004H11.625C11.8321 4.50004 12 4.33213 12 4.12502V1.50001C12 0.67159 11.3284 0 10.5 0H1.50001C0.67159 0 0 0.67159 0 1.50001V16.5C0 17.3284 0.67159 18 1.50001 18H10.5C11.3284 18 12 17.3284 12 16.5V13.875C12 13.6679 11.8321 13.5 11.625 13.5Z" fill="#8E94AA"/>
<path d="M17.8784 8.72372L13.3784 4.59873C13.2686 4.49875 13.1093 4.47129 12.9741 4.53208C12.8379 4.59177 12.75 4.72653 12.75 4.8752V5.62523C12.75 5.73143 12.795 5.83286 12.8741 5.90391L15.481 8.25024H4.87501C4.66773 8.25024 4.5 8.41797 4.5 8.62525V9.37524C4.5 9.58252 4.66773 9.75025 4.87501 9.75025H15.481L12.8741 12.0966C12.795 12.1676 12.75 12.2691 12.75 12.3753V13.1252C12.75 13.2739 12.8379 13.4087 12.9741 13.4684C13.0225 13.49 13.0741 13.5002 13.125 13.5002C13.217 13.5002 13.3078 13.4662 13.3784 13.4017L17.8784 9.27673C17.9561 9.20568 18 9.10534 18 9.00023C18 8.89511 17.9561 8.79477 17.8784 8.72372Z" fill="#8E94AA"/>
</svg>
