<?xml version="1.0" encoding="utf-8"?>
<!-- Generator: Adobe Illustrator 24.1.2, SVG Export Plug-In . SVG Version: 6.00 Build 0)  -->
<svg version="1.1" id="Outline" xmlns="http://www.w3.org/2000/svg" xmlns:xlink="http://www.w3.org/1999/xlink" x="0px" y="0px"
	 viewBox="0 0 612 612" style="enable-background:new 0 0 612 612;" xml:space="preserve">
<path d="M327.8,130.5H159.9C102,130.5,55,175.4,55,230.8v280.9C55,567.1,102,612,159.9,612h167.9c58,0,104.9-44.9,104.9-100.3V230.8
	C432.8,175.4,385.8,130.5,327.8,130.5z M390.8,511.7c0,33.2-28.2,60.2-63,60.2H159.9c-34.8,0-63-26.9-63-60.2V230.8
	c0-33.2,28.2-60.2,63-60.2h167.9c34.8,0,63,26.9,63,60.2V511.7z"/>
<path d="M431,0H263.1c-58,0-104.9,44.9-104.9,100.3v31.6c7.3,0.1,14.5,0.8,21.8,0.4c6.9-0.3,13.8-0.6,20.6-0.3v-31.3
	c0-33.2,28.2-60.2,63-60.2h166.9c34.8,0,63,26.9,63,60.2v281.3c0,33.2-28.2,60.2-63,60.2H429c2.3,6.2,2.7,13.2,2.7,19.7
	c0,6.9-0.7,14-1.8,20.9h1.2c58,0,104.9-44.9,104.9-100.3V100.3C535.9,44.9,489,0,431,0z"/>
</svg>
