<svg xmlns="http://www.w3.org/2000/svg" viewBox="0 0 17 16.96"><defs><style>.cls-1{fill:#fff;}</style></defs><title>plugins</title><g id="Слой_2" data-name="Слой 2"><g id="Слой_1-2" data-name="Слой 1"><path class="cls-1" d="M4.31,2.67A.43.43,0,0,0,4,2.54a.41.41,0,0,0-.31.14c-2.54,2.8-1.16,8.86-1,9.46L.12,14.7A.41.41,0,0,0,0,15a.42.42,0,0,0,.12.3l1.54,1.53a.41.41,0,0,0,.6,0l2.55-2.55A17.77,17.77,0,0,0,9,14.79c1.65,0,3.91-.26,5.3-1.52a.5.5,0,0,0,.14-.31.46.46,0,0,0-.13-.31Z"/><path class="cls-1" d="M8,5.19a.44.44,0,0,0,.3.12.42.42,0,0,0,.3-.12L11.76,2a1.17,1.17,0,0,0,.34-.83,1.18,1.18,0,0,0-.34-.84A1.16,1.16,0,0,0,10.92,0a1.15,1.15,0,0,0-.84.35L6.92,3.51a.42.42,0,0,0,0,.6Z"/><path class="cls-1" d="M16.65,5.24a1.2,1.2,0,0,0-1.67,0L11.81,8.41a.44.44,0,0,0,0,.6l1.08,1.07a.41.41,0,0,0,.6,0l3.16-3.16A1.18,1.18,0,0,0,16.65,5.24Z"/></g></g></svg>