<svg xmlns="http://www.w3.org/2000/svg" viewBox="0 0 17 16.6"><defs><style>.cls-1{fill:#fff;}</style></defs><title>settings</title><g id="Слой_2" data-name="Слой 2"><g id="Слой_1-2" data-name="Слой 1"><path class="cls-1" d="M16.66,8.49l-1.5-.34a6.68,6.68,0,0,0-.55-2.49l1.16-1a.42.42,0,0,0,.06-.61l-1.59-2A.41.41,0,0,0,14,2a.46.46,0,0,0-.32.09L12.5,3a6.72,6.72,0,0,0-2.3-1.11V.43A.44.44,0,0,0,9.76,0H7.23A.43.43,0,0,0,6.8.43V1.88A6.77,6.77,0,0,0,4.45,3L3.31,2.12A.46.46,0,0,0,3,2a.41.41,0,0,0-.29.16l-1.58,2a.44.44,0,0,0,.07.61l1.18.93a6.56,6.56,0,0,0-.53,2.5l-1.5.35a.38.38,0,0,0-.27.19A.43.43,0,0,0,0,9.08l.57,2.46a.43.43,0,0,0,.52.33l1.55-.36a6.66,6.66,0,0,0,1.57,1.93l-.69,1.45a.42.42,0,0,0,0,.33.45.45,0,0,0,.22.25L6,16.56a.43.43,0,0,0,.19,0l.15,0a.45.45,0,0,0,.24-.23l.71-1.47a6.78,6.78,0,0,0,2.46,0l.71,1.47a.45.45,0,0,0,.58.2l2.27-1.11a.39.39,0,0,0,.22-.25.42.42,0,0,0,0-.33l-.7-1.45a6.67,6.67,0,0,0,1.56-1.94l1.54.34a.43.43,0,0,0,.52-.33L17,9A.44.44,0,0,0,16.66,8.49Zm-5.3-.16A2.86,2.86,0,1,1,8.5,5.47,2.86,2.86,0,0,1,11.36,8.33Z"/></g></g></svg>