<?xml version="1.0" encoding="utf-8"?>
<!-- Generator: Adobe Illustrator 24.1.2, SVG Export Plug-In . SVG Version: 6.00 Build 0)  -->
<svg version="1.1" id="Capa_1" xmlns="http://www.w3.org/2000/svg" xmlns:xlink="http://www.w3.org/1999/xlink" x="0px" y="0px"
	 viewBox="0 0 16 16" style="enable-background:new 0 0 16 16;" xml:space="preserve">
<g>
	<path d="M0.3,12c0.6,1,2,1.3,3,0.7c0,0,0,0,0,0l0.3-0.2C4.3,13,5,13.4,5.8,13.7V14c0,1.1,1,2,2.2,2s2.2-0.9,2.2-2v-0.3
		c0.8-0.2,1.5-0.6,2.1-1.1l0.3,0.2c1.1,0.6,2.4,0.2,3-0.7c0.6-1,0.2-2.2-0.8-2.7l0,0l-0.3-0.2c0.1-0.7,0.1-1.5,0-2.2l0.3-0.2
		C16,6.2,16.3,5,15.7,4c-0.6-1-2-1.3-3-0.7l-0.3,0.2C11.7,3,11,2.6,10.2,2.3V2c0-1.1-1-2-2.2-2S5.8,0.9,5.8,2v0.3
		C5,2.6,4.3,3,3.7,3.4L3.3,3.3C2.3,2.7,0.9,3,0.3,4S0,6.2,1.1,6.7l0,0l0.3,0.2c-0.1,0.7-0.1,1.5,0,2.2L1.1,9.3
		C0.1,9.8-0.3,11,0.3,12z M8,5.3c1.6,0,3,1.2,3,2.7s-1.3,2.7-3,2.7S5,9.5,5,8S6.4,5.3,8,5.3z"/>
</g>
</svg>
