<svg xmlns="http://www.w3.org/2000/svg" viewBox="0 0 15 15"><defs><style>.cls-1{fill:#fff;}</style></defs><title>tables</title><g id="Слой_2" data-name="Слой 2"><g id="Слой_1-2" data-name="Слой 1"><path class="cls-1" d="M0,.2A.2.2,0,0,1,.2,0H3.8A.2.2,0,0,1,4,.2V3.8a.2.2,0,0,1-.2.2H.2A.2.2,0,0,1,0,3.8Z"/><path class="cls-1" d="M6,.2A.2.2,0,0,1,6.2,0h8.6a.2.2,0,0,1,.2.2V3.8a.2.2,0,0,1-.2.2H6.2A.2.2,0,0,1,6,3.8Z"/><path class="cls-1" d="M0,6.2A.2.2,0,0,1,.2,6H3.8a.2.2,0,0,1,.2.2v8.6a.2.2,0,0,1-.2.2H.2a.2.2,0,0,1-.2-.2Z"/><path class="cls-1" d="M6,6.2A.2.2,0,0,1,6.2,6h8.6a.2.2,0,0,1,.2.2v8.6a.2.2,0,0,1-.2.2H6.2a.2.2,0,0,1-.2-.2Z"/></g></g></svg>