<svg xmlns="http://www.w3.org/2000/svg" viewBox="0 0 15 15"><defs><style>.cls-1{fill:#fff;}</style></defs><title>templates</title><g id="Слой_2" data-name="Слой 2"><g id="Слой_1-2" data-name="Слой 1"><path class="cls-1" d="M14.67,0H.33A.31.31,0,0,0,0,.28V3.37a.31.31,0,0,0,.33.28H14.67A.31.31,0,0,0,15,3.37V.28A.31.31,0,0,0,14.67,0Z"/><path class="cls-1" d="M9,5H6a.32.32,0,0,0-.33.32V7.54A.32.32,0,0,0,6,7.86H9a.32.32,0,0,0,.33-.32V5.28A.32.32,0,0,0,9,5Z"/><path class="cls-1" d="M9,9.15H6a.32.32,0,0,0-.33.32v5.21A.32.32,0,0,0,6,15H9a.32.32,0,0,0,.33-.32V9.47A.32.32,0,0,0,9,9.15Z"/><path class="cls-1" d="M14.67,5h-3a.32.32,0,0,0-.33.32V10a.32.32,0,0,0,.33.32h3A.32.32,0,0,0,15,10V5.28A.32.32,0,0,0,14.67,5Z"/><path class="cls-1" d="M3.37,5h-3A.32.32,0,0,0,0,5.28V10a.32.32,0,0,0,.33.32h3A.32.32,0,0,0,3.7,10V5.28A.32.32,0,0,0,3.37,5Z"/><path class="cls-1" d="M3.37,11.55h-3a.33.33,0,0,0-.33.32v2.81A.32.32,0,0,0,.33,15h3a.32.32,0,0,0,.33-.32V11.87A.33.33,0,0,0,3.37,11.55Z"/><path class="cls-1" d="M14.67,11.55h-3a.33.33,0,0,0-.33.32v2.81a.32.32,0,0,0,.33.32h3a.32.32,0,0,0,.33-.32V11.87A.33.33,0,0,0,14.67,11.55Z"/></g></g></svg>