<svg width="10" height="11" viewBox="0 0 10 11" fill="none" xmlns="http://www.w3.org/2000/svg">
<path fill-rule="evenodd" clip-rule="evenodd" d="M5.5834 5.35355L9.22984 1.70711L8.52274 1L4.90064 4.62209L1.75258 1.0243L1 1.68281L4.2119 5.35355L1 9.0243L1.75258 9.68281L4.90064 6.08502L8.52274 9.70711L9.22984 9L5.5834 5.35355Z" fill="#343B4C"/>
<path d="M9.22984 1.70711L9.40662 1.88388L9.5834 1.70711L9.40662 1.53033L9.22984 1.70711ZM5.5834 5.35355L5.40662 5.17678L5.22984 5.35355L5.40662 5.53033L5.5834 5.35355ZM8.52274 1L8.69951 0.823223L8.52274 0.646447L8.34596 0.823223L8.52274 1ZM4.90064 4.62209L4.7125 4.78672L4.88847 4.98782L5.07742 4.79887L4.90064 4.62209ZM1.75258 1.0243L1.94072 0.859675L1.77609 0.671531L1.58795 0.836157L1.75258 1.0243ZM1 1.68281L0.835374 1.49466L0.64723 1.65929L0.811856 1.84743L1 1.68281ZM4.2119 5.35355L4.40005 5.51818L4.5441 5.35355L4.40005 5.18893L4.2119 5.35355ZM1 9.0243L0.811856 8.85968L0.64723 9.04782L0.835374 9.21245L1 9.0243ZM1.75258 9.68281L1.58795 9.87095L1.77609 10.0356L1.94072 9.84743L1.75258 9.68281ZM4.90064 6.08502L5.07742 5.90824L4.88847 5.71928L4.7125 5.92039L4.90064 6.08502ZM8.52274 9.70711L8.34596 9.88388L8.52274 10.0607L8.69951 9.88388L8.52274 9.70711ZM9.22984 9L9.40662 9.17678L9.5834 9L9.40662 8.82322L9.22984 9ZM9.05307 1.53033L5.40662 5.17678L5.76017 5.53033L9.40662 1.88388L9.05307 1.53033ZM8.34596 1.17678L9.05307 1.88388L9.40662 1.53033L8.69951 0.823223L8.34596 1.17678ZM5.07742 4.79887L8.69951 1.17678L8.34596 0.823223L4.72387 4.44532L5.07742 4.79887ZM1.56443 1.18893L4.7125 4.78672L5.08879 4.45747L1.94072 0.859675L1.56443 1.18893ZM1.16463 1.87095L1.9172 1.21245L1.58795 0.836157L0.835374 1.49466L1.16463 1.87095ZM4.40005 5.18893L1.18814 1.51818L0.811856 1.84743L4.02376 5.51818L4.40005 5.18893ZM4.02376 5.18893L0.811856 8.85968L1.18814 9.18893L4.40005 5.51818L4.02376 5.18893ZM0.835374 9.21245L1.58795 9.87095L1.9172 9.49466L1.16463 8.83616L0.835374 9.21245ZM1.94072 9.84743L5.08879 6.24964L4.7125 5.92039L1.56443 9.51818L1.94072 9.84743ZM4.72387 6.26179L8.34596 9.88388L8.69951 9.53033L5.07742 5.90824L4.72387 6.26179ZM8.69951 9.88388L9.40662 9.17678L9.05307 8.82322L8.34596 9.53033L8.69951 9.88388ZM9.40662 8.82322L5.76017 5.17678L5.40662 5.53033L9.05307 9.17678L9.40662 8.82322Z" fill="black"/>
</svg>
