<svg width="31" height="31" viewBox="0 0 31 31" fill="none" xmlns="http://www.w3.org/2000/svg">
<path d="M11.1237 24.3855L6.70858 26.8775C6.4495 27.0236 6.21665 27.2033 6 27.3992C8.57413 29.6451 11.8971 31 15.5276 31C19.1314 31 22.4331 29.6653 25 27.4501C24.7632 27.2432 24.5064 27.0572 24.2216 26.9104L19.4938 24.4646C18.8829 24.1486 18.4971 23.5026 18.4971 22.7959V20.8765C18.63 20.7199 18.7819 20.5189 18.9444 20.2814C19.5887 19.3396 20.0762 18.3036 20.414 17.2168C21.0204 17.0232 21.4671 16.4437 21.4671 15.755V13.7061C21.4671 13.2555 21.2734 12.8528 20.9724 12.5708V9.60904C20.9724 9.60904 21.5604 5 15.5282 5C9.49602 5 10.084 9.60904 10.084 9.60904V12.5708C9.78247 12.8528 9.58927 13.2555 9.58927 13.7061V15.755C9.58927 16.2947 9.86343 16.7696 10.2738 17.044C10.7686 19.2726 12.064 20.8765 12.064 20.8765V22.7486C12.0635 23.4304 11.7027 24.0584 11.1237 24.3855Z" fill="#F7F8F9"/>
<path d="M15.7655 0.00230822C7.20628 -0.143924 0.148542 6.67634 0.00230975 15.2356C-0.08075 20.0887 2.08231 24.4506 5.52637 27.3512C5.75157 27.1547 5.99314 26.9745 6.26163 26.8283L10.8867 24.3055C11.4932 23.9744 11.8711 23.3386 11.8711 22.6472V20.7521C11.8711 20.7521 10.5135 19.1283 9.99581 16.8722C9.56647 16.5944 9.27869 16.1142 9.27869 15.5672V13.4931C9.27869 13.0368 9.48166 12.6292 9.79693 12.3437V9.34537C9.79693 9.34537 9.181 4.67939 15.5 4.67939C21.819 4.67939 21.203 9.34537 21.203 9.34537V12.3437C21.5189 12.6292 21.7213 13.0368 21.7213 13.4931V15.5672C21.7213 16.2645 21.2533 16.8512 20.6181 17.0471C20.2642 18.1474 19.7536 19.1961 19.0786 20.1496C18.9084 20.39 18.7493 20.5935 18.61 20.7521V22.6952C18.61 23.4105 19.0142 24.0651 19.6541 24.3845L24.6067 26.8605C24.9039 27.009 25.1724 27.1968 25.4198 27.4056C28.7597 24.6202 30.9175 20.4555 30.9977 15.7655C31.1451 7.20628 24.3254 0.14854 15.7655 0.00230822Z" fill="#8E94AA"/>
</svg>
