<svg xmlns="http://www.w3.org/2000/svg" viewBox="0 0 18.51 15.26"><defs><style>.cls-1{fill:#fff;}</style></defs><title>users</title><g id="Слой_2" data-name="Слой 2"><g id="Слой_1-2" data-name="Слой 1"><path class="cls-1" d="M13.52,14.52h0a9.31,9.31,0,0,1-4,.74A15.11,15.11,0,0,1,5,14.52H4.91V11.84A3.23,3.23,0,0,1,8.13,8.62h2.26a3.23,3.23,0,0,1,3.22,3.22h0v2.64Z"/><path class="cls-1" d="M6.16,7.63a4.56,4.56,0,0,0-2.7,3.81l0,.85h0A15.49,15.49,0,0,1,0,11.61s0-.14,0,0H0V8.9A3.08,3.08,0,0,1,3.08,5.8H5.42A3.92,3.92,0,0,0,6.16,7.63Z"/><path class="cls-1" d="M11.6,5.29A2.39,2.39,0,0,1,9.26,7.72,2.39,2.39,0,0,1,6.92,5.29,2.39,2.39,0,0,1,9.26,2.85,2.39,2.39,0,0,1,11.6,5.29Z"/><path class="cls-1" d="M5.57,4.46a2.35,2.35,0,0,1-1.2.33A2.38,2.38,0,1,1,6.75,2.41v0A3.33,3.33,0,0,0,5.57,4.46Z"/><path class="cls-1" d="M13.09,5.77h2.34a3.09,3.09,0,0,1,3.07,3.1v2.71h0c0-.14,0,0,0,0a15.57,15.57,0,0,1-3.43.68h0l0-.85a4.56,4.56,0,0,0-2.7-3.81A3.92,3.92,0,0,0,13.09,5.77Z"/><path class="cls-1" d="M11.75,2.43V2.38a2.39,2.39,0,1,1,2.39,2.38,2.32,2.32,0,0,1-1.2-.33A3.39,3.39,0,0,0,11.75,2.43Z"/></g></g></svg>