<svg width="16" height="16" viewBox="0 0 16 16" fill="none" xmlns="http://www.w3.org/2000/svg">
<path d="M2.05987 2L6.92137 8.07575C7.13418 8.34187 7.25003 8.67251 7.24987 9.01325V14L8.74987 12.875V9.0125C8.74988 8.67202 8.86573 8.34167 9.07837 8.07575L13.9399 2H2.06062H2.05987ZM2.05987 0.5H13.9399C14.2225 0.500035 14.4993 0.579893 14.7385 0.730374C14.9777 0.880856 15.1695 1.09584 15.2918 1.35057C15.4142 1.60529 15.4621 1.88939 15.43 2.17015C15.3979 2.45091 15.2872 2.71691 15.1106 2.9375L10.2499 9.0125V12.875C10.2499 13.1079 10.1957 13.3375 10.0915 13.5458C9.98737 13.7541 9.83617 13.9353 9.64987 14.075L8.14987 15.2C7.92702 15.3671 7.66202 15.4689 7.38458 15.4939C7.10714 15.519 6.82821 15.4662 6.57905 15.3416C6.32989 15.2171 6.12035 15.0256 5.9739 14.7886C5.82744 14.5516 5.74987 14.2786 5.74987 14V9.0125L0.889122 2.9375C0.712508 2.71691 0.601797 2.45091 0.569741 2.17015C0.537686 1.88939 0.585591 1.60529 0.707937 1.35057C0.830284 1.09584 1.0221 0.880856 1.26128 0.730374C1.50046 0.579893 1.77729 0.500035 2.05987 0.5V0.5Z" fill="#76767A"/>
</svg>
