<svg width="13" height="13" viewBox="0 0 13 13" fill="none" xmlns="http://www.w3.org/2000/svg">
<path d="M7.42857 6.16615L8.4695 5.12615C8.64451 4.95688 8.879 4.86312 9.12248 4.86506C9.36595 4.867 9.59892 4.96449 9.77121 5.13654C9.94349 5.30858 10.0413 5.54141 10.0436 5.78488C10.0459 6.02835 9.95246 6.26298 9.78343 6.43823L7.1565 9.06515C7.07046 9.15168 6.96817 9.22035 6.85551 9.26721C6.74284 9.31406 6.62202 9.33819 6.5 9.33819C6.37798 9.33819 6.25716 9.31406 6.14449 9.26721C6.03183 9.22035 5.92954 9.15168 5.8435 9.06515L3.21657 6.43823C3.13036 6.35189 3.06199 6.24942 3.01538 6.13667C2.96877 6.02391 2.94483 5.90308 2.94491 5.78107C2.945 5.65906 2.96912 5.53826 3.01589 5.42557C3.06266 5.31288 3.13117 5.21051 3.2175 5.1243C3.30383 5.03808 3.4063 4.96972 3.51906 4.92311C3.63182 4.8765 3.75265 4.85255 3.87466 4.85264C3.99667 4.85272 4.11746 4.87684 4.23015 4.92361C4.34284 4.97038 4.44522 5.03889 4.53143 5.12523L5.57143 6.16615V0.928083C5.57143 0.681811 5.66926 0.445625 5.8434 0.271484C6.01754 0.0973431 6.25373 -0.000488281 6.5 -0.000488281C6.74627 -0.000488281 6.98246 0.0973431 7.1566 0.271484C7.33074 0.445625 7.42857 0.681811 7.42857 0.928083V6.16615ZM0.928571 11.1424H12.0714C12.3177 11.1424 12.5539 11.2402 12.728 11.4143C12.9022 11.5885 13 11.8247 13 12.0709C13 12.3172 12.9022 12.5534 12.728 12.7275C12.5539 12.9017 12.3177 12.9995 12.0714 12.9995H0.928571C0.682299 12.9995 0.446113 12.9017 0.271972 12.7275C0.0978314 12.5534 0 12.3172 0 12.0709C0 11.8247 0.0978314 11.5885 0.271972 11.4143C0.446113 11.2402 0.682299 11.1424 0.928571 11.1424Z" fill="#76767A"/>
</svg>
