<svg id="Capa_1" enable-background="new 0 0 512 512" viewBox="0 0 512 512" width="100%" height="100%" xmlns="http://www.w3.org/2000/svg"><g><path d="m72.005 264.33c0 8.579 6.98 15.559 15.559 15.559h17.836c8.579 0 15.559-6.98 15.559-15.559v-17.43c0-8.579-6.98-15.559-15.559-15.559h-17.836c-8.579 0-15.559 6.98-15.559 15.559zm15.057-17.43c0-.277.225-.502.502-.502h17.836c.276 0 .502.225.502.502v17.43c0 .277-.225.502-.502.502h-17.836c-.276 0-.502-.225-.502-.502z"/><path d="m455.168 0h-398.336c-9.686 0-17.566 7.88-17.566 17.566v69.231c0 4.158 3.37 7.528 7.528 7.528s7.528-3.371 7.528-7.528v-69.231c0-1.384 1.125-2.509 2.509-2.509h80.721v88.665c0 12.454 10.132 22.585 22.585 22.585h192.176c12.453 0 22.585-10.132 22.585-22.585v-88.665h80.269c1.384 0 2.509 1.126 2.509 2.509v476.867c0 1.384-1.125 2.509-2.509 2.509h-80.267v-89.435c0-12.454-10.132-22.585-22.585-22.585h-192.177c-12.453 0-22.585 10.132-22.585 22.585v89.435h-80.721c-1.384 0-2.509-1.126-2.509-2.509v-371.639c0-4.158-3.37-7.528-7.528-7.528s-7.528 3.371-7.528 7.528v371.639c0 9.686 7.88 17.566 17.566 17.566h111.75c4.158 0 7.528-3.371 7.528-7.529s-3.37-7.528-7.528-7.528h-15.973v-89.435c0-4.151 3.377-7.529 7.528-7.529h192.176c4.151 0 7.528 3.377 7.528 7.529v89.435h-154.747c-4.158 0-7.529 3.371-7.529 7.528 0 4.158 3.37 7.529 7.529 7.529h250.073c9.686 0 17.566-7.88 17.566-17.566v-476.867c.001-9.686-7.88-17.566-17.566-17.566zm-95.325 103.722c0 4.151-3.377 7.528-7.528 7.528h-192.177c-4.151 0-7.528-3.378-7.528-7.528v-88.665h207.233z"/><path d="m72.005 330.112c0 8.579 6.98 15.559 15.559 15.559h17.836c8.579 0 15.559-6.98 15.559-15.559v-17.43c0-8.579-6.98-15.559-15.559-15.559h-17.836c-8.579 0-15.559 6.98-15.559 15.559zm15.057-17.431c0-.277.225-.502.502-.502h17.836c.276 0 .502.225.502.502v17.43c0 .277-.225.502-.502.502h-17.836c-.276 0-.502-.225-.502-.502z"/><path d="m72.005 198.549c0 8.579 6.98 15.559 15.559 15.559h17.836c8.579 0 15.559-6.98 15.559-15.559v-17.431c0-8.579-6.98-15.559-15.559-15.559h-17.836c-8.579 0-15.559 6.98-15.559 15.559zm15.057-17.431c0-.277.225-.502.502-.502h17.836c.276 0 .502.225.502.502v17.431c0 .277-.225.502-.502.502h-17.836c-.276 0-.502-.225-.502-.502z"/><path d="m72.005 132.767c0 8.579 6.98 15.559 15.559 15.559h17.836c8.579 0 15.559-6.98 15.559-15.559v-17.43c0-8.579-6.98-15.559-15.559-15.559h-17.836c-8.579 0-15.559 6.98-15.559 15.559zm15.057-17.43c0-.277.225-.502.502-.502h17.836c.276 0 .502.225.502.502v17.43c0 .277-.225.502-.502.502h-17.836c-.276 0-.502-.225-.502-.502z"/><path d="m87.564 82.545h17.836c8.579 0 15.559-6.98 15.559-15.559v-17.431c0-8.579-6.98-15.559-15.559-15.559h-17.836c-8.579 0-15.559 6.98-15.559 15.559v17.431c0 8.579 6.98 15.559 15.559 15.559zm-.502-32.99c0-.277.225-.502.502-.502h17.836c.276 0 .502.225.502.502v17.431c0 .277-.225.502-.502.502h-17.836c-.276 0-.502-.225-.502-.502z"/><path d="m407.052 82.545h17.836c8.579 0 15.559-6.98 15.559-15.559v-17.431c0-8.579-6.98-15.559-15.559-15.559h-17.836c-8.579 0-15.559 6.98-15.559 15.559v17.431c0 8.579 6.979 15.559 15.559 15.559zm-.502-32.99c0-.277.225-.502.502-.502h17.836c.276 0 .502.225.502.502v17.431c0 .277-.225.502-.502.502h-17.836c-.276 0-.502-.225-.502-.502z"/><path d="m391.493 264.33c0 8.579 6.98 15.559 15.559 15.559h17.836c8.579 0 15.559-6.98 15.559-15.559v-17.43c0-8.579-6.98-15.559-15.559-15.559h-17.836c-8.579 0-15.559 6.98-15.559 15.559zm15.057-17.43c0-.277.225-.502.502-.502h17.836c.276 0 .502.225.502.502v17.43c0 .277-.225.502-.502.502h-17.836c-.276 0-.502-.225-.502-.502z"/><path d="m391.493 198.549c0 8.579 6.98 15.559 15.559 15.559h17.836c8.579 0 15.559-6.98 15.559-15.559v-17.431c0-8.579-6.98-15.559-15.559-15.559h-17.836c-8.579 0-15.559 6.98-15.559 15.559zm15.057-17.431c0-.277.225-.502.502-.502h17.836c.276 0 .502.225.502.502v17.431c0 .277-.225.502-.502.502h-17.836c-.276 0-.502-.225-.502-.502z"/><path d="m391.493 330.112c0 8.579 6.98 15.559 15.559 15.559h17.836c8.579 0 15.559-6.98 15.559-15.559v-17.43c0-8.579-6.98-15.559-15.559-15.559h-17.836c-8.579 0-15.559 6.98-15.559 15.559zm15.057-17.431c0-.277.225-.502.502-.502h17.836c.276 0 .502.225.502.502v17.43c0 .277-.225.502-.502.502h-17.836c-.276 0-.502-.225-.502-.502z"/><path d="m391.493 132.767c0 8.579 6.98 15.559 15.559 15.559h17.836c8.579 0 15.559-6.98 15.559-15.559v-17.43c0-8.579-6.98-15.559-15.559-15.559h-17.836c-8.579 0-15.559 6.98-15.559 15.559zm15.057-17.43c0-.277.225-.502.502-.502h17.836c.276 0 .502.225.502.502v17.43c0 .277-.225.502-.502.502h-17.836c-.276 0-.502-.225-.502-.502z"/><path d="m72.005 461.674c0 8.579 6.98 15.559 15.559 15.559h17.836c8.579 0 15.559-6.98 15.559-15.559v-17.43c0-8.579-6.98-15.559-15.559-15.559h-17.836c-8.579 0-15.559 6.98-15.559 15.559zm15.057-17.43c0-.277.225-.502.502-.502h17.836c.276 0 .502.225.502.502v17.43c0 .277-.225.502-.502.502h-17.836c-.276 0-.502-.225-.502-.502z"/><path d="m72.005 395.893c0 8.579 6.98 15.559 15.559 15.559h17.836c8.579 0 15.559-6.98 15.559-15.559v-17.431c0-8.579-6.98-15.559-15.559-15.559h-17.836c-8.579 0-15.559 6.98-15.559 15.559zm15.057-17.431c0-.277.225-.502.502-.502h17.836c.276 0 .502.225.502.502v17.431c0 .277-.225.502-.502.502h-17.836c-.276 0-.502-.225-.502-.502z"/><path d="m391.493 395.893c0 8.579 6.98 15.559 15.559 15.559h17.836c8.579 0 15.559-6.98 15.559-15.559v-17.431c0-8.579-6.98-15.559-15.559-15.559h-17.836c-8.579 0-15.559 6.98-15.559 15.559zm15.057-17.431c0-.277.225-.502.502-.502h17.836c.276 0 .502.225.502.502v17.431c0 .277-.225.502-.502.502h-17.836c-.276 0-.502-.225-.502-.502z"/><path d="m391.493 461.674c0 8.579 6.98 15.559 15.559 15.559h17.836c8.579 0 15.559-6.98 15.559-15.559v-17.43c0-8.579-6.98-15.559-15.559-15.559h-17.836c-8.579 0-15.559 6.98-15.559 15.559zm15.057-17.43c0-.277.225-.502.502-.502h17.836c.276 0 .502.225.502.502v17.43c0 .277-.225.502-.502.502h-17.836c-.276 0-.502-.225-.502-.502z"/><path d="m352.314 340.623h-28.489c-4.158 0-7.528 3.371-7.528 7.529s3.37 7.528 7.528 7.528h28.489c12.453 0 22.585-10.132 22.585-22.585v-154.96c0-12.454-10.132-22.585-22.585-22.585h-192.176c-12.453 0-22.585 10.132-22.585 22.585v154.96c0 12.454 10.132 22.585 22.585 22.585h128.335c4.158 0 7.528-3.371 7.528-7.528 0-4.158-3.37-7.529-7.528-7.529h-128.335c-4.151 0-7.528-3.377-7.528-7.528v-154.96c0-4.151 3.377-7.528 7.528-7.528h192.176c4.151 0 7.528 3.377 7.528 7.528v154.96c.001 4.151-3.376 7.528-7.528 7.528z"/><path d="m240.425 202.567c-5.5-3.176-12.068-3.175-17.566 0-5.499 3.175-8.783 8.862-8.783 15.213v72.424c0 6.351 3.284 12.038 8.783 15.213s12.067 3.175 17.566 0l62.721-36.212c5.5-3.175 8.783-8.862 8.783-15.213s-3.283-12.038-8.783-15.213zm55.192 53.599-62.721 36.212c-1.091.63-2.041.272-2.509 0-.469-.271-1.255-.913-1.255-2.173v-72.425c0-1.261.786-1.903 1.255-2.173.276-.16.721-.35 1.262-.35.376 0 .801.092 1.248.35l62.721 36.212c1.092.63 1.255 1.632 1.255 2.173s-.164 1.543-1.256 2.174z"/></g></svg>