<svg width="57" height="36" viewBox="0 0 57 36" fill="none" xmlns="http://www.w3.org/2000/svg">
<path d="M45.4238 13.2648C44.9699 13.2652 44.5168 13.2926 44.0662 13.3467C42.8432 9.36412 39.1693 6.6424 35.0033 6.63388C33.9663 6.63277 32.9367 6.80506 31.9567 7.14258C29.5306 1.89662 23.7812 -0.954402 18.1373 0.289749C12.4927 1.53427 8.47529 6.53792 8.47936 12.3174C8.47973 13.3163 8.60422 14.3111 8.84839 15.2788C3.4709 16.0999 -0.371226 20.9194 0.028547 26.3447C0.427579 31.7703 4.93401 35.9759 10.3737 36H45.4238C51.7019 36 56.7912 30.9104 56.7912 24.6322C56.7912 18.354 51.7019 13.2648 45.4238 13.2648ZM45.4238 34.1052H10.3737C5.70355 34.1256 1.88736 30.3821 1.81771 25.7122C1.74843 21.0424 5.45087 17.1873 10.12 17.0684C10.423 17.0599 10.7035 16.9068 10.8747 16.6567C11.0466 16.4063 11.0877 16.0895 10.9858 15.8038C9.10552 10.423 11.9024 4.53053 17.2603 2.58502C22.6178 0.639504 28.544 3.3653 30.554 8.69907C30.6459 8.94657 30.8363 9.14404 31.0801 9.24482C31.3242 9.3456 31.5988 9.34004 31.8381 9.22963C32.83 8.76835 33.91 8.52938 35.0033 8.52827C38.6076 8.53494 41.7113 11.0736 42.4312 14.6053C42.5342 15.1188 43.0344 15.4508 43.5472 15.347C44.1648 15.2233 44.7932 15.1603 45.4238 15.1595C50.6556 15.1595 54.8968 19.4011 54.8968 24.6322C54.8968 29.8641 50.6556 34.1052 45.4238 34.1052Z" fill="#343B4C"/>
</svg>
