<svg width="30" height="34" viewBox="0 0 30 34" fill="none" xmlns="http://www.w3.org/2000/svg">
<path d="M29.2804 2.30562C28.9893 2.11013 28.6174 2.07188 28.2901 2.2015C28.2179 2.23125 21.216 5.00225 15.3297 2.227C10.2765 -0.159375 4.71112 0.95625 2.125 1.71063V1.0625C2.125 0.476 1.649 0 1.0625 0C0.476 0 0 0.476 0 1.0625V32.9375C0 33.524 0.476 34 1.0625 34C1.649 34 2.125 33.524 2.125 32.9375V20.9376C4.00775 20.3235 9.588 18.8636 14.4224 21.148C16.7195 22.2339 19.1229 22.5951 21.3053 22.5951C25.5021 22.5951 28.8766 21.2585 29.087 21.1735C29.4865 21.0099 29.75 20.621 29.75 20.1875V3.1875C29.75 2.83475 29.5736 2.50538 29.2804 2.30562ZM27.625 19.4352C25.7316 20.0494 20.1535 21.5029 15.3276 19.2249C10.2765 16.8406 4.71112 17.9563 2.125 18.7106V3.93975C4.00775 3.32562 9.588 1.86575 14.4224 4.15013C19.4692 6.53225 25.0389 5.41875 27.625 4.66225V19.4352Z" fill="#343B4C"/>
</svg>
