<svg width="40" height="30" viewBox="0 0 40 30" fill="none" xmlns="http://www.w3.org/2000/svg">
<path d="M36.6666 0H3.33336C1.49492 0 0 1.49492 0 3.33336V26.6667C0 28.5051 1.49492 30 3.33336 30H36.6667C38.5051 30 40 28.5051 40 26.6666V3.33336C40 1.49492 38.5051 0 36.6666 0ZM3.33336 1.66664H36.6667C36.7895 1.66664 36.8977 1.71141 37.013 1.73672C34.1271 4.37789 24.558 13.132 21.2094 16.1491C20.9473 16.3851 20.525 16.6666 20.0001 16.6666C19.4752 16.6666 19.0528 16.3851 18.7899 16.1483C15.4416 13.1316 5.87195 4.37711 2.98656 1.73688C3.10203 1.71156 3.21047 1.66664 3.33336 1.66664ZM1.66664 26.6666V3.33336C1.66664 3.17008 1.71586 3.02195 1.75992 2.87273C3.96867 4.8943 10.6455 11.0024 14.9749 14.9394C10.6596 18.6462 3.98102 24.978 1.75469 27.101C1.71539 26.9593 1.66664 26.8207 1.66664 26.6666ZM36.6666 28.3334H3.33336C3.20023 28.3334 3.08187 28.287 2.95758 28.2573C5.25812 26.0641 11.9792 19.6959 16.2187 16.0691C16.7713 16.5704 17.2762 17.0275 17.6741 17.3861C18.361 18.0062 19.165 18.3334 20 18.3334C20.835 18.3334 21.639 18.0062 22.325 17.3869C22.7231 17.0281 23.2284 16.5706 23.7813 16.0691C28.021 19.6955 34.7412 26.0633 37.0424 28.2573C36.9181 28.287 36.7999 28.3334 36.6666 28.3334ZM38.3334 26.6666C38.3334 26.8206 38.2846 26.9593 38.2454 27.101C36.0182 24.977 29.3404 18.6458 25.0252 14.9395C29.3547 11.0025 36.0305 4.89492 38.2401 2.87258C38.2841 3.0218 38.3334 3.17 38.3334 3.33328V26.6666Z" fill="#343B4C"/>
</svg>
