<?xml version="1.0" encoding="iso-8859-1"?>
<!-- Generator: Adobe Illustrator 19.0.0, SVG Export Plug-In . SVG Version: 6.00 Build 0)  -->
<svg version="1.1" width="100%" height="100%" id="Capa_1" xmlns="http://www.w3.org/2000/svg" xmlns:xlink="http://www.w3.org/1999/xlink" x="0px" y="0px"
	 viewBox="0 0 512 512" style="enable-background:new 0 0 512 512;" xml:space="preserve">
<g>
	<g>
		<path d="M453.584,237.313c-1.509-18.762-5.638-37.015-12.335-54.508l46.141-36.955l-74.979-93.622L366.55,88.953
			c-15.833-10.666-32.956-18.902-51.119-24.58V6.097H195.48v58.656c-18.992,6.078-36.815,14.964-53.228,26.529L95.911,55.267
			l-73.61,94.711l47.161,36.645c-6.297,17.533-10.046,35.765-11.195,54.458L0,255.025l27.909,116.652l40.993-9.806
			c20.193-20.193,38.423-38.423,62.394-62.394c-31.861-86.471,32.191-178.907,124.789-178.907
			c73.42,0,132.945,59.526,132.945,132.945c0,90.681-88.981,154.709-174.778,126.218c-6.853,6.853-77.854,77.854-88.884,88.884
			l79.098,37.285l26.309-55.817c18.173,2.339,36.305,2.149,54.128-0.45l26.949,55.077l107.746-52.718l-26.879-54.937
			c13.315-12.665,24.73-27.009,34.056-42.832l59.026,13.215L512,250.387L453.584,237.313z"/>
	</g>
</g>
<g>
	<g>
		<path d="M341.29,219.06l-8.417-21.171l-50.649,50.639l-22.751-22.751l50.649-50.639l-21.171-8.427
			c-82.867-32.961-159.477,57.699-115.992,133.505C61.094,412.082,156.695,316.491,22.301,450.885l39.194,39.194
			c78.071-78.071,2.238-2.227,152.058-152.048C290.032,375.121,372.837,298.314,341.29,219.06z"/>
	</g>
</g>
<g>
</g>
<g>
</g>
<g>
</g>
<g>
</g>
<g>
</g>
<g>
</g>
<g>
</g>
<g>
</g>
<g>
</g>
<g>
</g>
<g>
</g>
<g>
</g>
<g>
</g>
<g>
</g>
<g>
</g>
</svg>
