<?xml version="1.0" encoding="iso-8859-1"?>
<!-- Generator: Adobe Illustrator 19.0.0, SVG Export Plug-In . SVG Version: 6.00 Build 0)  -->
<svg version="1.1" id="Layer_1" xmlns="http://www.w3.org/2000/svg" xmlns:xlink="http://www.w3.org/1999/xlink" x="0px" y="0px"
	 viewBox="0 0 512 512" width="100%" height="100%" style="enable-background:new 0 0 512 512;" xml:space="preserve">
<g>
	<g>
		<path d="M423.164,242.535h-83.812c-5.104-44.168-42.727-78.575-88.241-78.575H151.73c-4.247,0-7.691,3.443-7.691,7.691
			s3.444,7.691,7.691,7.691h99.381c40.504,0,73.454,32.951,73.454,73.454v56.684c0,40.502-32.951,73.453-73.454,73.453h-20.97
			v-27.325h20.97c25.435,0,46.129-20.693,46.129-46.128v-56.684c0-25.436-20.694-46.128-46.129-46.128H88.835
			c-25.435,0-46.128,20.693-46.128,46.128v56.684c0,25.436,20.693,46.128,46.128,46.128h83.216v27.325H88.835
			c-40.502,0-73.453-32.951-73.453-73.453v-56.684c0-40.503,32.951-73.454,73.453-73.454h21.732c4.247,0,7.691-3.443,7.691-7.691
			s-3.444-7.691-7.691-7.691H88.835C39.852,163.96,0,203.812,0,252.796v56.684c0,48.985,39.852,88.836,88.836,88.836h83.812
			c5.104,44.168,42.726,78.576,88.241,78.576h162.276c48.985,0,88.836-39.852,88.836-88.836v-56.684
			C512,282.386,472.148,242.535,423.164,242.535z M251.111,398.314c48.986,0.002,88.838-39.849,88.838-88.833v-8.856h83.215
			c16.953,0,30.746,13.793,30.746,30.746v56.684c0,16.953-13.793,30.746-30.746,30.746H260.888
			c-13.157,0-24.701-8.386-28.983-20.486H251.111z M281.859,309.48c-0.001,16.953-13.794,30.746-30.747,30.746h-20.97v-8.856
			c0-16.953,13.793-30.746,30.747-30.746h20.97V309.48z M172.05,331.372v8.856H88.835v-0.002c-16.953,0-30.746-13.793-30.746-30.746
			v-56.684c0-16.953,13.793-30.746,30.746-30.746h162.276c13.356,0,24.745,8.563,28.979,20.485h-19.203
			C211.902,242.536,172.05,282.387,172.05,331.372z M496.618,388.055L496.618,388.055c0,40.503-32.951,73.454-73.455,73.454H260.888
			c-40.503,0-73.454-32.951-73.454-73.454v-56.684c0-40.503,32.951-73.454,73.454-73.454h20.97v27.326h-20.97
			c-25.436,0-46.129,20.693-46.129,46.128v56.684c0,2.946,0.282,5.897,0.837,8.772c4.186,21.646,23.233,37.357,45.292,37.357
			h162.276c25.436,0,46.128-20.693,46.128-46.128v-56.684c0-25.436-20.693-46.128-46.128-46.128h-83.215v-27.326h83.215
			c40.503,0,73.454,32.951,73.454,73.454V388.055z"/>
	</g>
</g>
<g>
	<g>
		<path d="M470.474,103.935h-27.299v-27.3c0-4.249-3.443-7.691-7.691-7.691H405.51c-4.249,0-7.691,3.443-7.691,7.691v27.299h-27.3
			c-4.249,0-7.691,3.443-7.691,7.691v29.974c0,4.248,3.443,7.691,7.691,7.691h27.3v0.001v27.299c0,4.249,3.443,7.691,7.691,7.691
			h29.973c4.249,0,7.691-3.443,7.691-7.691v-27.299h27.299c4.249,0,7.691-3.443,7.691-7.691v-29.973
			C478.165,107.378,474.722,103.935,470.474,103.935z M462.782,133.908h-27.299c-4.249,0-7.691,3.443-7.691,7.691v27.299H413.2
			v-27.299c0-4.249-3.443-7.691-7.691-7.691h-27.3v-14.59h27.3c4.248,0,7.691-3.443,7.691-7.691v-27.3h14.591v27.299
			c0,4.249,3.443,7.691,7.691,7.691h27.299V133.908z"/>
	</g>
</g>
<g>
	<g>
		<path d="M420.496,35.109c-50.456,0-91.505,41.049-91.505,91.504c-0.001,50.456,41.049,91.505,91.505,91.505
			c50.455,0,91.504-41.049,91.504-91.505C512,76.157,470.951,35.109,420.496,35.109z M420.496,202.734
			c-41.974,0-76.123-34.149-76.123-76.123c0-41.974,34.148-76.122,76.123-76.122c41.975,0,76.122,34.148,76.122,76.122
			C496.618,168.585,462.47,202.734,420.496,202.734z"/>
	</g>
</g>
<g>
</g>
<g>
</g>
<g>
</g>
<g>
</g>
<g>
</g>
<g>
</g>
<g>
</g>
<g>
</g>
<g>
</g>
<g>
</g>
<g>
</g>
<g>
</g>
<g>
</g>
<g>
</g>
<g>
</g>
</svg>
