<svg id="Capa_1" enable-background="new 0 0 512 512" viewBox="0 0 512 512" width="100%" height="100%" xmlns="http://www.w3.org/2000/svg"><g><path d="m491.401 261.191h-78.516v-168.108c0-4.145-3.36-7.504-7.504-7.504s-7.504 3.359-7.504 7.504v5.966h-301.671c-4.144 0-7.504 3.359-7.504 7.504s3.36 7.504 7.504 7.504h301.672v250.616c0 1.38-1.122 2.501-2.501 2.501h-373.006c-1.379 0-2.501-1.122-2.501-2.501v-250.617h38.84c4.144 0 7.504-3.359 7.504-7.504s-3.36-7.504-7.504-7.504h-38.84v-81.54c0-1.38 1.122-2.501 2.501-2.501h373.005c1.379 0 2.501 1.122 2.501 2.501v38.238c0 4.145 3.36 7.504 7.504 7.504s7.504-3.359 7.504-7.504v-38.237c0-9.655-7.855-17.509-17.509-17.509h-373.005c-9.654 0-17.508 7.854-17.508 17.509v347.163c0 9.654 7.854 17.509 17.509 17.509h76.744v112.311c0 9.654 7.854 17.509 17.509 17.509h65.259c4.144 0 7.504-3.359 7.504-7.504s-3.36-7.504-7.504-7.504h-65.259c-1.379 0-2.501-1.122-2.501-2.501v-112.312h281.254c6.583 0 12.324-3.656 15.313-9.04l81.44-94.477v215.828c0 1.38-1.122 2.501-2.501 2.501h-270.722c-4.144 0-7.504 3.359-7.504 7.504s3.36 7.504 7.504 7.504h270.721c9.654 0 17.509-7.854 17.509-17.509v-217.563c-.001-8.677-7.06-15.737-15.737-15.737zm-16.959 15.007-61.557 71.411v-71.411z"/><circle cx="60.327" cy="56.747" r="14.632"/><circle cx="104.825" cy="56.747" r="14.632"/><circle cx="149.323" cy="56.747" r="14.632"/><path d="m55.983 149.369c-3.135.977-5.271 3.88-5.271 7.164v74.205c0 4.145 3.36 7.504 7.504 7.504s7.504-3.359 7.504-7.504v-50.134l36.496 52.85c2.277 3.288 6.044 4.693 9.6 3.584 3.644-1.139 6-4.595 5.999-8.877l-.695-71.839c-.04-4.119-3.391-7.431-7.502-7.431-.024 0-.049 0-.074 0-4.144.04-7.47 3.432-7.43 7.576l.495 51.146-38.219-55.344c-1.866-2.702-5.273-3.877-8.407-2.9z"/><path d="m175.14 164.577c4.144 0 7.504-3.359 7.504-7.504s-3.36-7.504-7.504-7.504h-31.04c-4.144 0-7.504 3.359-7.504 7.504v73.665c0 4.145 3.36 7.504 7.504 7.504h31.04c4.144 0 7.504-3.359 7.504-7.504s-3.36-7.504-7.504-7.504h-23.536v-21.824h21.247c4.144 0 7.504-3.359 7.504-7.504s-3.36-7.504-7.504-7.504h-21.247v-21.825z"/><path d="m329.557 223.575c-7.886 0-15.492-3.198-20.347-8.555-2.782-3.071-7.527-3.304-10.599-.522-3.07 2.784-3.304 7.528-.521 10.599 7.652 8.444 19.416 13.485 31.467 13.485 14.561 0 27.253-9.586 29.522-22.297 1.724-9.653-2.749-22.296-20.47-28.833-9.421-3.475-18.171-7.266-20.541-8.307-2.059-1.551-3.053-3.997-2.673-6.644.494-3.44 3.173-6.212 7.168-7.415 11.453-3.448 21.88 4.874 22.11 5.059 3.172 2.639 7.883 2.221 10.541-.941 2.666-3.172 2.256-7.906-.916-10.573-.671-.564-16.666-13.757-36.064-7.916-9.589 2.888-16.369 10.419-17.695 19.653-1.291 8.94 2.87 17.855 10.788 22.205.428.191 10.614 4.724 22.088 8.957 7.783 2.872 11.752 7.287 10.89 12.115-.871 4.882-6.626 9.93-14.748 9.93z"/><path d="m283.965 149.511c-4.066-.812-8.015 1.83-8.824 5.895l-9.996 50.227-15.745-51.108c-.045-.146-.113-.277-.192-.401-.806-2.045-2.496-3.721-4.76-4.423-3.959-1.223-8.162.992-9.387 4.95l-15.781 50.985-9.961-50.358c-.804-4.065-4.752-6.71-8.817-5.905-4.065.804-6.709 4.751-5.905 8.817l14.485 73.227c.877 4.183 4.749 7.215 9.004 7.165 3.906-.026 7.374-2.53 8.631-6.228.022-.064.043-.13.064-.195l15.453-49.925 15.384 49.937c.031.102.064.202.1.302 1.3 3.661 4.771 6.109 8.652 6.109 4.246.021 8.07-3.012 8.948-7.177l14.543-73.07c.807-4.065-1.832-8.015-5.896-8.824z"/><path d="m49.093 272.298c0 4.145 3.36 7.504 7.504 7.504h122.285c4.144 0 7.504-3.359 7.504-7.504s-3.36-7.504-7.504-7.504h-122.285c-4.144 0-7.504 3.359-7.504 7.504z"/><path d="m178.881 299.498h-122.284c-4.144 0-7.504 3.359-7.504 7.504s3.36 7.504 7.504 7.504h122.285c4.144 0 7.504-3.359 7.504-7.504-.001-4.145-3.36-7.504-7.505-7.504z"/><path d="m217.529 272.298c0 4.145 3.36 7.504 7.504 7.504h122.285c4.144 0 7.504-3.359 7.504-7.504s-3.36-7.504-7.504-7.504h-122.285c-4.145 0-7.504 3.359-7.504 7.504z"/><path d="m347.317 299.498h-122.284c-4.144 0-7.504 3.359-7.504 7.504s3.36 7.504 7.504 7.504h122.285c4.144 0 7.504-3.359 7.504-7.504-.001-4.145-3.36-7.504-7.505-7.504z"/><path d="m157.766 418.713h122.285c4.144 0 7.504-3.359 7.504-7.504s-3.36-7.504-7.504-7.504h-122.285c-4.144 0-7.504 3.359-7.504 7.504s3.359 7.504 7.504 7.504z"/><path d="m157.766 453.416h122.285c4.144 0 7.504-3.359 7.504-7.504s-3.36-7.504-7.504-7.504h-122.285c-4.144 0-7.504 3.359-7.504 7.504s3.359 7.504 7.504 7.504z"/><path d="m326.202 418.713h122.285c4.144 0 7.504-3.359 7.504-7.504s-3.36-7.504-7.504-7.504h-122.285c-4.144 0-7.504 3.359-7.504 7.504s3.359 7.504 7.504 7.504z"/><path d="m326.202 453.416h122.285c4.144 0 7.504-3.359 7.504-7.504s-3.36-7.504-7.504-7.504h-122.285c-4.144 0-7.504 3.359-7.504 7.504s3.359 7.504 7.504 7.504z"/></g></svg>