<?xml version="1.0" encoding="iso-8859-1"?>
<!-- Generator: Adobe Illustrator 19.0.0, SVG Export Plug-In . SVG Version: 6.00 Build 0)  -->
<svg version="1.1" id="Layer_1" xmlns="http://www.w3.org/2000/svg" xmlns:xlink="http://www.w3.org/1999/xlink" x="0px" y="0px"
	 viewBox="0 0 511.998 511.998" width="100%" height="100%" style="enable-background:new 0 0 511.998 511.998;" xml:space="preserve">
<g>
	<g>
		<path d="M415.291,445.758c-2.858-3.643-8.132-4.283-11.779-1.423c-42.438,33.289-93.447,50.884-147.511,50.884
			c-63.899,0-123.972-24.883-169.155-70.065C41.662,379.97,16.779,319.897,16.779,255.998c0-67.334,28.619-131.92,78.518-177.202
			c3.432-3.113,3.689-8.42,0.575-11.85c-3.112-3.432-8.419-3.689-11.85-0.575c-26.191,23.766-46.834,52.087-61.359,84.178
			C7.624,183.771,0,219.248,0,255.998c0,68.38,26.629,132.668,74.981,181.02c48.351,48.35,112.638,74.979,181.019,74.979
			c57.856,0,112.446-18.833,157.868-54.461C417.512,454.678,418.151,449.403,415.291,445.758z"/>
	</g>
</g>
<g>
	<g>
		<path d="M123.209,46.464c-2.719-3.689-7.887-4.507-11.607-1.867c-3.781,2.629-4.737,7.819-2.133,11.626
			c1.625,2.375,4.254,3.653,6.931,3.653c1.632,0,3.281-0.475,4.729-1.469c0.082-0.054,0.224-0.154,0.302-0.213
			C125.161,55.447,125.957,50.195,123.209,46.464z"/>
	</g>
</g>
<g>
	<g>
		<path d="M437.017,74.981C388.666,26.629,324.378,0,255.998,0c-51.771,0-101.654,15.389-144.256,44.5
			c-3.826,2.614-4.808,7.835-2.194,11.66c2.615,3.824,7.833,4.805,11.66,2.194c39.802-27.198,86.411-41.575,134.79-41.575
			c63.899,0,123.972,24.883,169.155,70.067s70.067,105.256,70.067,169.154c0,62.639-24.059,121.869-67.745,166.777
			c-3.232,3.32-3.158,8.631,0.163,11.863c1.631,1.586,3.741,2.376,5.849,2.376c2.186,0,4.37-0.849,6.012-2.54
			c46.751-48.058,72.498-111.442,72.498-178.476C511.998,187.619,485.369,123.332,437.017,74.981z"/>
	</g>
</g>
<g>
	<g>
		<path d="M404.964,203.017h-95.982v-95.982c0-4.634-3.755-8.389-8.389-8.389h-89.184c-4.634,0-8.389,3.755-8.389,8.389v95.981
			h-95.982c-4.634,0-8.389,3.755-8.389,8.389v89.184c0,4.634,3.755,8.389,8.389,8.389h95.982v95.982
			c0,4.634,3.755,8.389,8.389,8.389h89.184c4.633,0,8.389-3.755,8.389-8.388v-95.982h95.982c4.634,0,8.389-3.755,8.389-8.389
			v-89.184C413.353,206.772,409.598,203.017,404.964,203.017z M396.574,292.201h-95.982c-4.634,0-8.389,3.755-8.389,8.389v95.982
			h-72.406V300.59c0-4.634-3.755-8.389-8.389-8.389h-95.982v-72.406h95.982c4.634,0,8.389-3.755,8.389-8.389v-95.982h72.406v95.982
			c0,4.634,3.755,8.389,8.389,8.389h95.982V292.201z"/>
	</g>
</g>
<g>
</g>
<g>
</g>
<g>
</g>
<g>
</g>
<g>
</g>
<g>
</g>
<g>
</g>
<g>
</g>
<g>
</g>
<g>
</g>
<g>
</g>
<g>
</g>
<g>
</g>
<g>
</g>
<g>
</g>
</svg>
