<?xml version="1.0" encoding="iso-8859-1"?>
<!-- Generator: Adobe Illustrator 18.1.1, SVG Export Plug-In . SVG Version: 6.00 Build 0)  -->
<svg version="1.1" id="Capa_1" xmlns="http://www.w3.org/2000/svg" xmlns:xlink="http://www.w3.org/1999/xlink" x="0px" y="0px"
	 viewBox="0 0 26.677 26.677" width="100%" height="100%" style="enable-background:new 0 0 26.677 26.677;" xml:space="preserve">
<g>
	<path d="M0.462,21.883C0.192,21.826,0,21.59,0,21.32C0,11.97,11.1,9.98,13.675,9.644V5.355c0-0.211,0.117-0.406,0.306-0.504
		c0.188-0.1,0.413-0.086,0.588,0.027l11.858,7.984c0.156,0.105,0.25,0.281,0.25,0.477c0,0.189-0.094,0.365-0.25,0.473l-11.854,7.983
		c-0.176,0.115-0.402,0.127-0.59,0.029c-0.188-0.1-0.303-0.297-0.303-0.506v-4.617c-1.867,0.014-3.409,0.098-4.696,0.252
		c-6.166,0.729-7.813,4.432-7.883,4.59l0,0c-0.093,0.213-0.302,0.35-0.526,0.35C0.538,21.892,0.497,21.89,0.462,21.883z"/>
	<g>
	</g>
	<g>
	</g>
	<g>
	</g>
	<g>
	</g>
	<g>
	</g>
	<g>
	</g>
	<g>
	</g>
	<g>
	</g>
	<g>
	</g>
	<g>
	</g>
	<g>
	</g>
	<g>
	</g>
	<g>
	</g>
	<g>
	</g>
	<g>
	</g>
</g>
<g>
</g>
<g>
</g>
<g>
</g>
<g>
</g>
<g>
</g>
<g>
</g>
<g>
</g>
<g>
</g>
<g>
</g>
<g>
</g>
<g>
</g>
<g>
</g>
<g>
</g>
<g>
</g>
<g>
</g>
</svg>
