<svg id="Outline" enable-background="new 0 0 512 512" height="512" viewBox="0 0 512 512" width="512" xmlns="http://www.w3.org/2000/svg"><g><path d="m117.47 263.589c.816.272 1.67.411 2.53.411 3.332-.054 6.649-.45 9.9-1.181 8.1-1.84 13.678-5.509 16.566-10.905 2.824-5.277 2.717-11.344-.305-18.1 3.973-4.062 8.506-10.442 8.506-18.411 0-8.345-4.788-15.769-14.229-22.063-6.177-4.343-14.365-4.525-20.729-.461-10.84 6.615-20.9 27.278-18.607 47.493 1.351 11.906 7.165 20.149 16.368 23.217zm10.574-57.048c.495-.353 1.078-.561 1.685-.6.669.049 1.307.297 1.833.713 2.646 1.764 7.085 5.242 7.1 8.726.021 3.844-4.793 8.381-7.134 9.981-3.654 2.46-4.633 7.41-2.189 11.075 3.3 4.948 3.3 7.4 3.016 7.923-.867 1.635-5.992 3.269-10.868 3.585-3-1.721-4.1-5.953-4.492-9.376-1.18-10.422 3.783-27.593 11.049-32.027z"/><path d="m44.471 158.065c-13.584 12.485-20.471 31.977-20.471 57.935v80c0 4.418 3.582 8 8 8s8-3.582 8-8v-80c0-21.3 5.147-36.825 15.3-46.154 4.618-4.169 10.195-7.133 16.234-8.627-19.087 42.113 2.561 110.975 7.885 126.5l-22.77 53.131c-.603 1.406-.79 2.957-.538 4.466l8 48c.068.412.168.819.3 1.215l8 24c1.089 3.266 4.146 5.469 7.589 5.469h40c4.418 0 8-3.582 8-8 0-1.242-.289-2.467-.845-3.578l-15.155-30.311v-42.8l1.439-1.438c9.783 3.897 20.075 6.369 30.561 7.343v6.784c0 4.418 3.582 8 8 8s8-3.582 8-8v-6.861c.743-.074 1.486-.152 2.233-.247 9.393-1.175 18.493-4.052 26.854-8.492l5.256 5.257c3.124 3.124 8.19 3.124 11.314 0s3.124-8.19 0-11.314l-2.993-2.992c6.536-5.398 12.387-11.575 17.423-18.393 39.46 25.857 88.462 18.171 108.9 13.272l7.053 70.57c.059.59.183 1.172.371 1.734l8 24c1.09 3.265 4.147 5.466 7.589 5.466h40c4.418 0 8-3.582 8-8 0-1.242-.289-2.467-.845-3.578l-15.155-30.311v-70.528c2.399-.64 4.686-1.643 6.782-2.973 12.752-8.037 21.216-28.1 25.156-59.618 3.668-29.346 12.287-41.158 18.87-45.9 5.34-3.846 10.056-3.486 11.176-3.332l11.9 3.968c10.268 3.406 21.546-.466 27.556-9.461l2.557-3.835c5.91-8.911 5.234-20.652-1.66-28.826-13.668-16.128-39.207-45.795-56.676-63.264-10.134-10.134-19.47-10.781-25.515-9.54-10.183 2.09-17.6 10.68-22.178 17.882-1.152-1.298-2.694-2.186-4.395-2.53l-40-8c-4.332-.869-8.548 1.939-9.416 6.271-.305 1.523-.161 3.102.416 4.545l7.954 19.884c.063.159.133.313.2.471l-2.027.675h-102.7c-.441 0-.88.037-1.315.109l-46.779 7.8-54.775-7.824c-.374-.055-.752-.084-1.131-.085-18.71 0-33.581 5.287-44.359 15.733-8.565-.075-25.36 1.64-39.17 14.332zm41.295 249.935-5.333-16h18.623l8 16zm74.441-78.979c-12.794 1.635-25.077-.693-35.013-3.924 10.533-11.145 31.827-30.525 54.467-32.948 9.775-1.141 19.622 1.436 27.585 7.22-13.028 17.343-28.818 27.325-47.039 29.652zm197.559 78.979-5.333-16h18.623l8 16zm116.366-236.042c2.296 2.72 2.521 6.629.552 9.594l-2.564 3.848c-2.001 2.997-5.758 4.288-9.178 3.154l-12.41-4.14c-.195-.067-.392-.124-.592-.172-.851-.2-1.715-.341-2.586-.422-2.349-11.153-7.764-22.87-16.7-36.255-3.765-5.648-6.227-17.151-7.1-32.58 16.665 17.329 38.383 42.582 50.578 56.973zm-103.538-52.881 8.462 16.923h-5.391c-9.824.032-18.665-5.954-22.284-15.087l-2.468-6.172zm-43.471 24.923h8.877c.86 0 1.714-.139 2.53-.411l7.6-2.534c7.429 7.053 17.291 10.973 27.535 10.945h18.335c4.418 0 8-3.582 8-8 0-1.242-.289-2.467-.845-3.578l-8.223-16.447c.19-.321.357-.655.5-1 2.151-5.377 8.819-16.9 15.793-18.461.218 24.693 3.61 42.158 10.125 51.931 7.509 11.251 12.195 21.17 14.214 30.118-1.881.857-3.684 1.877-5.387 3.048-10.984 7.526-18.8 21.382-23.323 41.279-5.035 6.045-11.369 9.11-18.854 9.11-6.141 0-6.724-1.194-9.176-6.219-4.391-8.997-10.387-17.781-30.824-17.781-1.811-.019-3.521-.838-4.672-2.237-8.028-8.248-12.498-34.063-12.205-69.763zm-167.123 4.653 22.869 3.266c.812.117 1.637.107 2.446-.028l47.347-7.891h34.887c-3.485 6.526-4.965 12.776-4.382 18.681.755 7.664 4.8 14.3 12.033 19.719 6.1 4.574 9.11 9.454 9.206 14.919.2 11.508-12.2 24.173-17.223 28.287-22.34 15.587-40.076 20.529-52.716 14.687-19.25-8.9-22.471-40.711-22.5-41.017-.205-2.255-1.356-4.317-3.167-5.676l-19.2-14.4c-6.031-4.543-9.584-11.65-9.6-19.2zm175.997 155.349c-17.375 0-24.154-25.61-24.244-25.959-1.107-4.277-5.472-6.847-9.75-5.74-4.235 1.096-6.804 5.39-5.767 9.64 1.78 6.447 4.465 12.608 7.977 18.3 2.025 3.277 4.412 6.317 7.116 9.061-5.995.903-12.035 1.479-18.093 1.723-29.607 1.158-53.877-5.969-72.117-21.17-12.883-10.735-27.422-15.313-43.217-13.608-37.019 4-68.178 41.768-71.893 46.429l-7.669 7.668c-1.498 1.5-2.34 3.534-2.34 5.654v40h-18.556l-5.168-31 23.077-53.846c.805-1.879.86-3.995.155-5.914-5.576-16.034-9.831-32.497-12.722-49.224-5.771-34.121-3.249-60.143 7.293-75.252 7.787-11.164 20.014-16.648 37.365-16.764l16.556 2.367v13.633c.027 12.584 5.949 24.428 16 32l16.507 12.381c1.62 10.391 8.15 39.711 31.182 50.405 5.647 2.598 11.797 3.917 18.012 3.865 14.736 0 31.773-6.717 50.887-20.1.14-.1.276-.2.41-.307 2.431-1.945 23.743-19.623 23.406-41.147-.113-7.292-2.913-17.982-15.605-27.5-3.541-2.656-5.408-5.433-5.71-8.49-.439-4.445 2.277-10.447 7.688-17.11h24.348c-.441 51.935 8.732 72.7 16.741 80.927 4.172 4.483 10.01 7.044 16.134 7.076 12.151 0 13.768 3.312 16.445 8.8 2.955 6.052 7.419 15.2 23.555 15.2 5.22.035 10.394-.965 15.225-2.942-4.048 26.588-10.808 36.783-15.225 40.686v-21.744c0-4.418-3.582-8-8-8s-8 3.582-8 8v104h-17.56l-6.48-64.8c-.519-5.259-3.85-7.462-7.963-7.198z"/></g></svg>