<svg id="Capa_1" enable-background="new 0 0 511.956 511.956" height="512" viewBox="0 0 511.956 511.956" width="512" xmlns="http://www.w3.org/2000/svg"><g id="XMLID_407_"><g id="XMLID_373_"><path id="XMLID_374_" d="m438.57 139.298c1.86-1.86 2.93-4.44 2.93-7.07s-1.07-5.21-2.93-7.07-4.44-2.93-7.07-2.93-5.21 1.07-7.07 2.93-2.93 4.44-2.93 7.07 1.07 5.21 2.93 7.07 4.44 2.93 7.07 2.93 5.21-1.07 7.07-2.93z"/><path id="XMLID_377_" d="m502.508 137.552-37.262-44.228c-.028-.033-.056-.066-.085-.099-4.61-5.329-10.21-9.566-16.402-12.566v-35.968c0-4.417-2.898-8.31-7.128-9.579-4.231-1.267-8.792.388-11.222 4.077l-5.932 9.003h-24.845c-36.726 0-71.792 11.479-101.407 33.197-23.581 17.291-42.461 40.493-54.602 67.097l-9.938 21.778h-32.681c-5.523 0-10 4.477-10 10s4.477 10 10 10h47.448c27.26 0 53.626-9.823 74.241-27.659l57.703-49.924c12.787-11.064 29.141-17.157 46.05-17.157 9.043 0 17.623 3.915 23.55 10.741l37.255 44.219c.028.033.056.066.084.099 5.15 5.953 6.113 14.615 2.398 21.555-4.657 8.698-15.4 12.446-24.486 8.525l-35.324-15.127c-4.688-2.008-10.137-.166-12.645 4.276l-25.709 45.537c-.847 1.5-1.292 3.194-1.292 4.916v24.5c0 20.946-10.561 40.184-28.251 51.462-26.351 16.8-42.083 45.01-42.083 75.462v74.909c0 1.522.348 3.025 1.017 4.393l3.068 6.274h-24.418v-117.338c0-18.837-15.325-34.162-34.162-34.162h-119.143l5.337-14.246c1.938-5.172-.684-10.935-5.856-12.872-5.172-1.939-10.935.684-12.873 5.856l-32.774 87.48c-.42 1.122-.636 2.31-.636 3.508v71.107c0 1.523.348 3.025 1.017 4.394l3.068 6.273h-24.417v-107.589c0-25.054-6.798-50.526-19.661-73.662-4.66-8.381-7.16-17.914-7.231-27.567-.111-15.274 5.825-29.728 16.715-40.697 11.193-11.274 26.113-17.484 42.011-17.484 5.523 0 10-4.477 10-10s-4.477-10-10-10c-21.268 0-41.229 8.308-56.205 23.394-1.831 1.845-3.558 3.763-5.179 5.748-27.793 2.599-49.621 26.05-49.621 54.511v106.883c0 28.333 13.574 55.342 36.311 72.247 1.783 1.325 3.878 1.975 5.963 1.975 2.612 0 5.208-1.02 7.153-3.008l.324-.332c3.422-3.499 6.563-7.204 9.419-11.082v39.422c0 9.506 7.734 17.24 17.24 17.24h71.905c5.987 0 11.455-3.032 14.625-8.111s3.493-11.323.862-16.702l-3.994-8.167v-66.579l24.177-51.94h34.488l-29.339 127.909c-1.32 5.756.033 11.706 3.712 16.324s9.176 7.267 15.081 7.267h30.151c6.696 0 12.811-3.391 16.356-9.072s3.906-12.663.964-18.68l-1.926-3.938 26.137-97.11v111.56c0 9.506 7.734 17.24 17.24 17.24h31.601c5.987 0 11.454-3.032 14.625-8.111 3.17-5.079 3.493-11.323.862-16.702l-3.994-8.168v-72.594c0-23.584 12.274-45.49 32.834-58.598 23.48-14.97 37.499-40.513 37.499-68.327v-21.872l20.011-35.444 27.059 11.587c18.522 7.997 40.494.329 50.018-17.458 7.589-14.17 5.634-31.854-4.856-44.026zm-135.198-39.996-57.703 49.924c-15.118 13.081-33.993 20.912-53.797 22.477l6.009-13.168c10.724-23.5 27.403-43.996 48.233-59.271 26.162-19.184 57.138-29.325 89.58-29.325h11.666l-6.595 10.009c-13.716 3.402-26.555 9.977-37.393 19.354zm-326.021 313.519c-13.462-13.089-21.289-31.299-21.289-50.273v-106.883c0-12.213 6.337-22.967 15.889-29.169-2.421 7.62-3.669 15.638-3.609 23.842.095 12.996 3.467 25.838 9.75 37.14 11.213 20.171 17.141 42.282 17.141 63.944v9.871c-.005 18.902-6.299 36.897-17.882 51.528zm99.454-39.804c-.615 1.322-.934 2.762-.934 4.22v71.107c0 1.523.348 3.025 1.017 4.393l3.068 6.273h-18.863c-.27-1.644-.775-3.265-1.532-4.814l-3.995-8.167v-66.98l19.308-51.538h23.114zm92.443 72.728c-.629 2.335-.39 4.82.673 6.993l3.068 6.273h-28.097l30.163-131.5h26.015z"/><path id="XMLID_501_" d="m156.01 190.268c2.63 0 5.2-1.07 7.07-2.93 1.86-1.86 2.93-4.44 2.93-7.07 0-2.64-1.07-5.21-2.93-7.07-1.87-1.87-4.44-2.93-7.07-2.93-2.64 0-5.21 1.06-7.08 2.93-1.86 1.86-2.92 4.43-2.92 7.07 0 2.63 1.06 5.21 2.92 7.07s4.44 2.93 7.08 2.93z"/></g></g></svg>