<svg id="Layer_1" enable-background="new 0 0 511.999 511.999" height="512" viewBox="0 0 511.999 511.999" width="512" xmlns="http://www.w3.org/2000/svg"><g><g><path d="m256 511.999c-5.172 0-9.979-2.665-12.72-7.05l-73.972-118.353c-70.808-33.477-116.308-105.031-116.308-183.596 0-111.935 91.065-203 203-203s203 91.065 203 203c0 78.565-45.501 150.119-116.309 183.596l-73.972 118.353c-2.741 4.385-7.548 7.05-12.719 7.05z" fill="#fdbf00"/></g><path d="m256 0c-.001 0-.001 0 0 0v511.999c5.172 0 9.979-2.665 12.72-7.05l73.972-118.353c70.807-33.477 116.308-105.031 116.308-183.596 0-111.935-91.066-203-203-203z" fill="#ff8856"/><g><path d="m256.5 344.73c-77.875 0-141.23-63.356-141.23-141.23s63.355-141.23 141.23-141.23 141.23 63.356 141.23 141.23-63.355 141.23-141.23 141.23z" fill="#fff4f4"/></g><g><path d="m256.5 282c-33.115 0-60.056-26.941-60.056-60.056 0-17.118 12.55-41.082 23.077-58.171 5.292-8.591 11.038-16.987 16.18-23.64 6.847-8.861 12.346-15.133 20.799-15.133s13.952 6.272 20.799 15.133c5.142 6.653 10.888 15.049 16.18 23.64 10.527 17.089 23.077 41.054 23.077 58.171-.001 33.115-26.941 60.056-60.056 60.056z" fill="#ff435b"/></g><path d="m256.5 62.269c-.167 0-.333.006-.5.006v282.448c.167.001.333.006.5.006 77.875 0 141.23-63.356 141.23-141.23s-63.355-141.23-141.23-141.23z" fill="#f6efea"/><path d="m293.478 163.772c-5.292-8.591-11.038-16.987-16.18-23.64-6.847-8.861-12.346-15.133-20.799-15.133-.17 0-.332.018-.5.023v156.965c.167.001.333.013.5.013 33.115 0 60.056-26.941 60.056-60.056 0-17.118-12.55-41.082-23.077-58.172z" fill="#cc2e43"/></g></svg>