<svg height="512" viewBox="0 0 60 44" width="512" xmlns="http://www.w3.org/2000/svg"><g id="Page-1" fill="none" fill-rule="evenodd"><g id="009---Pig" fill="rgb(0,0,0)" fill-rule="nonzero" transform="translate(-1)"><path id="Shape" d="m29.108 5.209c-1.3643907-.14588544-2.7358483-.21566018-4.108-.209-2.4693281-.01204522-4.9267698.34248422-7.292 1.052-.3417245.10432155-.6018361.38302651-.6823533.73112942-.0805172.3481029.0307926.71271864.292.9565.2612074.24378135.6326288.32969213.9743533.22537058 2.1759749-.65162359 4.4365819-.97683017 6.708-.965 1.3000399-.00562249 2.5993843.06114752 3.892.2.5492472.05964674 1.0428532-.33725282 1.1025-.8865.0596467-.54924718-.3372528-1.04285324-.8865-1.1025z"/><circle id="Oval" cx="33" cy="7" r="1"/><path id="Shape" d="m60 34h-13.389c.021482-.286787-.0170018-.5749048-.113-.846-.2428619-.7056927-.4104594-1.4350772-.5-2.176 0-.05-.008-.1-.009-.1-.0529798-.9008635.1808806-1.7953444.668-2.555.4820314-.7660866.9116792-1.5639085 1.286-2.388 5.5-.312 8.013-1.942 9.139-3.2.394.083.744.141 1.026.179.0871597.0119317.1750275.0179455.263.018.9481745-.0069781 1.7638752-.6725167 1.961-1.6l.618-3.12c.2183024-1.0601782-.4464586-2.1016371-1.5-2.35-.7097504-.1541931-1.4072767-.3600753-2.087-.616-1.1478304-.4841123-2.1882385-1.1910868-3.061-2.08.3744938-.6493605.5701397-1.3863969.567-2.136.012-1.29 1.319-2.817 1.82-3.3.2761536-.26210927.3795058-.65829462.2665816-1.02190188-.1129241-.36360726-.4225295-.63154194-.7985816-.69109812-.8060354-.10494223-1.6209319-.12404922-2.431-.057.2862095-.41086245.6084857-.79538515.963-1.149.277411-.26209288.3814563-.65922963.2681913-1.02367521-.113265-.36444557-.4240887-.63264635-.8011913-.69132479-.2-.029-4.86-.723-7.9 2.154-.3666134.3441914-.6666278.75302457-.885 1.206-8.943-4.781-15.307-5.456-20.371-5.456-8.663 0-15.93 3.573-19.175 8.807-1.89042635-.57903685-3.07196478-2.45488579-2.77771081-4.40998427.29425396-1.95509849 1.97559519-3.40006698 3.95271081-3.39701573.55228473-.00000002.99999996-.44771527.99999996-1s-.44771523-.99999998-.99999996-1c-2.89882452-.00797828-5.38664207 2.06263783-5.90500668 4.91475027-.5183646 2.85211245 1.0817602 5.66570233 3.79800668 6.67824973-.58655872 1.3953725-.89009911 2.8933596-.893 4.407-.09530425 3.6462069 1.1649465 7.1982113 3.537 9.969.30086054.3344485.47248742.7652887.484 1.215.12484323 2.2853895.38496554 4.5613763.779 6.816h-6.8c-.55228475 0-1 .4477153-1 1s.44771525 1 1 1h58c.5522847 0 1-.4477153 1-1s-.4477153-1-1-1zm-7.132-22.995c.0284825.7047457-.3250465 1.3701448-.925 1.741l-.057.028h-.006c-.8824505.4651543-1.9740452.1791261-2.515-.659-.5722228-.7760844-.4577027-1.8605542.264-2.5 1.2032526-1.03043468 2.7216726-1.62016714 4.305-1.672-.6357071.90037126-1.005129 1.96150616-1.066 3.062zm-.929-5.978c-.2960925.44682212-.5431849.92424353-.737 1.424-1.0721731.34116958-2.0582256.90940322-2.891 1.666-.4-.23933333-.795-.46966667-1.185-.691.1117525-.27642479.2823739-.52519085.5-.729 1.2066007-1.02980591 2.7275176-1.61870716 4.313-1.67zm-36.981 28.973c.0739151-.4107379.0394478-.8336511-.1-1.227-.2945342-.8667577-.501239-1.7609148-.617-2.669-.114-.774-.167-1.47-.191-1.933-.0195984-.3536601.1557281-.6897345.457-.876.331-.21.638-.447.943-.684.293.083.595.155.895.23-.2221984.450643-.3228529.9515029-.292 1.453.038.7.111 1.429.209 2.093.1298873 1.0430425.3709239 2.069208.719 3.061.0484625.1279913.0296964.2717396-.05.383-.0750435.1082396-.1993182.1716911-.331.169zm20.954-6.183c.2138438.2377976.3355145.5442801.343.864.0975142 1.7830657.2978472 3.5590181.6 5.319h-17.896c.0746106-.414355.0401488-.8409923-.1-1.238-.2981694-.8620124-.5052977-1.7528654-.618-2.658-.114-.774-.167-1.47-.191-1.933-.0175652-.3436953.1488573-.6708278.437-.859 2.4280266.4547514 4.8927564.6850562 7.363.688 3.1185601.0081144 6.2251581-.385798 9.243-1.172.312.42.607.745.819.989zm4.088 6.183h-1.118c-.3171304-1.7827984-.5268417-3.5830429-.628-5.391-.0232141-.7876976-.3255259-1.541528-.853-2.127-1.6445431-1.7467172-2.5108319-4.0854441-2.401-6.482 0-.5522847-.4477153-1-1-1s-1 .4477153-1 1c-.0292231 1.7324938.3245344 3.4500615 1.036 5.03-2.6801107.6492355-5.4283786.9748915-8.186.97-2.9298026.0045944-5.8499397-.3360882-8.7-1.015 1.8412341-2.140711 2.8525963-4.8713889 2.85-7.695v-3.29c0-.5522847-.4477153-1-1-1s-1 .4477153-1 1v3.29c.0117615 3.3746602-1.7146604 6.5176624-4.569 8.318-.9156312.576472-1.4445451 1.6059378-1.38 2.686.038.7.111 1.429.209 2.1.1345955 1.0428897.3744867 2.0694631.716 3.064.0488197.1255631.0311538.2672665-.047.377-.0750646.1066839-.1986049.1686418-.329.165h-1.766c-.4114624-2.2776003-.6833028-4.5782247-.814-6.889-.0275588-.9173231-.37980005-1.7950913-.994-2.477-2.04298532-2.4040128-3.12124833-5.4805901-3.026-8.634 0-7.29 8.346-13 19-13 5 0 11.326.684 20.4 5.742.0380129.02834261.0781289.05374939.12.076.556.3 1.124.633 1.693.974-.392761 1.166589-.2071252 2.450446.5 3.458.7251828 1.0861616 1.9440021 1.7394487 3.25 1.742.6145888-.0019775 1.2208704-.142099 1.774-.41l.1-.052c1.0780787 1.1083185 2.3725544 1.9831023 3.803 2.57.7657573.2877096 1.5506652.5216114 2.349.7l-.616 3.123c-1.7149038-.2317264-3.3590821-.8328972-4.819-1.762-.2976022-.1979252-.6781899-.2220466-.9983992-.0632781s-.5313929.4763063-.554.833.1467969.698353.4443992.8962781c.7508803.4951983 1.5528213.9082381 2.392 1.232-1.156.826-3.378 1.75-7.6 1.906-.392.0233333-.8046667.035-1.238.035h-1.315c.1950241-.6493398.3009917-1.3221502.315-2 0-.5522847-.4477153-1-1-1s-1 .4477153-1 1c-.046961.9013698-.2634063 1.7858104-.638 2.607v.008c-.3893903.9194137-.8546645 1.8048061-1.391 2.647-.7202563 1.1161136-1.061792 2.4345675-.974 3.76.008.1.018.2.028.275.1267212.8935969.3229837 1.7759421.587 2.639-.0268402.0405056-.0724127.06461-.121.064zm2.612 0c.0216055-.2846666-.016194-.5707164-.111-.84-.2387797-.6976192-.4063009-1.4176255-.5-2.149l-.014-.139c-.0543311-.8993155.1819661-1.7922664.674-2.547.4716353-.7481467.8967725-1.5246149 1.273-2.325h1.758c-.22.411-.46.831-.732 1.263-.7134171 1.1184828-1.0521147 2.4350955-.967 3.759l.009.1c0 .065.012.129.018.167.1241829.8961789.3198059 1.780997.585 2.646-.0249309.0396612-.0681626.0640964-.115.065z"/><path id="Shape" d="m52 39c0-.5522847-.4477153-1-1-1h-40c-.5522847 0-1 .4477153-1 1s.4477153 1 1 1h40c.5522847 0 1-.4477153 1-1z"/><path id="Shape" d="m20 42c-.5522847 0-1 .4477153-1 1s.4477153 1 1 1h22c.5522847 0 1-.4477153 1-1s-.4477153-1-1-1z"/></g></g></svg>