<?xml version="1.0"?>
<svg xmlns="http://www.w3.org/2000/svg" id="Outline" viewBox="0 0 512 512" width="512" height="512"><circle cx="432" cy="144" r="8"/><path d="M488,88a40.045,40.045,0,0,0-40-40q-.505,0-1.009.013a32.006,32.006,0,0,0-47.6-19.368,36,36,0,0,0-58.625,5.439,40,40,0,0,0-48.595,55.7,40.141,40.141,0,0,0-27.52,30.992,48.137,48.137,0,0,0-33.831,6.361A39.769,39.769,0,0,0,208,120a40.2,40.2,0,0,0-34.129,19.144A32.074,32.074,0,0,0,140,143.017a31.991,31.991,0,0,0-47.823,9.2A40.85,40.85,0,0,0,88,152a40.045,40.045,0,0,0-40,40,40.85,40.85,0,0,0,.214,4.177,31.994,31.994,0,0,0-14.384,38.5,47.987,47.987,0,0,0,4.349,77.783A48.01,48.01,0,0,0,88,383.333V456a7.949,7.949,0,0,0,.851,3.575l-.006,0,16,32A8,8,0,0,0,112,496h32a8,8,0,0,0,7.155-11.578L136,454.112v-62.3a44.015,44.015,0,0,0,22.676-8.829,40.052,40.052,0,0,0,56.366-5.731,36,36,0,0,0,39.8,1.439A47.88,47.88,0,0,0,320,379.709V456a7.949,7.949,0,0,0,.851,3.575l-.006,0,16,32A8,8,0,0,0,344,496h32a8,8,0,0,0,7.155-11.578L368,454.112V391.321A48.07,48.07,0,0,0,408,344q0-.4-.007-.8a40.06,40.06,0,0,0,28.174-56.342,47.979,47.979,0,0,0,8.2-70.176,39.836,39.836,0,0,0,3.613-15.95c7.453,3.153,15.616,5.726,23.211,5.726a24.635,24.635,0,0,0,13.043-3.365C492.042,198.335,496,189.22,496,176c0-25.846-11.877-45.458-22.1-57.551A39.916,39.916,0,0,0,488,88ZM104,448V381.919a44.216,44.216,0,0,0,16,8.39V448Zm12.944,32-8-16h14.112l8,16ZM336,448V385.5a48.237,48.237,0,0,0,16,5.807V448Zm12.944,32-8-16h14.112l8,16Zm72.741-203.069a8,8,0,0,0-2.844,12.2A23.7,23.7,0,0,1,424,304a24.028,24.028,0,0,1-24,24c-.172,0-.338,0-.511,0a8,8,0,0,0-8.132,9.569A32.753,32.753,0,0,1,392,344a32,32,0,0,1-60.8,13.951,8,8,0,0,0-14.4,0A32.189,32.189,0,0,1,288,376a31.734,31.734,0,0,1-25.739-12.989,8,8,0,0,0-12.093-.892,20,20,0,0,1-30.284-2.279,8,8,0,0,0-13.8,1.591,24.025,24.025,0,0,1-40.9,5.479,8,8,0,0,0-12.246-.328,27.989,27.989,0,0,1-43.721-2.31A8,8,0,0,0,98.16,362.35a31.989,31.989,0,0,1-42.114-47.542A8,8,0,0,0,52.849,302a32.005,32.005,0,0,1-4.807-57.738A8,8,0,0,0,50.7,232.877,15.89,15.89,0,0,1,48,224a16.053,16.053,0,0,1,11.5-15.348,8,8,0,0,0,5.447-9.926,24.038,24.038,0,0,1,29.777-29.777,8,8,0,0,0,9.926-5.447,15.987,15.987,0,0,1,28.678-4.336,8,8,0,0,0,13.34,0,15.981,15.981,0,0,1,24.8-2.316,8,8,0,0,0,13.429-3.4,24.018,24.018,0,0,1,39.962-10.542,8,8,0,0,0,10.721.456A32.041,32.041,0,0,1,256,136a31.657,31.657,0,0,1,12.941,2.73,8,8,0,0,0,11.2-8.231A21.775,21.775,0,0,1,280,128a24.028,24.028,0,0,1,24-24c.731,0,1.49.036,2.256.106a8,8,0,0,0,5.993-13.995,24,24,0,0,1,28.44-38.488,8,8,0,0,0,11.977-4.745,20,20,0,0,1,37.6-3.009,8,8,0,0,0,13.445,1.885A16,16,0,0,1,432,56c0,.259-.008.52-.017.779a8,8,0,0,0,10.022,7.98A23.692,23.692,0,0,1,448,64a24,24,0,1,1-21.508,34.666,8,8,0,0,0-13.6-1.189,16,16,0,0,1-19.056,5.289,141.659,141.659,0,0,0-1.976-24.24,8,8,0,0,0-13.809-3.878l-72,80a8,8,0,0,0,4.7,13.255,128.178,128.178,0,0,0,18.39,1.261c17.259,0,42.047-3.331,53.534-20.762q.723-1.1,1.386-2.234A15.946,15.946,0,0,1,392,160a39.441,39.441,0,0,1-1.516,6.834,8,8,0,0,0,9.651,10.475A53.888,53.888,0,0,1,408,176a24.011,24.011,0,0,1,19.846,37.51,8,8,0,0,0,1.322,10.5,32,32,0,0,1-7.483,52.922ZM369.32,139.6c-7.256,11.008-25.782,13.622-40.445,13.61l48.917-54.352C378.127,112.036,376.578,128.585,369.32,139.6Zm21.416,26.629q-.129.276-.234.558A5.605,5.605,0,0,1,390.736,166.227Zm9.431,11.071c.12-.034.239-.07.357-.11C400.465,177.208,400.347,177.25,400.167,177.3ZM480,176c0,4.084-.531,11.259-4.09,13.428-6.669,4.062-24.123-4.292-32.914-8.773A40.025,40.025,0,0,0,408,160a31.892,31.892,0,0,0-17.756-28.667,90.267,90.267,0,0,0,2.5-12.169,31.9,31.9,0,0,0,25.223-4.706,40.026,40.026,0,0,0,41.536,11.847C468.4,136.055,480,153.156,480,176Z"/></svg>
