<svg width="32" height="32" viewBox="0 0 32 32" fill="none" xmlns="http://www.w3.org/2000/svg">
<path d="M15 18H13C12.7348 18 12.4804 18.1054 12.2929 18.2929C12.1054 18.4804 12 18.7348 12 19V26C12 26.2652 12.1054 26.5196 12.2929 26.7071C12.4804 26.8946 12.7348 27 13 27C13.2652 27 13.5196 26.8946 13.7071 26.7071C13.8946 26.5196 14 26.2652 14 26V25H15C15.9283 25 16.8185 24.6313 17.4749 23.9749C18.1313 23.3185 18.5 22.4283 18.5 21.5C18.5 20.5717 18.1313 19.6815 17.4749 19.0251C16.8185 18.3687 15.9283 18 15 18ZM15 23H14V20H15C15.3978 20 15.7794 20.158 16.0607 20.4393C16.342 20.7206 16.5 21.1022 16.5 21.5C16.5 21.8978 16.342 22.2794 16.0607 22.5607C15.7794 22.842 15.3978 23 15 23ZM27 23V25.1087C27 25.3663 26.9006 25.6139 26.7225 25.8C26.3743 26.1748 25.9532 26.4746 25.4851 26.6809C25.0169 26.8873 24.5116 26.9959 24 27C21.7938 27 20 24.9813 20 22.5C20 20.0187 21.7938 18 24 18C24.7353 18.0023 25.4529 18.2253 26.06 18.64C26.2798 18.7892 26.4313 19.0196 26.4813 19.2805C26.5312 19.5414 26.4754 19.8115 26.3263 20.0312C26.1771 20.251 25.9467 20.4026 25.6858 20.4525C25.4249 20.5024 25.1548 20.4467 24.935 20.2975C24.6607 20.1059 24.3346 20.0021 24 20C22.8975 20 22 21.125 22 22.5C22 23.875 22.8975 25 24 25C24.3608 24.9958 24.7109 24.8772 25 24.6612V24C24.7348 24 24.4804 23.8946 24.2929 23.7071C24.1054 23.5196 24 23.2652 24 23C24 22.7348 24.1054 22.4804 24.2929 22.2929C24.4804 22.1054 24.7348 22 25 22H26C26.2652 22 26.5196 22.1054 26.7071 22.2929C26.8946 22.4804 27 22.7348 27 23ZM10 19V23.75C10 24.612 9.65759 25.4386 9.0481 26.0481C8.4386 26.6576 7.61195 27 6.75 27C5.88805 27 5.0614 26.6576 4.4519 26.0481C3.84241 25.4386 3.5 24.612 3.5 23.75C3.5 23.4848 3.60536 23.2304 3.79289 23.0429C3.98043 22.8554 4.23478 22.75 4.5 22.75C4.76522 22.75 5.01957 22.8554 5.20711 23.0429C5.39464 23.2304 5.5 23.4848 5.5 23.75C5.5 24.0815 5.6317 24.3995 5.86612 24.6339C6.10054 24.8683 6.41848 25 6.75 25C7.08152 25 7.39946 24.8683 7.63388 24.6339C7.8683 24.3995 8 24.0815 8 23.75V19C8 18.7348 8.10536 18.4804 8.29289 18.2929C8.48043 18.1054 8.73478 18 9 18C9.26522 18 9.51957 18.1054 9.70711 18.2929C9.89464 18.4804 10 18.7348 10 19ZM26.7075 10.2925L19.7075 3.2925C19.6146 3.19967 19.5042 3.12605 19.3829 3.07586C19.2615 3.02568 19.1314 2.9999 19 3H7C6.46957 3 5.96086 3.21071 5.58579 3.58579C5.21071 3.96086 5 4.46957 5 5V14C5 14.2652 5.10536 14.5196 5.29289 14.7071C5.48043 14.8946 5.73478 15 6 15C6.26522 15 6.51957 14.8946 6.70711 14.7071C6.89464 14.5196 7 14.2652 7 14V5H18V11C18 11.2652 18.1054 11.5196 18.2929 11.7071C18.4804 11.8946 18.7348 12 19 12H25V14C25 14.2652 25.1054 14.5196 25.2929 14.7071C25.4804 14.8946 25.7348 15 26 15C26.2652 15 26.5196 14.8946 26.7071 14.7071C26.8946 14.5196 27 14.2652 27 14V11C27.0001 10.8686 26.9743 10.7385 26.9241 10.6172C26.8739 10.4958 26.8003 10.3854 26.7075 10.2925ZM20 10V6.41375L23.5863 10H20Z" fill="#343330"/>
</svg>
