<svg width="32" height="32" viewBox="0 0 32 32" fill="none" xmlns="http://www.w3.org/2000/svg">
<path d="M23 18H21C20.7348 18 20.4804 18.1054 20.2929 18.2929C20.1054 18.4804 20 18.7348 20 19V26C20 26.2652 20.1054 26.5196 20.2929 26.7071C20.4804 26.8946 20.7348 27 21 27C21.2652 27 21.5196 26.8946 21.7071 26.7071C21.8946 26.5196 22 26.2652 22 26V25H23C23.9283 25 24.8185 24.6313 25.4749 23.9749C26.1313 23.3185 26.5 22.4283 26.5 21.5C26.5 20.5717 26.1313 19.6815 25.4749 19.0251C24.8185 18.3687 23.9283 18 23 18ZM23 23H22V20H23C23.3978 20 23.7794 20.158 24.0607 20.4393C24.342 20.7206 24.5 21.1022 24.5 21.5C24.5 21.8978 24.342 22.2794 24.0607 22.5607C23.7794 22.842 23.3978 23 23 23ZM17 19V26C17 26.2652 16.8946 26.5196 16.7071 26.7071C16.5196 26.8946 16.2652 27 16 27C15.7348 27 15.4804 26.8946 15.2929 26.7071C15.1054 26.5196 15 26.2652 15 26V19C15 18.7348 15.1054 18.4804 15.2929 18.2929C15.4804 18.1054 15.7348 18 16 18C16.2652 18 16.5196 18.1054 16.7071 18.2929C16.8946 18.4804 17 18.7348 17 19ZM12 26C12 26.2652 11.8946 26.5196 11.7071 26.7071C11.5196 26.8946 11.2652 27 11 27H7C6.8237 27.0016 6.65012 26.9565 6.49685 26.8694C6.34357 26.7823 6.21606 26.6562 6.12722 26.5039C6.03839 26.3516 5.99139 26.1786 5.991 26.0023C5.99061 25.826 6.03684 25.6527 6.125 25.5L9.27 20H7C6.73478 20 6.48043 19.8946 6.29289 19.7071C6.10536 19.5196 6 19.2652 6 19C6 18.7348 6.10536 18.4804 6.29289 18.2929C6.48043 18.1054 6.73478 18 7 18H11C11.1763 17.9984 11.3499 18.0435 11.5032 18.1306C11.6564 18.2177 11.7839 18.3438 11.8728 18.4961C11.9616 18.6484 12.0086 18.8214 12.009 18.9977C12.0094 19.174 11.9632 19.3473 11.875 19.5L8.72375 25H11C11.2652 25 11.5196 25.1054 11.7071 25.2929C11.8946 25.4804 12 25.7348 12 26ZM26.7075 10.2925L19.7075 3.2925C19.6146 3.19967 19.5042 3.12605 19.3829 3.07586C19.2615 3.02568 19.1314 2.9999 19 3H7C6.46957 3 5.96086 3.21071 5.58579 3.58579C5.21071 3.96086 5 4.46957 5 5V14C5 14.2652 5.10536 14.5196 5.29289 14.7071C5.48043 14.8946 5.73478 15 6 15C6.26522 15 6.51957 14.8946 6.70711 14.7071C6.89464 14.5196 7 14.2652 7 14V5H18V11C18 11.2652 18.1054 11.5196 18.2929 11.7071C18.4804 11.8946 18.7348 12 19 12H25V14C25 14.2652 25.1054 14.5196 25.2929 14.7071C25.4804 14.8946 25.7348 15 26 15C26.2652 15 26.5196 14.8946 26.7071 14.7071C26.8946 14.5196 27 14.2652 27 14V11C27.0001 10.8686 26.9743 10.7385 26.9241 10.6172C26.8739 10.4958 26.8003 10.3854 26.7075 10.2925ZM20 10V6.41375L23.5863 10H20Z" fill="#343330"/>
</svg>
