<svg width="32" height="32" viewBox="0 0 32 32" fill="none" xmlns="http://www.w3.org/2000/svg">
<path d="M7.5 18H5.5C5.23478 18 4.98043 18.1054 4.79289 18.2929C4.60536 18.4804 4.5 18.7348 4.5 19V26C4.5 26.2652 4.60536 26.5196 4.79289 26.7071C4.98043 26.8946 5.23478 27 5.5 27C5.76522 27 6.01957 26.8946 6.20711 26.7071C6.39464 26.5196 6.5 26.2652 6.5 26V25H7.5C8.42826 25 9.3185 24.6313 9.97487 23.9749C10.6313 23.3185 11 22.4283 11 21.5C11 20.5717 10.6313 19.6815 9.97487 19.0251C9.3185 18.3687 8.42826 18 7.5 18ZM7.5 23H6.5V20H7.5C7.89782 20 8.27936 20.158 8.56066 20.4393C8.84196 20.7206 9 21.1022 9 21.5C9 21.8978 8.84196 22.2794 8.56066 22.5607C8.27936 22.842 7.89782 23 7.5 23ZM28 25.1087C28 25.3663 27.9006 25.6139 27.7225 25.8C27.3743 26.1748 26.9532 26.4746 26.4851 26.6809C26.0169 26.8873 25.5116 26.9959 25 27C22.7938 27 21 24.9813 21 22.5C21 20.0187 22.7938 18 25 18C25.735 18.0025 26.4525 18.2249 27.06 18.6388C27.28 18.7879 27.4317 19.0184 27.4817 19.2794C27.5318 19.5404 27.4761 19.8107 27.3269 20.0306C27.1777 20.2506 26.9472 20.4023 26.6862 20.4523C26.4252 20.5024 26.155 20.4467 25.935 20.2975C25.6607 20.1059 25.3346 20.0021 25 20C23.8975 20 23 21.125 23 22.5C23 23.875 23.8975 25 25 25C25.361 24.996 25.7113 24.8769 26 24.66V24C25.7348 24 25.4804 23.8946 25.2929 23.7071C25.1054 23.5196 25 23.2652 25 23C25 22.7348 25.1054 22.4804 25.2929 22.2929C25.4804 22.1054 25.7348 22 26 22H27C27.2652 22 27.5196 22.1054 27.7071 22.2929C27.8946 22.4804 28 22.7348 28 23V25.1087ZM19.5 19V26C19.5 26.2119 19.4327 26.4184 19.3078 26.5896C19.1829 26.7608 19.0068 26.8879 18.805 26.9525C18.7064 26.9842 18.6035 27.0002 18.5 27C18.3408 27 18.1839 26.962 18.0424 26.8892C17.9009 26.8163 17.7788 26.7108 17.6863 26.5812L14.5 22.125V26C14.5 26.2652 14.3946 26.5196 14.2071 26.7071C14.0196 26.8946 13.7652 27 13.5 27C13.2348 27 12.9804 26.8946 12.7929 26.7071C12.6054 26.5196 12.5 26.2652 12.5 26V19C12.5 18.7881 12.5673 18.5817 12.6922 18.4106C12.817 18.2394 12.9931 18.1123 13.1948 18.0477C13.3966 17.983 13.6137 17.9841 13.8148 18.0508C14.0159 18.1175 14.1906 18.2463 14.3138 18.4188L17.5 22.875V19C17.5 18.7348 17.6054 18.4804 17.7929 18.2929C17.9804 18.1054 18.2348 18 18.5 18C18.7652 18 19.0196 18.1054 19.2071 18.2929C19.3946 18.4804 19.5 18.7348 19.5 19ZM6 15C6.26522 15 6.51957 14.8946 6.70711 14.7071C6.89464 14.5196 7 14.2652 7 14V5H18V11C18 11.2652 18.1054 11.5196 18.2929 11.7071C18.4804 11.8946 18.7348 12 19 12H25V14C25 14.2652 25.1054 14.5196 25.2929 14.7071C25.4804 14.8946 25.7348 15 26 15C26.2652 15 26.5196 14.8946 26.7071 14.7071C26.8946 14.5196 27 14.2652 27 14V11C27.0001 10.8686 26.9743 10.7385 26.9241 10.6172C26.8739 10.4958 26.8003 10.3854 26.7075 10.2925L19.7075 3.2925C19.6146 3.19967 19.5042 3.12605 19.3829 3.07586C19.2615 3.02568 19.1314 2.9999 19 3H7C6.46957 3 5.96086 3.21071 5.58579 3.58579C5.21071 3.96086 5 4.46957 5 5V14C5 14.2652 5.10536 14.5196 5.29289 14.7071C5.48043 14.8946 5.73478 15 6 15ZM20 6.41375L23.5863 10H20V6.41375Z" fill="#343330"/>
</svg>
