<svg width="32" height="32" viewBox="0 0 32 32" fill="none" xmlns="http://www.w3.org/2000/svg">
<path d="M6.5 18H4.5C4.23478 18 3.98043 18.1054 3.79289 18.2929C3.60536 18.4804 3.5 18.7348 3.5 19V26C3.5 26.2652 3.60536 26.5196 3.79289 26.7071C3.98043 26.8946 4.23478 27 4.5 27H6.5C7.69347 27 8.83807 26.5259 9.68198 25.682C10.5259 24.8381 11 23.6935 11 22.5C11 21.3065 10.5259 20.1619 9.68198 19.318C8.83807 18.4741 7.69347 18 6.5 18ZM6.5 25H5.5V20H6.5C7.16304 20 7.79893 20.2634 8.26777 20.7322C8.73661 21.2011 9 21.837 9 22.5C9 23.163 8.73661 23.7989 8.26777 24.2678C7.79893 24.7366 7.16304 25 6.5 25ZM27.6912 24.3862C27.8828 24.5696 27.9938 24.8215 27.9996 25.0867C28.0055 25.3518 27.9058 25.6084 27.7225 25.8C27.3743 26.1748 26.9532 26.4746 26.4851 26.6809C26.0169 26.8873 25.5116 26.9959 25 27C22.7938 27 21 24.9813 21 22.5C21 20.0187 22.7938 18 25 18C25.5116 18.0041 26.0169 18.1127 26.4851 18.3191C26.9532 18.5254 27.3743 18.8252 27.7225 19.2C27.9018 19.3924 27.9982 19.6476 27.9907 19.9105C27.9831 20.1733 27.8724 20.4227 27.6824 20.6045C27.4924 20.7863 27.2384 20.8859 26.9754 20.8818C26.7125 20.8777 26.4617 20.7702 26.2775 20.5825C26.1152 20.4039 25.9182 20.2601 25.6986 20.16C25.479 20.0598 25.2413 20.0054 25 20C23.8975 20 23 21.125 23 22.5C23 23.875 23.8975 25 25 25C25.2413 24.9946 25.479 24.9402 25.6986 24.84C25.9182 24.7399 26.1152 24.5961 26.2775 24.4175C26.4608 24.2259 26.7128 24.115 26.9779 24.1091C27.243 24.1033 27.4996 24.2029 27.6912 24.3862ZM16 18C13.7938 18 12 20.0187 12 22.5C12 24.9813 13.7938 27 16 27C18.2062 27 20 24.9813 20 22.5C20 20.0187 18.2062 18 16 18ZM16 25C14.8975 25 14 23.875 14 22.5C14 21.125 14.8975 20 16 20C17.1025 20 18 21.125 18 22.5C18 23.875 17.1025 25 16 25ZM6 15C6.26522 15 6.51957 14.8946 6.70711 14.7071C6.89464 14.5196 7 14.2652 7 14V5H18V11C18 11.2652 18.1054 11.5196 18.2929 11.7071C18.4804 11.8946 18.7348 12 19 12H25V14C25 14.2652 25.1054 14.5196 25.2929 14.7071C25.4804 14.8946 25.7348 15 26 15C26.2652 15 26.5196 14.8946 26.7071 14.7071C26.8946 14.5196 27 14.2652 27 14V11C27.0001 10.8686 26.9743 10.7385 26.9241 10.6172C26.8739 10.4958 26.8003 10.3854 26.7075 10.2925L19.7075 3.2925C19.6146 3.19967 19.5042 3.12605 19.3829 3.07586C19.2615 3.02568 19.1314 2.9999 19 3H7C6.46957 3 5.96086 3.21071 5.58579 3.58579C5.21071 3.96086 5 4.46957 5 5V14C5 14.2652 5.10536 14.5196 5.29289 14.7071C5.48043 14.8946 5.73478 15 6 15ZM20 6.41375L23.5863 10H20V6.41375Z" fill="#343330"/>
</svg>
