<svg width="32" height="32" viewBox="0 0 32 32" fill="none" xmlns="http://www.w3.org/2000/svg">
<path d="M19.4993 26C19.4993 26.2652 19.394 26.5196 19.2064 26.7071C19.0189 26.8946 18.7645 27 18.4993 27H14.9993C14.7341 27 14.4798 26.8946 14.2922 26.7071C14.1047 26.5196 13.9993 26.2652 13.9993 26V19C13.9993 18.7348 14.1047 18.4804 14.2922 18.2929C14.4798 18.1054 14.7341 18 14.9993 18C15.2645 18 15.5189 18.1054 15.7064 18.2929C15.894 18.4804 15.9993 18.7348 15.9993 19V25H18.4993C18.7645 25 19.0189 25.1054 19.2064 25.2929C19.394 25.4804 19.4993 25.7348 19.4993 26ZM11.5806 18.1863C11.4737 18.1099 11.3529 18.0554 11.2249 18.0258C11.097 17.9961 10.9645 17.992 10.8349 18.0136C10.7054 18.0352 10.5814 18.0821 10.47 18.1516C10.3585 18.2211 10.2619 18.3119 10.1856 18.4188L8.49933 20.78L6.81308 18.4188C6.73947 18.3055 6.64367 18.2083 6.53147 18.1331C6.41928 18.0579 6.293 18.0062 6.16027 17.9811C6.02754 17.956 5.8911 17.9581 5.7592 17.9872C5.62729 18.0163 5.50264 18.0718 5.39278 18.1504C5.28292 18.229 5.19012 18.329 5.11998 18.4445C5.04984 18.5599 5.00382 18.6884 4.98469 18.8221C4.96556 18.9558 4.97372 19.092 5.00867 19.2225C5.04363 19.353 5.10466 19.475 5.18808 19.5812L7.27058 22.5L5.18558 25.4188C5.04526 25.6346 4.99363 25.8963 5.04143 26.1494C5.08924 26.4024 5.2328 26.6272 5.44222 26.777C5.65164 26.9268 5.91077 26.9901 6.16567 26.9536C6.42056 26.9172 6.65157 26.7838 6.81058 26.5812L8.49933 24.22L10.1856 26.5812C10.3446 26.7838 10.5756 26.9172 10.8305 26.9536C11.0854 26.9901 11.3445 26.9268 11.5539 26.777C11.7634 26.6272 11.9069 26.4024 11.9547 26.1494C12.0025 25.8963 11.9509 25.6346 11.8106 25.4188L9.72808 22.5L11.8131 19.5812C11.8894 19.4744 11.9439 19.3535 11.9736 19.2256C12.0032 19.0977 12.0073 18.9651 11.9858 18.8356C11.9642 18.7061 11.9173 18.582 11.8477 18.4706C11.7782 18.3592 11.6874 18.2626 11.5806 18.1863ZM23.9481 21.4137C23.4481 21.2687 22.9306 21.12 22.6418 20.9338C22.4856 20.8313 22.4881 20.8088 22.5018 20.6963C22.5037 20.6054 22.5274 20.5162 22.5709 20.4364C22.6144 20.3566 22.6765 20.2883 22.7518 20.2375C23.3268 19.8475 24.6693 20.0225 25.2293 20.1675C25.4859 20.235 25.7588 20.1977 25.988 20.064C26.2171 19.9303 26.3837 19.711 26.4512 19.4544C26.5187 19.1978 26.4814 18.9249 26.3477 18.6957C26.214 18.4666 25.9947 18.3 25.7381 18.2325C25.4743 18.1638 23.1131 17.58 21.6343 18.5775C21.3225 18.7882 21.0607 19.0647 20.8674 19.3876C20.6741 19.7105 20.554 20.0719 20.5156 20.4463C20.2656 22.4313 22.2218 22.9975 23.3906 23.335C24.8981 23.7712 25.0306 23.95 24.9881 24.2838C24.9493 24.585 24.8306 24.7 24.7193 24.775C24.1443 25.1575 22.8243 24.9688 22.2768 24.8188C22.0207 24.7476 21.7469 24.7812 21.5155 24.912C21.4009 24.9768 21.3002 25.0635 21.2192 25.1671C21.1381 25.2708 21.0783 25.3894 21.0431 25.5163C21.0079 25.6431 20.998 25.7756 21.014 25.9062C21.03 26.0368 21.0715 26.163 21.1363 26.2776C21.2671 26.509 21.4845 26.6789 21.7406 26.75C22.3604 26.9133 22.9984 26.9973 23.6393 27C24.3668 27 25.1768 26.875 25.8256 26.4425C26.1456 26.2297 26.4145 25.9485 26.6129 25.6194C26.8113 25.2902 26.9343 24.9211 26.9731 24.5387C27.2493 22.375 25.1843 21.7712 23.9481 21.4137ZM4.99933 14V5C4.99933 4.46957 5.21004 3.96086 5.58512 3.58579C5.96019 3.21071 6.4689 3 6.99933 3H18.9993C19.1307 2.9999 19.2608 3.02568 19.3822 3.07586C19.5036 3.12605 19.6139 3.19967 19.7068 3.2925L26.7068 10.2925C26.7997 10.3854 26.8733 10.4958 26.9235 10.6172C26.9737 10.7385 26.9994 10.8686 26.9993 11V14C26.9993 14.2652 26.894 14.5196 26.7064 14.7071C26.5189 14.8946 26.2645 15 25.9993 15C25.7341 15 25.4798 14.8946 25.2922 14.7071C25.1047 14.5196 24.9993 14.2652 24.9993 14V12H18.9993C18.7341 12 18.4798 11.8946 18.2922 11.7071C18.1047 11.5196 17.9993 11.2652 17.9993 11V5H6.99933V14C6.99933 14.2652 6.89397 14.5196 6.70644 14.7071C6.5189 14.8946 6.26455 15 5.99933 15C5.73411 15 5.47976 14.8946 5.29222 14.7071C5.10469 14.5196 4.99933 14.2652 4.99933 14ZM19.9993 10H23.5843L19.9993 6.41375V10Z" fill="#343330"/>
</svg>
