<svg width="32" height="32" viewBox="0 0 32 32" fill="none" xmlns="http://www.w3.org/2000/svg">
<path d="M6 22.5C6 23.875 6.8975 25 8 25C8.24131 24.9946 8.47899 24.9402 8.69861 24.84C8.91822 24.7399 9.11518 24.5961 9.2775 24.4175C9.46174 24.2298 9.71248 24.1223 9.97543 24.1182C10.2384 24.1141 10.4924 24.2137 10.6824 24.3955C10.8724 24.5773 10.9831 24.8267 10.9907 25.0895C10.9982 25.3524 10.9018 25.6076 10.7225 25.8C10.3743 26.1748 9.95322 26.4746 9.48508 26.6809C9.01694 26.8873 8.51159 26.9959 8 27C5.79375 27 4 24.9813 4 22.5C4 20.0187 5.79375 18 8 18C8.51159 18.0041 9.01694 18.1127 9.48508 18.3191C9.95322 18.5254 10.3743 18.8252 10.7225 19.2C10.9018 19.3924 10.9982 19.6476 10.9907 19.9105C10.9831 20.1733 10.8724 20.4227 10.6824 20.6045C10.4924 20.7863 10.2384 20.8859 9.97543 20.8818C9.71248 20.8777 9.46174 20.7702 9.2775 20.5825C9.11518 20.4039 8.91822 20.2601 8.69861 20.16C8.47899 20.0598 8.24131 20.0054 8 20C6.8975 20 6 21.125 6 22.5ZM15.95 21.4137C15.45 21.2687 14.9325 21.12 14.6438 20.9338C14.4875 20.8325 14.49 20.8088 14.5037 20.6963C14.5059 20.6054 14.5298 20.5164 14.5732 20.4366C14.6167 20.3568 14.6786 20.2886 14.7537 20.2375C15.3287 19.8475 16.6713 20.0212 17.2313 20.1675C17.4878 20.2363 17.7613 20.2003 17.9913 20.0675C18.2214 19.9347 18.3893 19.716 18.4581 19.4594C18.5269 19.2028 18.491 18.9294 18.3582 18.6993C18.2254 18.4692 18.0066 18.3013 17.75 18.2325C17.485 18.1638 15.125 17.58 13.645 18.5775C13.332 18.7875 13.069 19.0638 12.8746 19.3867C12.6802 19.7097 12.5592 20.0714 12.52 20.4463C12.27 22.4313 14.2263 22.9975 15.395 23.335C16.9025 23.7712 17.035 23.95 16.9925 24.2838C16.9538 24.585 16.835 24.7012 16.725 24.775C16.15 25.1575 14.8288 24.97 14.2812 24.82C14.0253 24.7486 13.7515 24.7817 13.52 24.9122C13.2885 25.0426 13.1183 25.2597 13.0469 25.5156C12.9754 25.7716 13.0086 26.0454 13.139 26.2769C13.2695 26.5084 13.4866 26.6786 13.7425 26.75C14.3625 26.9124 15.0004 26.9963 15.6412 27C16.3687 27 17.1787 26.875 17.8275 26.4425C18.1477 26.2297 18.4168 25.9486 18.6154 25.6195C18.814 25.2903 18.9373 24.9212 18.9762 24.5387C19.25 22.375 17.1862 21.7712 15.95 21.4137ZM26.3363 18.0588C26.2126 18.0145 26.0814 17.995 25.9501 18.0014C25.8189 18.0079 25.6903 18.0401 25.5715 18.0963C25.4528 18.1525 25.3462 18.2315 25.2581 18.3289C25.1699 18.4262 25.1017 18.54 25.0575 18.6637L23.5 23.0263L21.9412 18.6637C21.8521 18.4139 21.6673 18.2098 21.4276 18.0962C21.1879 17.9827 20.9129 17.9689 20.6631 18.0581C20.4133 18.1473 20.2092 18.3321 20.0956 18.5718C19.982 18.8115 19.9683 19.0864 20.0575 19.3363L22.5575 26.3363C22.6268 26.5306 22.7545 26.6987 22.9232 26.8176C23.0918 26.9365 23.2931 27.0003 23.4994 27.0003C23.7057 27.0003 23.907 26.9365 24.0756 26.8176C24.2442 26.6987 24.3719 26.5306 24.4412 26.3363L26.9412 19.3363C27.0303 19.0866 27.0166 18.8118 26.9031 18.5723C26.7897 18.3327 26.5858 18.148 26.3363 18.0588ZM27 11V14C27 14.2652 26.8946 14.5196 26.7071 14.7071C26.5196 14.8946 26.2652 15 26 15C25.7348 15 25.4804 14.8946 25.2929 14.7071C25.1054 14.5196 25 14.2652 25 14V12H19C18.7348 12 18.4804 11.8946 18.2929 11.7071C18.1054 11.5196 18 11.2652 18 11V5H7V14C7 14.2652 6.89464 14.5196 6.70711 14.7071C6.51957 14.8946 6.26522 15 6 15C5.73478 15 5.48043 14.8946 5.29289 14.7071C5.10536 14.5196 5 14.2652 5 14V5C5 4.46957 5.21071 3.96086 5.58579 3.58579C5.96086 3.21071 6.46957 3 7 3H19C19.1314 2.9999 19.2615 3.02568 19.3829 3.07586C19.5042 3.12605 19.6146 3.19967 19.7075 3.2925L26.7075 10.2925C26.8003 10.3854 26.8739 10.4958 26.9241 10.6172C26.9743 10.7385 27.0001 10.8686 27 11ZM23.5863 10L20 6.41375V10H23.5863Z" fill="#343330"/>
</svg>
