<svg width="32" height="32" viewBox="0 0 32 32" fill="none" xmlns="http://www.w3.org/2000/svg">
<path d="M28 19C28 19.2652 27.8946 19.5196 27.7071 19.7071C27.5196 19.8946 27.2652 20 27 20H25.5V26C25.5 26.2652 25.3946 26.5196 25.2071 26.7071C25.0196 26.8946 24.7652 27 24.5 27C24.2348 27 23.9804 26.8946 23.7929 26.7071C23.6054 26.5196 23.5 26.2652 23.5 26V20H22C21.7348 20 21.4804 19.8946 21.2929 19.7071C21.1054 19.5196 21 19.2652 21 19C21 18.7348 21.1054 18.4804 21.2929 18.2929C21.4804 18.1054 21.7348 18 22 18H27C27.2652 18 27.5196 18.1054 27.7071 18.2929C27.8946 18.4804 28 18.7348 28 19ZM11.5 21.5C11.5 22.4283 11.1313 23.3185 10.4749 23.9749C9.8185 24.6313 8.92826 25 8 25H7V26C7 26.2652 6.89464 26.5196 6.70711 26.7071C6.51957 26.8946 6.26522 27 6 27C5.73478 27 5.48043 26.8946 5.29289 26.7071C5.10536 26.5196 5 26.2652 5 26V19C5 18.7348 5.10536 18.4804 5.29289 18.2929C5.48043 18.1054 5.73478 18 6 18H8C8.92826 18 9.8185 18.3687 10.4749 19.0251C11.1313 19.6815 11.5 20.5717 11.5 21.5ZM9.5 21.5C9.5 21.1022 9.34196 20.7206 9.06066 20.4393C8.77936 20.158 8.39782 20 8 20H7V23H8C8.39782 23 8.77936 22.842 9.06066 22.5607C9.34196 22.2794 9.5 21.8978 9.5 21.5ZM20 21.5C20 22.4283 19.6313 23.3185 18.9749 23.9749C18.3185 24.6313 17.4283 25 16.5 25H15.5V26C15.5 26.2652 15.3946 26.5196 15.2071 26.7071C15.0196 26.8946 14.7652 27 14.5 27C14.2348 27 13.9804 26.8946 13.7929 26.7071C13.6054 26.5196 13.5 26.2652 13.5 26V19C13.5 18.7348 13.6054 18.4804 13.7929 18.2929C13.9804 18.1054 14.2348 18 14.5 18H16.5C17.4283 18 18.3185 18.3687 18.9749 19.0251C19.6313 19.6815 20 20.5717 20 21.5ZM18 21.5C18 21.1022 17.842 20.7206 17.5607 20.4393C17.2794 20.158 16.8978 20 16.5 20H15.5V23H16.5C16.8978 23 17.2794 22.842 17.5607 22.5607C17.842 22.2794 18 21.8978 18 21.5ZM5 14V5C5 4.46957 5.21071 3.96086 5.58579 3.58579C5.96086 3.21071 6.46957 3 7 3H19C19.1314 2.9999 19.2615 3.02568 19.3829 3.07586C19.5042 3.12605 19.6146 3.19967 19.7075 3.2925L26.7075 10.2925C26.8003 10.3854 26.8739 10.4958 26.9241 10.6172C26.9743 10.7385 27.0001 10.8686 27 11V14C27 14.2652 26.8946 14.5196 26.7071 14.7071C26.5196 14.8946 26.2652 15 26 15C25.7348 15 25.4804 14.8946 25.2929 14.7071C25.1054 14.5196 25 14.2652 25 14V12H19C18.7348 12 18.4804 11.8946 18.2929 11.7071C18.1054 11.5196 18 11.2652 18 11V5H7V14C7 14.2652 6.89464 14.5196 6.70711 14.7071C6.51957 14.8946 6.26522 15 6 15C5.73478 15 5.48043 14.8946 5.29289 14.7071C5.10536 14.5196 5 14.2652 5 14ZM20 10H23.5863L20 6.41375V10Z" fill="#343330"/>
</svg>
