<svg width="32" height="32" viewBox="0 0 32 32" fill="none" xmlns="http://www.w3.org/2000/svg">
<path d="M10.977 24.5387C10.938 24.9212 10.8148 25.2903 10.6162 25.6195C10.4175 25.9486 10.1484 26.2297 9.82823 26.4425C9.17948 26.875 8.37448 27 7.64198 27C7.00319 26.996 6.36741 26.912 5.74948 26.75C5.49708 26.6761 5.28397 26.5057 5.15629 26.2758C5.02862 26.0458 4.99666 25.7749 5.06735 25.5215C5.13804 25.2682 5.30568 25.0529 5.53395 24.9223C5.76223 24.7917 6.03277 24.7563 6.28698 24.8237C6.83448 24.9737 8.15573 25.1612 8.73073 24.7787C8.84073 24.705 8.95948 24.5888 8.99823 24.2875C9.04198 23.9538 8.90948 23.775 7.40073 23.3388C6.23198 23.0013 4.27573 22.435 4.52573 20.45C4.56464 20.075 4.6856 19.7132 4.88003 19.3903C5.07445 19.0673 5.33758 18.7911 5.65073 18.5812C7.13073 17.5812 9.49073 18.1675 9.75448 18.2362C10.0111 18.3037 10.2304 18.4703 10.3641 18.6995C10.4978 18.9286 10.5351 19.2015 10.4676 19.4581C10.4001 19.7147 10.2335 19.934 10.0044 20.0677C9.77522 20.2015 9.50233 20.2387 9.24573 20.1712C8.68573 20.025 7.34198 19.8512 6.76698 20.2412C6.69161 20.2921 6.62956 20.3603 6.58605 20.4401C6.54254 20.52 6.51886 20.6091 6.51698 20.7C6.50323 20.8125 6.49948 20.8362 6.65698 20.9375C6.94573 21.1238 7.46198 21.2725 7.96323 21.4175C9.18698 21.7712 11.257 22.375 10.977 24.5387ZM26.9995 11V14C26.9995 14.2652 26.8941 14.5196 26.7066 14.7071C26.5191 14.8946 26.2647 15 25.9995 15C25.7343 15 25.4799 14.8946 25.2924 14.7071C25.1048 14.5196 24.9995 14.2652 24.9995 14V12H18.9995C18.7343 12 18.4799 11.8946 18.2924 11.7071C18.1048 11.5196 17.9995 11.2652 17.9995 11V5H6.99948V14C6.99948 14.2652 6.89412 14.5196 6.70659 14.7071C6.51905 14.8946 6.2647 15 5.99948 15C5.73426 15 5.47991 14.8946 5.29237 14.7071C5.10484 14.5196 4.99948 14.2652 4.99948 14V5C4.99948 4.46957 5.21019 3.96086 5.58527 3.58579C5.96034 3.21071 6.46905 3 6.99948 3H18.9995C19.2643 3.00012 19.5183 3.10532 19.7057 3.2925L26.7057 10.2925C26.7988 10.3853 26.8726 10.4956 26.923 10.617C26.9734 10.7384 26.9994 10.8686 26.9995 11ZM19.9995 10H23.5857L19.9995 6.41375V10ZM18.337 18.0588C18.2133 18.0145 18.0821 17.995 17.9509 18.0014C17.8197 18.0079 17.691 18.0401 17.5723 18.0963C17.4535 18.1525 17.347 18.2315 17.2588 18.3289C17.1706 18.4262 17.1024 18.54 17.0582 18.6637L15.4995 23.0263L13.9407 18.6637C13.8996 18.5362 13.8334 18.4183 13.7458 18.3169C13.6583 18.2155 13.5512 18.1327 13.4311 18.0735C13.3109 18.0143 13.1801 17.9798 13.0463 17.9721C12.9126 17.9644 12.7787 17.9837 12.6525 18.0287C12.5264 18.0738 12.4105 18.1438 12.3119 18.2345C12.2133 18.3251 12.134 18.4347 12.0785 18.5567C12.0231 18.6786 11.9928 18.8105 11.9893 18.9444C11.9858 19.0783 12.0092 19.2116 12.0582 19.3363L14.5582 26.3363C14.6275 26.5306 14.7553 26.6987 14.9239 26.8176C15.0925 26.9365 15.2938 27.0003 15.5001 27.0003C15.7064 27.0003 15.9077 26.9365 16.0763 26.8176C16.2449 26.6987 16.3727 26.5306 16.442 26.3363L18.942 19.3363C19.031 19.0866 19.0173 18.8118 18.9039 18.5723C18.7904 18.3327 18.5865 18.148 18.337 18.0588ZM25.9995 22H24.9995C24.7343 22 24.4799 22.1054 24.2924 22.2929C24.1048 22.4804 23.9995 22.7348 23.9995 23C23.9995 23.2652 24.1048 23.5196 24.2924 23.7071C24.4799 23.8946 24.7343 24 24.9995 24V24.6612C24.7115 24.8792 24.3606 24.998 23.9995 25C22.897 25 21.9995 23.875 21.9995 22.5C21.9995 21.125 22.897 20 23.9995 20C24.3362 20.0013 24.6644 20.1051 24.9407 20.2975C25.1606 20.4407 25.4279 20.4917 25.685 20.4396C25.9421 20.3875 26.1685 20.2364 26.3153 20.019C26.462 19.8015 26.5175 19.5351 26.4696 19.2771C26.4218 19.0192 26.2745 18.7903 26.0595 18.64C25.4524 18.2253 24.7347 18.0023 23.9995 18C21.7945 18 19.9995 20.0187 19.9995 22.5C19.9995 24.9813 21.7945 27 23.9995 27C24.5111 26.9959 25.0164 26.8873 25.4846 26.6809C25.9527 26.4746 26.3738 26.1748 26.722 25.8C26.9 25.6139 26.9995 25.3663 26.9995 25.1087V23C26.9995 22.7348 26.8941 22.4804 26.7066 22.2929C26.5191 22.1054 26.2647 22 25.9995 22Z" fill="#343330"/>
</svg>
