<svg width="32" height="32" viewBox="0 0 32 32" fill="none" xmlns="http://www.w3.org/2000/svg">
<path d="M28 19C28 19.2652 27.8946 19.5196 27.7071 19.7071C27.5196 19.8946 27.2652 20 27 20H24V22H26C26.2652 22 26.5196 22.1054 26.7071 22.2929C26.8946 22.4804 27 22.7348 27 23C27 23.2652 26.8946 23.5196 26.7071 23.7071C26.5196 23.8946 26.2652 24 26 24H24V26C24 26.2652 23.8946 26.5196 23.7071 26.7071C23.5196 26.8946 23.2652 27 23 27C22.7348 27 22.4804 26.8946 22.2929 26.7071C22.1054 26.5196 22 26.2652 22 26V19C22 18.7348 22.1054 18.4804 22.2929 18.2929C22.4804 18.1054 22.7348 18 23 18H27C27.2652 18 27.5196 18.1054 27.7071 18.2929C27.8946 18.4804 28 18.7348 28 19ZM11.5 21.5C11.5 22.4283 11.1313 23.3185 10.4749 23.9749C9.8185 24.6313 8.92826 25 8 25H7V26C7 26.2652 6.89464 26.5196 6.70711 26.7071C6.51957 26.8946 6.26522 27 6 27C5.73478 27 5.48043 26.8946 5.29289 26.7071C5.10536 26.5196 5 26.2652 5 26V19C5 18.7348 5.10536 18.4804 5.29289 18.2929C5.48043 18.1054 5.73478 18 6 18H8C8.92826 18 9.8185 18.3687 10.4749 19.0251C11.1313 19.6815 11.5 20.5717 11.5 21.5ZM9.5 21.5C9.5 21.1022 9.34196 20.7206 9.06066 20.4393C8.77936 20.158 8.39782 20 8 20H7V23H8C8.39782 23 8.77936 22.842 9.06066 22.5607C9.34196 22.2794 9.5 21.8978 9.5 21.5ZM20.5 22.5C20.5 23.6935 20.0259 24.8381 19.182 25.682C18.3381 26.5259 17.1935 27 16 27H14C13.7348 27 13.4804 26.8946 13.2929 26.7071C13.1054 26.5196 13 26.2652 13 26V19C13 18.7348 13.1054 18.4804 13.2929 18.2929C13.4804 18.1054 13.7348 18 14 18H16C17.1935 18 18.3381 18.4741 19.182 19.318C20.0259 20.1619 20.5 21.3065 20.5 22.5ZM18.5 22.5C18.5 21.837 18.2366 21.2011 17.7678 20.7322C17.2989 20.2634 16.663 20 16 20H15V25H16C16.663 25 17.2989 24.7366 17.7678 24.2678C18.2366 23.7989 18.5 23.163 18.5 22.5ZM5 14V5C5 4.46957 5.21071 3.96086 5.58579 3.58579C5.96086 3.21071 6.46957 3 7 3H19C19.1314 2.9999 19.2615 3.02568 19.3829 3.07586C19.5042 3.12605 19.6146 3.19967 19.7075 3.2925L26.7075 10.2925C26.8003 10.3854 26.8739 10.4958 26.9241 10.6172C26.9743 10.7385 27.0001 10.8686 27 11V14C27 14.2652 26.8946 14.5196 26.7071 14.7071C26.5196 14.8946 26.2652 15 26 15C25.7348 15 25.4804 14.8946 25.2929 14.7071C25.1054 14.5196 25 14.2652 25 14V12H19C18.7348 12 18.4804 11.8946 18.2929 11.7071C18.1054 11.5196 18 11.2652 18 11V5H7V14C7 14.2652 6.89464 14.5196 6.70711 14.7071C6.51957 14.8946 6.26522 15 6 15C5.73478 15 5.48043 14.8946 5.29289 14.7071C5.10536 14.5196 5 14.2652 5 14ZM20 10H23.5863L20 6.41375V10Z" fill="#343330"/>
</svg>
